<svg xmlns="http://www.w3.org/2000/svg" width="481" height="150" viewBox="30 30 481 150"><g><g><g><g><g><g><path fill="#ec1d24" d="M46.22 45.553l4.986 107.231.417 14.226-5.403 3.491 9.107 3.008 19.297 1.339 27.082-4.347h30.386l28.403-1.598 23.043-3.879h25.177l34.349-2.247 14.532-.522 21.798 1.363 16.513.661 12.551.745 191.437-3.558.464-14.693-6.148-15.522-1.886-33.462 3.6-30.889 2.599-14.901 1.371-18.509-52.416 6.164-25.883 4.766s-87.376 10.538-216.184-.196z"/></g><g><path fill="none" stroke="#231f20" stroke-miterlimit="50" stroke-width="3" d="M32.576 46.676l1.895-.374v-4.869c0-4.494.63-5.992 2.525-5.992v.374c-.63.75-1.263 8.614-.63 9.738.63.75.63.75 4.42.374 1.895-.374 3.79-.749 4.42-1.123 0-.375.632-.375 1.264-.375 0 0 .63 0 .63-.374 0-3.746 1.264-5.618 2.527-5.244 1.263 0 1.894 2.622.632 3.371 0 .374-.632 1.123-1.264 1.873 0 .75 0 1.123 1.264.75.631 0 3.79-.376 7.578-.75 3.157 0 7.578-.375 10.104-.75 1.895 0 5.684-.374 8.21-.374 10.104-.749 25.892-2.247 30.313-2.247 2.525-.375 12.63-.375 23.366-.375 36.628.375 73.256.375 75.782-.374 1.895 0 23.366-.375 75.781-.375 56.837 0 75.152-.374 83.362-.749 5.683-.374 16.42-.374 23.366-.374 16.42-.375 37.26-.749 48.626-1.498 4.421-.375 10.104-.749 12.631-1.124 2.526 0 8.21-.374 12.63-.749 5.683-.374 10.104-.749 20.21-.374 11.998 0 13.26 0 13.892-.749.632-.749 1.895-.749 1.895.374-.632 1.124.631.375 1.262-1.498 1.264-1.498 2.527-2.62 3.16-2.247.63 0 .63 1.124.63 2.622-.63 1.872 0 1.872.631 1.872 1.895.375 1.895.75.632 1.873-1.894 1.123-1.263 2.247.631 8.24 1.264 3.744 1.264 5.242 1.264 18.351 0 7.49 0 19.1-.632 25.842 0 17.227.632 32.583 2.526 41.946.631 3.745 1.263 7.115.631 14.605 0 7.866 0 10.113.632 14.607 1.263 4.494 1.263 5.243.632 5.618-.632.75-1.264.75-2.527.374-1.894-.749-13.26-.374-22.103 0-3.157.375-8.209.75-11.367 1.124-7.578.374-44.838.374-56.205 0-4.42-.375-22.735-.375-39.785-.375-62.52 0-85.255.75-102.938 2.247-4.42.75-10.736 1.124-15.156 1.124-18.315 1.123-45.47 3.745-52.416 5.243-5.053 1.124-24.63 1.124-29.05 0-1.264 0-3.789-.375-5.685-.375-4.42-.748-9.472-1.123-15.787-2.247-3.158-.374-6.315-.749-7.579-.749-1.263 0-3.157 0-5.052-.374-4.42-.749-10.735-.749-20.839 0-3.158.374-8.842.374-16.42.75-3.158 0-6.315.373-8.209.748-1.895.374-3.789.374-5.053.374-.632 0-2.525.375-4.42.75-1.264.748-3.79.748-5.053.748-1.262 0-3.789.375-5.683 1.124-6.316 1.124-16.419 2.247-23.367 2.622-1.894 0-4.42.374-5.683.374-1.895.375-1.895 0-1.895-.374 0-.375 0-.749.632-.749h3.157c1.263 0 1.895-.375 1.263-.749-.63-.375-1.263-.375-1.894-.375l-5.052-2.247c-2.527-1.124-5.053-2.247-5.684-2.622-.632 0-1.262-.374-1.894-.749l-3.789-3.745-3.159-3.745V153.79c0-5.993.632-11.985 1.264-13.483 0-1.498.631-4.12.631-5.618.632-1.498 1.264-3.37 1.264-4.494 1.894-3.37 2.525-14.607 1.894-31.459-.632-9.738-.632-22.846-.632-29.588.632-6.74 0-14.606 0-16.853l-.632-4.869-1.894.375c-3.157 0-3.789-.749-.63-1.124zM33.84 160.16c0-.379-.632-.379-.632-.379v1.134c.632 0 .632-.378.632-.755zm.622-15.73c0-2.25-.626-4.124-.626-3.75-.626 0-.626 7.875 0 7.875 0 0 .626-1.875.626-4.125zm46.11 29.96c-12.63.375-13.893.375-13.893-.376.631-.75 0-.75-6.316-.375-3.157 0-7.578.375-9.472.375l-3.158.376 1.263.75c1.264.375 1.895.751 2.526.751 0 0 1.263.375 3.158 1.126 2.526.751 2.526 1.126 6.315.751 1.895 0 5.684-.376 7.578-.75 1.895-.376 3.79-.376 5.053-.376.631 0 1.263-.376 1.894-.376.631-.75 5.052-1.126 8.21-1.126 1.894 0 3.788-.375 3.788-.75.632-.376-1.262-.376-6.946 0zm135.154-1.876h-14.527c-3.158-.374-6.948-.749-8.842-.749-15.79-1.123-32.212-1.498-44.212-1.123l-5.052.374 2.525.375c1.265.374 3.79.374 5.054.374 1.894 0 3.79.375 5.684.75 1.263.374 3.79.748 5.684.748 3.79.375 11.369 1.124 15.79 1.873 1.264.374 5.053.75 7.58.75 3.157 0 5.684.373 5.684.373h2.526c1.264 0 4.42-.374 7.58-.749 3.158 0 6.947-.374 8.21-.748 1.263-.375 5.053-.75 8.21-1.124l6.317-.749c.632-.375-3.158-.375-8.21-.375zm284.174-8.239l-1.263-.374c-1.263-.375-1.263-.749-1.263-1.124 0-.749-.63-.749-5.052.375-5.683 1.498-14.525 1.872-29.68 1.872-5.685 0-12.63.375-15.79.375h-14.524c-8.21-.375-14.525-.749-34.733-1.124-5.684 0-14.526-.374-20.209-.374-11.368-.749-25.26-.375-46.733.374-13.893.375-30.944.375-44.838 0-20.208-.749-33.47-.749-46.1-.374-14.526.374-13.262.374-17.683.75-9.473.748-20.209 1.122-32.839 1.497-2.526 0-5.683 0-6.946.374-1.264 0-3.158.375-4.42.375-1.264 0-3.158.374-3.158.374-.632 0-5.685.375-11.368.75-9.473.748-17.05 1.497-18.314 1.872h13.894c13.892 0 20.208.374 30.312 1.123 4.421 0 16.42.75 25.893.75h12c10.734-.75 20.207-1.124 25.26-1.873 1.262 0 6.946-.375 11.367-.749 5.052-.375 11.367-.749 13.892-1.124 6.948-.374 15.788-.749 25.893-1.123 3.79 0 12-.375 17.051-.749h74.52c35.995 0 68.834 0 71.992-.375 3.79 0 10.736-.374 15.79-.374 8.84 0 11.366-.375 15.155-.749zm2.527-3.364c.631-.756.631-.756-.632-.378-.632 0-1.263.378-1.263.378-.632.755.631.755 1.895 0zm-1.264-2.253c0 .374 0 .374.637.374 0 0 .637-.374.637-.749 0-.374-.637-.374-.637-.374-.637 0-.637 0-.637.75zm1.274-3.377c0-2.988-.637-3.362-1.274-.747v2.242c1.274.374 1.274 0 1.274-1.495zm.631 7.122l-.636-.375h-.637c0 .375 0 .75.637.75zm1.253-53.93c0-.376-.632 2.62-.632 5.991 0 6.367 0 17.228-.63 24.344-.632 5.992.63 18.352 1.893 18.726.632.375.632.375 0 .75-.63.374-.63 1.872-1.263 2.995 0 1.873 0 2.247 1.263 2.247.632 0 1.264 0 1.264.75 0 .374 0 .748 1.262.748 1.263 0 1.263-.374.632-2.247 0-1.123-.632-2.62-.632-2.996-.63-.749-.63-7.115-.63-14.607 0-15.729-1.264-36.328-2.527-36.702zm-1.894-37.828c0 2.248.631 7.116.631 11.61l.631 7.866.632-5.244c0-2.996.631-6.74.631-8.988 1.264-7.49 1.264-19.475 0-25.093-1.263-2.996-1.263-5.992-1.263-6.367 0-.374-.63-.749-.63-.749-1.264.375-1.896 19.85-.632 26.965zm-1.895.749c0-2.622-.632-5.244-.632-5.618 0-.749 0-3.744-.632-5.991 0-4.868 0-4.868-.63-1.873-.632 3.745-1.895 15.728-2.527 19.847 0 2.995-.632 4.868-1.894 10.112v13.106c0 12.732.631 20.222 3.157 26.962 1.263 2.622 3.158 10.86 3.158 11.608 0 0 .631.374.631 0 0 0 .632-1.497.632-3.37 0-1.498.632-10.11.632-18.35.631-14.23.631-23.591-.632-34.077-.632-5.242-.632-8.238-1.263-12.356zm-.632-22.096l.632-2.996v-5.244c0-1.872 0-1.872-.632-.749-.632.75-.632 2.247-.632 4.87zm-.632-10.86c.632 0 1.264-.376 1.264-1.125.631-.749 0-1.123-.632-.749-1.263.375-1.263 1.873-.632 1.873zm-1.894.373c0 .375.637.375 1.273.375v-.749c-.636-.375-1.273-.375-1.273.374zm-99.779.75c.631.374 10.736.748 27.158.748 8.842 0 15.79.375 15.79.375h10.105c7.579 0 10.105-.375 20.21-1.873 6.317-1.123 13.895-1.872 16.42-2.247l4.422-.374-2.526-.375c-3.79-.749-21.474-.374-28.421 0-1.895.375-7.579.75-11.368 1.124-4.422.374-10.106.75-12 .75-6.947.748-27.159 1.497-36.633 1.497-1.895 0-3.157 0-3.157.374zm91.562-2.248c-5.046.375-8.199 1.124-3.153.75 1.891 0 3.784-.375 5.045-.375.63-.375 0-.375-1.892-.375zm-10.097 1.498h.631c1.264 0 1.895-.374 1.895-.374.632-.375-1.895 0-2.526.374zM199.93 42.56c-4.42.375-12.63.75-18.947.75-6.946.375-13.26.75-13.893 1.125-2.526.375-11.367.75-25.26 1.125-4.42.374-6.947.374-6.947.75h3.79c1.893 0 7.577-.376 11.998-.376 4.421-.374 11.367-.75 15.788-1.124 8.841-.375 24.63-.375 30.312 0 2.527 0 10.737.374 18.946.374 13.893.376 32.84 1.126 41.05 1.876 8.21.374 32.837 1.124 64.414 1.5 26.523.374 41.048.374 54.31-.376 4.421 0 8.841-.375 9.473-.375 1.262 0 5.053-.375 9.472-.75 4.421 0 10.105-.75 13.262-1.125 10.736-1.124 20.21-2.25 34.734-3.749 3.158 0 5.052-.375 5.052-.375s-10.104-.375-22.103-.75c-22.103 0-24.629-.374-31.575-1.124-4.42-.376-20.84-.376-26.525 0-11.367.75-23.997.75-41.68.75-30.313 0-102.937 1.124-125.67 1.874zM55.942 45.543h20.84c10.105-.374 27.155-.374 37.26-.374 17.683 0 25.261-.373 34.733-1.12h8.841c1.895 0 5.053-.374 7.578-.748 4.421-.374 12.631-.748 22.104-1.12 9.472-.375 5.052-.375-11.999-.748-33.47-.374-65.046-.374-72.624.373-4.42.374-11.999.747-17.683 1.495-6.315.374-13.262.748-17.05 1.121-3.159.374-7.58.747-9.474.747-3.158 0-3.789 0-2.526.374zm-18.946 3.38c0 .375.632 12.36.632 26.591.632 35.58.632 37.826.632 37.452.632 0 1.262-1.873 1.262-3.37.632-1.873 1.263-4.869 1.895-6.367 1.264-5.243 3.158-13.483 3.158-19.476.631-5.617.631-22.47 0-31.459-.632-4.869-.632-5.243-1.894-5.243h-3.789c-1.896.374-1.896.374-1.896 1.872zm-.63 93.255c-1.265 14.607-.633 22.846 1.894 25.093a13.406 13.406 0 0 0 1.262 1.873c.632 0 1.263.374 1.895 1.123 1.264 1.498 3.79 2.622 6.947 2.996 3.157.375 4.42.375 5.684-.374.631-.375 1.262-.375 1.262-.375l1.263-.749c.632-.749 1.264-.749.632 0l-.632 1.124 16.42-.375c23.366-.374 27.787-.374 32.84-.749 3.156-.374 10.103-1.123 19.576-1.498 5.684-.374 14.525-1.123 24.63-1.872 1.894-.375 6.946-.749 11.366-1.124 4.421-.374 11.367-.749 14.526-1.498 7.578-.749 10.735-.749 23.366-1.123 4.421 0 13.893-.749 20.84-1.124 6.315-.374 15.156-.749 19.577-.749 5.052-.374 8.841-.374 9.472-.374h10.737c27.786 1.123 58.73 1.498 74.518.75 13.894-.75 32.84-1.125 44.838-.376 5.684 0 13.894.375 18.946.375 20.208.374 29.05.75 33.47 1.123 4.421.375 32.84 0 46.733-.749 7.578 0 8.21-.374 19.577-2.996.631 0 .631-.749 1.262-1.498 0-1.066-.013-1.452-1.089-1.49a1.693 1.693 0 0 0-.039-1.133c1.13-.034 1.152-.567 1.76-5.617.632-3.37.632-6.367 0-7.49 0-1.124-.632-3.37-.632-4.494-.63-1.498-1.894-5.243-2.525-7.865-3.158-8.239-3.79-15.73-4.42-28.089 0-7.865 0-12.359.63-16.105 1.264-4.868 1.264-9.362 3.158-20.972.632-7.865.632-8.988 1.895-11.985 1.262-2.996.631-6.74-.632-11.236-1.263-4.119-1.263-4.119-4.42-3.745-1.895.375-4.42.375-6.947.375-1.895 0-6.316.374-9.473.75-3.789.373-8.21.748-10.736 1.122-2.526 0-6.947.375-10.736 1.124-8.84.75-12.63 1.123-20.209 1.873-3.789.374-12.629 1.123-18.945 2.247-6.946.75-15.156 1.498-18.945 1.498-6.316.75-15.788 1.123-20.209 1.498-2.526 0-19.577.75-22.735.75-1.262 0-12.629 0-25.26-.376-12.63 0-27.156-.374-31.576-.374-4.42 0-10.104-.375-13.262-.375-3.157 0-8.84-.374-13.262-.374-4.42 0-8.21-.375-8.21-.749-1.263-.375-1.263-.375-.63 0 0 .374 0 .374-.633.374-1.262-.374-12.63-.749-18.314-1.123-3.157 0-6.314-.375-7.578-.375-1.263 0-7.578-.374-14.525-.374-7.578 0-17.682-.375-22.103-.749-8.84-.375-32.207 0-32.839.374-.632 0-3.157.375-5.684.375-2.526 0-8.84.374-13.893.75h-15.788c-8.209-.376-46.1-.376-61.889 0h-17.05l-3.158.373.631 3.371c0 2.247.632 5.993.632 8.614.632 11.61 1.894 28.838 1.894 33.707 0 2.621.632 7.49.632 10.486.631 3.371.631 15.73.631 29.962 0 19.101.632 24.344 1.264 25.467.631.75.631 2.247.631 4.87l-.63 4.118-1.896 1.124c-1.263.374-3.158.75-3.789.75-1.264 0-1.264 0 .631-.376 2.526-1.123 3.79-3.37 2.526-7.49 0-.749-.63-14.232-.63-30.336 0-16.105-.632-29.587-.632-29.587 0-.374-.632-6.74-.632-14.23 0-7.867-.632-14.233-.632-14.608 0 0-.63-4.12-1.263-8.988-1.262-16.854-1.262-17.228-1.262-1.124.63 18.351-.632 30.336-3.159 39.325-.63 1.498-1.262 4.868-1.894 7.49-1.263 2.247-1.895 4.868-1.895 5.617-1.262 4.87-1.894 7.117-1.894 10.862 0 2.247 0 6.367-.632 8.988 0 2.247-.63 5.618-.63 6.741z"/></g></g></g><g><path fill="#fff" d="M447.83 120.346c0 .317.034.839.102 1.564.068.725.102 1.247.102 1.564 0 .317-.023.839-.068 1.564-.227 1.27-.906 1.995-2.04 2.176a2.72 2.72 0 0 1-1.63-.374c-.499-.295-.884-.737-1.156-1.326-.272-.499-.408-1.179-.408-2.04-.272-7.797-.453-12.58-.543-14.348a10.934 10.934 0 0 1-.068-1.326v-1.36c0-.385-.023-.839-.068-1.36a7.274 7.274 0 0 0-.272-1.462 555.888 555.888 0 0 0-2.855 4.488c-.453.725-1.223 1.972-2.31 3.74a1939.27 1939.27 0 0 1-2.515 4.08 3.641 3.641 0 0 1-1.02 1.02 3.597 3.597 0 0 1-1.257.544c-.43.09-.872.09-1.326 0a2.96 2.96 0 0 1-1.665-1.156c-.43-.59-.668-1.292-.713-2.108-.227-3.763-.114-8.296.34-13.6.045-.499.101-1.258.17-2.278.067-1.02.124-1.78.17-2.278.045-.59.316-1.156.815-1.7.498-.544 1.042-.861 1.631-.952 1.042-.136 1.858.295 2.447 1.292.181.227.294.51.34.85.045.34.068.612.068.816 0 .204-.034.533-.102.986-.068.453-.102.725-.102.816-.272 3.355-.43 6.392-.476 9.112.272.09.498-.023.68-.34a16.87 16.87 0 0 1 1.155-2.176c.453-.725.997-1.553 1.631-2.482.635-.93 1.11-1.62 1.428-2.074.996-1.541 1.948-2.652 2.854-3.332.816-.59 1.745-.737 2.787-.442 1.042.295 1.767.918 2.175 1.87.634 1.315.997 3.264 1.087 5.848.09 1.496.17 3.219.238 5.168.068 1.95.125 3.887.17 5.814.045 1.927.113 3.66.204 5.202zm-26.782-14.754c.09-.635-.227-1.27-.952-1.905-.726-.636-1.383-.885-1.972-.749-.182.045-.363.159-.544.34-2.222 3.403-3.468 6.647-3.74 9.732.09.952.136 1.463.136 1.53a2.356 2.356 0 0 0 .102.544 2.224 2.224 0 0 0 .238.476c.045.07.102.138.17.206.068.068.17.125.306.17.68.136 1.292-.068 1.836-.612 2.402-2.541 3.876-5.785 4.42-9.732zm1.02-6.394c1.405.68 2.459 1.598 3.162 2.754.702 1.156.963 2.482.782 3.978-.635 5.44-2.72 9.905-6.256 13.396-1.814 1.813-3.967 2.38-6.46 1.7-2.222-.59-3.65-2.13-4.284-4.624-.272-1.179-.386-2.108-.34-2.788 0-2.539.657-5.304 1.972-8.296.634-1.541 1.314-2.833 2.04-3.876.136-.227.238-.6.306-1.122.068-.521.124-.85.17-.986.226-.635.453-.975.68-1.02.317-.136.793-.351 1.428-.646a18.959 18.959 0 0 1 1.734-.714 4.641 4.641 0 0 1 1.53-.272c.997-.045 1.813.476 2.448 1.564.226.408.589.725 1.088.952zm-11.9-5.032c.181.59-.012 1.213-.578 1.87-.567.657-1.236 1.031-2.006 1.122-.544.045-1.1.147-1.666.306-.567.159-1.179.34-1.836.544-.658.204-1.19.351-1.598.442-.59.136-.93.499-1.02 1.088-.454 3.4-.703 5.712-.748 6.936-.046.363-.034.59.034.68.068.09.306.09.714 0 .997-.408 1.972-.09 2.924.952.498.499.566 1.337.204 2.516a1.18 1.18 0 0 1-.238.476 4.83 4.83 0 0 1-.238.272c-.046.045-.182.136-.408.272-.227.136-.34.227-.34.272-.952.68-1.655 1.065-2.108 1.156a.85.85 0 0 0-.442.102 7.037 7.037 0 0 0-.272.17.865.865 0 0 0-.204.204c-.068.09-.125.159-.17.204-.046.045-.08.147-.102.306-.023.159-.046.26-.068.306-.023.045-.046.159-.068.34a3.921 3.921 0 0 0-.034.34 53.645 53.645 0 0 0-.374 5.474c-.023 1.11-.034 1.938-.034 2.482-.046.317-.057.884-.034 1.7.022.816.034 1.36.034 1.632-.046 1.405-.578 2.221-1.598 2.448-1.02.227-1.893-.317-2.618-1.632a6.278 6.278 0 0 1-.612-1.7c-.136-.635-.204-1.167-.204-1.598 0-.43.022-1.031.068-1.802.045-.77.068-1.337.068-1.7 0-.317.068-1.541.204-3.672.045-.499-.182-.77-.68-.816-.952-.09-1.598-.567-1.938-1.428-.34-.861-.193-1.677.442-2.448.408-.499.725-.793.952-.884 1.224-.499 1.858-1.473 1.904-2.924.045-.635.158-1.745.34-3.332.181-1.587.294-2.833.34-3.74-.907.453-1.678.635-2.312.544-.726-.045-1.247-.317-1.564-.816-.318-.499-.363-1.088-.136-1.768.498-1.36 1.609-2.47 3.332-3.332 1.224-.544 2.062-1.088 2.516-1.632.408-.499 1.133-.635 2.176-.408.408.09.77.068 1.088-.068a6.594 6.594 0 0 1 1.564-.612 37.79 37.79 0 0 1 2.074-.442c.838-.159 1.394-.283 1.666-.374.861-.181 1.62-.08 2.278.306.657.385 1.099.94 1.326 1.666zm-30.464 10.941c-.318.543-.374.985-.17 1.324.204.34.646.509 1.326.509.634.045 1.337-.26 2.108-.916.77-.656 1.337-1.414 1.7-2.274.317-.77.204-1.403-.34-1.9-.454-.408-1.088-.453-1.904-.136-.363.135-.703.35-1.02.644-.318.295-.544.555-.68.781a13.47 13.47 0 0 0-.544 1.052c-.227.475-.386.78-.476.916zm.204 7.147c-.046 0-.136-.034-.272-.102-.136-.068-.25-.09-.34-.068a.304.304 0 0 0-.204.17c-.136.317-.068.68.204 1.088.816 1.133 2.017 1.927 3.604 2.38.136.045.385.113.748.204.362.09.646.159.85.204.204.045.43.159.68.34.25.181.464.385.646.612.317.453.532.975.646 1.564.113.59.08 1.088-.102 1.496-.544.861-1.383 1.201-2.516 1.02-3.4-.453-6.007-1.723-7.82-3.808-1.542-1.859-2.267-4.737-2.176-8.636 0-.227.034-.703.102-1.428a19.97 19.97 0 0 0 .102-1.802c0-.476-.046-1.145-.136-2.006a2.37 2.37 0 0 1 .17-1.428c.204-.453.498-.839.884-1.156a2.854 2.854 0 0 1 1.326-.612 2.854 2.854 0 0 0 1.428-.952c1.27-1.541 3.173-2.493 5.712-2.856 1.314-.227 2.629.181 3.944 1.224 1.314 1.043 2.153 2.267 2.516 3.672.453 1.677.215 3.423-.714 5.236a10.67 10.67 0 0 1-4.012 4.318c-1.746 1.065-3.502 1.507-5.27 1.326zm-10.336-22.916a42.196 42.196 0 0 0-.068 2.584c0 .997-.012 1.96-.034 2.89-.023.93-.08 1.78-.17 2.55-.136 1.36-.204 3.264-.204 5.712v4.692c-.046.725-.012 1.813.102 3.264.113 1.45.17 2.539.17 3.264-.046.725-.046 1.643 0 2.754.045 1.11.079 2.04.102 2.788.022.748.011 1.689-.034 2.822-.091 1.27-.612 2.04-1.564 2.312-1.088.363-2.018-.09-2.788-1.36a4.41 4.41 0 0 1-.476-1.326 7.984 7.984 0 0 1-.136-1.496c0-.521-.023-.873-.068-1.054a442.368 442.368 0 0 1-.272-19.108c0-.725.022-1.519.068-2.38.045-.861.09-1.802.136-2.822.045-1.02.09-1.802.136-2.346 0-.227.011-.93.034-2.108.022-1.179.079-2.085.17-2.72 0-.317.068-2.72.204-7.208 0-.544.249-1.065.748-1.564.498-.499 1.02-.748 1.564-.748s1.042.227 1.496.68c.453.453.748 1.02.884 1.7a14.937 14.937 0 0 1 .238 3.332 44.934 44.934 0 0 0-.034 1.53c0 .385-.034.975-.102 1.768-.068.793-.102 1.326-.102 1.598zm-18.972 15.77c-.318.542-.374.984-.17 1.323.204.34.646.509 1.326.509.634.045 1.337-.26 2.108-.916.77-.656 1.337-1.414 1.7-2.274.317-.77.204-1.403-.34-1.9-.454-.408-1.088-.453-1.904-.136-.363.135-.703.35-1.02.644-.318.295-.544.555-.68.781a13.47 13.47 0 0 0-.544 1.052c-.227.475-.386.78-.476.916zm.204 7.146c-.046 0-.136-.034-.272-.102-.136-.068-.25-.09-.34-.068a.304.304 0 0 0-.204.17c-.136.317-.068.68.204 1.088.816 1.133 2.017 1.927 3.604 2.38.136.045.385.113.748.204.362.09.646.159.85.204.204.045.43.159.68.34.25.181.464.385.646.612.317.453.532.975.646 1.564.113.59.08 1.088-.102 1.496-.544.861-1.383 1.201-2.516 1.02-3.4-.453-6.007-1.723-7.82-3.808-1.542-1.859-2.267-4.737-2.176-8.636 0-.227.034-.703.102-1.428a19.97 19.97 0 0 0 .102-1.802c0-.476-.046-1.145-.136-2.006a2.37 2.37 0 0 1 .17-1.428c.204-.453.498-.839.884-1.156a2.854 2.854 0 0 1 1.326-.612 2.854 2.854 0 0 0 1.428-.952c1.27-1.541 3.173-2.493 5.712-2.856 1.314-.227 2.629.181 3.944 1.224 1.314 1.043 2.153 2.267 2.516 3.672.453 1.677.215 3.423-.714 5.236a10.67 10.67 0 0 1-4.012 4.318c-1.746 1.065-3.502 1.507-5.27 1.326zm-3.799-22.644c1.451 1.179 1.905 2.267 1.36 3.264-.226.408-.702.714-1.428.918a3.927 3.927 0 0 1-2.109.034c-.363-.09-.873-.204-1.53-.34a22.211 22.211 0 0 1-1.463-.34c-.318-.09-.533-.057-.647.102-.113.159-.124.374-.034.646.091.317.136.646.136.986 0 .34-.022.748-.068 1.224-.045.476-.068.805-.068.986-.045.544-.079 1.179-.102 1.904a69.62 69.62 0 0 0-.034 2.176v1.904c-.045.725-.056 2.335-.034 4.828.023 2.493-.056 4.08-.238 4.76-.045.363-.034.895.034 1.598.068.703.102 1.213.102 1.53-.09 1.541-.408 2.63-.952 3.264a5.592 5.592 0 0 0-.442.476c-.068.09-.227.227-.477.408-.249.181-.442.25-.578.204-.136-.045-.363-.068-.68-.068-.907-.272-1.451-.975-1.633-2.108-.181-1.179-.25-2.063-.204-2.652 0-.181.034-1.054.102-2.618.068-1.564.102-2.754.102-3.57 0-1.723.023-3.173.068-4.352 0-.136.023-2.652.068-7.548.046-2.176.068-3.717.068-4.624a.55.55 0 0 0-.102-.34.584.584 0 0 0-.17-.17c-.045-.023-.159-.034-.34-.034h-.34c-.5-.09-1.656-.113-3.47-.068-1.814.045-2.97.045-3.47 0-.589 0-1.122-.25-1.598-.748-.476-.499-.737-1.065-.782-1.7a2.387 2.387 0 0 1 .476-1.632c.363-.499.839-.793 1.429-.884 1.678-.317 3.492-.43 5.442-.34 1.497.09 2.381.011 2.653-.238.272-.25.431-1.122.476-2.618.046-.363.068-.77.068-1.224 0-.453.012-.907.034-1.36.023-.453.034-.861.034-1.224.091-1.45.794-2.221 2.11-2.312.498 0 .986.204 1.462.612.476.408.76.907.85 1.496.182 1.315.227 2.312.136 2.992-.045.725-.022 2.04.068 3.944.046.635.386 1.02 1.02 1.156 2.223.408 3.788.975 4.695 1.7zm-42.101 20.332c2.04-3.037 3.332-5.395 3.876-7.072-.862.68-1.7 1.768-2.516 3.264-.816 1.496-1.27 2.765-1.36 3.808zm14.96 14.824c.09.499.022.997-.204 1.496a2.307 2.307 0 0 1-1.054 1.122c-.476.25-.975.317-1.496.204-.522-.113-.94-.351-1.258-.714-.726-.907-1.202-1.995-1.428-3.264-.272-1.45-.975-4.85-2.108-10.2-.09-.272-.17-.691-.238-1.258a15.61 15.61 0 0 0-.272-1.598 9.517 9.517 0 0 0-.442-1.428c-.499 1.043-1.315 2.357-2.448 3.944-1.134 1.587-1.836 2.63-2.108 3.128-.726 1.179-1.734 1.893-3.026 2.142-1.292.25-2.414-.034-3.366-.85-.499-.408-.862-1.043-1.088-1.904-.499-1.904-.386-4.239.34-7.004 1.088-3.853 2.992-7.185 5.712-9.996 2.04-2.13 4.284-2.63 6.732-1.496 1.224.544 1.881 1.836 1.972 3.876.045.499.215.93.51 1.292.294.363.532.748.714 1.156.181.408.362.986.544 1.734.181.748.294 1.19.34 1.326.317 1.179.646 2.913.986 5.202.34 2.29.646 3.955.918 4.998.453 1.723.77 3.332.952 4.828.045.272.317 1.36.816 3.264zm-23.732-4.42c0 .317.034.839.102 1.564.068.725.102 1.247.102 1.564 0 .317-.023.839-.068 1.564-.227 1.27-.907 1.995-2.04 2.176a2.723 2.723 0 0 1-1.632-.374c-.499-.295-.884-.737-1.156-1.326-.272-.499-.408-1.179-.408-2.04-.272-7.797-.454-12.58-.544-14.348a10.93 10.93 0 0 1-.068-1.326v-1.36c0-.385-.023-.839-.068-1.36a7.27 7.27 0 0 0-.272-1.462 556.092 556.092 0 0 0-2.856 4.488c-.454.725-1.224 1.972-2.312 3.74a1934.95 1934.95 0 0 1-2.516 4.08 3.642 3.642 0 0 1-1.02 1.02 3.6 3.6 0 0 1-1.258.544c-.431.09-.873.09-1.326 0a2.96 2.96 0 0 1-1.666-1.156c-.431-.59-.669-1.292-.714-2.108-.227-3.763-.114-8.296.34-13.6.045-.499.102-1.258.17-2.278.068-1.02.124-1.78.17-2.278.045-.59.317-1.156.816-1.7.498-.544 1.042-.861 1.632-.952 1.042-.136 1.858.295 2.448 1.292.181.227.294.51.34.85.045.34.068.612.068.816 0 .204-.034.533-.102.986-.068.453-.102.725-.102.816-.272 3.355-.431 6.392-.476 9.112.272.09.498-.023.68-.34.317-.725.702-1.45 1.156-2.176a74.25 74.25 0 0 1 1.632-2.482c.634-.93 1.11-1.62 1.428-2.074.997-1.541 1.949-2.652 2.856-3.332.816-.59 1.745-.737 2.788-.442 1.042.295 1.768.918 2.176 1.87.634 1.315.997 3.264 1.088 5.848.09 1.496.17 3.219.238 5.168.068 1.95.124 3.887.17 5.814.045 1.927.113 3.66.204 5.202zm-45.696-15.239c-.318.543-.374.985-.17 1.324.204.34.646.509 1.326.509.634.045 1.337-.26 2.108-.916.77-.656 1.337-1.414 1.7-2.274.317-.77.204-1.403-.34-1.9-.454-.408-1.088-.453-1.904-.136-.363.135-.703.35-1.02.644-.318.295-.544.555-.68.781a13.47 13.47 0 0 0-.544 1.052c-.227.475-.386.78-.476.916zm.204 7.147c-.046 0-.136-.034-.272-.102-.136-.068-.25-.09-.34-.068a.304.304 0 0 0-.204.17c-.136.317-.068.68.204 1.088.816 1.133 2.017 1.927 3.604 2.38.136.045.385.113.748.204.362.09.646.159.85.204.204.045.43.159.68.34.25.181.464.385.646.612.317.453.532.975.646 1.564.113.59.08 1.088-.102 1.496-.544.861-1.383 1.201-2.516 1.02-3.4-.453-6.007-1.723-7.82-3.808-1.542-1.859-2.267-4.737-2.176-8.636 0-.227.034-.703.102-1.428a19.97 19.97 0 0 0 .102-1.802c0-.476-.046-1.145-.136-2.006a2.37 2.37 0 0 1 .17-1.428c.204-.453.498-.839.884-1.156a2.854 2.854 0 0 1 1.326-.612 2.854 2.854 0 0 0 1.428-.952c1.27-1.541 3.173-2.493 5.712-2.856 1.314-.227 2.629.181 3.944 1.224 1.314 1.043 2.153 2.267 2.516 3.672.453 1.677.215 3.423-.714 5.236a10.67 10.67 0 0 1-4.012 4.318c-1.746 1.065-3.502 1.507-5.27 1.326zm-14.002-13.94c-1.134 1.088-1.814 2.312-2.041 3.672-.136.725.022 1.315.476 1.768.136.136.522.533 1.157 1.19a26.846 26.846 0 0 0 1.497 1.462c1.814 1.632 2.903 3.445 3.265 5.44.273 1.179.035 2.516-.714 4.012-.748 1.496-1.803 2.584-3.164 3.264-2.54 1.27-4.808 1.723-6.804 1.36a6.375 6.375 0 0 0-1.02-.068h-1.021c-.408-.045-.862-.295-1.36-.748-.5-.453-.795-.884-.885-1.292-.091-.453.011-.975.306-1.564.295-.59.646-.952 1.055-1.088.045 0 .793-.045 2.245-.136.317.09.68.136 1.088.136.409 0 .749-.023 1.021-.068.272-.045.658-.125 1.157-.238.499-.113.862-.193 1.088-.238.68-.136 1.236-.453 1.667-.952.431-.499.556-1.02.375-1.564-.227-.861-.726-1.61-1.497-2.244-1.86-1.496-3.266-3.037-4.219-4.624-.862-1.496-.998-3.355-.408-5.576.59-1.95 1.52-3.536 2.79-4.76 2.086-2.04 4.309-2.765 6.668-2.176.907.227 1.757.827 2.551 1.802.794.975 1.19 1.915 1.19 2.822.046.816-.271 1.44-.952 1.87-.68.43-1.406.465-2.177.102-1.089-.499-1.792-.997-2.11-1.496-.317-.544-.725-.567-1.224-.068zm-32.918 6.793c-.318.543-.374.985-.17 1.324.204.34.646.509 1.326.509.634.045 1.337-.26 2.108-.916.77-.656 1.337-1.414 1.7-2.274.317-.77.204-1.403-.34-1.9-.454-.408-1.088-.453-1.904-.136-.363.135-.703.35-1.02.644-.318.295-.544.555-.68.781a13.47 13.47 0 0 0-.544 1.052c-.227.475-.386.78-.476.916zm.204 7.147c-.046 0-.136-.034-.272-.102-.136-.068-.25-.09-.34-.068a.304.304 0 0 0-.204.17c-.136.317-.068.68.204 1.088.816 1.133 2.017 1.927 3.604 2.38.136.045.385.113.748.204.362.09.646.159.85.204.204.045.43.159.68.34.25.181.464.385.646.612.317.453.532.975.646 1.564.113.59.079 1.088-.102 1.496-.544.861-1.383 1.201-2.516 1.02-3.4-.453-6.007-1.723-7.82-3.808-1.542-1.859-2.267-4.737-2.176-8.636 0-.227.034-.703.102-1.428a19.97 19.97 0 0 0 .102-1.802c0-.476-.046-1.145-.136-2.006a2.37 2.37 0 0 1 .17-1.428c.204-.453.498-.839.884-1.156a2.854 2.854 0 0 1 1.326-.612 2.854 2.854 0 0 0 1.428-.952c1.27-1.541 3.173-2.493 5.712-2.856 1.314-.227 2.629.181 3.944 1.224 1.314 1.043 2.153 2.267 2.516 3.672.453 1.677.215 3.423-.714 5.236a10.67 10.67 0 0 1-4.012 4.318c-1.746 1.065-3.502 1.507-5.27 1.326zm-3.799-22.644c1.451 1.179 1.905 2.267 1.36 3.264-.226.408-.702.714-1.428.918a3.927 3.927 0 0 1-2.109.034c-.363-.09-.873-.204-1.53-.34a22.211 22.211 0 0 1-1.463-.34c-.318-.09-.533-.057-.647.102-.113.159-.124.374-.034.646.091.317.136.646.136.986 0 .34-.022.748-.068 1.224-.045.476-.068.805-.068.986-.045.544-.079 1.179-.102 1.904a69.62 69.62 0 0 0-.034 2.176v1.904c-.045.725-.056 2.335-.034 4.828.023 2.493-.056 4.08-.238 4.76-.045.363-.034.895.034 1.598.068.703.102 1.213.102 1.53-.09 1.541-.408 2.63-.952 3.264a5.592 5.592 0 0 0-.442.476c-.068.09-.227.227-.477.408-.249.181-.442.25-.578.204-.136-.045-.363-.068-.68-.068-.907-.272-1.451-.975-1.633-2.108-.181-1.179-.25-2.063-.204-2.652 0-.181.034-1.054.102-2.618.068-1.564.102-2.754.102-3.57 0-1.723.023-3.173.068-4.352 0-.136.023-2.652.068-7.548.046-2.176.068-3.717.068-4.624a.55.55 0 0 0-.102-.34.584.584 0 0 0-.17-.17c-.045-.023-.159-.034-.34-.034h-.34c-.499-.09-1.656-.113-3.47-.068a92.73 92.73 0 0 1-2.226.034c.063-.054.124-.11.184-.17.589-.59.861-1.349.816-2.278-.046-.93-.272-1.643-.68-2.142a1.945 1.945 0 0 0-.824-.6 24.564 24.564 0 0 1 4.227-.148c1.497.09 2.381.011 2.653-.238.272-.25.431-1.122.476-2.618.046-.363.068-.77.068-1.224 0-.453.012-.907.034-1.36.023-.453.034-.861.034-1.224.091-1.45.794-2.221 2.11-2.312.498 0 .986.204 1.462.612.476.408.76.907.85 1.496.182 1.315.227 2.312.136 2.992-.045.725-.022 2.04.068 3.944.046.635.386 1.02 1.02 1.156 2.223.408 3.788.975 4.695 1.7zm-17.33 2.414c-.562.48-1.271.741-2.127.782-.454 0-.907-.272-1.36-.816-.454-.544-.703-1.11-.748-1.7-.046-.997.204-1.847.748-2.55.544-.703 1.246-1.054 2.108-1.054.323 0 .615.05.876.149-.413.052-.818.116-1.215.191-.59.09-1.066.385-1.43.884a2.387 2.387 0 0 0-.475 1.632c.045.635.306 1.201.782 1.7.476.499 1.01.748 1.599.748.25.023.664.034 1.243.034zm-2.055 5.066c.59.045 1.124.204 1.601.476.477.272.84.612 1.09 1.02.25.409.375.817.375 1.225-.136 1.814-.227 4.875-.273 9.184-.045.68-.102 1.972-.17 3.877a131.726 131.726 0 0 0-.102 4.354c.045.77.023 1.904-.068 3.401-.046 1.451-.75 2.245-2.112 2.381a2.883 2.883 0 0 1-1.84-.476 2.322 2.322 0 0 1-1.02-1.497c-.183-.227-.24-1.122-.171-2.687.068-1.564.102-2.46.102-2.687v-5.442c0-.726.023-1.848.068-3.367.046-1.52.09-2.857.136-4.014.046-1.156.137-2.279.273-3.367.045-.771.272-1.372.681-1.803.409-.43.886-.623 1.43-.578zm-10.742 1.224c-1.134 1.088-1.814 2.312-2.041 3.672-.136.725.022 1.315.476 1.768.136.136.522.533 1.157 1.19a26.846 26.846 0 0 0 1.497 1.462c1.814 1.632 2.903 3.445 3.265 5.44.273 1.179.034 2.516-.714 4.012-.748 1.496-1.803 2.584-3.164 3.264-2.54 1.27-4.808 1.723-6.804 1.36a6.375 6.375 0 0 0-1.02-.068h-1.021a1.706 1.706 0 0 1-.593-.193 38.806 38.806 0 0 0-.768-3.547 18.03 18.03 0 0 1-.131-.538c.186-.203.389-.341.608-.414.045 0 .793-.045 2.245-.136.317.09.68.136 1.088.136.409 0 .749-.023 1.021-.068.272-.045.658-.125 1.157-.238.499-.113.862-.193 1.088-.238.68-.136 1.236-.453 1.667-.952.431-.499.556-1.02.375-1.564-.227-.861-.726-1.61-1.497-2.244-1.86-1.496-3.266-3.037-4.219-4.624-.862-1.496-.998-3.355-.408-5.576.59-1.95 1.52-3.536 2.79-4.76 2.086-2.04 4.309-2.765 6.668-2.176.907.227 1.757.827 2.551 1.802.794.975 1.19 1.915 1.19 2.822.046.816-.271 1.44-.952 1.87-.68.43-1.406.465-2.177.102-1.089-.499-1.792-.997-2.11-1.496-.317-.544-.725-.567-1.224-.068zm-8.962 21.907c.072.436.133.863.184 1.281.045.272.317 1.36.816 3.264.09.499.022.997-.204 1.496a2.307 2.307 0 0 1-1.054 1.122c-.476.25-.975.317-1.496.204-.522-.113-.941-.351-1.258-.714-.726-.907-1.202-1.995-1.428-3.264-.272-1.45-.975-4.85-2.108-10.2-.091-.272-.17-.691-.238-1.258a15.61 15.61 0 0 0-.272-1.598 9.517 9.517 0 0 0-.442-1.428c-.499 1.043-1.315 2.357-2.448 3.944-1.134 1.587-1.836 2.63-2.108 3.128-.726 1.179-1.734 1.893-3.026 2.142-1.292.25-2.414-.034-3.366-.85-.499-.408-.862-1.043-1.088-1.904-.499-1.904-.386-4.239.34-7.004 1.088-3.853 2.992-7.185 5.712-9.996 2.04-2.13 4.284-2.63 6.732-1.496 1.224.544 1.881 1.836 1.972 3.876.045.499.215.93.51 1.292.294.363.532.748.714 1.156.181.408.362.986.544 1.734.181.748.294 1.19.34 1.326.317 1.179.646 2.913.986 5.202.286 1.93.549 3.416.787 4.46-.161.176-.31.4-.447.674-.295.59-.397 1.11-.306 1.564.09.408.385.839.884 1.292.27.244.525.43.768.555zm-13.96-10.279c2.034-3.037 3.323-5.395 3.866-7.072-.86.68-1.696 1.768-2.51 3.264-.814 1.496-1.266 2.765-1.356 3.808zm-9.588-20.604a42.196 42.196 0 0 0-.068 2.584c0 .997-.012 1.96-.034 2.89-.023.93-.08 1.78-.17 2.55-.136 1.36-.204 3.264-.204 5.712v4.692c-.046.725-.012 1.813.102 3.264.113 1.45.17 2.539.17 3.264-.046.725-.046 1.643 0 2.754.045 1.11.079 2.04.102 2.788.022.748.011 1.689-.034 2.822-.091 1.27-.612 2.04-1.564 2.312-1.088.363-2.018-.09-2.788-1.36a4.41 4.41 0 0 1-.476-1.326 7.984 7.984 0 0 1-.136-1.496c0-.521-.023-.873-.068-1.054a442.368 442.368 0 0 1-.272-19.108c0-.725.022-1.519.068-2.38.045-.861.09-1.802.136-2.822.045-1.02.09-1.802.136-2.346 0-.227.011-.93.034-2.108.022-1.179.079-2.085.17-2.72 0-.317.068-2.72.204-7.208 0-.544.249-1.065.748-1.564.498-.499 1.02-.748 1.564-.748s1.042.227 1.496.68c.453.453.748 1.02.884 1.7a14.937 14.937 0 0 1 .238 3.332 44.934 44.934 0 0 0-.034 1.53c0 .385-.034.975-.102 1.768-.068.793-.102 1.326-.102 1.598zm-15.708 16.864c.09-.09.283-.329.578-.714.294-.385.51-.646.646-.782s.34-.351.612-.646c.272-.295.532-.544.782-.748.249-.204.51-.397.782-.578a14.2 14.2 0 0 1-.442-.476 14.329 14.329 0 0 0-.476-.51 1.978 1.978 0 0 1-.34-.51 5.71 5.71 0 0 1-.306-.748c-2.63 3.219-4.284 6.324-4.964 9.316.816-.861 1.858-2.063 3.128-3.604zm6.664-2.244c.68.816.906 1.972.68 3.468-.136.816-.77 4.42-1.904 10.812-1.179 6.664-1.836 10.517-1.972 11.56a97.42 97.42 0 0 1-.884 6.052c-.182.816-.522 1.428-1.02 1.836-.499.408-1.088.567-1.768.476-1.723-.272-2.494-1.292-2.312-3.06.045-.68.158-1.655.34-2.924l.408-2.856c.09-1.043.328-2.561.714-4.556.385-1.995.623-3.468.714-4.42.09-.499.181-1.031.272-1.598.09-.567.192-1.077.306-1.53.113-.453.238-.997.374-1.632.136-.635.249-1.179.34-1.632l.068-.884c-1.36 1.723-2.108 2.652-2.244 2.788-1.088 1.224-1.927 2.04-2.516 2.448-1.406.861-2.743.884-4.012.068-1.134-.68-1.7-1.836-1.7-3.468 0-3.445.997-7.163 2.992-11.152 1.405-2.901 2.992-5.168 4.76-6.8 1.632-1.541 3.218-2.29 4.76-2.244.725 0 1.382.215 1.972.646.59.43 1.02 1.009 1.292 1.734.453 1.27.589 2.403.408 3.4-.091.59-.182.93-.272 1.02-.227.181-.386.351-.476.51a8.19 8.19 0 0 0-.204.374c-.046.09-.023.227.068.408.09.181.158.306.204.374.045.068.147.204.306.408.158.204.26.329.306.374zm-22.848 1.634c.09-.635-.227-1.27-.952-1.905-.726-.636-1.383-.885-1.972-.749-.182.045-.363.159-.544.34-2.222 3.403-3.468 6.647-3.74 9.732.09.952.136 1.463.136 1.53a2.356 2.356 0 0 0 .102.544 2.224 2.224 0 0 0 .238.476c.045.07.102.138.17.206.068.068.17.125.306.17.68.136 1.292-.068 1.836-.612 2.402-2.541 3.876-5.785 4.42-9.732zm1.02-6.394c1.405.68 2.459 1.598 3.162 2.754.702 1.156.963 2.482.782 3.978-.635 5.44-2.72 9.905-6.256 13.396-1.814 1.813-3.967 2.38-6.46 1.7-2.222-.59-3.65-2.13-4.284-4.624-.272-1.179-.386-2.108-.34-2.788 0-2.539.657-5.304 1.972-8.296.634-1.541 1.314-2.833 2.04-3.876.136-.227.238-.6.306-1.122.068-.521.124-.85.17-.986.226-.635.453-.975.68-1.02.317-.136.793-.351 1.428-.646a18.959 18.959 0 0 1 1.734-.714 4.641 4.641 0 0 1 1.53-.272c.997-.045 1.813.476 2.448 1.564.226.408.589.725 1.088.952z"/></g></g></g></g></svg>