<svg xmlns="http://www.w3.org/2000/svg" width="445" height="150" viewBox="30 30 445 150"><g><g><g><g><g><g><path fill="#ec1d24" d="M45.006 45.553l4.613 107.231.386 14.226-4.999 3.491 8.425 3.008 17.853 1.339 25.055-4.347h28.112l26.277-1.598 21.319-3.879h23.292l31.778-2.247 13.445-.522 20.166 1.363 15.277.661 11.612.745 177.11-3.558.428-14.693-5.687-15.522-1.745-33.462 3.33-30.889 2.405-14.901 1.268-18.509-48.493 6.164-23.946 4.766s-80.836 10.538-200.004-.196z"/></g><g><path fill="none" stroke="#231f20" stroke-miterlimit="50" stroke-width="3" d="M32.383 46.676l1.754-.374v-4.869c0-4.494.582-5.992 2.336-5.992v.374c-.584.75-1.169 8.614-.584 9.738.584.75.584.75 4.089.374 1.754-.374 3.506-.749 4.09-1.123 0-.375.585-.375 1.17-.375 0 0 .582 0 .582-.374 0-3.746 1.17-5.618 2.338-5.244 1.169 0 1.752 2.622.585 3.371 0 .374-.585 1.123-1.17 1.873 0 .75 0 1.123 1.17.75.584 0 3.505-.376 7.01-.75 2.921 0 7.012-.375 9.348-.75 1.754 0 5.26-.374 7.595-.374 9.349-.749 23.955-2.247 28.045-2.247 2.336-.375 11.685-.375 21.617-.375 33.887.375 67.774.375 70.11-.374 1.754 0 21.618-.375 70.11-.375 52.583 0 69.527-.374 77.123-.749 5.257-.374 15.19-.374 21.617-.374 15.19-.375 34.47-.749 44.987-1.498 4.09-.375 9.347-.749 11.685-1.124 2.337 0 7.596-.374 11.685-.749 5.258-.374 9.348-.749 18.696-.374 11.101 0 12.269 0 12.854-.749.584-.749 1.753-.749 1.753.374-.585 1.124.584.375 1.167-1.498 1.17-1.498 2.338-2.62 2.923-2.247.584 0 .584 1.124.584 2.622-.584 1.872 0 1.872.583 1.872 1.754.375 1.754.75.585 1.873-1.752 1.123-1.168 2.247.584 8.24 1.17 3.744 1.17 5.242 1.17 18.351 0 7.49 0 19.1-.585 25.842 0 17.227.584 32.583 2.337 41.946.583 3.745 1.168 7.115.583 14.605 0 7.866 0 10.113.585 14.607 1.168 4.494 1.168 5.243.585 5.618-.585.75-1.17.75-2.338.374-1.752-.749-12.269-.374-20.449 0-2.92.375-7.595.75-10.516 1.124-7.011.374-41.482.374-51.999 0-4.09-.375-21.033-.375-36.807-.375-57.842 0-78.874.75-95.234 2.247-4.09.75-9.932 1.124-14.021 1.124-16.944 1.123-42.067 3.745-48.493 5.243-4.675 1.124-22.787 1.124-26.876 0-1.17 0-3.505-.375-5.26-.375-4.089-.748-8.763-1.123-14.605-2.247-2.922-.374-5.842-.749-7.012-.749-1.168 0-2.92 0-4.674-.374-4.089-.749-9.931-.749-19.279 0-2.922.374-8.18.374-15.191.75-2.922 0-5.842.373-7.595.748-1.753.374-3.505.374-4.674.374-.585 0-2.336.375-4.09.75-1.169.748-3.506.748-4.674.748-1.168 0-3.506.375-5.258 1.124-5.843 1.124-15.19 2.247-21.618 2.622-1.752 0-4.09.374-5.258.374-1.753.375-1.753 0-1.753-.374 0-.375 0-.749.585-.749h2.92c1.169 0 1.754-.375 1.169-.749-.584-.375-1.169-.375-1.752-.375l-4.674-2.247c-2.338-1.124-4.675-2.247-5.259-2.622-.585 0-1.167-.374-1.752-.749l-3.505-3.745-2.923-3.745V153.79c0-5.993.585-11.985 1.17-13.483 0-1.498.583-4.12.583-5.618.585-1.498 1.17-3.37 1.17-4.494 1.752-3.37 2.336-14.607 1.752-31.459-.585-9.738-.585-22.846-.585-29.588.585-6.74 0-14.606 0-16.853l-.585-4.869-1.752.375c-2.92 0-3.505-.749-.584-1.124zm1.169 113.484c0-.379-.585-.379-.585-.379v1.134c.585 0 .585-.378.585-.755zm.575-15.73c0-2.25-.58-4.124-.58-3.75-.579 0-.579 7.875 0 7.875 0 0 .58-1.875.58-4.125zm42.66 29.96c-11.686.375-12.854.375-12.854-.376.584-.75 0-.75-5.843-.375-2.921 0-7.011.375-8.763.375l-2.922.376 1.168.75c1.17.375 1.754.751 2.337.751 0 0 1.169.375 2.922 1.126 2.337.751 2.337 1.126 5.842.751 1.754 0 5.259-.376 7.011-.75 1.753-.376 3.506-.376 4.675-.376.584 0 1.169-.376 1.752-.376.584-.75 4.674-1.126 7.595-1.126 1.753 0 3.505-.375 3.505-.75.585-.376-1.167-.376-6.426 0zm125.038-1.876h-13.44c-2.922-.374-6.428-.749-8.18-.749-14.608-1.123-29.801-1.498-40.904-1.123l-4.673.374 2.336.375c1.17.374 3.506.374 4.676.374 1.752 0 3.505.375 5.258.75 1.169.374 3.506.748 5.26.748 3.505.375 10.517 1.124 14.607 1.873 1.169.374 4.675.75 7.012.75 2.921 0 5.26.373 5.26.373h2.336c1.17 0 4.09-.374 7.012-.749 2.922 0 6.428-.374 7.597-.748 1.168-.375 4.674-.75 7.595-1.124l5.844-.749c.585-.375-2.922-.375-7.596-.375zm262.905-8.239l-1.168-.374c-1.169-.375-1.169-.749-1.169-1.124 0-.749-.584-.749-4.674.375-5.258 1.498-13.438 1.872-27.46 1.872-5.258 0-11.684.375-14.607.375h-13.437c-7.595-.375-13.438-.749-32.133-1.124-5.259 0-13.439-.374-18.697-.374-10.517-.749-23.37-.375-43.235.374-12.853.375-28.628.375-41.482 0-18.696-.749-30.965-.749-42.65-.374-13.439.374-12.27.374-16.36.75-8.763.748-18.696 1.122-30.38 1.497-2.337 0-5.258 0-6.427.374-1.169 0-2.921.375-4.09.375-1.168 0-2.92.374-2.92.374-.585 0-5.26.375-10.518.75-8.764.748-15.774 1.497-16.943 1.872h12.854c12.853 0 18.696.374 28.044 1.123 4.09 0 15.19.75 23.955.75h11.1c9.932-.75 18.696-1.124 23.37-1.873 1.168 0 6.427-.375 10.517-.749 4.674-.375 10.516-.749 12.852-1.124 6.428-.374 14.607-.749 23.956-1.123 3.505 0 11.1-.375 15.774-.749h68.942c33.302 0 63.683 0 66.605-.375 3.506 0 9.932-.374 14.607-.374 8.178 0 10.516-.375 14.022-.749zm2.338-3.364c.584-.756.584-.756-.585-.378-.585 0-1.168.378-1.168.378-.585.755.583.755 1.753 0zm-1.17-2.253c0 .374 0 .374.59.374 0 0 .59-.374.59-.749 0-.374-.59-.374-.59-.374-.59 0-.59 0-.59.75zm1.18-3.377c0-2.988-.59-3.362-1.18-.747v2.242c1.18.374 1.18 0 1.18-1.495zm.583 7.122l-.588-.375h-.59c0 .375 0 .75.59.75zm1.16-53.93c0-.376-.586 2.62-.586 5.991 0 6.367 0 17.228-.583 24.344-.584 5.992.583 18.352 1.752 18.726.585.375.585.375 0 .75-.584.374-.584 1.872-1.169 2.995 0 1.873 0 2.247 1.169 2.247.585 0 1.17 0 1.17.75 0 .374 0 .748 1.167.748 1.168 0 1.168-.374.585-2.247 0-1.123-.585-2.62-.585-2.996-.584-.749-.584-7.115-.584-14.607 0-15.729-1.168-36.328-2.337-36.702zm-1.753-37.828c0 2.248.584 7.116.584 11.61l.583 7.866.585-5.244c0-2.996.584-6.74.584-8.988 1.17-7.49 1.17-19.475 0-25.093-1.169-2.996-1.169-5.992-1.169-6.367 0-.374-.583-.749-.583-.749-1.169.375-1.754 19.85-.584 26.965zm-1.753.749c0-2.622-.585-5.244-.585-5.618 0-.749 0-3.744-.585-5.991 0-4.868 0-4.868-.583-1.873-.584 3.745-1.753 15.728-2.337 19.847 0 2.995-.585 4.868-1.753 10.112v13.106c0 12.732.584 20.222 2.921 26.962 1.169 2.622 2.922 10.86 2.922 11.608 0 0 .583.374.583 0 0 0 .585-1.497.585-3.37 0-1.498.585-10.11.585-18.35.584-14.23.584-23.591-.585-34.077-.585-5.242-.585-8.238-1.168-12.356zm-.585-22.096l.585-2.996v-5.244c0-1.872 0-1.872-.585-.749-.585.75-.585 2.247-.585 4.87zm-.585-10.86c.585 0 1.17-.376 1.17-1.125.583-.749 0-1.123-.585-.749-1.168.375-1.168 1.873-.585 1.873zm-1.752.373c0 .375.59.375 1.178.375v-.749c-.589-.375-1.178-.375-1.178.374zm-92.311.75c.584.374 9.933.748 25.125.748 8.18 0 14.608.375 14.608.375h9.349c7.011 0 9.349-.375 18.698-1.873 5.843-1.123 12.855-1.872 15.191-2.247l4.09-.374-2.336-.375c-3.506-.749-19.868-.374-26.294 0-1.754.375-7.012.75-10.518 1.124-4.09.374-9.35.75-11.102.75-6.427.748-25.125 1.497-33.89 1.497-1.753 0-2.921 0-2.921.374zm84.709-2.248c-4.668.375-7.585 1.124-2.917.75 1.75 0 3.5-.375 4.668-.375.583-.375 0-.375-1.751-.375zm-9.341 1.498h.583c1.17 0 1.754-.374 1.754-.374.584-.375-1.753 0-2.337.374zM187.21 42.56c-4.09.375-11.686.75-17.529.75-6.426.375-12.268.75-12.853 1.125-2.337.375-10.516.75-23.37 1.125-4.09.374-6.427.374-6.427.75h3.506c1.752 0 7.01-.376 11.1-.376 4.09-.374 10.517-.75 14.607-1.124 8.18-.375 22.786-.375 28.043 0 2.338 0 9.934.374 17.528.374 12.854.376 30.382 1.126 37.977 1.876 7.596.374 30.38 1.124 59.594 1.5 24.538.374 37.976.374 50.245-.376 4.09 0 8.18-.375 8.764-.375 1.168 0 4.675-.375 8.763-.75 4.09 0 9.35-.75 12.27-1.125 9.932-1.124 18.696-2.25 32.134-3.749 2.922 0 4.674-.375 4.674-.375s-9.348-.375-20.449-.75c-20.448 0-22.785-.374-29.211-1.124-4.09-.376-19.282-.376-24.54 0-10.516.75-22.201.75-38.56.75-28.045 0-95.234 1.124-116.266 1.874zm-133.21 2.983h19.28c9.348-.374 25.122-.374 34.471-.374 16.36 0 23.37-.373 32.134-1.12h8.179c1.753 0 4.675-.374 7.01-.748 4.09-.374 11.686-.748 20.45-1.12 8.763-.375 4.674-.375-11.1-.748-30.967-.374-60.178-.374-67.19.373-4.09.374-11.1.747-16.359 1.495-5.842.374-12.27.748-15.775 1.121-2.921.374-7.011.747-8.764.747-2.921 0-3.505 0-2.336.374zm-17.528 3.38c0 .375.584 12.36.584 26.591.585 35.58.585 37.826.585 37.452.585 0 1.167-1.873 1.167-3.37.585-1.873 1.169-4.869 1.754-6.367 1.169-5.243 2.921-13.483 2.921-19.476.584-5.617.584-22.47 0-31.459-.584-4.869-.584-5.243-1.752-5.243h-3.505c-1.754.374-1.754.374-1.754 1.872zm-.584 93.255c-1.17 14.607-.585 22.846 1.753 25.093a13.488 13.488 0 0 0 1.167 1.873c.585 0 1.169.374 1.754 1.123 1.169 1.498 3.505 2.622 6.427 2.996 2.92.375 4.089.375 5.258-.374.584-.375 1.168-.375 1.168-.375l1.168-.749c.585-.749 1.17-.749.585 0l-.585 1.124 15.191-.375c21.618-.374 25.708-.374 30.382-.749 2.92-.374 9.347-1.123 18.111-1.498 5.259-.374 13.438-1.123 22.786-1.872 1.753-.375 6.427-.749 10.516-1.124 4.09-.374 10.517-.749 13.44-1.498 7.01-.749 9.93-.749 21.616-1.123 4.09 0 12.853-.749 19.28-1.124 5.843-.374 14.022-.749 18.112-.749 4.674-.374 8.18-.374 8.763-.374h9.934c25.706 1.123 54.334 1.498 68.94.75 12.855-.75 30.382-1.125 41.483-.376 5.258 0 12.854.375 17.528.375 18.695.374 26.875.75 30.965 1.123 4.09.375 30.38 0 43.235-.749 7.01 0 7.596-.374 18.112-2.996.584 0 .584-.749 1.167-1.498 0-1.066-.012-1.452-1.007-1.49a1.822 1.822 0 0 0-.036-1.133c1.044-.034 1.066-.567 1.628-5.617.585-3.37.585-6.367 0-7.49 0-1.124-.585-3.37-.585-4.494-.583-1.498-1.752-5.243-2.336-7.865-2.921-8.239-3.506-15.73-4.09-28.089 0-7.865 0-12.359.584-16.105 1.17-4.868 1.17-9.362 2.922-20.972.584-7.865.584-8.988 1.753-11.985 1.167-2.996.584-6.74-.585-11.236-1.168-4.119-1.168-4.119-4.09-3.745-1.752.375-4.09.375-6.426.375-1.753 0-5.843.374-8.764.75-3.506.373-7.596.748-9.933 1.122-2.337 0-6.427.375-9.932 1.124-8.178.75-11.685 1.123-18.697 1.873-3.505.374-11.683 1.123-17.527 2.247-6.426.75-14.021 1.498-17.527 1.498-5.843.75-14.606 1.123-18.696 1.498-2.337 0-18.112.75-21.034.75-1.167 0-11.683 0-23.37-.376-11.684 0-25.123-.374-29.212-.374-4.089 0-9.348-.375-12.27-.375-2.92 0-8.179-.374-12.269-.374s-7.595-.375-7.595-.749c-1.169-.375-1.169-.375-.584 0 0 .374 0 .374-.585.374-1.167-.374-11.684-.749-16.943-1.123-2.92 0-5.841-.375-7.01-.375-1.17 0-7.012-.374-13.439-.374-7.01 0-16.358-.375-20.448-.749-8.18-.375-29.797 0-30.382.374-.584 0-2.92.375-5.258.375-2.337 0-8.179.374-12.853.75h-14.607c-7.594-.376-42.65-.376-57.257 0H49.91l-2.92.373.583 3.371c0 2.247.585 5.993.585 8.614.585 11.61 1.752 28.838 1.752 33.707 0 2.621.585 7.49.585 10.486.584 3.371.584 15.73.584 29.962 0 19.101.585 24.344 1.17 25.467.583.75.583 2.247.583 4.87l-.584 4.118-1.753 1.124c-1.168.374-2.922.75-3.505.75-1.17 0-1.17 0 .583-.376 2.337-1.123 3.506-3.37 2.337-7.49 0-.749-.583-14.232-.583-30.336 0-16.105-.584-29.587-.584-29.587 0-.374-.585-6.74-.585-14.23 0-7.867-.585-14.233-.585-14.608 0 0-.583-4.12-1.168-8.988-1.168-16.854-1.168-17.228-1.168-1.124.583 18.351-.584 30.336-2.922 39.325-.583 1.498-1.168 4.868-1.752 7.49-1.169 2.247-1.754 4.868-1.754 5.617-1.167 4.87-1.752 7.117-1.752 10.862 0 2.247 0 6.367-.584 8.988 0 2.247-.584 5.618-.584 6.741z"/></g></g></g><g><path fill="#fff" d="M410.585 109.956c2.035-3.042 3.324-5.402 3.866-7.082-.859.68-1.695 1.77-2.51 3.269-.813 1.498-1.265 2.769-1.356 3.813zm14.96 14.823c.091.499.023.998-.204 1.497a2.308 2.308 0 0 1-1.054 1.122c-.476.25-.974.317-1.496.204-.521-.113-.94-.351-1.258-.714-.725-.907-1.201-1.996-1.428-3.265-.272-1.451-.974-4.853-2.108-10.204-.09-.272-.17-.691-.238-1.258-.068-.567-.158-1.1-.272-1.599a9.523 9.523 0 0 0-.442-1.428c-.498 1.043-1.314 2.358-2.448 3.945-1.133 1.587-1.836 2.63-2.108 3.13-.725 1.178-1.734 1.893-3.026 2.142-1.292.25-2.414-.034-3.366-.85-.498-.408-.861-1.043-1.088-1.905-.498-1.905-.385-4.24.34-7.006 1.088-3.855 2.992-7.188 5.712-10 2.04-2.13 4.284-2.63 6.732-1.496 1.224.544 1.882 1.837 1.972 3.877.046.5.216.93.51 1.293.295.363.533.748.714 1.156.182.408.363.986.544 1.735.182.748.295 1.19.34 1.326.318 1.18.646 2.914.986 5.204.34 2.29.646 3.956.918 5 .454 1.723.771 3.333.952 4.829.046.272.318 1.36.816 3.265zm-23.528-9.189c.091.59-.272 1.11-1.088 1.564-1.541.997-3.547 1.383-6.018 1.156-2.47-.227-4.34-1.065-5.61-2.516-1.496-1.723-2.244-3.899-2.244-6.528a24.4 24.4 0 0 1 2.788-10.812c.998-1.904 2.471-3.31 4.42-4.216.499-.227 1.224-.204 2.176.068.952.272 1.655.657 2.108 1.156.544.59.975 1.201 1.292 1.836.816 1.632.386 2.833-1.292 3.604a1.312 1.312 0 0 1-.68.204 1.35 1.35 0 0 1-.612-.136 4.448 4.448 0 0 1-.476-.272 3.297 3.297 0 0 1-.476-.408c-.181-.181-.317-.295-.408-.34-.272-.181-.464-.26-.578-.238-.113.023-.26.147-.442.374-1.042 1.36-1.813 3.4-2.312 6.12-.362 1.995-.453 3.355-.272 4.08.272 1.088.692 1.836 1.258 2.244.567.408 1.44.59 2.618.544.59-.045 1.247-.181 1.972-.408 2.267-.68 3.559.295 3.876 2.924zm-14.824-18.632c.318.317.499.793.544 1.428.046.635-.09 1.156-.408 1.564-1.314 1.768-2.72 4.08-4.216 6.936-1.722 3.31-3.082 6.188-4.08 8.636a93.996 93.996 0 0 1-2.244 4.964c-.181.408-.374 1.043-.578 1.904-.204.861-.419 1.519-.646 1.972-.317.59-.85 1.1-1.598 1.53-.748.43-1.394.578-1.938.442-1.178-.181-1.949-.952-2.312-2.312-1.224-4.035-2.606-10.155-4.148-18.36-.045-.272-.181-.895-.408-1.87a39.244 39.244 0 0 1-.476-2.278c-.181-1.587.136-2.743.952-3.468.635-.544 1.372-.714 2.21-.51.839.204 1.338.703 1.496 1.496.159.793.329 1.632.51 2.516.182.884.374 1.859.578 2.924.204 1.065.352 1.893.442 2.482.771 3.808 1.474 6.89 2.108 9.248.726-.77 1.428-2.085 2.108-3.944.408-1.133 1.134-2.675 2.176-4.624a239.94 239.94 0 0 0 1.836-3.468c.68-1.45 1.882-3.377 3.604-5.78.408-.544.998-1.065 1.768-1.564 1.043-.68 1.95-.635 2.72.136zm-36.924 12.998c2.04-3.042 3.332-5.402 3.876-7.082-.861.68-1.7 1.77-2.516 3.269-.816 1.498-1.269 2.769-1.36 3.813zm14.96 14.823c.091.499.023.998-.204 1.497a2.308 2.308 0 0 1-1.054 1.122c-.476.25-.974.317-1.496.204-.521-.113-.94-.351-1.258-.714-.725-.907-1.201-1.996-1.428-3.265-.272-1.451-.974-4.853-2.108-10.204-.09-.272-.17-.691-.238-1.258-.068-.567-.158-1.1-.272-1.599a9.523 9.523 0 0 0-.442-1.428c-.498 1.043-1.314 2.358-2.448 3.945-1.133 1.587-1.836 2.63-2.108 3.13-.725 1.178-1.734 1.893-3.026 2.142-1.292.25-2.414-.034-3.366-.85-.498-.408-.861-1.043-1.088-1.905-.498-1.905-.385-4.24.34-7.006 1.088-3.855 2.992-7.188 5.712-10 2.04-2.13 4.284-2.63 6.732-1.496 1.224.544 1.882 1.837 1.972 3.877.046.5.216.93.51 1.293.295.363.533.748.714 1.156.182.408.363.986.544 1.735.182.748.295 1.19.34 1.326.318 1.18.646 2.914.986 5.204.34 2.29.646 3.956.918 5 .454 1.723.771 3.333.952 4.829.046.272.318 1.36.816 3.265zm-24.548-35.437a42.196 42.196 0 0 0-.068 2.584c0 .997-.011 1.96-.034 2.89-.022.93-.079 1.78-.17 2.55-.136 1.36-.204 3.264-.204 5.712v4.692c-.045.725-.011 1.813.102 3.264.114 1.45.17 2.539.17 3.264-.045.725-.045 1.643 0 2.754.046 1.11.08 2.04.102 2.788.023.748.012 1.689-.034 2.822-.09 1.27-.612 2.04-1.564 2.312-1.088.363-2.017-.09-2.788-1.36a4.41 4.41 0 0 1-.476-1.326 7.984 7.984 0 0 1-.136-1.496c0-.521-.022-.873-.068-1.054a442.368 442.368 0 0 1-.272-19.108c0-.725.023-1.519.068-2.38.046-.861.091-1.802.136-2.822.046-1.02.091-1.802.136-2.346 0-.227.012-.93.034-2.108.023-1.179.08-2.085.17-2.72 0-.317.068-2.72.204-7.208 0-.544.25-1.065.748-1.564.499-.499 1.02-.748 1.564-.748s1.043.227 1.496.68c.454.453.748 1.02.884 1.7a14.937 14.937 0 0 1 .238 3.332 44.934 44.934 0 0 0-.034 1.53c0 .385-.034.975-.102 1.768-.068.793-.102 1.326-.102 1.598zm-18.972 15.776c-.317.544-.374.986-.17 1.326.204.34.646.51 1.326.51.635.045 1.338-.26 2.108-.918.771-.657 1.338-1.417 1.7-2.278.318-.77.204-1.405-.34-1.904-.453-.408-1.088-.453-1.904-.136a3.097 3.097 0 0 0-1.02.646c-.317.295-.544.555-.68.782-.136.227-.317.578-.544 1.054-.226.476-.385.782-.476.918zm.204 7.14c-.045 0-.136-.034-.272-.102-.136-.068-.249-.09-.34-.068a.304.304 0 0 0-.204.17c-.136.317-.068.68.204 1.088.816 1.133 2.018 1.927 3.604 2.38.136.045.386.113.748.204.363.09.646.159.85.204.204.045.431.159.68.34.25.181.465.385.646.612.318.453.533.975.646 1.564.114.59.08 1.088-.102 1.496-.544.861-1.382 1.201-2.516 1.02-3.4-.453-6.006-1.723-7.82-3.808-1.541-1.859-2.266-4.737-2.176-8.636 0-.227.034-.703.102-1.428a19.97 19.97 0 0 0 .102-1.802c0-.476-.045-1.145-.136-2.006a2.37 2.37 0 0 1 .17-1.428c.204-.453.499-.839.884-1.156a2.854 2.854 0 0 1 1.326-.612 2.854 2.854 0 0 0 1.428-.952c1.27-1.541 3.174-2.493 5.712-2.856 1.315-.227 2.63.181 3.944 1.224 1.315 1.043 2.154 2.267 2.516 3.672.454 1.677.216 3.423-.714 5.236a10.67 10.67 0 0 1-4.012 4.318c-1.745 1.065-3.502 1.507-5.27 1.326zm-17.476-7.887c.136-.318.136-.544 0-.68-.816-1.044-1.7-1.112-2.652-.205-.181.182-.34.363-.476.545-1.677 2.223-2.833 5.058-3.468 8.506-.362 1.95-.362 3.448 0 4.491.136-.227.352-.5.646-.817.295-.317.544-.612.748-.884.204-.272.374-.522.51-.749.59-1.134 2.154-4.536 4.692-10.207zm6.052-23.257c.68.045 1.224.295 1.632.748.408.453.612 1.043.612 1.768-.045.544-.079 1.27-.102 2.176a79.816 79.816 0 0 1-.102 2.55 29.53 29.53 0 0 1-.204 2.21c-.272 2.675-.408 4.85-.408 6.528.046.907 0 2.221-.136 3.944-.136 1.723-.204 2.947-.204 3.672 0 1.179-.056 3.207-.17 6.086-.113 2.879-.17 5.111-.17 6.698 0 .408.023 1.02.068 1.836.046.816.068 1.417.068 1.802s-.045.986-.136 1.802c-.09.77-.612 1.655-1.564 2.652-.362.408-.906.442-1.632.102-.725-.34-1.201-.827-1.428-1.462-.226-.635-.34-1.927-.34-3.876v-6.936a.56.56 0 0 1-.17-.034.56.56 0 0 0-.17-.034c-.181.272-.408.714-.68 1.326a37.482 37.482 0 0 1-.544 1.19c-.68 1.224-1.632 2.63-2.856 4.216-.997 1.36-2.255 2.108-3.774 2.244-1.518.136-2.89-.363-4.114-1.496a4.776 4.776 0 0 1-1.122-2.006c-.204-.748-.328-1.62-.374-2.618-.136-4.67 1.02-9.157 3.468-13.464 1.36-2.357 2.97-4.012 4.828-4.964 2.04-1.043 3.944-.816 5.712.68l.408.204c-.045-1.405.046-3.355.272-5.848.227-2.493.363-4.261.408-5.304 0-1.632.182-3.083.544-4.352.136-.59.454-1.1.952-1.53.499-.43.975-.6 1.428-.51zm-24.48 24.48c.091-.635-.226-1.27-.952-1.904-.725-.635-1.382-.884-1.972-.748-.181.045-.362.159-.544.34-2.221 3.4-3.468 6.641-3.74 9.724.091.952.136 1.462.136 1.53a2.352 2.352 0 0 0 .102.544 2.223 2.223 0 0 0 .238.476c.046.068.102.136.17.204.068.068.17.125.306.17.68.136 1.292-.068 1.836-.612 2.403-2.539 3.876-5.78 4.42-9.724zm1.02-6.391c1.406.68 2.46 1.599 3.162 2.755.703 1.157.964 2.483.782 3.98-.634 5.442-2.72 9.909-6.256 13.401-1.813 1.814-3.966 2.381-6.46 1.7-2.221-.589-3.649-2.13-4.284-4.625-.272-1.18-.385-2.109-.34-2.79 0-2.539.658-5.305 1.972-8.299.635-1.542 1.315-2.834 2.04-3.877.136-.227.238-.601.306-1.123.068-.521.125-.85.17-.986.227-.635.454-.975.68-1.02a57.75 57.75 0 0 0 1.428-.647 18.953 18.953 0 0 1 1.734-.714 4.64 4.64 0 0 1 1.53-.272c.998-.045 1.814.476 2.448 1.565.227.408.59.725 1.088.952zm-20.672-.885c-1.133 1.088-1.813 2.312-2.04 3.672-.136.725.023 1.315.476 1.768.136.136.522.533 1.156 1.19a26.837 26.837 0 0 0 1.496 1.462c1.814 1.632 2.902 3.445 3.264 5.44.272 1.179.034 2.516-.714 4.012-.748 1.496-1.802 2.584-3.162 3.264-2.538 1.27-4.805 1.723-6.8 1.36a6.367 6.367 0 0 0-1.02-.068h-1.02c-.408-.045-.861-.295-1.36-.748-.498-.453-.793-.884-.884-1.292-.09-.453.012-.975.306-1.564.295-.59.646-.952 1.054-1.088.046 0 .794-.045 2.244-.136.318.09.68.136 1.088.136.408 0 .748-.023 1.02-.068.272-.045.658-.125 1.156-.238.499-.113.862-.193 1.088-.238.68-.136 1.236-.453 1.666-.952.431-.499.556-1.02.374-1.564-.226-.861-.725-1.61-1.496-2.244-1.858-1.496-3.264-3.037-4.216-4.624-.861-1.496-.997-3.355-.408-5.576.59-1.95 1.519-3.536 2.788-4.76 2.086-2.04 4.307-2.765 6.664-2.176.907.227 1.757.827 2.55 1.802.794.975 1.19 1.915 1.19 2.822.046.816-.272 1.44-.952 1.87-.68.43-1.405.465-2.176.102-1.088-.499-1.79-.997-2.108-1.496-.317-.544-.725-.567-1.224-.068zm-32.912 6.8c-.317.544-.374.986-.17 1.326.204.34.645.51 1.324.51.633.045 1.335-.26 2.104-.918.769-.657 1.335-1.417 1.697-2.278.316-.77.203-1.405-.34-1.904-.452-.408-1.086-.453-1.9-.136a3.09 3.09 0 0 0-1.018.646c-.317.295-.543.555-.68.782-.135.227-.316.578-.542 1.054-.226.476-.385.782-.475.918zm.204 7.14c-.045 0-.136-.034-.272-.102-.136-.068-.249-.09-.34-.068a.304.304 0 0 0-.204.17c-.136.317-.068.68.204 1.088.816 1.133 2.018 1.927 3.604 2.38.136.045.386.113.748.204.363.09.646.159.85.204.204.045.431.159.68.34.25.181.465.385.646.612.318.453.533.975.646 1.564.114.59.08 1.088-.102 1.496-.544.861-1.382 1.201-2.516 1.02-3.4-.453-6.006-1.723-7.82-3.808-1.541-1.859-2.266-4.737-2.176-8.636 0-.227.034-.703.102-1.428a19.97 19.97 0 0 0 .102-1.802c0-.476-.045-1.145-.136-2.006a2.37 2.37 0 0 1 .17-1.428c.204-.453.499-.839.884-1.156a2.854 2.854 0 0 1 1.326-.612 2.854 2.854 0 0 0 1.428-.952c1.27-1.541 3.174-2.493 5.712-2.856 1.315-.227 2.63.181 3.944 1.224 1.315 1.043 2.154 2.267 2.516 3.672.454 1.677.216 3.423-.714 5.236a10.67 10.67 0 0 1-4.012 4.318c-1.745 1.065-3.502 1.507-5.27 1.326zm-3.808-22.644c1.451 1.179 1.904 2.267 1.36 3.264-.226.408-.702.714-1.428.918a3.924 3.924 0 0 1-2.108.034c-.362-.09-.872-.204-1.53-.34a22.193 22.193 0 0 1-1.462-.34c-.317-.09-.532-.057-.646.102-.113.159-.124.374-.034.646.091.317.136.646.136.986 0 .34-.022.748-.068 1.224-.045.476-.068.805-.068.986-.045.544-.079 1.179-.102 1.904-.022.725-.034 1.45-.034 2.176v1.904c-.045.725-.056 2.335-.034 4.828.023 2.493-.056 4.08-.238 4.76-.045.363-.034.895.034 1.598.068.703.102 1.213.102 1.53-.09 1.541-.408 2.63-.952 3.264a5.591 5.591 0 0 0-.442.476c-.068.09-.226.227-.476.408-.249.181-.442.25-.578.204-.136-.045-.362-.068-.68-.068-.906-.272-1.45-.975-1.632-2.108-.181-1.179-.249-2.063-.204-2.652 0-.181.034-1.054.102-2.618a88.97 88.97 0 0 0 .102-3.57c0-1.723.023-3.173.068-4.352 0-.136.023-2.652.068-7.548.046-2.176.068-3.717.068-4.624a.55.55 0 0 0-.102-.34.584.584 0 0 0-.17-.17c-.045-.023-.158-.034-.34-.034h-.34c-.498-.09-1.654-.113-3.468-.068-.905.023-1.646.034-2.224.034.064-.054.125-.11.184-.17.59-.59.862-1.349.816-2.278-.045-.93-.272-1.643-.68-2.142a1.945 1.945 0 0 0-.824-.6 24.544 24.544 0 0 1 4.224-.148c1.496.09 2.38.011 2.652-.238.272-.25.431-1.122.476-2.618.046-.363.068-.77.068-1.224 0-.453.012-.907.034-1.36.023-.453.034-.861.034-1.224.091-1.45.794-2.221 2.108-2.312.499 0 .986.204 1.462.612.476.408.76.907.85 1.496.182 1.315.227 2.312.136 2.992-.045.725-.022 2.04.068 3.944.046.635.386 1.02 1.02 1.156 2.222.408 3.786.975 4.692 1.7zm-17.32 2.414c-.562.48-1.272.741-2.128.782-.453 0-.906-.272-1.36-.816-.453-.544-.702-1.11-.748-1.7-.045-.997.204-1.847.748-2.55.544-.703 1.247-1.054 2.108-1.054.324 0 .616.05.876.149-.413.052-.818.116-1.216.19-.589.092-1.065.386-1.428.885a2.388 2.388 0 0 0-.476 1.632c.046.635.306 1.201.782 1.7.476.499 1.009.748 1.598.748.25.023.665.034 1.244.034zm-2.06 5.066c.59.045 1.122.204 1.598.476s.839.612 1.088 1.02c.25.408.374.816.374 1.224-.136 1.813-.226 4.873-.272 9.18-.045.68-.102 1.972-.17 3.876a131.857 131.857 0 0 0-.102 4.352c.046.77.023 1.904-.068 3.4-.045 1.45-.748 2.244-2.108 2.38a2.875 2.875 0 0 1-1.836-.476 2.32 2.32 0 0 1-1.02-1.496c-.181-.227-.238-1.122-.17-2.686.068-1.564.102-2.46.102-2.686v-5.44c0-.725.023-1.847.068-3.366.046-1.519.091-2.856.136-4.012.046-1.156.136-2.278.272-3.366.046-.77.272-1.371.68-1.802.408-.43.884-.623 1.428-.578zm-10.948 7.48c.272-1.587.159-3.196-.34-4.828-.136-.408-.272-.669-.408-.782-.136-.113-.476-.034-1.02.238-1.088.816-1.541 1.836-1.36 3.06 0 .227-.022.578-.068 1.054a12.97 12.97 0 0 0-.068.918v7.276c1.678-1.45 2.766-3.763 3.264-6.936zm4.139-7.684c1.314 2.81 1.586 6.165.816 10.064a15.753 15.753 0 0 1-2.107 5.134c-.997 1.564-2.31 3.23-3.942 4.998-.226.227-.544.555-.951.986-.408.43-.703.737-.884.918a1.707 1.707 0 0 0-.408.68c-.09.272-.136.487-.136.646 0 .159.012.408.034.748.023.34.034.555.034.646.046.907.08 2.323.102 4.25.023 1.927.057 3.638.102 5.134.046 1.496.136 2.924.272 4.284.045.499-.102 1.031-.442 1.598-.34.567-.713.918-1.12 1.054-.952.317-1.836 0-2.651-.952-.725-.816-1.065-2.017-1.02-3.604-.181-5.213-.272-8.545-.272-9.996.046-.453-.136-.703-.543-.748a3.355 3.355 0 0 1-2.175-1.088c-.544-.59-.759-1.247-.646-1.972.114-.725.555-1.224 1.326-1.496.86-.272 1.427-.703 1.699-1.292.271-.59.385-1.337.34-2.244-.091-1.45-.069-4.85.067-10.2.046-1.043 0-1.836-.136-2.38-.136-.544-.102-1.337.102-2.38s.306-1.61.306-1.7c.181-2.085.566-6.075 1.155-11.968.046-.816.397-1.473 1.054-1.972a2.76 2.76 0 0 1 2.209-.544c.498.045.928.26 1.29.646.363.385.567.85.612 1.394.136 1.315.046 2.493-.271 3.536a5.94 5.94 0 0 0-.272 1.224c-.046.408-.08.918-.102 1.53-.023.612-.057 1.031-.102 1.258 0 .453.25.612.747.476 2.583-.725 4.554.385 5.913 3.332zm-17.117 16.6c.363 1.995.522 3.355.476 4.08a3.725 3.725 0 0 1-.85 2.008c-.476.567-.987.85-1.53.85-.59 0-1.146-.283-1.667-.85a3.153 3.153 0 0 1-.85-2.007 37.524 37.524 0 0 0-1.021-6.19 40.9 40.9 0 0 1-3.062 4.013c-1.088 1.27-2.426 2.404-4.014 3.401a7.647 7.647 0 0 1-2.993.987c-1.043.113-2.063-.08-3.061-.579-.998-.498-1.77-1.315-2.313-2.449-.454-.952-.703-2.018-.749-3.197-.045-1.179 0-2.245.136-3.197 0-.136.012-.578.034-1.327.023-.748.057-1.303.102-1.666.545-2.767 1.112-4.83 1.701-6.19.182-.364.68-1.588 1.497-3.674.453-.998 1.406-1.7 2.857-2.109.544-.136 1.066.011 1.565.442.499.431.726.941.68 1.53 0 .772-.227 1.588-.68 2.45-2.177 3.945-3.107 8.503-2.79 13.673.091 1.043.59 1.27 1.497.68 1.633-1.133 3.13-2.743 4.49-4.83 1.724-2.494 2.926-4.104 3.606-4.83 1.18-1.179 2.358-1.587 3.538-1.224 1.179.363 1.95 1.27 2.313 2.721.181.907.385 2.222.612 3.946.227 1.723.385 2.902.476 3.537zm-23.538 3.664c1.134 1.723.771 3.128-1.088 4.216-.408.272-.884.329-1.428.17-.544-.159-1.02-.487-1.428-.986-.589-.861-1.428-2.074-2.516-3.638s-1.768-2.527-2.04-2.89c-1.677-2.403-2.901-3.967-3.672-4.692-.498-.499-.872-.748-1.122-.748-.249 0-.646.227-1.19.68-.317.227-.589.499-.816.816-.226.317-.396.59-.51.816-.113.227-.192.555-.238.986-.045.43-.068.748-.068.952v2.074c-.045 4.805-.09 8.205-.136 10.2-.045 1.043-.748 1.95-2.108 2.72-.453.227-.94.17-1.462-.17-.521-.34-.895-.827-1.122-1.462-.136-.317-.238-.714-.306-1.19s-.102-.805-.102-.986c0-.181.012-.612.034-1.292.023-.68.034-1.043.034-1.088 0-.136-.011-.895-.034-2.278-.022-1.383.012-2.142.102-2.278.046-.453-.26-.827-.918-1.122-.657-.295-1.088-.805-1.292-1.53-.204-.725-.102-1.383.306-1.972 1.088-1.677 1.655-2.516 1.7-2.516.091-.181.17-.363.238-.544.068-.181.114-.385.136-.612.023-.227.034-.43.034-.612 0-.181-.011-.397-.034-.646a6.844 6.844 0 0 1-.034-.578c0-.59.023-2.516.068-5.78.046-3.4.136-6.256.272-8.568.227-3.445.476-6.415.748-8.908.091-.499.227-1.813.408-3.944.091-.907.59-1.677 1.496-2.312.816-.499 1.564-.555 2.244-.17.68.385 1.088.986 1.224 1.802.046.272.068.544.068.816 0 .272-.011.544-.034.816-.022.272-.045.533-.068.782-.022.25-.056.521-.102.816a5.213 5.213 0 0 0-.068.782c-.589 7.39-.929 12.467-1.02 15.232v5.576c.499-.227.998-.657 1.496-1.292.771-.952 1.972-2.017 3.604-3.196.363-.272.748-.612 1.156-1.02l1.258-1.258c.431-.43.828-.782 1.19-1.054.635-.499 1.542-1.043 2.72-1.632.907-.408 1.7-.136 2.38.816.363.544.499 1.11.408 1.7-.09.59-.34 1.088-.748 1.496l-4.964 4.148c-.09.09-.158.136-.204.136a2.34 2.34 0 0 1-.408.442 9.324 9.324 0 0 0-.442.408c-.113.113-.238.26-.374.442-.136.181-.226.34-.272.476-.09.272-.056.499.102.68.159.181.374.374.646.578.272.204.454.374.544.51 2.766 3.49 5.35 7.117 7.752 10.88zm-33.116-12.783c.136-.318.136-.544 0-.68-.816-1.044-1.7-1.112-2.652-.205-.181.182-.34.363-.476.545-1.677 2.223-2.833 5.058-3.468 8.506-.362 1.95-.362 3.448 0 4.491.136-.227.352-.5.646-.817.295-.317.544-.612.748-.884.204-.272.374-.522.51-.749.59-1.134 2.154-4.536 4.692-10.207zm6.061-23.257c.68.045 1.225.295 1.633.748.408.453.612 1.043.612 1.768a39.28 39.28 0 0 0-.102 2.176 79.78 79.78 0 0 1-.102 2.55c-.045.793-.113 1.53-.204 2.21-.272 2.675-.408 4.85-.408 6.528.045.907 0 2.221-.136 3.944-.136 1.723-.204 2.947-.204 3.672 0 1.179-.057 3.207-.17 6.086-.114 2.879-.17 5.111-.17 6.698 0 .408.022 1.02.068 1.836.045.816.068 1.417.068 1.802s-.046.986-.136 1.802c-.091.77-.613 1.655-1.565 2.652-.363.408-.907.442-1.633.102s-1.202-.827-1.429-1.462c-.226-.635-.34-1.927-.34-3.876v-6.936a.56.56 0 0 1-.17-.034.56.56 0 0 0-.17-.034c-.181.272-.408.714-.68 1.326a37.449 37.449 0 0 1-.545 1.19c-.68 1.224-1.632 2.63-2.857 4.216-.998 1.36-2.256 2.108-3.776 2.244-1.52.136-2.891-.363-4.116-1.496a4.775 4.775 0 0 1-1.122-2.006c-.205-.748-.33-1.62-.375-2.618-.136-4.67 1.02-9.157 3.47-13.464 1.36-2.357 2.97-4.012 4.83-4.964 2.041-1.043 3.946-.816 5.715.68l.408.204c-.045-1.405.046-3.355.273-5.848.226-2.493.362-4.261.408-5.304 0-1.632.181-3.083.544-4.352.136-.59.454-1.1.953-1.53.498-.43.975-.6 1.428-.51zm-24.489 24.48c.091-.635-.226-1.27-.952-1.904-.725-.635-1.382-.884-1.972-.748-.181.045-.362.159-.544.34-2.221 3.4-3.468 6.641-3.74 9.724.091.952.136 1.462.136 1.53a2.352 2.352 0 0 0 .102.544 2.223 2.223 0 0 0 .238.476c.046.068.102.136.17.204.068.068.17.125.306.17.68.136 1.292-.068 1.836-.612 2.403-2.539 3.876-5.78 4.42-9.724zm1.013-6.391c1.404.68 2.458 1.599 3.16 2.755.702 1.157.963 2.483.781 3.98-.634 5.442-2.718 9.909-6.252 13.401-1.812 1.814-3.964 2.381-6.456 1.7-2.22-.589-3.648-2.13-4.282-4.625-.272-1.18-.385-2.109-.34-2.79 0-2.539.657-5.305 1.971-8.299.634-1.542 1.314-2.834 2.039-3.877.136-.227.238-.601.306-1.123.068-.521.124-.85.17-.986.226-.635.453-.975.68-1.02.316-.136.792-.352 1.427-.647a18.937 18.937 0 0 1 1.733-.714 4.634 4.634 0 0 1 1.529-.272c.996-.045 1.812.476 2.446 1.565.227.408.59.725 1.088.952zm-20.869 5.37c.272-1.586.159-3.195-.34-4.827-.136-.408-.272-.669-.408-.782-.136-.113-.476-.034-1.02.238-1.088.816-1.541 1.836-1.36 3.06 0 .227-.022.578-.068 1.054a12.97 12.97 0 0 0-.068.918v7.276c1.678-1.45 2.766-3.763 3.264-6.936zm4.148-7.683c1.315 2.81 1.587 6.165.816 10.064a15.748 15.748 0 0 1-2.108 5.134c-.997 1.564-2.312 3.23-3.944 4.998-.226.227-.544.555-.952.986-.408.43-.702.737-.884.918a1.707 1.707 0 0 0-.408.68c-.09.272-.136.487-.136.646 0 .159.012.408.034.748.023.34.034.555.034.646.046.907.08 2.323.102 4.25.023 1.927.057 3.638.102 5.134.046 1.496.136 2.924.272 4.284.046.499-.102 1.031-.442 1.598-.34.567-.714.918-1.122 1.054-.952.317-1.836 0-2.652-.952-.725-.816-1.065-2.017-1.02-3.604-.181-5.213-.272-8.545-.272-9.996.046-.453-.136-.703-.544-.748a3.358 3.358 0 0 1-2.176-1.088c-.544-.59-.759-1.247-.646-1.972.114-.725.556-1.224 1.326-1.496.862-.272 1.428-.703 1.7-1.292.272-.59.386-1.337.34-2.244-.09-1.45-.068-4.85.068-10.2.046-1.043 0-1.836-.136-2.38-.136-.544-.102-1.337.102-2.38s.306-1.61.306-1.7c.182-2.085.567-6.075 1.156-11.968.046-.816.397-1.473 1.054-1.972a2.762 2.762 0 0 1 2.21-.544c.499.045.93.26 1.292.646.363.385.567.85.612 1.394.136 1.315.046 2.493-.272 3.536a5.937 5.937 0 0 0-.272 1.224c-.045.408-.079.918-.102 1.53-.022.612-.056 1.031-.102 1.258 0 .453.25.612.748.476 2.584-.725 4.556.385 5.916 3.332z"/></g></g></g></g></svg>