<svg xmlns="http://www.w3.org/2000/svg" width="770" height="150" viewBox="30 30 770 150"><g><g><g><g><g><g><path fill="#ec1d24" d="M55.965 45.553l7.982 107.231.668 14.226-8.65 3.491 14.58 3.008 30.89 1.339 43.354-4.347h48.643l45.469-1.598 36.887-3.879h40.305l54.987-2.247 23.263-.522 34.895 1.363 26.434.661 20.092.745 306.459-3.558.743-14.693-9.842-15.522-3.02-33.462 5.763-30.889 4.161-14.901 2.195-18.509-83.91 6.164-41.434 4.766s-139.874 10.538-346.074-.196z"/></g><g><path fill="none" stroke="#231f20" stroke-miterlimit="50" stroke-width="3" d="M34.124 46.676l3.034-.374v-4.869c0-4.494 1.008-5.992 4.042-5.992v.374c-1.01.75-2.022 8.614-1.01 9.738 1.01.75 1.01.75 7.075.374 3.035-.374 6.067-.749 7.077-1.123 0-.375 1.012-.375 2.024-.375 0 0 1.008 0 1.008-.374 0-3.746 2.024-5.618 4.046-5.244 2.022 0 3.032 2.622 1.011 3.371 0 .374-1.011 1.123-2.023 1.873 0 .75 0 1.123 2.023.75 1.01 0 6.066-.376 12.132-.75 5.053 0 12.13-.375 16.174-.75 3.034 0 9.1-.374 13.142-.374 16.176-.749 41.45-2.247 48.527-2.247 4.042-.375 20.219-.375 37.405-.375 58.636.375 117.27.375 121.314-.374 3.034 0 37.406-.375 121.313-.375 90.987 0 120.306-.374 133.449-.749 9.097-.374 26.284-.374 37.405-.374 26.284-.375 59.645-.749 77.842-1.498 7.077-.375 16.174-.749 20.22-1.124 4.043 0 13.143-.374 20.218-.749 9.098-.374 16.175-.749 32.352-.374 19.208 0 21.228 0 22.24-.749 1.012-.749 3.033-.749 3.033.374-1.011 1.124 1.01.375 2.02-1.498 2.024-1.498 4.046-2.62 5.058-2.247 1.01 0 1.01 1.124 1.01 2.622-1.01 1.872 0 1.872 1.01 1.872 3.034.375 3.034.75 1.012 1.873-3.032 1.123-2.022 2.247 1.01 8.24 2.023 3.744 2.023 5.242 2.023 18.351 0 7.49 0 19.1-1.011 25.842 0 17.227 1.011 32.583 4.043 41.946 1.01 3.745 2.022 7.115 1.01 14.605 0 7.866 0 10.113 1.012 14.607 2.022 4.494 2.022 5.243 1.012 5.618-1.012.75-2.024.75-4.045.374-3.032-.749-21.23-.374-35.384 0-5.053.375-13.14.75-18.196 1.124-12.131.374-71.778.374-89.975 0-7.077-.375-36.395-.375-63.69-.375-100.085 0-136.478.75-164.786 2.247-7.077.75-17.186 1.124-24.262 1.124-29.319 1.123-72.79 3.745-83.909 5.243-8.089 1.124-39.428 1.124-46.504 0-2.024 0-6.066-.375-9.1-.375-7.077-.748-15.164-1.123-25.273-2.247-5.056-.374-10.11-.749-12.133-.749-2.022 0-5.054 0-8.087-.374-7.076-.749-17.185-.749-33.36 0-5.055.374-14.155.374-26.286.75-5.055 0-10.109.373-13.14.748-3.034.374-6.066.374-8.09.374-1.012 0-4.042.375-7.077.75-2.022.748-6.066.748-8.088.748-2.02 0-6.065.375-9.097 1.124-10.11 1.124-26.284 2.247-37.407 2.622-3.032 0-7.075.374-9.097.374-3.034.375-3.034 0-3.034-.374 0-.375 0-.749 1.012-.749h5.054c2.022 0 3.033-.375 2.022-.749-1.01-.375-2.022-.375-3.032-.375l-8.088-2.247c-4.045-1.124-8.089-2.247-9.099-2.622-1.012 0-2.02-.374-3.032-.749l-6.065-3.745-5.057-3.745V153.79c0-5.993 1.011-11.985 2.023-13.483 0-1.498 1.01-4.12 1.01-5.618 1.012-1.498 2.024-3.37 2.024-4.494 3.032-3.37 4.042-14.607 3.032-31.459-1.012-9.738-1.012-22.846-1.012-29.588 1.012-6.74 0-14.606 0-16.853l-1.012-4.869-3.032.375c-5.054 0-6.065-.749-1.01-1.124zm2.022 113.484c0-.379-1.012-.379-1.012-.379v1.134c1.012 0 1.012-.378 1.012-.755zm.996-15.73c0-2.25-1.003-4.124-1.003-3.75-1.003 0-1.003 7.875 0 7.875 0 0 1.003-1.875 1.003-4.125zm73.814 29.96c-20.219.375-22.24.375-22.24-.376 1.01-.75 0-.75-10.111-.375-5.054 0-12.131.375-15.163.375l-5.056.376 2.022.75c2.023.375 3.034.751 4.044.751 0 0 2.022.375 5.055 1.126 4.044.751 4.044 1.126 10.11.751 3.033 0 9.099-.376 12.13-.75 3.034-.376 6.066-.376 8.09-.376 1.01 0 2.021-.376 3.032-.376 1.01-.75 8.087-1.126 13.14-1.126 3.034 0 6.066-.375 6.066-.75 1.012-.376-2.02-.376-11.12 0zm216.359-1.876H304.06c-5.056-.374-11.123-.749-14.155-.749-25.277-1.123-51.566-1.498-70.777-1.123l-8.087.374 4.043.375c2.024.374 6.066.374 8.09.374 3.032 0 6.066.375 9.099.75 2.022.374 6.066.748 9.1.748 6.066.375 18.199 1.124 25.277 1.873 2.022.374 8.088.75 12.133.75 5.054 0 9.1.373 9.1.373h4.044c2.022 0 7.077-.374 12.133-.749 5.056 0 11.122-.374 13.144-.748 2.022-.375 8.089-.75 13.143-1.124l10.112-.749c1.012-.375-5.056-.375-13.144-.375zm454.914-8.239l-2.021-.374c-2.022-.375-2.022-.749-2.022-1.124 0-.749-1.01-.749-8.088.375-9.097 1.498-23.252 1.872-47.514 1.872-9.1 0-20.218.375-25.275.375h-23.251c-13.143-.375-23.252-.749-55.602-1.124-9.099 0-23.253-.374-32.35-.374-18.2-.749-40.44-.375-74.813.374-22.24.375-49.536.375-71.778 0-32.35-.749-53.58-.749-73.798-.374-23.254.374-21.23.374-28.307.75-15.165.748-32.352 1.122-52.57 1.497-4.044 0-9.098 0-11.12.374-2.023 0-5.055.375-7.077.375-2.022 0-5.054.374-5.054.374-1.011 0-9.1.375-18.198.75-15.165.748-27.296 1.497-29.318 1.872h22.242c22.24 0 32.35.374 48.525 1.123 7.077 0 26.285.75 41.45.75H345.5c17.184-.75 32.35-1.124 40.437-1.873 2.021 0 11.12-.375 18.198-.749 8.087-.375 18.196-.749 22.239-1.124 11.122-.374 25.273-.749 41.45-1.123 6.065 0 19.208-.375 27.296-.749H614.41c57.624 0 110.193 0 115.249-.375 6.067 0 17.186-.374 25.275-.374 14.152 0 18.197-.375 24.262-.749zm4.046-3.364c1.01-.756 1.01-.756-1.012-.378-1.012 0-2.022.378-2.022.378-1.012.755 1.01.755 3.034 0zm-2.024-2.253c0 .374 0 .374 1.02.374 0 0 1.02-.374 1.02-.749 0-.374-1.02-.374-1.02-.374-1.02 0-1.02 0-1.02.75zm2.04-3.377c0-2.988-1.02-3.362-2.04-.747v2.242c2.04.374 2.04 0 2.04-1.495zm1.01 7.122l-1.018-.375h-1.02c0 .375 0 .75 1.02.75zm2.006-53.93c0-.376-1.012 2.62-1.012 5.991 0 6.367 0 17.228-1.01 24.344-1.01 5.992 1.01 18.352 3.032 18.726 1.012.375 1.012.375 0 .75-1.01.374-1.01 1.872-2.022 2.995 0 1.873 0 2.247 2.022 2.247 1.012 0 2.023 0 2.023.75 0 .374 0 .748 2.02.748 2.022 0 2.022-.374 1.012-2.247 0-1.123-1.011-2.62-1.011-2.996-1.01-.749-1.01-7.115-1.01-14.607 0-15.729-2.022-36.328-4.044-36.702zm-3.032-37.828c0 2.248 1.01 7.116 1.01 11.61l1.01 7.866 1.012-5.244c0-2.996 1.01-6.74 1.01-8.988 2.023-7.49 2.023-19.475 0-25.093-2.022-2.996-2.022-5.992-2.022-6.367 0-.374-1.01-.749-1.01-.749-2.022.375-3.034 19.85-1.01 26.965zm-3.034.749c0-2.622-1.012-5.244-1.012-5.618 0-.749 0-3.744-1.011-5.991 0-4.868 0-4.868-1.01-1.873-1.01 3.745-3.032 15.728-4.044 19.847 0 2.995-1.012 4.868-3.032 10.112v13.106c0 12.732 1.01 20.222 5.054 26.962 2.022 2.622 5.055 10.86 5.055 11.608 0 0 1.01.374 1.01 0 0 0 1.012-1.497 1.012-3.37 0-1.498 1.012-10.11 1.012-18.35 1.01-14.23 1.01-23.591-1.012-34.077-1.012-5.242-1.012-8.238-2.022-12.356zm-1.012-22.096l1.012-2.996v-5.244c0-1.872 0-1.872-1.012-.749-1.011.75-1.011 2.247-1.011 4.87zm-1.011-10.86c1.011 0 2.023-.376 2.023-1.125 1.01-.749 0-1.123-1.012-.749-2.021.375-2.021 1.873-1.011 1.873zm-3.032.373c0 .375 1.02.375 2.038.375v-.749c-1.018-.375-2.038-.375-2.038.374zm-159.73.75c1.01.374 17.187.748 43.476.748 14.154 0 25.276.375 25.276.375h16.177c12.132 0 16.176-.375 32.354-1.873 10.11-1.123 22.243-1.872 26.286-2.247l7.078-.374-4.045-.375c-6.066-.749-34.376-.374-45.497 0-3.034.375-12.132.75-18.198 1.124-7.078.374-16.179.75-19.21.75-11.121.748-43.476 1.497-58.642 1.497-3.034 0-5.055 0-5.055.374zm146.575-2.248c-8.077.375-13.124 1.124-5.047.75 3.028 0 6.058-.375 8.077-.375 1.009-.375 0-.375-3.03-.375zm-16.163 1.498h1.01c2.024 0 3.034-.374 3.034-.374 1.012-.375-3.034 0-4.044.374zm-446.84 3.749c-7.077.375-20.22.75-30.331.75-11.12.375-21.229.75-22.24 1.125-4.044.375-18.197.75-40.439 1.125-7.076.374-11.12.374-11.12.75h6.066c3.032 0 12.131-.376 19.209-.376 7.077-.374 18.196-.75 25.274-1.124 14.152-.375 39.426-.375 48.524 0 4.045 0 17.188.374 30.33.374 22.24.376 52.569 1.126 65.712 1.876 13.143.374 52.568 1.124 103.117 1.5 42.46.374 65.711.374 86.942-.376 7.077 0 14.152-.375 15.164-.375 2.02 0 8.09-.375 15.163-.75 7.078 0 16.177-.75 21.23-1.125 17.187-1.124 32.352-2.25 55.604-3.749 5.055 0 8.087-.375 8.087-.375s-16.175-.375-35.383-.75c-35.383 0-39.427-.374-50.546-1.124-7.077-.376-33.363-.376-42.462 0-18.197.75-38.415.75-66.723.75-48.526 0-164.785 1.124-201.178 1.874zM71.529 45.543h33.361c16.177-.374 43.47-.374 59.647-.374 28.308 0 40.439-.373 55.602-1.12h14.153c3.034 0 8.089-.374 12.131-.748 7.077-.374 20.22-.748 35.385-1.12 15.163-.375 8.087-.375-19.209-.748-53.581-.374-104.127-.374-116.258.373-7.078.374-19.209.747-28.308 1.495-10.11.374-21.23.748-27.296 1.121-5.055.374-12.132.747-15.164.747-5.056 0-6.066 0-4.044.374zm-30.33 3.38c0 .375 1.012 12.36 1.012 26.591 1.012 35.58 1.012 37.826 1.012 37.452 1.012 0 2.02-1.873 2.02-3.37 1.012-1.873 2.022-4.869 3.034-6.367 2.023-5.243 5.055-13.483 5.055-19.476 1.01-5.617 1.01-22.47 0-31.459-1.011-4.869-1.011-5.243-3.032-5.243h-6.065c-3.035.374-3.035.374-3.035 1.872zm-1.01 93.255c-2.023 14.607-1.011 22.846 3.034 25.093 1.012 1.124 2.02 1.873 2.02 1.873 1.012 0 2.022.374 3.034 1.123 2.023 1.498 6.065 2.622 11.12 2.996 5.055.375 7.077.375 9.1-.374 1.01-.375 2.02-.375 2.02-.375l2.022-.749c1.012-.749 2.024-.749 1.012 0l-1.012 1.124 26.286-.375c37.405-.374 44.482-.374 52.57-.749 5.053-.374 16.174-1.123 31.339-1.498 9.1-.374 23.252-1.123 39.427-1.872 3.033-.375 11.12-.749 18.197-1.124 7.077-.374 18.196-.749 23.253-1.498 12.131-.749 17.185-.749 37.405-1.123 7.078 0 22.24-.749 33.362-1.124 10.109-.374 24.262-.749 31.339-.749 8.087-.374 14.153-.374 15.163-.374h17.188c44.481 1.123 94.017 1.498 119.291.75 22.242-.75 52.57-1.125 71.778-.376 9.1 0 22.242.375 30.33.375 32.35.374 46.502.75 53.58 1.123 7.077.375 52.569 0 74.811-.749 12.131 0 13.143-.374 31.34-2.996 1.01 0 1.01-.749 2.02-1.498 0-1.066-.021-1.452-1.744-1.49.188-.375.167-.764-.062-1.133 1.807-.034 1.844-.567 2.817-5.617 1.012-3.37 1.012-6.367 0-7.49 0-1.124-1.011-3.37-1.011-4.494-1.01-1.498-3.032-5.243-4.042-7.865-5.056-8.239-6.068-15.73-7.078-28.089 0-7.865 0-12.359 1.01-16.105 2.024-4.868 2.024-9.362 5.056-20.972 1.012-7.865 1.012-8.988 3.033-11.985 2.02-2.996 1.01-6.74-1.011-11.236-2.022-4.119-2.022-4.119-7.078-3.745-3.032.375-7.075.375-11.119.375-3.034 0-10.11.374-15.165.75-6.065.373-13.142.748-17.186 1.122-4.044 0-11.121.375-17.187 1.124-14.151.75-20.218 1.123-32.35 1.873-6.066.374-20.218 1.123-30.329 2.247-11.119.75-24.262 1.498-30.327 1.498-10.111.75-25.274 1.123-32.352 1.498-4.043 0-31.34.75-36.395.75-2.02 0-20.216 0-40.437-.376-20.218 0-43.472-.374-50.547-.374-7.076 0-16.175-.375-21.23-.375-5.054 0-14.154-.374-21.23-.374-7.078 0-13.144-.375-13.144-.749-2.022-.375-2.022-.375-1.01 0 0 .374 0 .374-1.012.374-2.02-.374-20.218-.749-29.317-1.123-5.054 0-10.108-.375-12.131-.375-2.022 0-12.131-.374-23.252-.374-12.131 0-28.306-.375-35.384-.749-14.152-.375-51.558 0-52.57.374-1.011 0-5.053.375-9.098.375-4.044 0-14.152.374-22.24.75H190.82c-13.14-.376-73.8-.376-99.074 0H64.452l-5.054.373 1.01 3.371c0 2.247 1.012 5.993 1.012 8.614 1.011 11.61 3.032 28.838 3.032 33.707 0 2.621 1.011 7.49 1.011 10.486 1.01 3.371 1.01 15.73 1.01 29.962 0 19.101 1.012 24.344 2.024 25.467 1.01.75 1.01 2.247 1.01 4.87l-1.01 4.118-3.034 1.124c-2.021.374-5.055.75-6.065.75-2.024 0-2.024 0 1.01-.376 4.044-1.123 6.066-3.37 4.044-7.49 0-.749-1.01-14.232-1.01-30.336 0-16.105-1.01-29.587-1.01-29.587 0-.374-1.012-6.74-1.012-14.23 0-7.867-1.012-14.233-1.012-14.608 0 0-1.01-4.12-2.022-8.988-2.02-16.854-2.02-17.228-2.02-1.124 1.008 18.351-1.012 30.336-5.057 39.325-1.009 1.498-2.02 4.868-3.032 7.49-2.022 2.247-3.034 4.868-3.034 5.617-2.02 4.87-3.032 7.117-3.032 10.862 0 2.247 0 6.367-1.011 8.988 0 2.247-1.01 5.618-1.01 6.741z"/></g></g></g><g><path fill="#fff" d="M718.2 105.107c-.318.543-.375.985-.17 1.324.203.34.645.509 1.325.509.635.045 1.338-.26 2.108-.916.771-.656 1.338-1.414 1.7-2.274.318-.77.204-1.403-.34-1.9-.453-.408-1.088-.453-1.904-.136-.362.135-.702.35-1.02.644-.317.295-.544.555-.68.781a13.47 13.47 0 0 0-.544 1.052c-.226.475-.385.78-.476.916zm.203 7.147c-.045 0-.136-.034-.272-.102-.136-.068-.249-.09-.34-.068a.304.304 0 0 0-.204.17c-.136.317-.068.68.204 1.088.816 1.133 2.018 1.927 3.604 2.38.136.045.386.113.748.204.363.09.646.159.85.204.204.045.431.159.68.34.25.181.465.385.646.612.318.453.533.975.646 1.564.114.59.08 1.088-.102 1.496-.544.861-1.382 1.201-2.516 1.02-3.4-.453-6.006-1.723-7.82-3.808-1.541-1.859-2.266-4.737-2.176-8.636 0-.227.034-.703.102-1.428a19.97 19.97 0 0 0 .102-1.802c0-.476-.045-1.145-.136-2.006a2.37 2.37 0 0 1 .17-1.428c.204-.453.499-.839.884-1.156a2.854 2.854 0 0 1 1.326-.612 2.854 2.854 0 0 0 1.428-.952c1.27-1.541 3.174-2.493 5.712-2.856 1.315-.227 2.63.181 3.944 1.224 1.315 1.043 2.154 2.267 2.516 3.672.454 1.677.216 3.423-.714 5.236a10.67 10.67 0 0 1-4.012 4.318c-1.745 1.065-3.502 1.507-5.27 1.326zm-3.798-22.644c1.45 1.179 1.904 2.267 1.36 3.264-.227.408-.703.714-1.428.918a3.927 3.927 0 0 1-2.11.034c-.362-.09-.872-.204-1.53-.34a22.211 22.211 0 0 1-1.463-.34c-.317-.09-.533-.057-.646.102-.113.159-.125.374-.034.646.09.317.136.646.136.986 0 .34-.023.748-.068 1.224-.045.476-.068.805-.068.986-.045.544-.08 1.179-.102 1.904a69.62 69.62 0 0 0-.034 2.176v1.904c-.045.725-.057 2.335-.034 4.828.023 2.493-.057 4.08-.238 4.76-.046.363-.034.895.034 1.598.068.703.102 1.213.102 1.53-.09 1.541-.408 2.63-.953 3.264a5.592 5.592 0 0 0-.442.476c-.068.09-.227.227-.476.408-.25.181-.442.25-.578.204-.136-.045-.363-.068-.68-.068-.908-.272-1.452-.975-1.633-2.108-.182-1.179-.25-2.063-.204-2.652 0-.181.034-1.054.102-2.618.068-1.564.102-2.754.102-3.57 0-1.723.022-3.173.068-4.352 0-.136.022-2.652.068-7.548.045-2.176.068-3.717.068-4.624a.55.55 0 0 0-.102-.34.584.584 0 0 0-.17-.17c-.046-.023-.159-.034-.34-.034h-.34c-.5-.09-1.656-.113-3.47-.068a92.73 92.73 0 0 1-2.227.034c.064-.054.125-.11.184-.17.59-.59.862-1.349.816-2.278-.045-.93-.272-1.643-.68-2.142a1.945 1.945 0 0 0-.824-.6 24.564 24.564 0 0 1 4.228-.148c1.496.09 2.38.011 2.653-.238.272-.25.43-1.122.476-2.618.045-.363.068-.77.068-1.224 0-.453.011-.907.034-1.36.023-.453.034-.861.034-1.224.09-1.45.794-2.221 2.109-2.312.499 0 .986.204 1.463.612.476.408.76.907.85 1.496.181 1.315.227 2.312.136 2.992-.045.725-.023 2.04.068 3.944.045.635.386 1.02 1.02 1.156 2.223.408 3.788.975 4.695 1.7zm-17.33 2.414c-.328.28-.707.486-1.135.617.08-.208.118-.42.114-.636.248.013.589.019 1.021.019zm-1.135.617c-.03.078-.067.156-.109.233-.226.408-.702.714-1.428.918a3.924 3.924 0 0 1-2.108.034c-.362-.09-.872-.204-1.53-.34a22.193 22.193 0 0 1-1.462-.34c-.317-.09-.532-.057-.646.102-.113.159-.124.374-.034.646.091.317.136.646.136.986 0 .34-.022.748-.068 1.224-.045.476-.068.805-.068.986-.045.544-.079 1.179-.102 1.904-.022.725-.034 1.45-.034 2.176v1.904c-.045.725-.056 2.335-.034 4.828.023 2.493-.056 4.08-.238 4.76-.045.363-.034.895.034 1.598.068.703.102 1.213.102 1.53-.09 1.541-.408 2.63-.952 3.264a5.591 5.591 0 0 0-.442.476c-.068.09-.226.227-.476.408-.249.181-.442.25-.578.204-.136-.045-.362-.068-.68-.068-.906-.272-1.45-.975-1.632-2.108-.181-1.179-.249-2.063-.204-2.652 0-.181.034-1.054.102-2.618a88.97 88.97 0 0 0 .102-3.57c0-1.723.023-3.173.068-4.352 0-.136.023-2.652.068-7.548.046-2.176.068-3.717.068-4.624a.55.55 0 0 0-.102-.34.584.584 0 0 0-.17-.17c-.045-.023-.158-.034-.34-.034h-.34c-.498-.09-1.654-.113-3.468-.068-1.813.045-2.969.045-3.468 0-.589 0-1.122-.25-1.598-.748-.476-.499-.736-1.065-.782-1.7a2.388 2.388 0 0 1 .476-1.632c.363-.499.839-.793 1.428-.884 1.678-.317 3.491-.43 5.44-.34 1.496.09 2.38.011 2.652-.238.272-.25.431-1.122.476-2.618.046-.363.068-.77.068-1.224 0-.453.012-.907.034-1.36.023-.453.034-.861.034-1.224.091-1.45.794-2.221 2.108-2.312.499 0 .986.204 1.462.612.476.408.76.907.85 1.496.182 1.315.227 2.312.136 2.992-.045.725-.022 2.04.068 3.944.046.635.386 1.02 1.02 1.156 1.311.24 2.393.537 3.246.888-.148.454-.21.951-.186 1.492.046.59.295 1.156.748 1.7.454.544.907.816 1.36.816.356-.017.687-.072.993-.165zm-2.353-4.901c.544-.703 1.247-1.054 2.108-1.054.324 0 .616.05.876.149-.412.052-.817.116-1.215.191-.59.09-1.066.385-1.428.884-.248.34-.401.703-.458 1.086a8.238 8.238 0 0 0-.445-.198 3.49 3.49 0 0 1 .562-1.058zm-.117 1.256c.393.19.727.395 1.001.614 1.04.845 1.568 1.643 1.583 2.395a5.663 5.663 0 0 1-.222-.015c-.59 0-1.122-.25-1.598-.748-.477-.499-.737-1.065-.783-1.7a2.423 2.423 0 0 1 .019-.546zm1.55 8.094c.59.045 1.124.204 1.6.476.478.272.84.612 1.09 1.02.25.409.375.817.375 1.225-.136 1.814-.227 4.875-.272 9.184-.046.68-.102 1.972-.17 3.877a131.726 131.726 0 0 0-.103 4.354c.046.77.023 1.904-.068 3.401-.045 1.451-.749 2.245-2.111 2.381a2.883 2.883 0 0 1-1.84-.476 2.322 2.322 0 0 1-1.021-1.497c-.182-.227-.239-1.122-.17-2.687.067-1.564.102-2.46.102-2.687v-5.442c0-.726.022-1.848.068-3.367.045-1.52.09-2.857.136-4.014.045-1.156.136-2.279.272-3.367.046-.771.273-1.372.682-1.803.408-.43.885-.623 1.43-.578zm-17.14 16.388c.362 1.995.52 3.355.475 4.08-.09.77-.374 1.44-.85 2.006-.476.567-.986.85-1.53.85-.589 0-1.144-.283-1.666-.85a3.152 3.152 0 0 1-.85-2.006 37.51 37.51 0 0 0-1.02-6.188 40.884 40.884 0 0 1-3.06 4.012c-1.088 1.27-2.425 2.403-4.012 3.4a7.644 7.644 0 0 1-2.992.986c-1.042.113-2.062-.08-3.06-.578-.997-.499-1.768-1.315-2.312-2.448-.453-.952-.702-2.017-.748-3.196-.045-1.179 0-2.244.136-3.196a74 74 0 0 1 .034-1.326c.023-.748.057-1.303.102-1.666.544-2.765 1.111-4.828 1.7-6.188.182-.363.68-1.587 1.496-3.672.454-.997 1.406-1.7 2.856-2.108.544-.136 1.066.011 1.564.442.499.43.726.94.68 1.53 0 .77-.226 1.587-.68 2.448-2.176 3.944-3.105 8.5-2.788 13.668.091 1.043.59 1.27 1.496.68 1.632-1.133 3.128-2.743 4.488-4.828 1.723-2.493 2.924-4.103 3.604-4.828 1.179-1.179 2.358-1.587 3.536-1.224 1.179.363 1.95 1.27 2.312 2.72.182.907.386 2.221.612 3.944.227 1.723.386 2.901.476 3.536zm-24.345 2.108c.091.59-.272 1.11-1.088 1.564-1.541.997-3.547 1.383-6.018 1.156-2.47-.227-4.34-1.065-5.61-2.516-1.496-1.723-2.244-3.899-2.244-6.528a24.4 24.4 0 0 1 2.788-10.812c.998-1.904 2.471-3.31 4.42-4.216.499-.227 1.224-.204 2.176.068.952.272 1.655.657 2.108 1.156.544.59.975 1.201 1.292 1.836.816 1.632.386 2.833-1.292 3.604a1.312 1.312 0 0 1-.68.204 1.35 1.35 0 0 1-.612-.136 4.448 4.448 0 0 1-.476-.272 3.297 3.297 0 0 1-.476-.408c-.181-.181-.317-.295-.408-.34-.272-.181-.464-.26-.578-.238-.113.023-.26.147-.442.374-1.042 1.36-1.813 3.4-2.312 6.12-.362 1.995-.453 3.355-.272 4.08.272 1.088.692 1.836 1.258 2.244.567.408 1.44.59 2.618.544.59-.045 1.247-.181 1.972-.408 2.267-.68 3.559.295 3.876 2.924zm-21.896-9.994c.091-.635-.226-1.27-.952-1.905-.725-.636-1.382-.885-1.972-.749-.181.045-.362.159-.544.34-2.221 3.403-3.468 6.647-3.74 9.732.091.952.136 1.463.136 1.53a2.356 2.356 0 0 0 .102.544 2.224 2.224 0 0 0 .238.476c.046.07.102.138.17.206.068.068.17.125.306.17.68.136 1.292-.068 1.836-.612 2.403-2.541 3.876-5.785 4.42-9.732zm1.02-6.394c1.406.68 2.46 1.598 3.162 2.754.703 1.156.964 2.482.782 3.978-.634 5.44-2.72 9.905-6.256 13.396-1.813 1.813-3.966 2.38-6.46 1.7-2.221-.59-3.649-2.13-4.284-4.624-.272-1.179-.385-2.108-.34-2.788 0-2.539.658-5.304 1.972-8.296.635-1.541 1.315-2.833 2.04-3.876.136-.227.238-.6.306-1.122.068-.521.125-.85.17-.986.227-.635.454-.975.68-1.02.318-.136.794-.351 1.428-.646a18.959 18.959 0 0 1 1.734-.714 4.641 4.641 0 0 1 1.53-.272c.998-.045 1.814.476 2.448 1.564.227.408.59.725 1.088.952zm-20.876 5.372c.272-1.587.159-3.196-.34-4.828-.136-.408-.272-.669-.408-.782-.136-.113-.476-.034-1.02.238-1.088.816-1.541 1.836-1.36 3.06 0 .227-.022.578-.068 1.054a12.97 12.97 0 0 0-.068.918v7.276c1.678-1.45 2.766-3.763 3.264-6.936zm4.139-7.684c1.314 2.81 1.586 6.165.816 10.064a15.753 15.753 0 0 1-2.107 5.134c-.997 1.564-2.31 3.23-3.942 4.998-.226.227-.544.555-.951.986-.408.43-.703.737-.884.918a1.707 1.707 0 0 0-.408.68c-.09.272-.136.487-.136.646 0 .159.012.408.034.748.023.34.034.555.034.646.046.907.08 2.323.102 4.25.023 1.927.057 3.638.102 5.134.046 1.496.136 2.924.272 4.284.045.499-.102 1.031-.442 1.598-.34.567-.713.918-1.12 1.054-.952.317-1.836 0-2.651-.952-.725-.816-1.065-2.017-1.02-3.604-.181-5.213-.272-8.545-.272-9.996.046-.453-.136-.703-.543-.748a3.355 3.355 0 0 1-2.175-1.088c-.544-.59-.759-1.247-.646-1.972.114-.725.555-1.224 1.326-1.496.86-.272 1.427-.703 1.699-1.292.271-.59.385-1.337.34-2.244-.091-1.45-.069-4.85.067-10.2.046-1.043 0-1.836-.136-2.38-.136-.544-.102-1.337.102-2.38s.306-1.61.306-1.7c.181-2.085.566-6.075 1.155-11.968.046-.816.397-1.473 1.054-1.972a2.76 2.76 0 0 1 2.209-.544c.498.045.928.26 1.29.646.363.385.567.85.612 1.394.136 1.315.046 2.493-.271 3.536a5.94 5.94 0 0 0-.272 1.224c-.046.408-.08.918-.102 1.53-.023.612-.057 1.031-.102 1.258 0 .453.25.612.747.476 2.583-.725 4.554.385 5.913 3.332zm-47.047 8.706c.091-.635-.226-1.27-.952-1.905-.725-.636-1.382-.885-1.972-.749-.181.045-.362.159-.544.34-2.221 3.403-3.468 6.647-3.74 9.732.091.952.136 1.463.136 1.53a2.356 2.356 0 0 0 .102.544 2.224 2.224 0 0 0 .238.476c.046.07.102.138.17.206.068.068.17.125.306.17.68.136 1.292-.068 1.836-.612 2.403-2.541 3.876-5.785 4.42-9.732zm1.02-6.394c1.406.68 2.46 1.598 3.162 2.754.703 1.156.964 2.482.782 3.978-.634 5.44-2.72 9.905-6.256 13.396-1.813 1.813-3.966 2.38-6.46 1.7-2.221-.59-3.649-2.13-4.284-4.624-.272-1.179-.385-2.108-.34-2.788 0-2.539.658-5.304 1.972-8.296.635-1.541 1.315-2.833 2.04-3.876.136-.227.238-.6.306-1.122.068-.521.125-.85.17-.986.227-.635.454-.975.68-1.02.318-.136.794-.351 1.428-.646a18.959 18.959 0 0 1 1.734-.714 4.641 4.641 0 0 1 1.53-.272c.998-.045 1.814.476 2.448 1.564.227.408.59.725 1.088.952zm-27.812 17.544c2.176-.363 3.763-1.088 4.76-2.176.998-1.088 1.632-2.788 1.904-5.1 0-1.179-.317-2.13-.952-2.856-.634-.725-1.518-1.088-2.652-1.088-.816-.045-1.836.25-3.06.884-.589.317-.884.816-.884 1.496-.09 2.765-.204 5.281-.34 7.548-.09.77-.09 1.201 0 1.292.091.09.499.09 1.224 0zm11.492-10.268c1.224 4.17.159 8.16-3.196 11.968-1.314 1.496-3.332 2.493-6.052 2.992-.725.136-1.088.227-1.088.272-.181 0-.453.034-.816.102-.362.068-.623.136-.782.204-.158.068-.34.227-.544.476-.204.25-.306.578-.306.986a1.68 1.68 0 0 1-.748 1.292c-.453.317-.997.408-1.632.272-1.133-.181-1.858-.907-2.176-2.176a9.444 9.444 0 0 1-.34-1.972c-.045-.68-.034-1.507.034-2.482.068-.975.102-1.62.102-1.938 0-.544.159-3.672.476-9.384h-.068c.499-6.981.748-10.63.748-10.948.272-3.763.862-8.296 1.768-13.6.272-1.587 1.247-2.312 2.924-2.176.59.045 1.111.295 1.564.748.454.453.703.975.748 1.564 0 .363-.102.827-.306 1.394-.204.567-.328.918-.374 1.054a38.701 38.701 0 0 0-.612 3.196c-.453 3.581-.838 7.14-1.156 10.676 0 .181.012.442.034.782.023.34.012.6-.034.782 0 .317.227.408.68.272a.522.522 0 0 1 .204-.068c1.95-.635 3.831-.635 5.644 0 2.675.907 4.443 2.81 5.304 5.712zm-33.388 3.468c2.035-3.037 3.324-5.395 3.866-7.072-.859.68-1.695 1.768-2.51 3.264-.813 1.496-1.265 2.765-1.356 3.808zm14.96 14.824c.091.499.023.997-.204 1.496a2.307 2.307 0 0 1-1.054 1.122c-.476.25-.974.317-1.496.204-.521-.113-.94-.351-1.258-.714-.725-.907-1.201-1.995-1.428-3.264-.272-1.45-.974-4.85-2.108-10.2-.09-.272-.17-.691-.238-1.258a15.61 15.61 0 0 0-.272-1.598 9.517 9.517 0 0 0-.442-1.428c-.498 1.043-1.314 2.357-2.448 3.944-1.133 1.587-1.836 2.63-2.108 3.128-.725 1.179-1.734 1.893-3.026 2.142-1.292.25-2.414-.034-3.366-.85-.498-.408-.861-1.043-1.088-1.904-.498-1.904-.385-4.239.34-7.004 1.088-3.853 2.992-7.185 5.712-9.996 2.04-2.13 4.284-2.63 6.732-1.496 1.224.544 1.882 1.836 1.972 3.876.046.499.216.93.51 1.292.295.363.533.748.714 1.156.182.408.363.986.544 1.734.182.748.295 1.19.34 1.326.318 1.179.646 2.913.986 5.202.34 2.29.646 3.955.918 4.998.454 1.723.771 3.332.952 4.828.046.272.318 1.36.816 3.264zM510.8 89.338a42.196 42.196 0 0 0-.068 2.584c0 .997-.011 1.96-.034 2.89-.022.93-.079 1.78-.17 2.55-.136 1.36-.204 3.264-.204 5.712v4.692c-.045.725-.011 1.813.102 3.264.114 1.45.17 2.539.17 3.264-.045.725-.045 1.643 0 2.754.046 1.11.08 2.04.102 2.788.023.748.012 1.689-.034 2.822-.09 1.27-.612 2.04-1.564 2.312-1.088.363-2.017-.09-2.788-1.36a4.41 4.41 0 0 1-.476-1.326 7.984 7.984 0 0 1-.136-1.496c0-.521-.022-.873-.068-1.054a442.368 442.368 0 0 1-.272-19.108c0-.725.023-1.519.068-2.38.046-.861.091-1.802.136-2.822.046-1.02.091-1.802.136-2.346 0-.227.012-.93.034-2.108.023-1.179.08-2.085.17-2.72 0-.317.068-2.72.204-7.208 0-.544.25-1.065.748-1.564.499-.499 1.02-.748 1.564-.748s1.043.227 1.496.68c.454.453.748 1.02.884 1.7a14.937 14.937 0 0 1 .238 3.332 44.934 44.934 0 0 0-.034 1.53c0 .385-.034.975-.102 1.768-.068.793-.102 1.326-.102 1.598zm-13.872 8.976c-1.133 1.088-1.813 2.312-2.04 3.672-.136.725.023 1.315.476 1.768.136.136.522.533 1.156 1.19a26.837 26.837 0 0 0 1.496 1.462c1.814 1.632 2.902 3.445 3.264 5.44.272 1.179.034 2.516-.714 4.012-.748 1.496-1.802 2.584-3.162 3.264-2.538 1.27-4.805 1.723-6.8 1.36a6.367 6.367 0 0 0-1.02-.068h-1.02c-.408-.045-.861-.295-1.36-.748-.498-.453-.793-.884-.884-1.292-.09-.453.012-.975.306-1.564.295-.59.646-.952 1.054-1.088.046 0 .794-.045 2.244-.136.318.09.68.136 1.088.136.408 0 .748-.023 1.02-.068.272-.045.658-.125 1.156-.238.499-.113.862-.193 1.088-.238.68-.136 1.236-.453 1.666-.952.431-.499.556-1.02.374-1.564-.226-.861-.725-1.61-1.496-2.244-1.858-1.496-3.264-3.037-4.216-4.624-.861-1.496-.997-3.355-.408-5.576.59-1.95 1.519-3.536 2.788-4.76 2.086-2.04 4.307-2.765 6.664-2.176.907.227 1.757.827 2.55 1.802.794.975 1.19 1.915 1.19 2.822.046.816-.272 1.44-.952 1.87-.68.43-1.405.465-2.176.102-1.088-.499-1.79-.997-2.108-1.496-.317-.544-.725-.567-1.224-.068zm-32.912 6.793c-.317.543-.374.985-.17 1.324.204.34.645.509 1.324.509.633.045 1.335-.26 2.104-.916.769-.656 1.335-1.414 1.697-2.274.316-.77.203-1.403-.34-1.9-.452-.408-1.086-.453-1.9-.136a3.09 3.09 0 0 0-1.018.644c-.317.295-.543.555-.68.781-.135.226-.316.577-.542 1.052-.226.475-.385.78-.475.916zm.204 7.147c-.045 0-.136-.034-.272-.102-.136-.068-.249-.09-.34-.068a.304.304 0 0 0-.204.17c-.136.317-.068.68.204 1.088.816 1.133 2.018 1.927 3.604 2.38.136.045.386.113.748.204.363.09.646.159.85.204.204.045.431.159.68.34.25.181.465.385.646.612.318.453.533.975.646 1.564.114.59.08 1.088-.102 1.496-.544.861-1.382 1.201-2.516 1.02-3.4-.453-6.006-1.723-7.82-3.808-1.541-1.859-2.266-4.737-2.176-8.636 0-.227.034-.703.102-1.428a19.97 19.97 0 0 0 .102-1.802c0-.476-.045-1.145-.136-2.006a2.37 2.37 0 0 1 .17-1.428c.204-.453.499-.839.884-1.156a2.854 2.854 0 0 1 1.326-.612 2.854 2.854 0 0 0 1.428-.952c1.27-1.541 3.174-2.493 5.712-2.856 1.315-.227 2.63.181 3.944 1.224 1.315 1.043 2.154 2.267 2.516 3.672.454 1.677.216 3.423-.714 5.236a10.67 10.67 0 0 1-4.012 4.318c-1.745 1.065-3.502 1.507-5.27 1.326zm-14.001-13.94c-1.134 1.088-1.815 2.312-2.042 3.672-.136.725.023 1.315.477 1.768.136.136.521.533 1.156 1.19a26.846 26.846 0 0 0 1.497 1.462c1.815 1.632 2.903 3.445 3.266 5.44.272 1.179.034 2.516-.714 4.012-.749 1.496-1.803 2.584-3.164 3.264-2.54 1.27-4.808 1.723-6.804 1.36a6.375 6.375 0 0 0-1.02-.068h-1.021c-.409-.045-.862-.295-1.361-.748-.5-.453-.794-.884-.885-1.292-.09-.453.012-.975.306-1.564.295-.59.647-.952 1.055-1.088.045 0 .794-.045 2.245-.136.318.09.68.136 1.09.136.407 0 .747-.023 1.02-.068.272-.045.657-.125 1.156-.238.5-.113.862-.193 1.089-.238.68-.136 1.236-.453 1.667-.952.43-.499.556-1.02.374-1.564-.227-.861-.726-1.61-1.497-2.244-1.86-1.496-3.266-3.037-4.218-4.624-.862-1.496-.998-3.355-.408-5.576.59-1.95 1.52-3.536 2.79-4.76 2.086-2.04 4.308-2.765 6.667-2.176.907.227 1.758.827 2.552 1.802.793.975 1.19 1.915 1.19 2.822.046.816-.272 1.44-.952 1.87-.68.43-1.406.465-2.178.102-1.088-.499-1.791-.997-2.109-1.496-.317-.544-.726-.567-1.224-.068zm-36.25 11.628c2.034-3.037 3.323-5.395 3.865-7.072-.859.68-1.695 1.768-2.51 3.264-.813 1.496-1.265 2.765-1.356 3.808zm14.96 14.824c.09.499.022.997-.205 1.496a2.307 2.307 0 0 1-1.054 1.122c-.476.25-.974.317-1.496.204-.521-.113-.94-.351-1.258-.714-.725-.907-1.201-1.995-1.428-3.264-.272-1.45-.974-4.85-2.108-10.2-.09-.272-.17-.691-.238-1.258a15.61 15.61 0 0 0-.272-1.598 9.517 9.517 0 0 0-.442-1.428c-.498 1.043-1.314 2.357-2.448 3.944-1.133 1.587-1.836 2.63-2.108 3.128-.725 1.179-1.734 1.893-3.026 2.142-1.292.25-2.414-.034-3.366-.85-.498-.408-.861-1.043-1.088-1.904-.498-1.904-.385-4.239.34-7.004 1.088-3.853 2.992-7.185 5.712-9.996 2.04-2.13 4.284-2.63 6.732-1.496 1.224.544 1.882 1.836 1.972 3.876.046.499.216.93.51 1.292.295.363.533.748.714 1.156.182.408.363.986.544 1.734.182.748.295 1.19.34 1.326.318 1.179.646 2.913.986 5.202.34 2.29.646 3.955.918 4.998.454 1.723.771 3.332.952 4.828.046.272.318 1.36.816 3.264zm-31.689-20.4c.136-.317.136-.544 0-.68-.816-1.043-1.7-1.11-2.652-.204-.181.181-.34.363-.476.544-1.677 2.221-2.833 5.055-3.468 8.5-.362 1.95-.362 3.445 0 4.488.136-.227.352-.499.646-.816.295-.317.544-.612.748-.884.204-.272.374-.521.51-.748.59-1.133 2.154-4.533 4.692-10.2zM403.3 81.11c.68.045 1.225.295 1.633.748.408.453.612 1.043.612 1.768a39.28 39.28 0 0 0-.102 2.176 79.78 79.78 0 0 1-.102 2.55c-.045.793-.113 1.53-.204 2.21-.272 2.675-.408 4.85-.408 6.528.045.907 0 2.221-.136 3.944-.136 1.723-.204 2.947-.204 3.672 0 1.179-.057 3.207-.17 6.086-.114 2.879-.17 5.111-.17 6.698 0 .408.022 1.02.068 1.836.045.816.068 1.417.068 1.802s-.046.986-.136 1.802c-.091.77-.613 1.655-1.565 2.652-.363.408-.907.442-1.633.102s-1.202-.827-1.429-1.462c-.226-.635-.34-1.927-.34-3.876v-6.936a.56.56 0 0 1-.17-.034.56.56 0 0 0-.17-.034c-.181.272-.408.714-.68 1.326a37.449 37.449 0 0 1-.545 1.19c-.68 1.224-1.632 2.63-2.857 4.216-.998 1.36-2.256 2.108-3.776 2.244-1.52.136-2.891-.363-4.116-1.496a4.775 4.775 0 0 1-1.122-2.006c-.205-.748-.33-1.62-.375-2.618-.136-4.67 1.02-9.157 3.47-13.464 1.36-2.357 2.97-4.012 4.83-4.964 2.041-1.043 3.946-.816 5.715.68l.408.204c-.045-1.405.046-3.355.273-5.848.226-2.493.362-4.261.408-5.304 0-1.632.181-3.083.544-4.352.136-.59.454-1.1.953-1.53.498-.43.975-.6 1.428-.51zm-36.058 34.68c-1.314 6.347-2.039 9.77-2.175 10.268-.905 3.853-1.992 7.117-3.26 9.792-.272.544-.816.816-1.631.816-.815 0-1.687-.227-2.616-.68-.928-.453-1.393-1.201-1.393-2.244 0-.635.181-1.473.544-2.516.317-.77.611-1.541.883-2.312 1.178-4.216 1.902-6.823 2.174-7.82.725-3.037 1.2-5.712 1.427-8.024.09-1.088.52-1.768 1.29-2.04a3.14 3.14 0 0 1 1.292-.272c1.132 0 2.174.363 3.125 1.088.68.453.792 1.768.34 3.944zm-24.063-10.683c-.317.543-.374.985-.17 1.324.204.34.646.509 1.326.509.635.045 1.338-.26 2.108-.916.771-.656 1.338-1.414 1.7-2.274.318-.77.204-1.403-.34-1.9-.453-.408-1.088-.453-1.904-.136-.362.135-.702.35-1.02.644-.317.295-.544.555-.68.781a13.47 13.47 0 0 0-.544 1.052c-.226.475-.385.78-.476.916zm.204 7.147c-.045 0-.136-.034-.272-.102-.136-.068-.249-.09-.34-.068a.304.304 0 0 0-.204.17c-.136.317-.068.68.204 1.088.816 1.133 2.018 1.927 3.604 2.38.136.045.386.113.748.204.363.09.646.159.85.204.204.045.431.159.68.34.25.181.465.385.646.612.318.453.533.975.646 1.564.114.59.08 1.088-.102 1.496-.544.861-1.382 1.201-2.516 1.02-3.4-.453-6.006-1.723-7.82-3.808-1.541-1.859-2.266-4.737-2.176-8.636 0-.227.034-.703.102-1.428a19.97 19.97 0 0 0 .102-1.802c0-.476-.045-1.145-.136-2.006a2.37 2.37 0 0 1 .17-1.428c.204-.453.499-.839.884-1.156a2.854 2.854 0 0 1 1.326-.612 2.854 2.854 0 0 0 1.428-.952c1.27-1.541 3.174-2.493 5.712-2.856 1.315-.227 2.63.181 3.944 1.224 1.315 1.043 2.154 2.267 2.516 3.672.454 1.677.216 3.423-.714 5.236a10.67 10.67 0 0 1-4.012 4.318c-1.745 1.065-3.502 1.507-5.27 1.326zm-14.008-13.94c-1.133 1.088-1.813 2.312-2.04 3.672-.136.725.023 1.315.476 1.768.136.136.522.533 1.156 1.19a26.837 26.837 0 0 0 1.496 1.462c1.814 1.632 2.902 3.445 3.264 5.44.272 1.179.034 2.516-.714 4.012-.748 1.496-1.802 2.584-3.162 3.264-2.538 1.27-4.805 1.723-6.8 1.36a6.367 6.367 0 0 0-1.02-.068h-1.02c-.408-.045-.861-.295-1.36-.748-.498-.453-.793-.884-.884-1.292-.09-.453.012-.975.306-1.564.295-.59.646-.952 1.054-1.088.046 0 .794-.045 2.244-.136.318.09.68.136 1.088.136.408 0 .748-.023 1.02-.068.272-.045.658-.125 1.156-.238.499-.113.862-.193 1.088-.238.68-.136 1.236-.453 1.666-.952.431-.499.556-1.02.374-1.564-.226-.861-.725-1.61-1.496-2.244-1.858-1.496-3.264-3.037-4.216-4.624-.861-1.496-.997-3.355-.408-5.576.59-1.95 1.519-3.536 2.788-4.76 2.086-2.04 4.307-2.765 6.664-2.176.907.227 1.757.827 2.55 1.802.794.975 1.19 1.915 1.19 2.822.046.816-.272 1.44-.952 1.87-.68.43-1.405.465-2.176.102-1.088-.499-1.79-.997-2.108-1.496-.317-.544-.725-.567-1.224-.068zm-32.912 6.793c-.317.543-.374.985-.17 1.324.204.34.646.509 1.326.509.635.045 1.338-.26 2.108-.916.771-.656 1.338-1.414 1.7-2.274.318-.77.204-1.403-.34-1.9-.453-.408-1.088-.453-1.904-.136-.362.135-.702.35-1.02.644-.317.295-.544.555-.68.781a13.47 13.47 0 0 0-.544 1.052c-.226.475-.385.78-.476.916zm.204 7.147c-.045 0-.136-.034-.272-.102-.136-.068-.249-.09-.34-.068a.304.304 0 0 0-.204.17c-.136.317-.068.68.204 1.088.816 1.133 2.018 1.927 3.604 2.38.136.045.386.113.748.204.363.09.646.159.85.204.204.045.431.159.68.34.25.181.465.385.646.612.318.453.533.975.646 1.564.114.59.08 1.088-.102 1.496-.544.861-1.382 1.201-2.516 1.02-3.4-.453-6.006-1.723-7.82-3.808-1.541-1.859-2.266-4.737-2.176-8.636 0-.227.034-.703.102-1.428a19.97 19.97 0 0 0 .102-1.802c0-.476-.045-1.145-.136-2.006a2.37 2.37 0 0 1 .17-1.428c.204-.453.499-.839.884-1.156a2.854 2.854 0 0 1 1.326-.612 2.854 2.854 0 0 0 1.428-.952c1.27-1.541 3.174-2.493 5.712-2.856 1.315-.227 2.63.181 3.944 1.224 1.315 1.043 2.154 2.267 2.516 3.672.454 1.677.216 3.423-.714 5.236a10.67 10.67 0 0 1-4.012 4.318c-1.745 1.065-3.502 1.507-5.27 1.326zM292.86 89.61c1.451 1.179 1.904 2.267 1.36 3.264-.226.408-.702.714-1.428.918a3.924 3.924 0 0 1-2.108.034c-.362-.09-.872-.204-1.53-.34a22.193 22.193 0 0 1-1.462-.34c-.317-.09-.532-.057-.646.102-.113.159-.124.374-.034.646.091.317.136.646.136.986 0 .34-.022.748-.068 1.224-.045.476-.068.805-.068.986-.045.544-.079 1.179-.102 1.904-.022.725-.034 1.45-.034 2.176v1.904c-.045.725-.056 2.335-.034 4.828.023 2.493-.056 4.08-.238 4.76-.045.363-.034.895.034 1.598.068.703.102 1.213.102 1.53-.09 1.541-.408 2.63-.952 3.264a5.591 5.591 0 0 0-.442.476c-.068.09-.226.227-.476.408-.249.181-.442.25-.578.204-.136-.045-.362-.068-.68-.068-.906-.272-1.45-.975-1.632-2.108-.181-1.179-.249-2.063-.204-2.652 0-.181.034-1.054.102-2.618a88.97 88.97 0 0 0 .102-3.57c0-1.723.023-3.173.068-4.352 0-.136.023-2.652.068-7.548.046-2.176.068-3.717.068-4.624a.55.55 0 0 0-.102-.34.584.584 0 0 0-.17-.17c-.045-.023-.158-.034-.34-.034h-.34c-.498-.09-1.654-.113-3.468-.068-1.813.045-2.969.045-3.468 0-.589 0-1.122-.25-1.598-.748-.476-.499-.736-1.065-.782-1.7a2.388 2.388 0 0 1 .476-1.632c.363-.499.839-.793 1.428-.884 1.678-.317 3.491-.43 5.44-.34 1.496.09 2.38.011 2.652-.238.272-.25.431-1.122.476-2.618.046-.363.068-.77.068-1.224 0-.453.012-.907.034-1.36.023-.453.034-.861.034-1.224.091-1.45.794-2.221 2.108-2.312.499 0 .986.204 1.462.612.476.408.76.907.85 1.496.182 1.315.227 2.312.136 2.992-.045.725-.022 2.04.068 3.944.046.635.386 1.02 1.02 1.156 2.222.408 3.786.975 4.692 1.7zm-28.764 20.332c2.035-3.037 3.324-5.395 3.866-7.072-.859.68-1.695 1.768-2.51 3.264-.813 1.496-1.265 2.765-1.356 3.808zm14.96 14.824c.091.499.023.997-.204 1.496a2.307 2.307 0 0 1-1.054 1.122c-.476.25-.974.317-1.496.204-.521-.113-.94-.351-1.258-.714-.725-.907-1.201-1.995-1.428-3.264-.272-1.45-.974-4.85-2.108-10.2-.09-.272-.17-.691-.238-1.258a15.61 15.61 0 0 0-.272-1.598 9.517 9.517 0 0 0-.442-1.428c-.498 1.043-1.314 2.357-2.448 3.944-1.133 1.587-1.836 2.63-2.108 3.128-.725 1.179-1.734 1.893-3.026 2.142-1.292.25-2.414-.034-3.366-.85-.498-.408-.861-1.043-1.088-1.904-.498-1.904-.385-4.239.34-7.004 1.088-3.853 2.992-7.185 5.712-9.996 2.04-2.13 4.284-2.63 6.732-1.496 1.224.544 1.882 1.836 1.972 3.876.046.499.216.93.51 1.292.295.363.533.748.714 1.156.182.408.363.986.544 1.734.182.748.295 1.19.34 1.326.318 1.179.646 2.913.986 5.202.34 2.29.646 3.955.918 4.998.454 1.723.771 3.332.952 4.828.046.272.318 1.36.816 3.264zM251.38 91.932c-1.269-.182-2.085-.749-2.448-1.702-.317-.863-.215-1.918.306-3.166.522-1.249 1.145-2.054 1.87-2.418.363-.181.771-.272 1.224-.272.862.045 1.508.318 1.938.817.431.5.578 1.18.442 2.043a9.898 9.898 0 0 1-1.496 3.88c-.408.682-1.02.954-1.836.818zm3.672 15.018c-.045.363-.034.94.034 1.734.068.793.08 1.394.034 1.802-.09.59-.158 1.258-.204 2.006-.045.748-.079 1.417-.102 2.006a36.22 36.22 0 0 1-.136 1.972 33.815 33.815 0 0 1-.238 1.972c-.09.499-.238 1.383-.442 2.652-.204 1.27-.396 2.267-.578 2.992-.408 1.859-1.405 4.08-2.992 6.664-.408.59-1.076 1.36-2.006 2.312-.929.952-1.575 1.655-1.938 2.108-.906 1.224-2.04 1.541-3.4.952-.634-.227-1.054-.669-1.258-1.326-.204-.657-.124-1.303.238-1.938a18.37 18.37 0 0 1 1.054-1.36c.386-.453.839-.952 1.36-1.496.522-.544.896-.975 1.122-1.292 1.088-1.224 2.063-3.037 2.924-5.44a19.88 19.88 0 0 0 .952-3.604c.227-1.315.374-2.437.442-3.366.068-.93.148-2.176.238-3.74.091-1.564.159-2.709.204-3.434.091-.907.148-1.904.17-2.992a61.155 61.155 0 0 0 0-2.89 114.43 114.43 0 0 1-.034-3.026v-2.924c0-1.088.272-1.972.816-2.652.499-.635 1.202-.839 2.108-.612.635.136 1.111.612 1.428 1.428.136.363.227.76.272 1.19.046.43.08.793.102 1.088.023.295.034.737.034 1.326v1.36c0 .317-.011 1.258-.034 2.822-.022 1.564-.079 2.8-.17 3.706zm-8.092-5.782c.952 1.314.884 2.447-.204 3.398-.408.363-1.031.51-1.87.442-.838-.068-1.462-.329-1.87-.782-.136-.09-.77-.838-1.904-2.243-.362-.453-.68-.408-.952.136-.317.77-.952 2.017-1.904 3.739s-1.609 3.08-1.972 4.078a14.914 14.914 0 0 1-.816 1.903 42.552 42.552 0 0 0-.986 2.107c-.294.68-.532 1.314-.714 1.903-.272 1.042-.929 1.88-1.972 2.515-.861.453-1.734.487-2.618.102-.884-.385-1.439-1.053-1.666-2.005a15.019 15.019 0 0 1-.306-2.005 52.973 52.973 0 0 1-.136-1.733 74.551 74.551 0 0 1-.068-2.107c-.022-.997-.034-1.61-.034-1.836 0-.725.046-1.858.136-3.398 0-.816.295-1.597.884-2.345.59-.748 1.27-.918 2.04-.51 1.587.77 2.335 1.767 2.244 2.99 0 .046.046.409.136 1.088a30.89 30.89 0 0 0 1.054-1.699c.34-.59.726-1.37 1.156-2.345.431-.974.714-1.575.85-1.801.454-.952 1.27-2.198 2.448-3.739.635-.815 1.462-1.246 2.482-1.291 1.02-.045 1.938.295 2.754 1.02 1.224 1.087 2.494 2.56 3.808 4.418zm-35.904 8.774c2.035-3.037 3.324-5.395 3.866-7.072-.859.68-1.695 1.768-2.51 3.264-.813 1.496-1.265 2.765-1.356 3.808zm14.96 14.824c.091.499.023.997-.204 1.496a2.307 2.307 0 0 1-1.054 1.122c-.476.25-.974.317-1.496.204-.521-.113-.94-.351-1.258-.714-.725-.907-1.201-1.995-1.428-3.264-.272-1.45-.974-4.85-2.108-10.2-.09-.272-.17-.691-.238-1.258a15.61 15.61 0 0 0-.272-1.598 9.517 9.517 0 0 0-.442-1.428c-.498 1.043-1.314 2.357-2.448 3.944-1.133 1.587-1.836 2.63-2.108 3.128-.725 1.179-1.734 1.893-3.026 2.142-1.292.25-2.414-.034-3.366-.85-.498-.408-.861-1.043-1.088-1.904-.498-1.904-.385-4.239.34-7.004 1.088-3.853 2.992-7.185 5.712-9.996 2.04-2.13 4.284-2.63 6.732-1.496 1.224.544 1.882 1.836 1.972 3.876.046.499.216.93.51 1.292.295.363.533.748.714 1.156.182.408.363.986.544 1.734.182.748.295 1.19.34 1.326.318 1.179.646 2.913.986 5.202.34 2.29.646 3.955.918 4.998.454 1.723.771 3.332.952 4.828.046.272.318 1.36.816 3.264zm-20.672-27.812c.318.317.499.793.544 1.428.046.635-.09 1.156-.408 1.564-1.314 1.768-2.72 4.08-4.216 6.936-1.722 3.31-3.082 6.188-4.08 8.636a93.996 93.996 0 0 1-2.244 4.964c-.181.408-.374 1.043-.578 1.904-.204.861-.419 1.519-.646 1.972-.317.59-.85 1.1-1.598 1.53-.748.43-1.394.578-1.938.442-1.178-.181-1.949-.952-2.312-2.312-1.224-4.035-2.606-10.155-4.148-18.36-.045-.272-.181-.895-.408-1.87a39.244 39.244 0 0 1-.476-2.278c-.181-1.587.136-2.743.952-3.468.635-.544 1.372-.714 2.21-.51.839.204 1.338.703 1.496 1.496.159.793.329 1.632.51 2.516.182.884.374 1.859.578 2.924.204 1.065.352 1.893.442 2.482.771 3.808 1.474 6.89 2.108 9.248.726-.77 1.428-2.085 2.108-3.944.408-1.133 1.134-2.675 2.176-4.624a239.94 239.94 0 0 0 1.836-3.468c.68-1.45 1.882-3.377 3.604-5.78.408-.544.998-1.065 1.768-1.564 1.043-.68 1.95-.635 2.72.136zm-18.292-7.344c1.451 1.179 1.904 2.267 1.36 3.264-.226.408-.702.714-1.428.918a3.924 3.924 0 0 1-2.108.034c-.362-.09-.872-.204-1.53-.34a22.193 22.193 0 0 1-1.462-.34c-.317-.09-.532-.057-.646.102-.113.159-.124.374-.034.646.091.317.136.646.136.986 0 .34-.022.748-.068 1.224-.045.476-.068.805-.068.986-.045.544-.079 1.179-.102 1.904-.022.725-.034 1.45-.034 2.176v1.904c-.045.725-.056 2.335-.034 4.828.023 2.493-.056 4.08-.238 4.76-.045.363-.034.895.034 1.598.068.703.102 1.213.102 1.53-.09 1.541-.408 2.63-.952 3.264a5.591 5.591 0 0 0-.442.476c-.068.09-.226.227-.476.408-.249.181-.442.25-.578.204-.136-.045-.362-.068-.68-.068-.906-.272-1.45-.975-1.632-2.108-.181-1.179-.249-2.063-.204-2.652 0-.181.034-1.054.102-2.618a88.97 88.97 0 0 0 .102-3.57c0-1.723.023-3.173.068-4.352 0-.136.023-2.652.068-7.548.046-2.176.068-3.717.068-4.624a.55.55 0 0 0-.102-.34.584.584 0 0 0-.17-.17c-.045-.023-.158-.034-.34-.034h-.34c-.498-.09-1.654-.113-3.468-.068-1.813.045-2.969.045-3.468 0-.589 0-1.122-.25-1.598-.748-.476-.499-.736-1.065-.782-1.7a2.388 2.388 0 0 1 .476-1.632c.363-.499.839-.793 1.428-.884 1.678-.317 3.491-.43 5.44-.34 1.496.09 2.38.011 2.652-.238.272-.25.431-1.122.476-2.618.046-.363.068-.77.068-1.224 0-.453.012-.907.034-1.36.023-.453.034-.861.034-1.224.091-1.45.794-2.221 2.108-2.312.499 0 .986.204 1.462.612.476.408.76.907.85 1.496.182 1.315.227 2.312.136 2.992-.045.725-.022 2.04.068 3.944.046.635.386 1.02 1.02 1.156 2.222.408 3.786.975 4.692 1.7zm-25.432 15.497c-.317.543-.374.985-.17 1.324.204.34.646.509 1.326.509.635.045 1.338-.26 2.108-.916.771-.656 1.338-1.414 1.7-2.274.318-.77.204-1.403-.34-1.9-.453-.408-1.088-.453-1.904-.136-.362.135-.702.35-1.02.644-.317.295-.544.555-.68.781a13.47 13.47 0 0 0-.544 1.052c-.226.475-.385.78-.476.916zm.204 7.147c-.045 0-.136-.034-.272-.102-.136-.068-.249-.09-.34-.068a.304.304 0 0 0-.204.17c-.136.317-.068.68.204 1.088.816 1.133 2.018 1.927 3.604 2.38.136.045.386.113.748.204.363.09.646.159.85.204.204.045.431.159.68.34.25.181.465.385.646.612.318.453.533.975.646 1.564.114.59.08 1.088-.102 1.496-.544.861-1.382 1.201-2.516 1.02-3.4-.453-6.006-1.723-7.82-3.808-1.541-1.859-2.266-4.737-2.176-8.636 0-.227.034-.703.102-1.428a19.97 19.97 0 0 0 .102-1.802c0-.476-.045-1.145-.136-2.006a2.37 2.37 0 0 1 .17-1.428c.204-.453.499-.839.884-1.156a2.854 2.854 0 0 1 1.326-.612 2.854 2.854 0 0 0 1.428-.952c1.27-1.541 3.174-2.493 5.712-2.856 1.315-.227 2.63.181 3.944 1.224 1.315 1.043 2.154 2.267 2.516 3.672.454 1.677.216 3.423-.714 5.236a10.67 10.67 0 0 1-4.012 4.318c-1.745 1.065-3.502 1.507-5.27 1.326zm-7.82-11.086c.952 1.314.884 2.447-.204 3.398-.408.363-1.031.51-1.87.442-.838-.068-1.462-.329-1.87-.782-.136-.09-.77-.838-1.904-2.243-.362-.453-.68-.408-.952.136-.317.77-.952 2.017-1.904 3.739s-1.609 3.08-1.972 4.078a14.914 14.914 0 0 1-.816 1.903 42.552 42.552 0 0 0-.986 2.107c-.294.68-.532 1.314-.714 1.903-.272 1.042-.929 1.88-1.972 2.515-.861.453-1.734.487-2.618.102-.884-.385-1.439-1.053-1.666-2.005a15.019 15.019 0 0 1-.306-2.005 52.973 52.973 0 0 1-.136-1.733 74.551 74.551 0 0 1-.068-2.107c-.022-.997-.034-1.61-.034-1.836 0-.725.046-1.858.136-3.398 0-.816.295-1.597.884-2.345.59-.748 1.27-.918 2.04-.51 1.587.77 2.335 1.767 2.244 2.99 0 .046.046.409.136 1.088a30.89 30.89 0 0 0 1.054-1.699c.34-.59.726-1.37 1.156-2.345.431-.974.714-1.575.85-1.801.454-.952 1.27-2.198 2.448-3.739.635-.815 1.462-1.246 2.482-1.291 1.02-.045 1.938.295 2.754 1.02 1.224 1.087 2.494 2.56 3.808 4.418zm-27.676 3.402c.272-1.587.159-3.196-.34-4.828-.136-.408-.272-.669-.408-.782-.136-.113-.476-.034-1.02.238-1.088.816-1.541 1.836-1.36 3.06 0 .227-.022.578-.068 1.054a12.97 12.97 0 0 0-.068.918v7.276c1.678-1.45 2.766-3.763 3.264-6.936zm4.148-7.684c1.315 2.81 1.587 6.165.816 10.064a15.748 15.748 0 0 1-2.108 5.134c-.997 1.564-2.312 3.23-3.944 4.998-.226.227-.544.555-.952.986-.408.43-.702.737-.884.918a1.707 1.707 0 0 0-.408.68c-.09.272-.136.487-.136.646 0 .159.012.408.034.748.023.34.034.555.034.646.046.907.08 2.323.102 4.25.023 1.927.057 3.638.102 5.134.046 1.496.136 2.924.272 4.284.046.499-.102 1.031-.442 1.598-.34.567-.714.918-1.122 1.054-.952.317-1.836 0-2.652-.952-.725-.816-1.065-2.017-1.02-3.604-.181-5.213-.272-8.545-.272-9.996.046-.453-.136-.703-.544-.748a3.358 3.358 0 0 1-2.176-1.088c-.544-.59-.759-1.247-.646-1.972.114-.725.556-1.224 1.326-1.496.862-.272 1.428-.703 1.7-1.292.272-.59.386-1.337.34-2.244-.09-1.45-.068-4.85.068-10.2.046-1.043 0-1.836-.136-2.38-.136-.544-.102-1.337.102-2.38s.306-1.61.306-1.7c.182-2.085.567-6.075 1.156-11.968.046-.816.397-1.473 1.054-1.972a2.762 2.762 0 0 1 2.21-.544c.499.045.93.26 1.292.646.363.385.567.85.612 1.394.136 1.315.046 2.493-.272 3.536a5.937 5.937 0 0 0-.272 1.224c-.045.408-.079.918-.102 1.53-.022.612-.056 1.031-.102 1.258 0 .453.25.612.748.476 2.584-.725 4.556.385 5.916 3.332z"/></g><g><path fill="#fefefe" d="M655.665 78.266c.193.137.303.344.33.618a.77.77 0 0 1-.247.677c-.796.764-1.648 1.765-2.555 3.001-1.043 1.433-1.867 2.679-2.47 3.737a36.527 36.527 0 0 1-1.36 2.15c-.11.175-.227.45-.35.822-.124.374-.255.658-.392.855-.192.253-.514.475-.968.662-.454.186-.844.25-1.174.19-.715-.078-1.182-.411-1.4-1-.741-1.746-1.58-4.394-2.514-7.945a12.613 12.613 0 0 0-.247-.81c-.137-.422-.234-.75-.288-.986-.11-.686.082-1.186.577-1.5.384-.236.83-.31 1.339-.22.507.088.809.303.906.647.096.342.198.705.31 1.089.108.382.226.804.35 1.264.123.462.211.82.267 1.075.465 1.648.891 2.983 1.276 4.002.44-.334.866-.902 1.277-1.707.248-.49.687-1.157 1.319-2.002.631-.842 1.002-1.343 1.112-1.5.412-.627 1.139-1.461 2.183-2.501.247-.236.604-.461 1.072-.677.631-.294 1.18-.275 1.647.059"/></g></g></g></g></svg>