<svg xmlns="http://www.w3.org/2000/svg" width="563" height="276" viewBox="0 0 563 276"><g><g><path fill="#ec1d24" d="M19.918 29.41l5.815 195.875.486 25.987-6.301 6.376 10.621 5.495 22.507 2.446 31.586-7.94h35.44l33.127-2.92 26.875-7.085h29.365l40.062-4.105 16.949-.953 25.423 2.49 19.26 1.207 14.638 1.36 223.277-6.498.541-26.84-7.17-28.353-2.2-61.124 4.199-56.424 3.031-27.22 1.599-33.809-61.134 11.26-30.188 8.706s-101.908 19.249-252.14-.358z"/></g><g><path fill="none" stroke="#231f20" stroke-miterlimit="50" stroke-width="3" d="M4.005 31.462l2.21-.683v-8.894c0-8.209.735-10.945 2.945-10.945v.683c-.736 1.368-1.473 15.735-.736 17.788.736 1.368.736 1.368 5.155.683 2.211-.683 4.42-1.368 5.156-2.051 0-.685.737-.685 1.474-.685 0 0 .735 0 .735-.683 0-6.843 1.474-10.263 2.948-9.58 1.473 0 2.209 4.79.737 6.158 0 .683-.737 2.052-1.475 3.422 0 1.368 0 2.05 1.475 1.368.736 0 4.419-.685 8.838-1.368 3.682 0 8.838-.685 11.785-1.37 2.21 0 6.629-.684 9.574-.684 11.786-1.368 30.2-4.104 35.356-4.104 2.945-.685 14.73-.685 27.252-.685 42.72.685 85.44.685 88.386-.683 2.21 0 27.252-.685 88.385-.685 66.29 0 87.651-.683 97.227-1.368 6.628-.684 19.15-.684 27.252-.684 19.15-.685 43.456-1.368 56.713-2.736 5.157-.685 11.785-1.368 14.732-2.053 2.946 0 9.576-.683 14.73-1.368 6.629-.683 11.785-1.368 23.571-.683 13.995 0 15.467 0 16.204-1.369.737-1.368 2.21-1.368 2.21.684-.737 2.053.736.685 1.472-2.737 1.474-2.736 2.947-4.788 3.684-4.104.736 0 .736 2.053.736 4.79-.736 3.419 0 3.419.736 3.419 2.21.685 2.21 1.368.737 3.421-2.209 2.051-1.473 4.105.736 15.05 1.474 6.84 1.474 9.577 1.474 33.523 0 13.682 0 34.89-.737 47.205 0 31.468.737 59.518 2.946 76.621.736 6.84 1.473 12.997.736 26.678 0 14.37 0 18.474.737 26.683 1.473 8.209 1.473 9.577.738 10.262-.738 1.368-1.475 1.368-2.948.683-2.209-1.368-15.466-.683-25.779 0-3.682.685-9.574 1.368-13.257 2.053-8.839.683-52.296.683-65.554 0-5.156-.685-26.516-.685-46.402-.685-72.92 0-99.434 1.368-120.058 4.105-5.157 1.368-12.522 2.053-17.677 2.053-21.361 2.051-53.033 6.84-61.134 9.577-5.893 2.053-28.726 2.053-33.881 0-1.475 0-4.42-.685-6.631-.685-5.155-1.366-11.047-2.051-18.413-4.104-3.683-.684-7.365-1.369-8.84-1.369-1.472 0-3.681 0-5.891-.683-5.156-1.368-12.52-1.368-24.305 0-3.684.683-10.313.683-19.151 1.368-3.684 0-7.366.684-9.575 1.369-2.21.683-4.419.683-5.893.683-.737 0-2.945.685-5.156 1.37-1.473 1.366-4.42 1.366-5.893 1.366-1.472 0-4.419.685-6.628 2.053-7.366 2.053-19.15 4.105-27.253 4.79-2.21 0-5.155.683-6.628.683-2.21.685-2.21 0-2.21-.683 0-.685 0-1.368.736-1.368h3.683c1.473 0 2.21-.685 1.473-1.369-.736-.685-1.473-.685-2.21-.685l-5.892-4.104c-2.947-2.053-5.893-4.105-6.629-4.79-.737 0-1.472-.683-2.209-1.368l-4.42-6.84-3.684-6.842v-19.154c0-10.947.737-21.893 1.475-24.629 0-2.736.736-7.526.736-10.262.737-2.736 1.474-6.156 1.474-8.21 2.209-6.155 2.945-26.681 2.209-57.464-.737-17.788-.737-41.732-.737-54.048.737-12.313 0-26.68 0-30.784L6.95 32.83l-2.21.685c-3.682 0-4.419-1.368-.735-2.053zM5.478 238.76c0-.692-.737-.692-.737-.692v2.072c.737 0 .737-.691.737-1.38zm.725-28.733c0-4.11-.73-7.534-.73-6.85-.73 0-.73 14.385 0 14.385 0 0 .73-3.425.73-7.535zm53.78 54.726c-14.731.686-16.205.686-16.205-.687.736-1.371 0-1.371-7.366-.684-3.682 0-8.838.684-11.047.684l-3.684.687 1.473 1.371c1.475.685 2.21 1.371 2.947 1.371 0 0 1.473.685 3.683 2.058 2.946 1.371 2.946 2.056 7.365 1.371 2.21 0 6.63-.686 8.838-1.371 2.21-.687 4.42-.687 5.894-.687.736 0 1.473-.686 2.209-.686.736-1.371 5.892-2.056 9.574-2.056 2.21 0 4.42-.685 4.42-1.371.737-.687-1.473-.687-8.102 0zm157.632-3.426h-16.943c-3.684-.683-8.103-1.368-10.313-1.368-18.416-2.051-37.57-2.736-51.566-2.051l-5.891.683 2.945.685c1.474.683 4.42.683 5.894.683 2.21 0 4.42.685 6.63 1.368 1.472.685 4.419 1.369 6.63 1.369 4.419.685 13.259 2.053 18.415 3.42 1.474.684 5.893 1.37 8.84 1.37 3.682 0 6.63.682 6.63.682h2.947c1.473 0 5.155-.683 8.84-1.368 3.683 0 8.102-.683 9.576-1.366 1.473-.685 5.893-1.37 9.575-2.053l7.368-1.369c.737-.685-3.684-.685-9.577-.685zm331.438-15.05l-1.473-.683c-1.473-.685-1.473-1.368-1.473-2.053 0-1.368-.736-1.368-5.893.685-6.628 2.736-16.94 3.42-34.617 3.42-6.63 0-14.73.685-18.415.685h-16.94c-9.575-.685-16.94-1.369-40.51-2.054-6.629 0-16.942-.683-23.57-.683-13.258-1.368-29.462-.685-54.505.683-16.204.685-36.09.685-52.296 0-23.569-1.368-39.037-1.368-53.767-.683-16.942.683-15.468.683-20.624 1.368-11.049 1.369-23.57 2.052-38.301 2.737-2.946 0-6.628 0-8.101.683-1.474 0-3.683.685-5.157.685-1.473 0-3.682.683-3.682.683-.737 0-6.63.685-13.258 1.368-11.049 1.368-19.887 2.737-21.36 3.422h16.205c16.202 0 23.569.683 35.353 2.051 5.156 0 19.151 1.368 30.2 1.368h13.994c12.52-1.368 23.57-2.051 29.461-3.42 1.474 0 8.103-.684 13.26-1.367 5.891-.685 13.257-1.369 16.202-2.054 8.103-.683 18.414-1.368 30.2-2.051 4.418 0 13.994-.685 19.886-1.368h86.913c41.983 0 80.284 0 83.967-.685 4.42 0 12.522-.683 18.415-.683 10.31 0 13.258-.685 17.677-1.369zM552 240.13c.736-1.38.736-1.38-.737-.69-.737 0-1.473.69-1.473.69-.737 1.38.736 1.38 2.21 0zm-1.474-4.114c0 .683 0 .683.743.683 0 0 .743-.683.743-1.368 0-.683-.743-.683-.743-.683-.743 0-.743 0-.743 1.368zm1.486-6.169c0-5.46-.743-6.142-1.486-1.364v4.094c1.486.683 1.486 0 1.486-2.73zm.736 13.01l-.742-.685h-.743c0 .685 0 1.368.743 1.368zm1.461-98.514c0-.685-.737 4.788-.737 10.945 0 11.63 0 31.47-.736 44.469-.736 10.945.736 33.523 2.21 34.206.736.685.736.685 0 1.368-.737.685-.737 3.421-1.474 5.473 0 3.421 0 4.104 1.473 4.104.737 0 1.474 0 1.474 1.368 0 .685 0 1.369 1.472 1.369 1.473 0 1.473-.684.737-4.105 0-2.051-.737-4.788-.737-5.473-.736-1.368-.736-12.996-.736-26.682 0-28.731-1.473-66.359-2.946-67.042zM552 75.246c0 4.106.736 12.998.736 21.207l.736 14.369.737-9.58c0-5.472.736-12.313.736-16.417 1.474-13.684 1.474-35.575 0-45.837-1.473-5.473-1.473-10.945-1.473-11.63 0-.683-.736-1.368-.736-1.368-1.473.685-2.21 36.259-.736 49.256zm-2.21 1.366c0-4.789-.737-9.578-.737-10.26 0-1.369 0-6.84-.737-10.945 0-8.893 0-8.893-.736-3.42-.736 6.84-2.21 28.73-2.946 36.252 0 5.473-.737 8.893-2.21 18.471v23.941c0 23.257.737 36.939 3.683 49.25 1.473 4.79 3.683 19.838 3.683 21.206 0 0 .736.683.736 0 0 0 .737-2.736.737-6.157 0-2.736.737-18.467.737-33.52.736-25.991.736-43.092-.737-62.246-.737-9.577-.737-15.049-1.473-22.572zm-.737-40.36l.737-5.473V21.2c0-3.42 0-3.42-.737-1.368-.737 1.368-.737 4.104-.737 8.894zm-.737-19.84c.737 0 1.474-.685 1.474-2.053.736-1.368 0-2.051-.737-1.368-1.473.685-1.473 3.421-.737 3.421zm-2.21.684c0 .685.744.685 1.486.685v-1.369c-.742-.685-1.485-.685-1.485.684zm-116.374 1.368c.736.685 12.522 1.368 31.675 1.368 10.313 0 18.416.685 18.416.685h11.786c8.84 0 11.786-.685 23.572-3.421 7.367-2.052 16.206-3.42 19.151-4.105l5.157-.683-2.946-.685c-4.42-1.368-25.046-.683-33.148 0-2.21.685-8.84 1.368-13.26 2.053-5.156.683-11.786 1.368-13.996 1.368-8.102 1.368-31.674 2.737-42.724 2.737-2.21 0-3.683 0-3.683.683zm106.79-4.105c-5.884.685-9.561 2.053-3.677 1.368 2.207 0 4.414-.683 5.885-.683.735-.685 0-.685-2.207-.685zm-11.775 2.737h.736c1.474 0 2.21-.684 2.21-.684.737-.685-2.21 0-2.946.684zm-325.555 6.846c-5.157.686-14.732 1.37-22.098 1.37-8.102.686-15.467 1.371-16.204 2.055-2.946.686-13.258 1.37-29.463 2.056-5.155.684-8.1.684-8.1 1.37h4.418c2.21 0 8.839-.686 13.995-.686 5.156-.684 13.258-1.37 18.414-2.054 10.311-.686 28.725-.686 35.353 0 2.948 0 12.523.684 22.097.684 16.204.686 38.301 2.055 47.877 3.425 9.575.684 38.3 2.054 75.128 2.74 30.935.683 47.875.683 63.343-.686 5.156 0 10.312-.684 11.049-.684 1.472 0 5.893-.686 11.047-1.37 5.156 0 11.786-1.37 15.468-2.055 12.521-2.054 23.57-4.11 40.51-6.849 3.684 0 5.893-.685 5.893-.685s-11.784-.684-25.78-1.37c-25.778 0-28.724-.684-36.826-2.054-5.156-.685-24.307-.685-30.936 0-13.258 1.37-27.989 1.37-48.613 1.37-35.354 0-120.057 2.054-146.572 3.423zm-167.935 5.45h24.306c11.786-.683 31.671-.683 43.457-.683 20.624 0 29.462-.681 40.51-2.046h10.311c2.21 0 5.894-.684 8.839-1.367 5.156-.682 14.731-1.365 25.78-2.047 11.047-.683 5.892-.683-13.995-1.365-39.038-.683-75.864-.683-84.703.682-5.156.683-13.994 1.365-20.624 2.73-7.365.683-15.467 1.367-19.886 2.048-3.684.684-8.84 1.365-11.049 1.365-3.683 0-4.42 0-2.946.684zM9.16 35.568c0 .685.737 22.577.737 48.573.737 64.99.737 69.095.737 68.412.737 0 1.472-3.421 1.472-6.158.737-3.42 1.473-8.892 2.21-11.628C15.79 125.189 18 110.136 18 99.19c.736-10.26.736-41.046 0-57.466-.737-8.894-.737-9.577-2.209-9.577h-4.419c-2.211.683-2.211.683-2.211 3.42zm-.736 170.346c-1.474 26.682-.737 41.732 2.21 45.836.737 2.053 1.472 3.422 1.472 3.422.737 0 1.473.683 2.21 2.05 1.474 2.737 4.42 4.79 8.102 5.474 3.683.685 5.156.685 6.63-.684.736-.685 1.472-.685 1.472-.685s.737-.683 1.473-1.368c.737-1.368 1.474-1.368.737 0l-.737 2.053 19.15-.685c27.253-.683 32.41-.683 38.302-1.368 3.682-.683 11.784-2.051 22.833-2.736 6.629-.683 16.94-2.051 28.725-3.42 2.21-.685 8.102-1.368 13.257-2.053 5.157-.683 13.258-1.368 16.942-2.736 8.839-1.368 12.52-1.368 27.253-2.052 5.156 0 16.203-1.368 24.306-2.053 7.365-.683 17.677-1.368 22.833-1.368 5.892-.683 10.311-.683 11.047-.683h12.523c32.407 2.051 68.498 2.736 86.912 1.368 16.205-1.368 38.3-2.053 52.295-.685 6.63 0 16.205.685 22.097.685 23.57.683 33.88 1.368 39.037 2.051 5.156.685 38.301 0 54.506-1.368 8.838 0 9.575-.683 22.833-5.472.736 0 .736-1.369 1.472-2.737 0-1.947-.015-2.652-1.27-2.723a4.757 4.757 0 0 0-.046-2.068c1.317-.062 1.344-1.036 2.053-10.26.737-6.158.737-11.63 0-13.682 0-2.053-.737-6.158-.737-8.21-.736-2.736-2.21-9.576-2.945-14.366-3.683-15.05-4.42-28.733-5.157-51.31 0-14.366 0-22.575.736-29.418 1.475-8.892 1.475-17.1 3.684-38.309.737-14.366.737-16.418 2.21-21.892 1.472-5.473.736-12.314-.737-20.525-1.473-7.524-1.473-7.524-5.157-6.84-2.209.685-5.155.685-8.1.685-2.211 0-7.367.683-11.05 1.368-4.419.683-9.575 1.368-12.521 2.051-2.946 0-8.102.685-12.522 2.053-10.31 1.368-14.73 2.052-23.57 3.422-4.419.683-14.73 2.051-22.096 4.104-8.1 1.368-17.676 2.736-22.096 2.736-7.366 1.369-18.413 2.052-23.57 2.737-2.946 0-22.833 1.368-26.516 1.368-1.472 0-14.73 0-29.461-.685-14.73 0-31.673-.683-36.828-.683-5.155 0-11.785-.685-15.468-.685-3.682 0-10.311-.683-15.468-.683-5.156 0-9.575-.685-9.575-1.368-1.473-.685-1.473-.685-.736 0 0 .683 0 .683-.737.683-1.472-.683-14.73-1.368-21.36-2.052-3.682 0-7.364-.685-8.838-.685-1.473 0-8.839-.683-16.941-.683-8.839 0-20.623-.685-25.78-1.368-10.31-.685-37.563 0-38.3.683-.737 0-3.682.685-6.63.685-2.946 0-10.31.683-16.203 1.368H118.17c-9.574-.685-53.769-.685-72.182 0H26.1l-3.682.683.735 6.158c0 4.105.738 10.947.738 15.735.737 21.208 2.209 52.678 2.209 61.572 0 4.787.737 13.681.737 19.154.736 6.158.736 28.733.736 54.73 0 34.892.737 44.469 1.474 46.52.736 1.368.736 4.105.736 8.894l-.736 7.524-2.21 2.054c-1.473.683-3.684 1.368-4.42 1.368-1.474 0-1.474 0 .736-.685 2.947-2.052 4.42-6.156 2.947-13.682 0-1.368-.736-25.997-.736-55.414 0-29.418-.736-54.045-.736-54.045 0-.684-.737-12.314-.737-25.996 0-14.368-.738-25.997-.738-26.682 0 0-.736-7.526-1.473-16.418-1.472-30.787-1.472-31.47-1.472-2.053.735 33.521-.737 55.414-3.684 71.834-.735 2.736-1.472 8.892-2.209 13.681-1.473 4.105-2.21 8.893-2.21 10.26-1.472 8.897-2.21 13.001-2.21 19.842 0 4.105 0 11.63-.736 16.418 0 4.105-.736 10.262-.736 12.314z"/></g><g><path fill="#fff" d="M433.838 168.168c.952 1.314.884 2.447-.204 3.398-.407.363-1.03.51-1.869.442-.838-.068-1.46-.329-1.869-.782-.136-.09-.77-.838-1.903-2.243-.362-.453-.68-.408-.951.136-.318.77-.952 2.017-1.903 3.739-.952 1.722-1.609 3.08-1.972 4.078a14.917 14.917 0 0 1-.815 1.903 42.558 42.558 0 0 0-.986 2.107 18.52 18.52 0 0 0-.713 1.903c-.272 1.042-.93 1.88-1.971 2.515-.861.453-1.733.487-2.617.102-.884-.385-1.439-1.053-1.665-2.005a15.027 15.027 0 0 1-.306-2.005 52.962 52.962 0 0 1-.136-1.733 74.584 74.584 0 0 1-.068-2.107 120.51 120.51 0 0 1-.034-1.836c0-.725.045-1.858.136-3.398 0-.816.294-1.598.884-2.345.589-.748 1.268-.918 2.039-.51 1.585.77 2.333 1.767 2.242 2.99 0 .046.046.409.136 1.088.363-.543.714-1.11 1.054-1.699.34-.59.725-1.37 1.155-2.345.43-.974.714-1.575.85-1.801.453-.952 1.269-2.198 2.447-3.739.634-.815 1.461-1.246 2.48-1.291 1.02-.045 1.938.295 2.753 1.02 1.224 1.087 2.492 2.56 3.806 4.418zm-26.976 4.424c.09-.635-.227-1.27-.953-1.905-.727-.636-1.385-.885-1.975-.749-.182.045-.363.159-.545.34-2.224 3.403-3.473 6.647-3.745 9.732.09.952.136 1.463.136 1.53a2.353 2.353 0 0 0 .102.544 2.224 2.224 0 0 0 .238.476c.046.07.103.138.17.206.069.068.171.125.307.17.681.136 1.294-.068 1.839-.612 2.406-2.541 3.881-5.785 4.426-9.732zm1.002-6.394c1.405.68 2.458 1.598 3.16 2.754.703 1.156.963 2.482.782 3.978-.634 5.44-2.718 9.905-6.252 13.396-1.813 1.813-3.965 2.38-6.457 1.7-2.22-.59-3.647-2.13-4.281-4.624-.272-1.179-.385-2.108-.34-2.788 0-2.539.657-5.304 1.97-8.296.635-1.541 1.315-2.833 2.04-3.876.136-.227.238-.6.306-1.122.067-.521.124-.85.17-.986.226-.635.452-.975.679-1.02.317-.136.793-.351 1.427-.646a18.942 18.942 0 0 1 1.733-.714 4.636 4.636 0 0 1 1.53-.272c.996-.045 1.812.476 2.446 1.564.226.408.589.725 1.087.952zM397.4 156.61c1.45 1.179 1.904 2.267 1.36 3.264-.227.408-.703.714-1.428.918a3.924 3.924 0 0 1-2.108.034c-.363-.09-.873-.204-1.53-.34a22.193 22.193 0 0 1-1.462-.34c-.317-.09-.533-.057-.646.102-.113.159-.125.374-.034.646.09.317.136.646.136.986 0 .34-.023.748-.068 1.224-.045.476-.068.805-.068.986-.045.544-.08 1.179-.102 1.904-.023.725-.034 1.45-.034 2.176v1.904c-.045.725-.057 2.335-.034 4.828.023 2.493-.057 4.08-.238 4.76-.045.363-.034.895.034 1.598.068.703.102 1.213.102 1.53-.09 1.541-.408 2.63-.952 3.264a5.591 5.591 0 0 0-.442.476c-.068.09-.227.227-.476.408-.25.181-.442.25-.578.204-.136-.045-.363-.068-.68-.068-.907-.272-1.45-.975-1.632-2.108-.181-1.179-.25-2.063-.204-2.652 0-.181.034-1.054.102-2.618a88.97 88.97 0 0 0 .102-3.57c0-1.723.023-3.173.068-4.352 0-.136.023-2.652.068-7.548.045-2.176.068-3.717.068-4.624a.55.55 0 0 0-.102-.34.584.584 0 0 0-.17-.17c-.045-.023-.159-.034-.34-.034h-.34c-.499-.09-1.655-.113-3.468-.068s-2.97.045-3.468 0c-.59 0-1.122-.25-1.598-.748-.476-.499-.737-1.065-.782-1.7a2.388 2.388 0 0 1 .476-1.632c.363-.499.839-.793 1.428-.884 1.677-.317 3.49-.43 5.44-.34 1.496.09 2.38.011 2.652-.238.272-.25.43-1.122.476-2.618.045-.363.068-.77.068-1.224 0-.453.011-.907.034-1.36.023-.453.034-.861.034-1.224.09-1.45.793-2.221 2.108-2.312.499 0 .986.204 1.462.612.476.408.76.907.85 1.496.181 1.315.227 2.312.136 2.992-.045.725-.023 2.04.068 3.944.045.635.385 1.02 1.02 1.156 2.221.408 3.785.975 4.692 1.7zm-14.824 27.532c1.133 1.722.77 3.128-1.088 4.215-.408.272-.884.329-1.428.17-.544-.158-1.02-.487-1.428-.986-.59-.86-1.428-2.073-2.516-3.637s-1.768-2.527-2.04-2.89c-1.677-2.401-2.901-3.965-3.672-4.69-.499-.499-.873-.748-1.122-.748-.25 0-.646.226-1.19.68-.317.226-.59.498-.816.816-.227.317-.397.589-.51.815-.113.227-.193.556-.238.986-.045.43-.068.748-.068.952v2.074c-.045 4.804-.09 8.203-.136 10.198-.045 1.042-.748 1.949-2.108 2.719-.453.227-.94.17-1.462-.17-.521-.34-.895-.827-1.122-1.462-.136-.317-.238-.714-.306-1.19-.068-.475-.102-.804-.102-.985 0-.182.011-.612.034-1.292.023-.68.034-1.042.034-1.088 0-.136-.011-.895-.034-2.277-.023-1.383.011-2.142.102-2.278.045-.453-.26-.827-.918-1.122-.657-.294-1.088-.804-1.292-1.53-.204-.725-.102-1.382.306-1.971 1.088-1.677 1.655-2.515 1.7-2.515.09-.182.17-.363.238-.544.068-.182.113-.386.136-.612.023-.227.034-.43.034-.612a7.27 7.27 0 0 0-.034-.646 6.841 6.841 0 0 1-.034-.578c0-.59.023-2.515.068-5.779.045-3.4.136-6.255.272-8.566.227-3.445.476-6.413.748-8.906.09-.499.227-1.813.408-3.944.09-.906.59-1.677 1.496-2.311.816-.499 1.564-.555 2.244-.17.68.385 1.088.986 1.224 1.802.045.272.068.543.068.815 0 .272-.011.544-.034.816-.023.272-.045.533-.068.782-.023.25-.057.521-.102.816a5.211 5.211 0 0 0-.068.782c-.59 7.388-.93 12.464-1.02 15.229v5.575c.499-.227.997-.657 1.496-1.292.77-.952 1.972-2.017 3.604-3.195.363-.272.748-.612 1.156-1.02l1.258-1.258c.43-.43.827-.782 1.19-1.054.635-.498 1.541-1.042 2.72-1.631.907-.408 1.7-.136 2.38.815.363.544.499 1.11.408 1.7-.09.59-.34 1.088-.748 1.496l-4.964 4.147c-.09.09-.159.136-.204.136a2.34 2.34 0 0 1-.408.442 9.323 9.323 0 0 0-.442.408c-.113.113-.238.26-.374.442-.136.181-.227.34-.272.476-.09.272-.057.498.102.68.159.18.374.373.646.577.272.204.453.374.544.51 2.765 3.49 5.35 7.116 7.752 10.878zm-34.748-12.035c-.317.543-.374.985-.17 1.324.204.34.646.509 1.326.509.635.045 1.337-.26 2.108-.916.77-.656 1.337-1.414 1.7-2.274.317-.77.204-1.403-.34-1.9-.453-.408-1.088-.453-1.904-.136-.363.135-.703.35-1.02.644-.317.295-.544.555-.68.781a13.47 13.47 0 0 0-.544 1.052c-.227.475-.385.78-.476.916zm.204 7.147c-.045 0-.136-.034-.272-.102-.136-.068-.25-.09-.34-.068a.304.304 0 0 0-.204.17c-.136.317-.068.68.204 1.088.816 1.133 2.017 1.927 3.604 2.38.136.045.385.113.748.204.363.09.646.159.85.204.204.045.43.159.68.34.25.181.465.385.646.612.317.453.533.975.646 1.564.113.59.08 1.088-.102 1.496-.544.861-1.383 1.201-2.516 1.02-3.4-.453-6.007-1.723-7.82-3.808-1.541-1.859-2.267-4.737-2.176-8.636 0-.227.034-.703.102-1.428a19.97 19.97 0 0 0 .102-1.802c0-.476-.045-1.145-.136-2.006a2.37 2.37 0 0 1 .17-1.428c.204-.453.499-.839.884-1.156a2.854 2.854 0 0 1 1.326-.612 2.854 2.854 0 0 0 1.428-.952c1.27-1.541 3.173-2.493 5.712-2.856 1.315-.227 2.63.181 3.944 1.224 1.315 1.043 2.153 2.267 2.516 3.672.453 1.677.215 3.423-.714 5.236a10.67 10.67 0 0 1-4.012 4.318c-1.745 1.065-3.502 1.507-5.27 1.326zm-13.464-20.322c-1.27-.182-2.085-.749-2.448-1.702-.317-.863-.215-1.918.306-3.166.521-1.249 1.145-2.054 1.87-2.418.363-.181.77-.272 1.224-.272.861.045 1.507.318 1.938.817.43.5.578 1.18.442 2.043a9.898 9.898 0 0 1-1.496 3.88c-.408.682-1.02.954-1.836.818zm3.672 15.018c-.045.363-.034.94.034 1.734.068.793.08 1.394.034 1.802-.09.59-.159 1.258-.204 2.006-.045.748-.08 1.417-.102 2.006a36.22 36.22 0 0 1-.136 1.972 33.815 33.815 0 0 1-.238 1.972c-.09.499-.238 1.383-.442 2.652-.204 1.27-.397 2.267-.578 2.992-.408 1.859-1.405 4.08-2.992 6.664-.408.59-1.077 1.36-2.006 2.312-.93.952-1.575 1.655-1.938 2.108-.907 1.224-2.04 1.541-3.4.952-.635-.227-1.054-.669-1.258-1.326-.204-.657-.125-1.303.238-1.938a18.37 18.37 0 0 1 1.054-1.36c.385-.453.839-.952 1.36-1.496.521-.544.895-.975 1.122-1.292 1.088-1.224 2.063-3.037 2.924-5.44a19.88 19.88 0 0 0 .952-3.604c.227-1.315.374-2.437.442-3.366.068-.93.147-2.176.238-3.74.09-1.564.159-2.709.204-3.434.09-.907.147-1.904.17-2.992a61.155 61.155 0 0 0 0-2.89 114.43 114.43 0 0 1-.034-3.026v-2.924c0-1.088.272-1.972.816-2.652.499-.635 1.201-.839 2.108-.612.635.136 1.11.612 1.428 1.428.136.363.227.76.272 1.19.045.43.08.793.102 1.088.023.295.034.737.034 1.326v1.36c0 .317-.011 1.258-.034 2.822-.023 1.564-.08 2.8-.17 3.706zm-13.804-1.358c.09-.635-.227-1.27-.952-1.905-.725-.636-1.383-.885-1.972-.749-.181.045-.363.159-.544.34-2.221 3.403-3.468 6.647-3.74 9.732.09.952.136 1.463.136 1.53a2.356 2.356 0 0 0 .102.544 2.224 2.224 0 0 0 .238.476c.045.07.102.138.17.206.068.068.17.125.306.17.68.136 1.292-.068 1.836-.612 2.403-2.541 3.876-5.785 4.42-9.732zm1.02-6.394c1.405.68 2.46 1.598 3.162 2.754.703 1.156.963 2.482.782 3.978-.635 5.44-2.72 9.905-6.256 13.396-1.813 1.813-3.967 2.38-6.46 1.7-2.221-.59-3.65-2.13-4.284-4.624-.272-1.179-.385-2.108-.34-2.788 0-2.539.657-5.304 1.972-8.296.635-1.541 1.315-2.833 2.04-3.876.136-.227.238-.6.306-1.122.068-.521.125-.85.17-.986.227-.635.453-.975.68-1.02.317-.136.793-.351 1.428-.646a18.959 18.959 0 0 1 1.734-.714 4.641 4.641 0 0 1 1.53-.272c.997-.045 1.813.476 2.448 1.564.227.408.59.725 1.088.952zm-14.484 1.97c.952 1.314.884 2.447-.204 3.398-.408.363-1.031.51-1.87.442-.839-.068-1.462-.329-1.87-.782-.136-.09-.77-.838-1.904-2.243-.363-.453-.68-.408-.952.136-.317.77-.952 2.017-1.904 3.739s-1.61 3.08-1.972 4.078a14.914 14.914 0 0 1-.816 1.903 42.552 42.552 0 0 0-.986 2.107c-.295.68-.533 1.314-.714 1.903-.272 1.042-.93 1.88-1.972 2.515-.861.453-1.734.487-2.618.102-.884-.385-1.44-1.053-1.666-2.005a15.019 15.019 0 0 1-.306-2.005 52.973 52.973 0 0 1-.136-1.733 74.551 74.551 0 0 1-.068-2.107c-.023-.997-.034-1.61-.034-1.836 0-.725.045-1.858.136-3.398 0-.816.295-1.598.884-2.345.59-.748 1.27-.918 2.04-.51 1.587.77 2.335 1.767 2.244 2.99 0 .046.045.409.136 1.088a30.89 30.89 0 0 0 1.054-1.699c.34-.59.725-1.37 1.156-2.345.43-.974.714-1.575.85-1.801.453-.952 1.27-2.198 2.448-3.739.635-.815 1.462-1.246 2.482-1.291 1.02-.045 1.938.295 2.754 1.02 1.224 1.087 2.493 2.56 3.808 4.418zm-27.676 3.402c.272-1.587.159-3.196-.34-4.828-.136-.408-.272-.669-.408-.782-.136-.113-.476-.034-1.02.238-1.088.816-1.541 1.836-1.36 3.06 0 .227-.023.578-.068 1.054a12.97 12.97 0 0 0-.068.918v7.276c1.677-1.45 2.765-3.763 3.264-6.936zm4.148-7.684c1.315 2.81 1.587 6.165.816 10.064a15.748 15.748 0 0 1-2.108 5.134c-.997 1.564-2.312 3.23-3.944 4.998-.227.227-.544.555-.952.986-.408.43-.703.737-.884.918a1.707 1.707 0 0 0-.408.68c-.09.272-.136.487-.136.646 0 .159.011.408.034.748.023.34.034.555.034.646.045.907.08 2.323.102 4.25.023 1.927.057 3.638.102 5.134.045 1.496.136 2.924.272 4.284.045.499-.102 1.031-.442 1.598-.34.567-.714.918-1.122 1.054-.952.317-1.836 0-2.652-.952-.725-.816-1.065-2.017-1.02-3.604-.181-5.213-.272-8.545-.272-9.996.045-.453-.136-.703-.544-.748a3.358 3.358 0 0 1-2.176-1.088c-.544-.59-.76-1.247-.646-1.972.113-.725.555-1.224 1.326-1.496.861-.272 1.428-.703 1.7-1.292.272-.59.385-1.337.34-2.244-.09-1.45-.068-4.85.068-10.2.045-1.043 0-1.836-.136-2.38-.136-.544-.102-1.337.102-2.38s.306-1.61.306-1.7c.181-2.085.567-6.075 1.156-11.968.045-.816.397-1.473 1.054-1.972a2.762 2.762 0 0 1 2.21-.544c.499.045.93.26 1.292.646.363.385.567.85.612 1.394.136 1.315.045 2.493-.272 3.536a5.937 5.937 0 0 0-.272 1.224c-.045.408-.08.918-.102 1.53-.023.612-.057 1.031-.102 1.258 0 .453.25.612.748.476 2.584-.725 4.556.385 5.916 3.332zm-32.328-4.245c-.03.078-.066.156-.108.233-.227.408-.703.714-1.428.918a3.924 3.924 0 0 1-2.108.034c-.363-.09-.873-.204-1.53-.34a22.193 22.193 0 0 1-1.462-.34c-.317-.09-.533-.057-.646.102-.113.159-.125.374-.034.646.09.317.136.646.136.986 0 .34-.023.748-.068 1.224-.045.476-.068.805-.068.986-.045.544-.08 1.179-.102 1.904-.023.725-.034 1.45-.034 2.176v1.904c-.045.725-.057 2.335-.034 4.828.023 2.493-.057 4.08-.238 4.76-.045.363-.034.895.034 1.598.068.703.102 1.213.102 1.53-.09 1.541-.408 2.63-.952 3.264a5.591 5.591 0 0 0-.442.476c-.068.09-.227.227-.476.408-.25.181-.442.25-.578.204-.136-.045-.363-.068-.68-.068-.907-.272-1.45-.975-1.632-2.108-.181-1.179-.25-2.063-.204-2.652 0-.181.034-1.054.102-2.618a88.97 88.97 0 0 0 .102-3.57c0-1.723.023-3.173.068-4.352 0-.136.023-2.652.068-7.548.045-2.176.068-3.717.068-4.624a.55.55 0 0 0-.102-.34.584.584 0 0 0-.17-.17c-.045-.023-.159-.034-.34-.034h-.34c-.499-.09-1.655-.113-3.468-.068s-2.97.045-3.468 0c-.59 0-1.122-.25-1.598-.748-.476-.499-.737-1.065-.782-1.7a2.388 2.388 0 0 1 .476-1.632c.363-.499.839-.793 1.428-.884 1.677-.317 3.49-.43 5.44-.34 1.496.09 2.38.011 2.652-.238.272-.25.43-1.122.476-2.618.045-.363.068-.77.068-1.224 0-.453.011-.907.034-1.36.023-.453.034-.861.034-1.224.09-1.45.793-2.221 2.108-2.312.499 0 .986.204 1.462.612.476.408.76.907.85 1.496.181 1.315.227 2.312.136 2.992-.045.725-.023 2.04.068 3.944.045.635.385 1.02 1.02 1.156 1.31.24 2.393.537 3.246.888-.149.454-.21.951-.186 1.492.045.59.295 1.156.748 1.7s.907.816 1.36.816c.356-.017.687-.072.992-.165zm-2.352-4.901c.544-.703 1.247-1.054 2.108-1.054.725 0 1.292.25 1.7.748.408.499.635 1.213.68 2.142.045.93-.227 1.689-.816 2.278a3.124 3.124 0 0 1-1.32.787c.36-.933-.13-1.944-1.468-3.031-.372-.297-.854-.568-1.446-.812a3.49 3.49 0 0 1 .562-1.058zm1.428 9.35c.59.045 1.122.204 1.598.476s.839.612 1.088 1.02c.25.409.374.817.374 1.225-.136 1.814-.227 4.875-.272 9.184-.045.68-.102 1.972-.17 3.877a131.958 131.958 0 0 0-.102 4.354c.045.77.023 1.904-.068 3.401-.045 1.451-.748 2.245-2.108 2.381a2.874 2.874 0 0 1-1.836-.476 2.322 2.322 0 0 1-1.02-1.497c-.181-.227-.238-1.122-.17-2.687.068-1.564.102-2.46.102-2.687v-5.442c0-.726.023-1.848.068-3.367.045-1.52.09-2.857.136-4.014.045-1.156.136-2.279.272-3.367.045-.771.272-1.372.68-1.803.408-.43.884-.623 1.428-.578zm-25.976 8.017c-.317.543-.374.985-.17 1.324.204.34.646.509 1.326.509.635.045 1.337-.26 2.108-.916.77-.656 1.337-1.414 1.7-2.274.317-.77.204-1.403-.34-1.9-.453-.408-1.088-.453-1.904-.136-.363.135-.703.35-1.02.644-.317.295-.544.555-.68.781a13.47 13.47 0 0 0-.544 1.052c-.227.475-.385.78-.476.916zm.204 7.147c-.045 0-.136-.034-.272-.102-.136-.068-.25-.09-.34-.068a.304.304 0 0 0-.204.17c-.136.317-.068.68.204 1.088.816 1.133 2.017 1.927 3.604 2.38.136.045.385.113.748.204.363.09.646.159.85.204.204.045.43.159.68.34.25.181.465.385.646.612.317.453.533.975.646 1.564.113.59.08 1.088-.102 1.496-.544.861-1.383 1.201-2.516 1.02-3.4-.453-6.007-1.723-7.82-3.808-1.541-1.859-2.267-4.737-2.176-8.636 0-.227.034-.703.102-1.428a19.97 19.97 0 0 0 .102-1.802c0-.476-.045-1.145-.136-2.006a2.37 2.37 0 0 1 .17-1.428c.204-.453.499-.839.884-1.156a2.854 2.854 0 0 1 1.326-.612 2.854 2.854 0 0 0 1.428-.952c1.27-1.541 3.173-2.493 5.712-2.856 1.315-.227 2.63.181 3.944 1.224 1.315 1.043 2.153 2.267 2.516 3.672.453 1.677.215 3.423-.714 5.236a10.67 10.67 0 0 1-4.012 4.318c-1.745 1.065-3.502 1.507-5.27 1.326zm-10.336-22.916a42.196 42.196 0 0 0-.068 2.584c0 .997-.011 1.96-.034 2.89-.023.93-.08 1.78-.17 2.55-.136 1.36-.204 3.264-.204 5.712v4.692c-.045.725-.011 1.813.102 3.264.113 1.45.17 2.539.17 3.264-.045.725-.045 1.643 0 2.754.045 1.11.08 2.04.102 2.788.023.748.011 1.689-.034 2.822-.09 1.27-.612 2.04-1.564 2.312-1.088.363-2.017-.09-2.788-1.36a4.41 4.41 0 0 1-.476-1.326 7.984 7.984 0 0 1-.136-1.496c0-.521-.023-.873-.068-1.054a442.368 442.368 0 0 1-.272-19.108c0-.725.023-1.519.068-2.38.045-.861.09-1.802.136-2.822.045-1.02.09-1.802.136-2.346 0-.227.011-.93.034-2.108.023-1.179.08-2.085.17-2.72 0-.317.068-2.72.204-7.208 0-.544.25-1.065.748-1.564.499-.499 1.02-.748 1.564-.748s1.043.227 1.496.68c.453.453.748 1.02.884 1.7a14.937 14.937 0 0 1 .238 3.332 44.934 44.934 0 0 0-.034 1.53c0 .385-.034.975-.102 1.768-.068.793-.102 1.326-.102 1.598zm-8.364 27.804c1.133 1.722.77 3.128-1.088 4.215-.408.272-.884.329-1.428.17-.544-.158-1.02-.487-1.428-.986-.59-.86-1.428-2.073-2.516-3.637s-1.768-2.527-2.04-2.89c-1.677-2.401-2.901-3.965-3.672-4.69-.499-.499-.873-.748-1.122-.748-.25 0-.646.226-1.19.68-.317.226-.59.498-.816.816-.227.317-.397.589-.51.815-.113.227-.193.556-.238.986-.045.43-.068.748-.068.952v2.074c-.045 4.804-.09 8.203-.136 10.198-.045 1.042-.748 1.949-2.108 2.719-.453.227-.94.17-1.462-.17-.521-.34-.895-.827-1.122-1.462-.136-.317-.238-.714-.306-1.19-.068-.475-.102-.804-.102-.985 0-.182.011-.612.034-1.292.023-.68.034-1.042.034-1.088 0-.136-.011-.895-.034-2.277-.023-1.383.011-2.142.102-2.278.045-.453-.26-.827-.918-1.122-.657-.294-1.088-.804-1.292-1.53-.204-.725-.102-1.382.306-1.971 1.088-1.677 1.655-2.515 1.7-2.515.09-.182.17-.363.238-.544.068-.182.113-.386.136-.612.023-.227.034-.43.034-.612a7.27 7.27 0 0 0-.034-.646 6.841 6.841 0 0 1-.034-.578c0-.59.023-2.515.068-5.779.045-3.4.136-6.255.272-8.566.227-3.445.476-6.413.748-8.906.09-.499.227-1.813.408-3.944.09-.906.59-1.677 1.496-2.311.816-.499 1.564-.555 2.244-.17.68.385 1.088.986 1.224 1.802.045.272.068.543.068.815 0 .272-.011.544-.034.816-.023.272-.045.533-.068.782-.023.25-.057.521-.102.816a5.211 5.211 0 0 0-.068.782c-.59 7.388-.93 12.464-1.02 15.229v5.575c.499-.227.997-.657 1.496-1.292.77-.952 1.972-2.017 3.604-3.195.363-.272.748-.612 1.156-1.02l1.258-1.258c.43-.43.827-.782 1.19-1.054.635-.498 1.541-1.042 2.72-1.631.907-.408 1.7-.136 2.38.815.363.544.499 1.11.408 1.7-.09.59-.34 1.088-.748 1.496l-4.964 4.147c-.09.09-.159.136-.204.136a2.34 2.34 0 0 1-.408.442 9.323 9.323 0 0 0-.442.408c-.113.113-.238.26-.374.442-.136.181-.227.34-.272.476-.09.272-.057.498.102.68.159.18.374.373.646.577.272.204.453.374.544.51 2.765 3.49 5.35 7.116 7.752 10.878zm-38.08-7.2c2.04-3.037 3.332-5.395 3.876-7.072-.861.68-1.7 1.768-2.516 3.264-.816 1.496-1.27 2.765-1.36 3.808zm14.96 14.824c.09.499.023.997-.204 1.496a2.307 2.307 0 0 1-1.054 1.122c-.476.25-.975.317-1.496.204-.521-.113-.94-.351-1.258-.714-.725-.907-1.201-1.995-1.428-3.264-.272-1.45-.975-4.85-2.108-10.2-.09-.272-.17-.691-.238-1.258a15.61 15.61 0 0 0-.272-1.598 9.517 9.517 0 0 0-.442-1.428c-.499 1.043-1.315 2.357-2.448 3.944-1.133 1.587-1.836 2.63-2.108 3.128-.725 1.179-1.734 1.893-3.026 2.142-1.292.25-2.414-.034-3.366-.85-.499-.408-.861-1.043-1.088-1.904-.499-1.904-.385-4.239.34-7.004 1.088-3.853 2.992-7.185 5.712-9.996 2.04-2.13 4.284-2.63 6.732-1.496 1.224.544 1.881 1.836 1.972 3.876.045.499.215.93.51 1.292.295.363.533.748.714 1.156.181.408.363.986.544 1.734.181.748.295 1.19.34 1.326.317 1.179.646 2.913.986 5.202.34 2.29.646 3.955.918 4.998.453 1.723.77 3.332.952 4.828.045.272.317 1.36.816 3.264zm-23.528-12.512c.68.317 1.122.76 1.326 1.326.204.567.125 1.19-.238 1.87-.68 1.088-2.017 1.904-4.012 2.448-3.99 1.088-8.41 1.972-13.26 2.652-.499.09-1.303.227-2.414.408-1.11.181-2.074.329-2.89.442-.816.113-1.61.17-2.38.17-.816.136-1.734.147-2.754.034-1.02-.113-1.893-.442-2.618-.986-1.45-1.179-1.836-2.561-1.156-4.148.544-1.36 1.315-2.493 2.312-3.4 1.27-1.224 3.06-2.924 5.372-5.1 2.312-2.176 3.785-3.581 4.42-4.216.045 0 .295-.295.748-.884-3.219.272-5.508.521-6.868.748-2.221.363-3.672.703-4.352 1.02-.317.181-.839.125-1.564-.17-.725-.295-1.179-.6-1.36-.918-.272-.363-.351-.873-.238-1.53.113-.657.329-1.167.646-1.53.544-.635 1.179-1.077 1.904-1.326.725-.25 1.677-.442 2.856-.578 3.264-.499 5.939-.816 8.024-.952 1.043-.181 2.233-.227 3.57-.136 1.337.09 2.46.476 3.366 1.156.544.408.907.986 1.088 1.734.181.748.136 1.44-.136 2.074-.544 1.133-1.61 2.47-3.196 4.012a586.11 586.11 0 0 0-5.338 5.032 482.67 482.67 0 0 0-3.91 3.74c-.045 0-.317.317-.816.952.09.09.136.159.136.204 5.168-.816 7.91-1.247 8.228-1.292 5.259-.861 9.77-1.836 13.532-2.924a3.247 3.247 0 0 1 1.972.068zm265.166-82.147c-.317.543-.374.985-.17 1.324.204.34.646.509 1.326.509.635.045 1.337-.26 2.108-.916.77-.656 1.337-1.414 1.7-2.274.317-.77.204-1.403-.34-1.9-.453-.408-1.088-.453-1.904-.136-.363.135-.703.35-1.02.644-.317.295-.544.555-.68.781a13.47 13.47 0 0 0-.544 1.052c-.227.475-.385.78-.476.916zm.204 7.147c-.045 0-.136-.034-.272-.102-.136-.068-.25-.09-.34-.068a.304.304 0 0 0-.204.17c-.136.317-.068.68.204 1.088.816 1.133 2.017 1.927 3.604 2.38.136.045.385.113.748.204.363.09.646.159.85.204.204.045.43.159.68.34.25.181.465.385.646.612.317.453.533.975.646 1.564.113.59.08 1.088-.102 1.496-.544.861-1.383 1.201-2.516 1.02-3.4-.453-6.007-1.723-7.82-3.808-1.541-1.859-2.267-4.737-2.176-8.636 0-.227.034-.703.102-1.428a19.97 19.97 0 0 0 .102-1.802c0-.476-.045-1.145-.136-2.006a2.37 2.37 0 0 1 .17-1.428c.204-.453.499-.839.884-1.156a2.854 2.854 0 0 1 1.326-.612 2.854 2.854 0 0 0 1.428-.952c1.27-1.541 3.173-2.493 5.712-2.856 1.315-.227 2.63.181 3.944 1.224 1.315 1.043 2.153 2.267 2.516 3.672.453 1.677.215 3.423-.714 5.236a10.67 10.67 0 0 1-4.012 4.318c-1.745 1.065-3.502 1.507-5.27 1.326zm-3.799-22.644c1.452 1.179 1.905 2.267 1.36 3.264-.226.408-.702.714-1.428.918a3.927 3.927 0 0 1-2.109.034c-.363-.09-.873-.204-1.53-.34a22.211 22.211 0 0 1-1.463-.34c-.317-.09-.533-.057-.646.102-.114.159-.125.374-.034.646.09.317.136.646.136.986 0 .34-.023.748-.068 1.224-.046.476-.068.805-.068.986-.046.544-.08 1.179-.102 1.904a69.62 69.62 0 0 0-.034 2.176v1.904c-.046.725-.057 2.335-.034 4.828.022 2.493-.057 4.08-.239 4.76-.045.363-.034.895.035 1.598.068.703.102 1.213.102 1.53-.091 1.541-.409 2.63-.953 3.264a5.592 5.592 0 0 0-.442.476c-.068.09-.227.227-.476.408-.25.181-.442.25-.579.204-.136-.045-.362-.068-.68-.068-.907-.272-1.451-.975-1.633-2.108-.181-1.179-.249-2.063-.204-2.652 0-.181.034-1.054.102-2.618.068-1.564.102-2.754.102-3.57 0-1.723.023-3.173.068-4.352 0-.136.023-2.652.069-7.548.045-2.176.068-3.717.068-4.624a.55.55 0 0 0-.103-.34.584.584 0 0 0-.17-.17c-.045-.023-.158-.034-.34-.034h-.34c-.499-.09-1.655-.113-3.47-.068-1.814.045-2.97.045-3.469 0-.59 0-1.122-.25-1.599-.748-.476-.499-.737-1.065-.782-1.7a2.387 2.387 0 0 1 .476-1.632c.363-.499.84-.793 1.429-.884 1.678-.317 3.492-.43 5.442-.34 1.497.09 2.381.011 2.653-.238.273-.25.431-1.122.477-2.618.045-.363.068-.77.068-1.224 0-.453.011-.907.034-1.36.022-.453.034-.861.034-1.224.09-1.45.793-2.221 2.109-2.312.499 0 .986.204 1.462.612.476.408.76.907.85 1.496.182 1.315.227 2.312.137 2.992-.046.725-.023 2.04.068 3.944.045.635.385 1.02 1.02 1.156 2.223.408 3.787.975 4.694 1.7zm-28.773 20.332c2.04-3.037 3.332-5.395 3.876-7.072-.861.68-1.7 1.768-2.516 3.264-.816 1.496-1.27 2.765-1.36 3.808zm14.96 14.824c.09.499.023.997-.204 1.496a2.307 2.307 0 0 1-1.054 1.122c-.476.25-.975.317-1.496.204-.521-.113-.94-.351-1.258-.714-.725-.907-1.201-1.995-1.428-3.264-.272-1.45-.975-4.85-2.108-10.2-.09-.272-.17-.691-.238-1.258a15.61 15.61 0 0 0-.272-1.598 9.517 9.517 0 0 0-.442-1.428c-.499 1.043-1.315 2.357-2.448 3.944-1.133 1.587-1.836 2.63-2.108 3.128-.725 1.179-1.734 1.893-3.026 2.142-1.292.25-2.414-.034-3.366-.85-.499-.408-.861-1.043-1.088-1.904-.499-1.904-.385-4.239.34-7.004 1.088-3.853 2.992-7.185 5.712-9.996 2.04-2.13 4.284-2.63 6.732-1.496 1.224.544 1.881 1.836 1.972 3.876.045.499.215.93.51 1.292.295.363.533.748.714 1.156.181.408.363.986.544 1.734.181.748.295 1.19.34 1.326.317 1.179.646 2.913.986 5.202.34 2.29.646 3.955.918 4.998.453 1.723.77 3.332.952 4.828.045.272.317 1.36.816 3.264zm-22.042-23.598c.952 1.314.884 2.447-.204 3.398-.407.363-1.03.51-1.869.442-.838-.068-1.461-.329-1.869-.782-.136-.09-.77-.838-1.903-2.243-.362-.453-.68-.408-.951.136-.318.77-.952 2.017-1.903 3.739-.952 1.722-1.609 3.08-1.972 4.078a14.917 14.917 0 0 1-.815 1.903 42.558 42.558 0 0 0-.986 2.107 18.52 18.52 0 0 0-.713 1.903c-.272 1.042-.93 1.88-1.971 2.515-.861.453-1.733.487-2.617.102-.884-.385-1.439-1.053-1.665-2.005a15.027 15.027 0 0 1-.306-2.005 52.962 52.962 0 0 1-.136-1.733 74.584 74.584 0 0 1-.068-2.107 120.51 120.51 0 0 1-.034-1.836c0-.725.045-1.858.136-3.398 0-.816.294-1.597.884-2.345.589-.748 1.268-.918 2.039-.51 1.585.77 2.333 1.767 2.242 2.99 0 .046.046.409.136 1.088.363-.543.714-1.11 1.054-1.699.34-.59.725-1.37 1.155-2.345.43-.974.714-1.575.85-1.801.453-.952 1.269-2.198 2.447-3.739.634-.815 1.461-1.246 2.48-1.291 1.02-.045 1.938.295 2.753 1.02 1.224 1.087 2.492 2.56 3.806 4.418zm-35.894 8.774c2.04-3.037 3.332-5.395 3.876-7.072-.861.68-1.7 1.768-2.516 3.264-.816 1.496-1.27 2.765-1.36 3.808zm14.96 14.824c.09.499.023.997-.204 1.496a2.307 2.307 0 0 1-1.054 1.122c-.476.25-.975.317-1.496.204-.521-.113-.94-.351-1.258-.714-.725-.907-1.201-1.995-1.428-3.264-.272-1.45-.975-4.85-2.108-10.2-.09-.272-.17-.691-.238-1.258a15.61 15.61 0 0 0-.272-1.598 9.517 9.517 0 0 0-.442-1.428c-.499 1.043-1.315 2.357-2.448 3.944-1.133 1.587-1.836 2.63-2.108 3.128-.725 1.179-1.734 1.893-3.026 2.142-1.292.25-2.414-.034-3.366-.85-.499-.408-.861-1.043-1.088-1.904-.499-1.904-.385-4.239.34-7.004 1.088-3.853 2.992-7.185 5.712-9.996 2.04-2.13 4.284-2.63 6.732-1.496 1.224.544 1.881 1.836 1.972 3.876.045.499.215.93.51 1.292.295.363.533.748.714 1.156.181.408.363.986.544 1.734.181.748.295 1.19.34 1.326.317 1.179.646 2.913.986 5.202.34 2.29.646 3.955.918 4.998.453 1.723.77 3.332.952 4.828.045.272.317 1.36.816 3.264zm-23.528-9.18c.09.59-.272 1.11-1.088 1.564-1.541.997-3.547 1.383-6.018 1.156-2.47-.227-4.34-1.065-5.61-2.516-1.496-1.723-2.244-3.899-2.244-6.528a24.4 24.4 0 0 1 2.788-10.812c.997-1.904 2.47-3.31 4.42-4.216.499-.227 1.224-.204 2.176.068.952.272 1.655.657 2.108 1.156.544.59.975 1.201 1.292 1.836.816 1.632.385 2.833-1.292 3.604a1.312 1.312 0 0 1-.68.204 1.35 1.35 0 0 1-.612-.136 4.448 4.448 0 0 1-.476-.272 3.297 3.297 0 0 1-.476-.408c-.181-.181-.317-.295-.408-.34-.272-.181-.465-.26-.578-.238-.113.023-.26.147-.442.374-1.043 1.36-1.813 3.4-2.312 6.12-.363 1.995-.453 3.355-.272 4.08.272 1.088.691 1.836 1.258 2.244.567.408 1.44.59 2.618.544.59-.045 1.247-.181 1.972-.408 2.267-.68 3.559.295 3.876 2.924zm-25.84-11.22c.136-.317.136-.544 0-.68-.816-1.043-1.7-1.11-2.652-.204-.181.181-.34.363-.476.544-1.677 2.221-2.833 5.055-3.468 8.5-.363 1.95-.363 3.445 0 4.488.136-.227.351-.499.646-.816.295-.317.544-.612.748-.884.204-.272.374-.521.51-.748.59-1.133 2.153-4.533 4.692-10.2zm6.052-23.256c.68.045 1.224.295 1.632.748.408.453.612 1.043.612 1.768-.045.544-.08 1.27-.102 2.176a79.816 79.816 0 0 1-.102 2.55 29.53 29.53 0 0 1-.204 2.21c-.272 2.675-.408 4.85-.408 6.528.045.907 0 2.221-.136 3.944-.136 1.723-.204 2.947-.204 3.672 0 1.179-.057 3.207-.17 6.086-.113 2.879-.17 5.111-.17 6.698 0 .408.023 1.02.068 1.836.045.816.068 1.417.068 1.802s-.045.986-.136 1.802c-.09.77-.612 1.655-1.564 2.652-.363.408-.907.442-1.632.102-.725-.34-1.201-.827-1.428-1.462-.227-.635-.34-1.927-.34-3.876v-6.936a.56.56 0 0 1-.17-.034.56.56 0 0 0-.17-.034c-.181.272-.408.714-.68 1.326a37.482 37.482 0 0 1-.544 1.19c-.68 1.224-1.632 2.63-2.856 4.216-.997 1.36-2.255 2.108-3.774 2.244-1.519.136-2.89-.363-4.114-1.496a4.776 4.776 0 0 1-1.122-2.006c-.204-.748-.329-1.62-.374-2.618-.136-4.67 1.02-9.157 3.468-13.464 1.36-2.357 2.97-4.012 4.828-4.964 2.04-1.043 3.944-.816 5.712.68l.408.204c-.045-1.405.045-3.355.272-5.848.227-2.493.363-4.261.408-5.304 0-1.632.181-3.083.544-4.352.136-.59.453-1.1.952-1.53.499-.43.975-.6 1.428-.51zm-24.48 24.482c.09-.635-.227-1.27-.952-1.905-.725-.636-1.383-.885-1.972-.749-.181.045-.363.159-.544.34-2.221 3.403-3.468 6.647-3.74 9.732.09.952.136 1.463.136 1.53a2.356 2.356 0 0 0 .102.544 2.224 2.224 0 0 0 .238.476c.045.07.102.138.17.206.068.068.17.125.306.17.68.136 1.292-.068 1.836-.612 2.403-2.541 3.876-5.785 4.42-9.732zm1.02-6.394c1.405.68 2.46 1.598 3.162 2.754.703 1.156.963 2.482.782 3.978-.635 5.44-2.72 9.905-6.256 13.396-1.813 1.813-3.967 2.38-6.46 1.7-2.221-.59-3.65-2.13-4.284-4.624-.272-1.179-.385-2.108-.34-2.788 0-2.539.657-5.304 1.972-8.296.635-1.541 1.315-2.833 2.04-3.876.136-.227.238-.6.306-1.122.068-.521.125-.85.17-.986.227-.635.453-.975.68-1.02.317-.136.793-.351 1.428-.646a18.959 18.959 0 0 1 1.734-.714 4.641 4.641 0 0 1 1.53-.272c.997-.045 1.813.476 2.448 1.564.227.408.59.725 1.088.952zm-29.24 19.584c.09.725.011 1.349-.238 1.87-.25.521-.646.873-1.19 1.054-.59.181-1.201.113-1.836-.204a3.618 3.618 0 0 1-1.496-1.36 5.316 5.316 0 0 1-.408-1.088c-.09-.363-.159-.861-.204-1.496a25.054 25.054 0 0 1-.068-1.156c-.136-.907-.657-5.44-1.564-13.6l-.136-.952c-1.677 2.13-2.561 3.241-2.652 3.332-.952 1.179-2.13 2.958-3.536 5.338-1.405 2.38-2.357 3.955-2.856 4.726a4.443 4.443 0 0 1-1.53 1.292c-.612.317-1.19.408-1.734.272-.635-.136-1.201-.521-1.7-1.156a4.204 4.204 0 0 1-.884-2.176c-.181-1.36-.363-4.012-.544-7.956 0-.045-.09-.725-.272-2.04-.227.317-.907 1.156-2.04 2.516s-1.95 2.448-2.448 3.264c-.499.861-1.95 3.219-4.352 7.072-.59.952-.93 1.655-1.02 2.108-.181.499-.533.94-1.054 1.326-.521.385-1.009.578-1.462.578-1.27-.09-2.085-.839-2.448-2.244-.272-.861-.317-2.153-.136-3.876.59-7.027 1.133-12.376 1.632-16.048.09-.499.136-1.405.136-2.72a5.926 5.926 0 0 1 .816-2.72c.408-.77.997-1.19 1.768-1.258.77-.068 1.45.215 2.04.85.499.544.77 1.201.816 1.972.045.77.023 1.473-.068 2.108-.09.997-.25 2.482-.476 4.454a329.252 329.252 0 0 0-.476 4.318c0 .09-.057.272-.17.544-.113.272-.159.51-.136.714.023.204.125.397.306.578 1.587-2.13 2.425-3.241 2.516-3.332.227-.317.533-.737.918-1.258s.703-.952.952-1.292a22.333 22.333 0 0 1 2.006-2.346c.952-.861 1.813-1.45 2.584-1.768 2.176-.952 3.695-.045 4.556 2.72a9.63 9.63 0 0 1 .476 1.972c.09.68.159 1.598.204 2.754.045 1.156.09 1.847.136 2.074 0 .363.068.567.204.612.227-.136.442-.329.646-.578.204-.25.397-.544.578-.884.181-.34.34-.6.476-.782.317-.408.839-1.167 1.564-2.278.725-1.11 1.315-1.938 1.768-2.482 1.496-1.813 2.97-3.128 4.42-3.944.544-.272 1.179-.34 1.904-.204.725.136 1.315.453 1.768.952.952 1.043 1.587 2.38 1.904 4.012.272 1.541.793 5.961 1.564 13.26 0 .272.159 1.79.476 4.556zm-45.278-13.19c.09-.635-.227-1.27-.953-1.905-.727-.636-1.385-.885-1.975-.749-.182.045-.363.159-.545.34-2.224 3.403-3.473 6.647-3.745 9.732.09.952.136 1.463.136 1.53a2.353 2.353 0 0 0 .102.544 2.224 2.224 0 0 0 .238.476c.046.07.103.138.17.206.069.068.171.125.307.17.681.136 1.294-.068 1.839-.612 2.406-2.541 3.881-5.785 4.426-9.732zm1.01-6.394c1.405.68 2.46 1.598 3.162 2.754.703 1.156.963 2.482.782 3.978-.635 5.44-2.72 9.905-6.256 13.396-1.813 1.813-3.967 2.38-6.46 1.7-2.221-.59-3.65-2.13-4.284-4.624-.272-1.179-.385-2.108-.34-2.788 0-2.539.657-5.304 1.972-8.296.635-1.541 1.315-2.833 2.04-3.876.136-.227.238-.6.306-1.122.068-.521.125-.85.17-.986.227-.635.453-.975.68-1.02.317-.136.793-.351 1.428-.646a18.959 18.959 0 0 1 1.734-.714 4.641 4.641 0 0 1 1.53-.272c.997-.045 1.813.476 2.448 1.564.227.408.59.725 1.088.952zm-20.672-.884c-1.133 1.088-1.813 2.312-2.04 3.672-.136.725.023 1.315.476 1.768.136.136.521.533 1.156 1.19a26.837 26.837 0 0 0 1.496 1.462c1.813 1.632 2.901 3.445 3.264 5.44.272 1.179.034 2.516-.714 4.012-.748 1.496-1.802 2.584-3.162 3.264-2.539 1.27-4.805 1.723-6.8 1.36a6.367 6.367 0 0 0-1.02-.068h-1.02c-.408-.045-.861-.295-1.36-.748-.499-.453-.793-.884-.884-1.292-.09-.453.011-.975.306-1.564.295-.59.646-.952 1.054-1.088.045 0 .793-.045 2.244-.136.317.09.68.136 1.088.136.408 0 .748-.023 1.02-.068.272-.045.657-.125 1.156-.238.499-.113.861-.193 1.088-.238.68-.136 1.235-.453 1.666-.952.43-.499.555-1.02.374-1.564-.227-.861-.725-1.61-1.496-2.244-1.859-1.496-3.264-3.037-4.216-4.624-.861-1.496-.997-3.355-.408-5.576.59-1.95 1.519-3.536 2.788-4.76 2.085-2.04 4.307-2.765 6.664-2.176.907.227 1.757.827 2.55 1.802.793.975 1.19 1.915 1.19 2.822.045.816-.272 1.44-.952 1.87-.68.43-1.405.465-2.176.102-1.088-.499-1.79-.997-2.108-1.496-.317-.544-.725-.567-1.224-.068zm-19.584 6.793c-.317.543-.374.985-.17 1.324.204.34.646.509 1.326.509.635.045 1.337-.26 2.108-.916.77-.656 1.337-1.414 1.7-2.274.317-.77.204-1.403-.34-1.9-.453-.408-1.088-.453-1.904-.136-.363.135-.703.35-1.02.644-.317.295-.544.555-.68.781a13.47 13.47 0 0 0-.544 1.052c-.227.475-.385.78-.476.916zm.204 7.147c-.045 0-.136-.034-.272-.102-.136-.068-.25-.09-.34-.068a.304.304 0 0 0-.204.17c-.136.317-.068.68.204 1.088.816 1.133 2.017 1.927 3.604 2.38.136.045.385.113.748.204.363.09.646.159.85.204.204.045.43.159.68.34.25.181.465.385.646.612.317.453.533.975.646 1.564.113.59.08 1.088-.102 1.496-.544.861-1.383 1.201-2.516 1.02-3.4-.453-6.007-1.723-7.82-3.808-1.541-1.859-2.267-4.737-2.176-8.636 0-.227.034-.703.102-1.428a19.97 19.97 0 0 0 .102-1.802c0-.476-.045-1.145-.136-2.006a2.37 2.37 0 0 1 .17-1.428c.204-.453.499-.839.884-1.156a2.854 2.854 0 0 1 1.326-.612 2.854 2.854 0 0 0 1.428-.952c1.27-1.541 3.173-2.493 5.712-2.856 1.315-.227 2.63.181 3.944 1.224 1.315 1.043 2.153 2.267 2.516 3.672.453 1.677.215 3.423-.714 5.236a10.67 10.67 0 0 1-4.012 4.318c-1.745 1.065-3.502 1.507-5.27 1.326zm-10.336-22.916a42.196 42.196 0 0 0-.068 2.584c0 .997-.011 1.96-.034 2.89-.023.93-.08 1.78-.17 2.55-.136 1.36-.204 3.264-.204 5.712v4.692c-.045.725-.011 1.813.102 3.264.113 1.45.17 2.539.17 3.264-.045.725-.045 1.643 0 2.754.045 1.11.08 2.04.102 2.788.023.748.011 1.689-.034 2.822-.09 1.27-.612 2.04-1.564 2.312-1.088.363-2.017-.09-2.788-1.36a4.41 4.41 0 0 1-.476-1.326 7.984 7.984 0 0 1-.136-1.496c0-.521-.023-.873-.068-1.054a442.368 442.368 0 0 1-.272-19.108c0-.725.023-1.519.068-2.38.045-.861.09-1.802.136-2.822.045-1.02.09-1.802.136-2.346 0-.227.011-.93.034-2.108.023-1.179.08-2.085.17-2.72 0-.317.068-2.72.204-7.208 0-.544.25-1.065.748-1.564.499-.499 1.02-.748 1.564-.748s1.043.227 1.496.68c.453.453.748 1.02.884 1.7a14.937 14.937 0 0 1 .238 3.332 44.934 44.934 0 0 0-.034 1.53c0 .385-.034.975-.102 1.768-.068.793-.102 1.326-.102 1.598zM163.106 96.57c.272-1.587.159-3.196-.34-4.828-.136-.408-.272-.669-.408-.782-.136-.113-.476-.034-1.02.238-1.088.816-1.541 1.836-1.36 3.06 0 .227-.023.578-.068 1.054a12.97 12.97 0 0 0-.068.918v7.276c1.677-1.45 2.765-3.763 3.264-6.936zm4.148-7.684c1.315 2.81 1.587 6.165.816 10.064a15.748 15.748 0 0 1-2.108 5.134c-.997 1.564-2.312 3.23-3.944 4.998-.227.227-.544.555-.952.986-.408.43-.703.737-.884.918a1.707 1.707 0 0 0-.408.68c-.09.272-.136.487-.136.646 0 .159.011.408.034.748.023.34.034.555.034.646.045.907.08 2.323.102 4.25.023 1.927.057 3.638.102 5.134.045 1.496.136 2.924.272 4.284.045.499-.102 1.031-.442 1.598-.34.567-.714.918-1.122 1.054-.952.317-1.836 0-2.652-.952-.725-.816-1.065-2.017-1.02-3.604-.181-5.213-.272-8.545-.272-9.996.045-.453-.136-.703-.544-.748a3.358 3.358 0 0 1-2.176-1.088c-.544-.59-.76-1.247-.646-1.972.113-.725.555-1.224 1.326-1.496.861-.272 1.428-.703 1.7-1.292.272-.59.385-1.337.34-2.244-.09-1.45-.068-4.85.068-10.2.045-1.043 0-1.836-.136-2.38-.136-.544-.102-1.337.102-2.38s.306-1.61.306-1.7c.181-2.085.567-6.075 1.156-11.968.045-.816.397-1.473 1.054-1.972a2.762 2.762 0 0 1 2.21-.544c.499.045.93.26 1.292.646.363.385.567.85.612 1.394.136 1.315.045 2.493-.272 3.536a5.937 5.937 0 0 0-.272 1.224c-.045.408-.08.918-.102 1.53-.023.612-.057 1.031-.102 1.258 0 .453.25.612.748.476 2.584-.725 4.556.385 5.916 3.332zm-34.204 1.428c-1.133 1.088-1.813 2.312-2.04 3.672-.136.725.023 1.315.476 1.768.136.136.521.533 1.156 1.19a26.837 26.837 0 0 0 1.496 1.462c1.813 1.632 2.901 3.445 3.264 5.44.272 1.179.034 2.516-.714 4.012-.748 1.496-1.802 2.584-3.162 3.264-2.539 1.27-4.805 1.723-6.8 1.36a6.367 6.367 0 0 0-1.02-.068h-1.02c-.408-.045-.861-.295-1.36-.748-.499-.453-.793-.884-.884-1.292-.09-.453.011-.975.306-1.564.295-.59.646-.952 1.054-1.088.045 0 .793-.045 2.244-.136.317.09.68.136 1.088.136.408 0 .748-.023 1.02-.068.272-.045.657-.125 1.156-.238.499-.113.861-.193 1.088-.238.68-.136 1.235-.453 1.666-.952.43-.499.555-1.02.374-1.564-.227-.861-.725-1.61-1.496-2.244-1.859-1.496-3.264-3.037-4.216-4.624-.861-1.496-.997-3.355-.408-5.576.59-1.95 1.519-3.536 2.788-4.76 2.085-2.04 4.307-2.765 6.664-2.176.907.227 1.757.827 2.55 1.802.793.975 1.19 1.915 1.19 2.822.045.816-.272 1.44-.952 1.87-.68.43-1.405.465-2.176.102-1.088-.499-1.79-.997-2.108-1.496-.317-.544-.725-.567-1.224-.068z"/></g></g></svg>