<?xml version="1.0" encoding="UTF-8"?>
<svg width="483px" height="153px" viewBox="0 0 483 153" version="1.1" xmlns="http://www.w3.org/2000/svg" xmlns:xlink="http://www.w3.org/1999/xlink">
    <!-- Generator: Sketch 52.2 (67145) - http://www.bohemiancoding.com/sketch -->
    <title>LEFT1</title>
    <desc>Created with Sketch.</desc>
    <g id="-" stroke="none" stroke-width="1" fill="none" fill-rule="evenodd">
        <g id="screen_1" transform="translate(-140.000000, -516.000000)">
            <g id="LEFT1" transform="translate(141.000000, 517.000000)">
                <g id="LEFT">
                    <g id="button">
                        <g id="Group-5">
                            <path d="M16.2246,15.5537 L21.2106,122.7847 L21.6276,137.0107 L16.2246,140.5017 L25.3316,143.5097 L44.6286,144.8487 L71.7106,140.5017 L102.0966,140.5017 L130.4996,138.9037 L153.5426,135.0247 L178.7196,135.0247 L213.0686,132.7777 L227.6006,132.2557 L249.3986,133.6187 L265.9116,134.2797 L278.4626,135.0247 L469.8996,131.4667 L470.3636,116.7737 L464.2156,101.2517 L462.3296,67.7897 L465.9296,36.9007 L468.5286,21.9997 L469.8996,3.4907 L417.4836,9.6547 L391.6006,14.4207 C391.6006,14.4207 304.2246,24.9587 175.4166,14.2247 L16.2246,15.5537 Z" id="Fill-1" fill="#EC1D24"></path>
                            <path d="M6.9961,105.4374 C7.6281,102.8164 7.6281,98.6964 7.6281,96.4494 C7.6281,92.7044 8.2601,90.4574 9.5221,85.5874 C9.5221,84.8384 10.1541,82.2174 11.4171,79.9704 C12.0491,77.3484 12.6811,73.9784 13.3111,72.4804 C15.8381,63.4914 17.1001,51.5064 16.4701,33.1554 C16.4701,17.0514 16.4701,17.4254 17.7321,34.2794 C18.3641,39.1474 18.9951,43.2674 18.9951,43.2674 C18.9951,43.6424 19.6271,50.0084 19.6271,57.8744 C19.6271,65.3644 20.2591,71.7314 20.2591,72.1054 C20.2591,72.1054 20.8901,85.5874 20.8901,101.6924 C20.8901,117.7964 21.5211,131.2794 21.5211,132.0284 C22.7841,136.1484 21.5211,138.3954 18.9951,139.5184 C17.1001,139.8934 17.1001,139.8934 18.3641,139.8934 C18.9951,139.8934 20.8901,139.5184 22.1531,139.1444 L24.0481,138.0204 L24.6791,133.9014 C24.6791,131.2794 24.6791,129.7814 24.0481,129.0324 C23.4161,127.9094 22.7841,122.6664 22.7841,103.5654 C22.7841,89.3334 22.7841,76.9744 22.1531,73.6034 C22.1531,70.6074 21.5211,65.7384 21.5211,63.1174 C21.5211,58.2484 20.2591,41.0204 19.6271,29.4104 C19.6271,26.7894 18.9951,23.0434 18.9951,20.7964 L18.3641,17.4254 L21.5211,17.0514 L38.5721,17.0514 C54.3601,16.6764 92.2521,16.6764 100.4611,17.0514 L116.2491,17.0514 C121.3021,16.6764 127.6161,16.3024 130.1421,16.3024 C132.6691,16.3024 135.1941,15.9274 135.8261,15.9274 C136.4581,15.5534 159.8241,15.1784 168.6651,15.5534 C173.0861,15.9274 183.1901,16.3024 190.7681,16.3024 C197.7151,16.3024 204.0301,16.6764 205.2931,16.6764 C206.5571,16.6764 209.7141,17.0514 212.8711,17.0514 C218.5551,17.4254 229.9231,17.8004 231.1851,18.1744 C231.8171,18.1744 231.8171,18.1744 231.8171,17.8004 C231.1851,17.4254 231.1851,17.4254 232.4481,17.8004 C232.4481,18.1744 236.2371,18.5494 240.6581,18.5494 C245.0791,18.5494 250.7631,18.9234 253.9201,18.9234 C257.0781,18.9234 262.7621,19.2984 267.1821,19.2984 C271.6021,19.2984 286.1281,19.6724 298.7581,19.6724 C311.3891,20.0474 322.7561,20.0474 324.0181,20.0474 C327.1761,20.0474 344.2271,19.2984 346.7531,19.2984 C351.1741,18.9234 360.6461,18.5494 366.9621,17.8004 C370.7511,17.8004 378.9611,17.0514 385.9071,16.3024 C392.2231,15.1784 401.0631,14.4294 404.8521,14.0554 C412.4311,13.3054 416.2211,12.9314 425.0611,12.1824 C428.8501,11.4334 433.2711,11.0584 435.7971,11.0584 C438.3231,10.6844 442.7441,10.3094 446.5331,9.9354 C449.6901,9.5604 454.1111,9.1864 456.0061,9.1864 C458.5321,9.1864 461.0581,9.1864 462.9521,8.8114 C466.1101,8.4374 466.1101,8.4374 467.3731,12.5564 C468.6361,17.0514 469.2671,20.7964 468.0051,23.7924 C466.7421,26.7894 466.7421,27.9124 466.1101,35.7774 C464.2161,47.3874 464.2161,51.8814 462.9521,56.7494 C462.3211,60.4954 462.3211,64.9894 462.3211,72.8544 C462.9521,85.2134 463.5841,92.7044 466.7421,100.9434 C467.3731,103.5654 468.6361,107.3104 469.2671,108.8084 C469.2671,109.9314 469.8991,112.1784 469.8991,113.3024 C470.5311,114.4254 470.5311,117.4214 469.8991,120.7924 C469.2911,125.8424 469.2681,126.3754 468.1391,126.4094 C468.2821,126.7784 468.2951,127.1674 468.1781,127.5414 C469.2541,127.5804 469.2671,127.9664 469.2671,129.0324 C468.6361,129.7814 468.6361,130.5304 468.0051,130.5304 C456.6381,133.1524 456.0061,133.5264 448.4281,133.5264 C434.5341,134.2754 406.1161,134.6504 401.6951,134.2754 C397.2741,133.9014 388.4331,133.5264 368.2251,133.1524 C363.1731,133.1524 354.9631,132.7774 349.2791,132.7774 C337.2801,132.0284 318.3351,132.4034 304.4411,133.1524 C288.6531,133.9014 257.7091,133.5264 229.9231,132.4034 L219.1861,132.4034 C218.5551,132.4034 214.7661,132.4034 209.7141,132.7774 C205.2931,132.7774 196.4521,133.1524 190.1371,133.5264 C183.1901,133.9014 173.7181,134.6504 169.2971,134.6504 C156.6661,135.0244 153.5091,135.0244 145.9311,135.7734 C142.7721,136.5224 135.8261,136.8974 131.4051,137.2714 C126.9851,137.6464 121.9331,138.0204 120.0381,138.3954 C109.9341,139.1444 101.0931,139.8934 95.4091,140.2674 C85.9361,140.6424 78.9891,141.3914 75.8321,141.7654 C70.7801,142.1404 66.3591,142.1404 42.9931,142.5144 L26.5731,142.8894 L27.2051,141.7654 C27.8371,141.0164 27.2051,141.0164 26.5731,141.7654 C25.9421,142.1404 25.3101,142.5144 25.3101,142.5144 C25.3101,142.5144 24.6791,142.5144 24.0481,142.8894 C22.7841,143.6384 21.5211,143.6384 18.3641,143.2634 C15.2061,142.8894 12.6811,141.7654 11.4171,140.2674 C10.7851,139.5184 10.1541,139.1444 9.5221,139.1444 C9.5221,139.1444 8.8921,138.3954 8.2601,137.2714 C5.7331,135.0244 5.1011,126.7854 6.3651,112.1784 C6.3651,111.0554 6.9961,107.6844 6.9961,105.4374 Z M8.8921,17.0514 L12.6811,17.0514 C13.9431,17.0514 13.9431,17.4254 14.5751,22.2944 C15.2061,31.2834 15.2061,48.1364 14.5751,53.7534 C14.5751,59.7464 12.6811,67.9864 11.4171,73.2294 C10.7851,74.7274 10.1541,77.7234 9.5221,79.5954 C9.5221,81.0934 8.8921,82.9664 8.2601,82.9664 C8.2601,83.3404 8.2601,81.0934 7.6281,45.5144 C7.6281,31.2834 6.9961,19.2984 6.9961,18.9234 C6.9961,17.4254 6.9961,17.4254 8.8921,17.0514 Z M28.4681,15.1784 C30.3621,15.1784 34.7831,14.8044 37.9411,14.4294 C41.7301,14.0554 48.6771,13.6804 54.9921,13.3054 C60.6761,12.5564 68.2541,12.1824 72.6751,11.8074 C80.2531,11.0584 111.8281,11.0584 145.2991,11.4334 C162.3501,11.8074 166.7701,11.8074 157.2981,12.1824 C147.8251,12.5564 139.6151,12.9314 135.1941,13.3054 C132.6691,13.6804 129.5111,14.0554 127.6161,14.0554 L118.7751,14.0554 C109.3031,14.8044 101.7251,15.1784 84.0421,15.1784 C73.9371,15.1784 56.8871,15.1784 46.7821,15.5534 L25.9421,15.5534 C24.6791,15.1784 25.3101,15.1784 28.4681,15.1784 Z M295.6001,10.6844 C313.2831,10.6844 325.9131,10.6844 337.2801,9.9354 C342.9641,9.5604 359.3841,9.5604 363.8051,9.9354 C370.7511,10.6844 373.2771,11.0584 395.3801,11.0584 C407.3791,11.4334 417.4831,11.8074 417.4831,11.8074 C417.4831,11.8074 415.5891,12.1824 412.4311,12.1824 C397.9061,13.6804 388.4331,14.8044 377.6971,15.9274 C374.5401,16.3024 368.8561,17.0514 364.4351,17.0514 C360.0161,17.4254 356.2251,17.8004 354.9631,17.8004 C354.3311,17.8004 349.9111,18.1744 345.4901,18.1744 C332.2281,18.9234 317.7031,18.9234 291.1801,18.5494 C259.6031,18.1744 234.9751,17.4254 226.7651,17.0514 C218.5551,16.3024 199.6091,15.5534 185.7161,15.1784 C177.5071,15.1784 169.2971,14.8044 166.7701,14.8044 C161.0871,14.4294 145.2991,14.4294 136.4581,14.8044 C132.0371,15.1784 125.0911,15.5534 120.6701,15.9274 C116.2491,15.9274 110.5651,16.3024 108.6711,16.3024 L104.8821,16.3024 C104.8821,15.9274 107.4081,15.9274 111.8281,15.5534 C125.7221,15.1784 134.5631,14.8044 137.0891,14.4294 C137.7211,14.0554 144.0361,13.6804 150.9821,13.3054 C157.2981,13.3054 165.5081,12.9314 169.9291,12.5564 C192.6631,11.8074 265.2871,10.6844 295.6001,10.6844 Z M451.5851,8.4374 C451.5851,8.4374 450.9541,8.8114 449.6901,8.8114 L449.0591,8.8114 C449.6901,8.4374 452.2171,8.0624 451.5851,8.4374 Z M461.0581,7.6884 C459.7951,7.6884 457.9001,8.0624 456.0061,8.0624 C450.9541,8.4374 454.1111,7.6884 459.1631,7.3134 C461.0581,7.3134 461.6891,7.3134 461.0581,7.6884 Z M370.7511,9.1864 C380.2241,9.1864 400.4331,8.4374 407.3791,7.6884 C409.2731,7.6884 414.9571,7.3134 419.3781,6.9394 C423.1671,6.5644 428.8501,6.1904 430.7451,5.8154 C437.6911,5.4414 455.3741,5.0664 459.1631,5.8154 L461.6891,6.1904 L457.2681,6.5644 C454.7431,6.9394 447.1651,7.6884 440.8501,8.8114 C430.7451,10.3094 428.2191,10.6844 420.6411,10.6844 L410.5371,10.6844 C410.5371,10.6844 403.5901,10.3094 394.7491,10.3094 C378.3291,10.3094 368.2251,9.9354 367.5941,9.5604 C367.5941,9.1864 368.8561,9.1864 370.7511,9.1864 Z M468.6361,8.4374 L468.6361,9.1864 C468.0051,9.1864 467.3731,9.1864 467.3731,8.8114 C467.3731,8.0624 468.0051,8.0624 468.6361,8.4374 Z M469.8991,6.5644 C470.5311,6.1904 471.1621,6.5644 470.5311,7.3134 C470.5311,8.0624 469.8991,8.4374 469.2671,8.4374 C468.6361,8.4374 468.6361,6.9394 469.8991,6.5644 Z M469.2671,15.1784 C469.2671,12.5564 469.2671,11.0584 469.8991,10.3094 C470.5311,9.1864 470.5311,9.1864 470.5311,11.0584 L470.5311,16.3024 L469.8991,19.2984 L469.2671,15.1784 Z M471.7941,53.7534 C473.0571,64.2404 473.0571,73.6034 472.4261,87.8344 C472.4261,96.0754 471.7941,104.6884 471.7941,106.1864 C471.7941,108.0594 471.1621,109.5574 471.1621,109.5574 C471.1621,109.9314 470.5311,109.5574 470.5311,109.5574 C470.5311,108.8084 468.6361,100.5694 467.3731,97.9474 C464.8471,91.2064 464.2161,83.7154 464.2161,70.9824 L464.2161,57.8744 C465.4781,52.6304 466.1101,50.7574 466.1101,47.7614 C466.7421,43.6424 468.0051,31.6574 468.6361,27.9124 C469.2671,24.9164 469.2671,24.9164 469.2671,29.7854 C469.8991,32.0324 469.8991,35.0284 469.8991,35.7774 C469.8991,36.1514 470.5311,38.7734 470.5311,41.3954 C471.1621,45.5144 471.1621,48.5104 471.7941,53.7534 Z M473.0571,13.6804 C473.0571,13.6804 473.6881,14.0554 473.6881,14.4294 C473.6881,14.8044 473.6881,17.8004 474.9511,20.7964 C476.2151,26.4144 476.2151,38.3984 474.9511,45.8894 C474.9511,48.1364 474.3201,51.8814 474.3201,54.8774 L473.6881,60.1214 L473.0571,52.2554 C473.0571,47.7614 472.4261,42.8934 472.4261,40.6454 C471.1621,33.5304 471.7941,14.0554 473.0571,13.6804 Z M476.8461,115.1744 C476.8461,122.6664 476.8461,129.0324 477.4771,129.7814 C477.4771,130.1564 478.1091,131.6544 478.1091,132.7774 C478.7401,134.6504 478.7401,135.0244 477.4771,135.0244 C476.2151,135.0244 476.2151,134.6504 476.2151,134.2754 C476.2151,133.5264 475.5831,133.5264 474.9511,133.5264 C473.6881,133.5264 473.6881,133.1524 473.6881,131.2794 C474.3201,130.1564 474.3201,128.6584 474.9511,128.2834 C475.5831,127.9094 475.5831,127.9094 474.9511,127.5344 C473.6881,127.1604 472.4261,114.8004 473.0571,108.8084 C473.6881,101.6924 473.6881,90.8314 473.6881,84.4644 C473.6881,81.0934 474.3201,78.0974 474.3201,78.4724 C475.5831,78.8464 476.8461,99.4454 476.8461,115.1744 Z M472.4261,132.7774 C471.7941,132.7774 471.7941,132.4034 471.7941,132.0284 L472.4261,132.0284 L473.0571,132.4034 L472.4261,132.7774 Z M471.1621,126.7854 L471.1621,124.5384 C471.7941,121.9164 472.4261,122.2914 472.4261,125.2874 C472.4261,126.7854 472.4261,127.1604 471.1621,126.7854 Z M471.7941,127.9094 C471.7941,127.9094 472.4261,127.9094 472.4261,128.2834 C472.4261,128.6584 471.7941,129.0324 471.7941,129.0324 C471.1621,129.0324 471.1621,129.0324 471.1621,128.6584 C471.1621,127.9094 471.1621,127.9094 471.7941,127.9094 Z M470.5311,130.9054 C470.5311,130.9054 471.1621,130.5304 471.7941,130.5304 C473.0571,130.1564 473.0571,130.1564 472.4261,130.9054 C471.1621,131.6544 469.8991,131.6544 470.5311,130.9054 Z M468.0051,134.6504 C464.2161,135.0244 461.6891,135.3994 452.8491,135.3994 C447.7961,135.3994 440.8501,135.7734 437.0601,135.7734 C433.9021,136.1484 401.0631,136.1484 365.0671,136.1484 L290.5481,136.1484 C285.4961,136.5224 277.2861,136.8974 273.4971,136.8974 C263.3921,137.2714 254.5521,137.6464 247.6041,138.0204 C245.0791,138.3954 238.7641,138.7694 233.7121,139.1444 C229.2911,139.5184 223.6071,139.8934 222.3441,139.8934 C217.2921,140.6424 207.8191,141.0164 197.0841,141.7654 L185.0851,141.7654 C175.6121,141.7654 163.6131,141.0164 159.1921,141.0164 C149.0881,140.2674 142.7721,139.8934 128.8801,139.8934 L114.9861,139.8934 C116.2491,139.5184 123.8271,138.7694 133.3001,138.0204 C138.9831,137.6464 144.0361,137.2714 144.6681,137.2714 C144.6681,137.2714 146.5621,136.8974 147.8251,136.8974 C149.0881,136.8974 150.9821,136.5224 152.2461,136.5224 C153.5091,136.1484 156.6661,136.1484 159.1921,136.1484 C171.8221,135.7734 182.5581,135.3994 192.0311,134.6504 C196.4521,134.2754 195.1881,134.2754 209.7141,133.9014 C222.3441,133.5264 235.6061,133.5264 255.8141,134.2754 C269.7081,134.6504 286.7591,134.6504 300.6521,134.2754 C322.1241,133.5264 336.0171,133.1524 347.3851,133.9014 C353.0681,133.9014 361.9101,134.2754 367.5941,134.2754 C387.8021,134.6504 394.1171,135.0244 402.3271,135.3994 L416.8511,135.3994 C420.0101,135.3994 426.9561,135.0244 432.6401,135.0244 C447.7961,135.0244 456.6381,134.6504 462.3211,133.1524 C466.7421,132.0284 467.3731,132.0284 467.3731,132.7774 C467.3731,133.1524 467.3731,133.5264 468.6361,133.9014 L469.8991,134.2754 L468.0051,134.6504 Z M193.9261,142.8894 C193.9261,142.8894 190.7681,143.2634 187.6101,143.6384 C184.4531,144.0124 180.6641,144.3874 179.4011,144.7624 C178.1381,145.1364 174.3491,145.5104 171.1911,145.5104 C168.0331,145.8854 164.8761,146.2594 163.6131,146.2594 L161.0871,146.2594 C161.0871,146.2594 158.5601,145.8854 155.4031,145.8854 C152.8771,145.8854 149.0881,145.5104 147.8251,145.1364 C143.4041,144.3874 135.8261,143.6384 132.0371,143.2634 C130.1421,143.2634 127.6161,142.8894 126.3531,142.5144 C124.4591,142.1404 122.5641,141.7654 120.6701,141.7654 C119.4061,141.7654 116.8811,141.7654 115.6171,141.3914 L113.0921,141.0164 L118.1431,140.6424 C130.1421,140.2674 146.5621,140.6424 162.3501,141.7654 C164.2441,141.7654 168.0331,142.1404 171.1911,142.5144 L185.7161,142.5144 C190.7681,142.5144 194.5581,142.5144 193.9261,142.8894 Z M57.5171,144.3874 C57.5171,144.7624 55.6231,145.1364 53.7281,145.1364 C50.5711,145.1364 46.1501,145.5104 45.5191,146.2594 C44.8881,146.2594 44.2561,146.6344 43.6251,146.6344 C42.3611,146.6344 40.4671,146.6344 38.5721,147.0094 C36.6781,147.3834 32.8891,147.7584 30.9941,147.7584 C27.2051,148.1324 27.2051,147.7584 24.6791,147.0094 C22.7841,146.2594 21.5211,145.8854 21.5211,145.8854 C20.8901,145.8854 20.2591,145.5104 18.9951,145.1364 L17.7321,144.3874 L20.8901,144.0124 C22.7841,144.0124 27.2051,143.6384 30.3621,143.6384 C36.6781,143.2634 37.3091,143.2634 36.6781,144.0124 C36.6781,144.7624 37.9411,144.7624 50.5711,144.3874 C56.2551,144.0124 58.1491,144.0124 57.5171,144.3874 Z M3.8391,118.5454 C3.2071,118.5454 3.2071,110.6804 3.8391,110.6804 C3.8391,110.3064 4.4711,112.1784 4.4711,114.4254 C4.4711,116.6724 3.8391,118.5454 3.8391,118.5454 Z M3.2071,130.9054 L3.2071,130.1564 L3.2071,129.7814 C3.2071,129.7814 3.8391,129.7814 3.8391,130.1564 C3.8391,130.5304 3.8391,130.9054 3.2071,130.9054 Z M3.2071,17.8004 L5.1011,17.4254 L5.7331,22.2944 C5.7331,24.5414 6.3651,32.4064 5.7331,39.1474 C5.7331,45.8894 5.7331,58.9974 6.3651,68.7354 C6.9961,85.5874 6.3651,96.8244 4.4711,100.1944 C4.4711,101.3184 3.8391,103.1904 3.2071,104.6884 C3.2071,106.1864 2.5761,108.8084 2.5761,110.3064 C1.9441,111.8044 1.3121,117.7964 1.3121,123.7894 L1.3121,134.2754 L4.4711,138.0204 C6.3651,139.8934 8.2601,141.7654 8.2601,141.7654 C8.8921,142.1404 9.5221,142.5144 10.1541,142.5144 C10.7851,142.8894 13.3111,144.0124 15.8381,145.1364 C18.3641,146.2594 20.8901,147.3834 20.8901,147.3834 C21.5211,147.3834 22.1531,147.3834 22.7841,147.7584 C23.4161,148.1324 22.7841,148.5074 21.5211,148.5074 L19.6271,148.5074 L18.3641,148.5074 C17.7321,148.5074 17.7321,148.8814 17.7321,149.2564 C17.7321,149.6304 17.7321,150.0054 19.6271,149.6304 C20.8901,149.6304 23.4161,149.2564 25.3101,149.2564 C32.2581,148.8814 42.3611,147.7584 48.6771,146.6344 C50.5711,145.8854 53.0981,145.5104 54.3601,145.5104 C55.6231,145.5104 58.1491,145.5104 59.4121,144.7624 C61.3081,144.3874 63.2011,144.0124 63.8331,144.0124 C65.0971,144.0124 66.9911,144.0124 68.8861,143.6384 C70.7801,143.2634 73.9371,142.8894 77.0951,142.8894 C84.6731,142.5144 90.3571,142.5144 93.5151,142.1404 C103.6191,141.3914 109.9341,141.3914 114.3541,142.1404 C116.2491,142.5144 118.1431,142.5144 119.4061,142.5144 C120.6701,142.5144 123.8271,142.8894 126.9851,143.2634 C133.3001,144.3874 138.3521,144.7624 142.7721,145.5104 C144.6681,145.5104 147.1931,145.8854 148.4571,145.8854 C152.8771,147.0094 172.4541,147.0094 177.5071,145.8854 C184.4531,144.3874 211.6081,141.7654 229.9231,140.6424 C234.3431,140.6424 240.6581,140.2674 245.0791,139.5184 C262.7621,138.0204 285.4961,137.2714 348.0171,137.2714 C365.0671,137.2714 383.3811,137.2714 387.8021,137.6464 C399.1691,138.0204 436.4291,138.0204 444.0071,137.6464 C447.1651,137.2714 452.2171,136.8974 455.3741,136.5224 C464.2161,136.1484 475.5831,135.7734 477.4771,136.5224 C478.7401,136.8974 479.3721,136.8974 480.0041,136.1484 C480.6351,135.7734 480.6351,135.0244 479.3721,130.5304 C478.7401,126.0364 478.7401,123.7894 478.7401,115.9234 C479.3721,108.4334 478.7401,105.0634 478.1091,101.3184 C476.2151,91.9554 475.5831,76.5994 475.5831,59.3724 C476.2151,52.6304 476.2151,41.0204 476.2151,33.5304 C476.2151,20.4214 476.2151,18.9234 474.9511,15.1784 C473.0571,9.1864 472.4261,8.0624 474.3201,6.9394 C475.5831,5.8154 475.5831,5.4414 473.6881,5.0664 C473.0571,5.0664 472.4261,5.0664 473.0571,3.1944 C473.0571,1.6964 473.0571,0.5724 472.4261,0.5724 C471.7941,0.1984 470.5311,1.3214 469.2671,2.8194 C468.6361,4.6924 467.3731,5.4414 468.0051,4.3174 C468.0051,3.1944 466.7421,3.1944 466.1101,3.9434 C465.4781,4.6924 464.2161,4.6924 452.2171,4.6924 C442.1121,4.3174 437.6911,4.6924 432.0081,5.0664 C427.5881,5.4414 421.9041,5.8154 419.3781,5.8154 C416.8511,6.1904 411.1681,6.5644 406.7471,6.9394 C395.3801,7.6884 374.5401,8.0624 358.1211,8.4374 C351.1741,8.4374 340.4381,8.4374 334.7551,8.8114 C326.5451,9.1864 308.2301,9.5604 251.3931,9.5604 C198.9781,9.5604 177.5071,9.9354 175.6121,9.9354 C173.0861,10.6844 136.4581,10.6844 99.8301,10.3094 C89.0941,10.3094 78.9891,10.3094 76.4641,10.6844 C72.0431,10.6844 56.2551,12.1824 46.1501,12.9314 C43.6251,12.9314 39.8361,13.3054 37.9411,13.3054 C35.4151,13.6804 30.9941,14.0554 27.8371,14.0554 C24.0481,14.4294 20.8901,14.8044 20.2591,14.8044 C18.9951,15.1784 18.9951,14.8044 18.9951,14.0554 C19.6271,13.3054 20.2591,12.5564 20.2591,12.1824 C21.5211,11.4334 20.8901,8.8114 19.6271,8.8114 C18.3641,8.4374 17.1001,10.3094 17.1001,14.0554 C17.1001,14.4294 16.4701,14.4294 16.4701,14.4294 C15.8381,14.4294 15.2061,14.4294 15.2061,14.8044 C14.5751,15.1784 12.6811,15.5534 10.7851,15.9274 C6.9961,16.3024 6.9961,16.3024 6.3651,15.5534 C5.7331,14.4294 6.3651,6.5644 6.9961,5.8154 L6.9961,5.4414 C5.1011,5.4414 4.4711,6.9394 4.4711,11.4334 L4.4711,16.3024 L2.5761,16.6764 C-0.5819,17.0514 0.0501,17.8004 3.2071,17.8004 Z" id="Stroke-3" stroke="#231F20" stroke-width="3"></path>
                        </g>
                    </g>
                    <path d="M76.62,69.2 C78.0253404,69.8800034 79.0793298,70.7979942 79.782,71.954 C80.4846702,73.1100058 80.7453342,74.4359925 80.564,75.932 C79.9293302,81.3720272 77.8440177,85.8373159 74.308,89.328 C72.4946576,91.1413424 70.3413458,91.7080034 67.848,91.028 C65.6266556,90.4386637 64.1986698,88.8973458 63.564,86.404 C63.2919986,85.2253274 63.1786664,84.2960034 63.224,83.616 C63.224,81.0773206 63.8813268,78.312015 65.196,75.32 C65.8306698,73.778659 66.510663,72.4866719 67.236,71.444 C67.3720007,71.2173322 67.4739997,70.8433359 67.542,70.322 C67.6100003,69.8006641 67.6666664,69.4720007 67.712,69.336 C67.9386678,68.7013302 68.1653322,68.3613336 68.392,68.316 C68.7093349,68.1799993 69.1853302,67.9646681 69.82,67.67 C70.4546698,67.3753319 71.0326641,67.1373342 71.554,66.956 C72.0753359,66.7746658 72.5853308,66.684 73.084,66.684 C74.0813383,66.6386664 74.8973302,67.1599946 75.532,68.248 C75.7586678,68.656002 76.1213308,68.9733322 76.62,69.2 Z M75.6,75.592 C75.6906671,74.9573302 75.373337,74.3226698 74.648,73.688 C73.922663,73.0533302 73.2653363,72.8039993 72.676,72.94 C72.4946658,72.9853336 72.3133342,73.0986658 72.132,73.28 C69.9106556,76.680017 68.6640014,79.9213179 68.392,83.004 C68.4826671,83.9560048 68.528,84.4659997 68.528,84.534 C68.528,84.6020003 68.5393332,84.6926661 68.562,84.806 C68.5846668,84.9193339 68.6073332,85.0099997 68.63,85.078 C68.6526668,85.1460003 68.6866664,85.2253329 68.732,85.316 C68.7773336,85.4066671 68.8226664,85.4859997 68.868,85.554 C68.9133336,85.6220003 68.9699997,85.6899997 69.038,85.758 C69.1060003,85.8260003 69.2079993,85.8826664 69.344,85.928 C70.0240034,86.0640007 70.6359973,85.8600027 71.18,85.316 C73.5826787,82.7773206 75.0559973,79.5360197 75.6,75.592 Z M98.448,73.96 C99.1280034,74.7760041 99.3546678,75.9319925 99.128,77.428 C98.9919993,78.2440041 98.357339,81.847968 97.224,88.24 C96.0453274,94.9040333 95.3880007,98.7573281 95.252,99.8 C95.0253322,101.794677 94.7306685,103.81199 94.368,105.852 C94.1866658,106.668004 93.8466692,107.279998 93.348,107.688 C92.8493308,108.096002 92.2600034,108.254667 91.58,108.164 C89.8573247,107.891999 89.0866658,106.872009 89.268,105.104 C89.3133336,104.423997 89.4266658,103.44934 89.608,102.18 L90.016,99.324 C90.1066671,98.2813281 90.3446647,96.7626766 90.73,94.768 C91.1153353,92.7733234 91.3533329,91.3000048 91.444,90.348 C91.5346671,89.8493308 91.6253329,89.3166695 91.716,88.75 C91.8066671,88.1833305 91.9086661,87.6733356 92.022,87.22 C92.1353339,86.7666644 92.2599993,86.2226698 92.396,85.588 C92.5320007,84.9533302 92.6453329,84.4093356 92.736,83.956 L92.804,83.072 C91.4439932,84.7946753 90.6960007,85.7239993 90.56,85.86 C89.4719946,87.0840061 88.6333363,87.899998 88.044,88.308 C86.6386596,89.1693376 85.3013397,89.1920041 84.032,88.376 C82.898661,87.6959966 82.332,86.5400082 82.332,84.908 C82.332,81.4626494 83.3293234,77.7453533 85.324,73.756 C86.7293404,70.8546522 88.3159912,68.5880082 90.084,66.956 C91.7160082,65.414659 93.302659,64.6666664 94.844,64.712 C95.569337,64.712 96.2266637,64.9273312 96.816,65.358 C97.4053363,65.7886688 97.8359986,66.366663 98.108,67.092 C98.5613356,68.3613397 98.6973342,69.4946617 98.516,70.492 C98.4253329,71.0813363 98.3346671,71.4213329 98.244,71.512 C98.0173322,71.6933342 97.8586671,71.8633325 97.768,72.022 C97.6773329,72.1806675 97.6093336,72.3053329 97.564,72.396 C97.5186664,72.4866671 97.5413329,72.6226658 97.632,72.804 C97.7226671,72.9853342 97.7906664,73.1099997 97.836,73.178 C97.8813336,73.2460003 97.9833325,73.381999 98.142,73.586 C98.3006675,73.790001 98.4026664,73.9146664 98.448,73.96 Z M91.784,76.204 C91.8746671,76.1133329 92.0673319,75.8753353 92.362,75.49 C92.6566681,75.1046647 92.8719993,74.8440007 93.008,74.708 C93.1440007,74.5719993 93.3479986,74.3566681 93.62,74.062 C93.8920014,73.7673319 94.1526654,73.518001 94.402,73.314 C94.6513346,73.109999 94.9119986,72.9173342 95.184,72.736 C95.0933329,72.6453329 94.946001,72.4866678 94.742,72.26 C94.537999,72.0333322 94.3793339,71.8633339 94.266,71.75 C94.1526661,71.6366661 94.0393339,71.4666678 93.926,71.24 C93.8126661,71.0133322 93.7106671,70.7640014 93.62,70.492 C90.9906535,73.7106828 89.3360034,76.815985 88.656,79.808 C89.4720041,78.9466624 90.5146603,77.745341 91.784,76.204 Z M107.492,59.34 C107.446666,60.065337 107.424,60.9266617 107.424,61.924 C107.424,62.9213383 107.412667,63.884662 107.39,64.814 C107.367333,65.743338 107.310667,66.5933295 107.22,67.364 C107.083999,68.7240068 107.016,70.6279878 107.016,73.076 L107.016,77.768 C106.970666,78.493337 107.004666,79.5813261 107.118,81.032 C107.231334,82.4826739 107.288,83.570663 107.288,84.296 C107.242666,85.021337 107.242666,85.9393278 107.288,87.05 C107.333334,88.1606722 107.367333,89.0899963 107.39,89.838 C107.412667,90.5860037 107.401334,91.526661 107.356,92.66 C107.265333,93.9293397 106.744005,94.6999986 105.792,94.972 C104.703995,95.3346685 103.774671,94.8813397 103.004,93.612 C102.777332,93.203998 102.618667,92.7620024 102.528,92.286 C102.437333,91.8099976 102.392,91.3113359 102.392,90.79 C102.392,90.2686641 102.369334,89.9173342 102.324,89.736 C102.097332,83.4799687 102.006666,77.1106991 102.052,70.628 C102.052,69.902663 102.074666,69.1093376 102.12,68.248 C102.165334,67.3866624 102.210666,66.4460051 102.256,65.426 C102.301334,64.4059949 102.346666,63.6240027 102.392,63.08 C102.392,62.8533322 102.403333,62.1506726 102.426,60.972 C102.448667,59.7933274 102.505333,58.8866698 102.596,58.252 C102.596,57.9346651 102.663999,55.5320224 102.8,51.044 C102.8,50.4999973 103.049331,49.9786692 103.548,49.48 C104.046669,48.9813308 104.567997,48.732 105.112,48.732 C105.656003,48.732 106.154664,48.9586644 106.608,49.412 C107.061336,49.8653356 107.355999,50.4319966 107.492,51.112 C107.582667,51.6106692 107.650666,52.1319973 107.696,52.676 C107.741334,53.2200027 107.752667,53.8093302 107.73,54.444 C107.707333,55.0786698 107.696,55.5886647 107.696,55.974 C107.696,56.3593353 107.662,56.9486627 107.594,57.742 C107.526,58.5353373 107.492,59.0679986 107.492,59.34 Z M132.04,94.768 C132.130667,95.2666692 132.062668,95.7653308 131.836,96.264 C131.609332,96.7626692 131.258002,97.1366654 130.782,97.386 C130.305998,97.6353346 129.807336,97.7033339 129.286,97.59 C128.764664,97.4766661 128.345335,97.2386685 128.028,96.876 C127.302663,95.9693288 126.826668,94.8813397 126.6,93.612 C126.327999,92.1613261 125.625339,88.7613601 124.492,83.412 C124.401333,83.1399986 124.322,82.7206695 124.254,82.154 C124.186,81.5873305 124.095334,81.0546692 123.982,80.556 C123.868666,80.0573308 123.721334,79.5813356 123.54,79.128 C123.041331,80.1706719 122.225339,81.4853254 121.092,83.072 C119.958661,84.6586746 119.256001,85.7013308 118.984,86.2 C118.258663,87.3786726 117.250006,88.0926654 115.958,88.342 C114.665994,88.5913346 113.544005,88.3080041 112.592,87.492 C112.093331,87.083998 111.730668,86.4493376 111.504,85.588 C111.005331,83.6839905 111.118663,81.3493472 111.844,78.584 C112.932005,74.7306474 114.835986,71.3986807 117.556,68.588 C119.59601,66.4573227 121.839988,65.958661 124.288,67.092 C125.512006,67.6360027 126.169333,68.9279898 126.26,70.968 C126.305334,71.4666692 126.475332,71.8973315 126.77,72.26 C127.064668,72.6226685 127.302666,73.007998 127.484,73.416 C127.665334,73.824002 127.846666,74.4019963 128.028,75.15 C128.209334,75.8980037 128.322666,76.3399993 128.368,76.476 C128.685335,77.6546726 129.013998,79.3886552 129.354,81.678 C129.694002,83.9673448 129.999999,85.6333281 130.272,86.676 C130.725336,88.3986753 131.042666,90.0079925 131.224,91.504 C131.269334,91.7760014 131.541331,92.8639905 132.04,94.768 Z M117.08,79.944 C119.12001,76.9066515 120.411997,74.5493417 120.956,72.872 C120.094662,73.5520034 119.256004,74.6399925 118.44,76.136 C117.623996,77.6320075 117.170667,78.9013281 117.08,79.944 Z M139.996,68.316 C138.862661,69.4040054 138.182668,70.6279932 137.956,71.988 C137.819999,72.713337 137.978664,73.3026644 138.432,73.756 C138.568001,73.8920007 138.95333,74.2886634 139.588,74.946 C140.22267,75.6033366 140.721332,76.0906651 141.084,76.408 C142.897342,78.0400082 143.985332,79.8533234 144.348,81.848 C144.620001,83.0266726 144.382004,84.3639925 143.634,85.86 C142.885996,87.3560075 141.832007,88.4439966 140.472,89.124 C137.933321,90.3933397 135.666677,90.8466685 133.672,90.484 C133.399999,90.4386664 133.060002,90.416 132.652,90.416 L131.632,90.416 C131.223998,90.3706664 130.770669,90.1213356 130.272,89.668 C129.773331,89.2146644 129.478667,88.784002 129.388,88.376 C129.297333,87.9226644 129.399332,87.4013363 129.694,86.812 C129.988668,86.2226637 130.339998,85.8600007 130.748,85.724 C130.793334,85.724 131.541326,85.6786671 132.992,85.588 C133.309335,85.6786671 133.671998,85.724 134.08,85.724 C134.488002,85.724 134.827999,85.7013336 135.1,85.656 C135.372001,85.6106664 135.757331,85.5313339 136.256,85.418 C136.754669,85.3046661 137.117332,85.2253336 137.344,85.18 C138.024003,85.0439993 138.579331,84.7266692 139.01,84.228 C139.440669,83.7293308 139.565334,83.2080027 139.384,82.664 C139.157332,81.8026624 138.658671,81.0546698 137.888,80.42 C136.029324,78.9239925 134.624005,77.3826746 133.672,75.796 C132.810662,74.2999925 132.674664,72.4413444 133.264,70.22 C133.853336,68.2706569 134.78266,66.6840061 136.052,65.46 C138.137344,63.4199898 140.358655,62.6946637 142.716,63.284 C143.622671,63.5106678 144.472663,64.1113285 145.266,65.086 C146.059337,66.0606715 146.456,67.0013288 146.456,67.908 C146.501334,68.7240041 146.184003,69.3473312 145.504,69.778 C144.823997,70.2086688 144.098671,70.2426685 143.328,69.88 C142.239995,69.3813308 141.537335,68.8826692 141.22,68.384 C140.902665,67.8399973 140.494669,67.8173308 139.996,68.316 Z M150.74,67.092 C151.329336,67.1373336 151.861998,67.2959986 152.338,67.568 C152.814002,67.8400014 153.176665,68.179998 153.426,68.588 C153.675335,68.996002 153.8,69.403998 153.8,69.812 C153.663999,71.6253424 153.573334,74.6853118 153.528,78.992 C153.482666,79.6720034 153.426,80.9639905 153.358,82.868 C153.29,84.7720095 153.256,86.2226617 153.256,87.22 C153.301334,87.9906705 153.278667,89.1239925 153.188,90.62 C153.142666,92.0706739 152.440007,92.8639993 151.08,93 C150.399997,93.0453336 149.788003,92.8866685 149.244,92.524 C148.699997,92.1613315 148.360001,91.6626698 148.224,91.028 C148.042666,90.8013322 147.986,89.9060078 148.054,88.342 C148.122,86.7779922 148.156,85.8826678 148.156,85.656 L148.156,80.216 C148.156,79.490663 148.178666,78.3686743 148.224,76.85 C148.269334,75.3313257 148.314666,73.9940058 148.36,72.838 C148.405334,71.6819942 148.495999,70.5600054 148.632,69.472 C148.677334,68.7013295 148.903998,68.1006688 149.312,67.67 C149.720002,67.2393312 150.195997,67.0466664 150.74,67.092 Z M150.672,62.808 C150.218664,62.808 149.765336,62.5360027 149.312,61.992 C148.858664,61.4479973 148.609334,60.8813363 148.564,60.292 C148.518666,59.2946617 148.767997,58.4446702 149.312,57.742 C149.856003,57.0393298 150.558662,56.688 151.42,56.688 C152.145337,56.688 152.711998,56.9373308 153.12,57.436 C153.528002,57.9346692 153.754666,58.648662 153.8,59.578 C153.845334,60.507338 153.573336,61.2666637 152.984,61.856 C152.394664,62.4453363 151.624005,62.7626664 150.672,62.808 Z M170.12,59.612 C171.570674,60.7906726 172.024003,61.8786617 171.48,62.876 C171.253332,63.284002 170.777337,63.589999 170.052,63.794 C169.326663,63.998001 168.624003,64.0093342 167.944,63.828 C167.581332,63.7373329 167.071337,63.6240007 166.414,63.488 C165.756663,63.3519993 165.269335,63.2386671 164.952,63.148 C164.634665,63.0573329 164.419334,63.0913325 164.306,63.25 C164.192666,63.4086675 164.181333,63.6239986 164.272,63.896 C164.362667,64.2133349 164.408,64.5419983 164.408,64.882 C164.408,65.2220017 164.385334,65.6299976 164.34,66.106 C164.294666,66.5820024 164.272,66.9106658 164.272,67.092 C164.226666,67.6360027 164.192667,68.270663 164.17,68.996 C164.147333,69.721337 164.136,70.446663 164.136,71.172 L164.136,73.076 C164.090666,73.801337 164.079333,75.4106542 164.102,77.904 C164.124667,80.3973458 164.045334,81.9839966 163.864,82.664 C163.818666,83.0266685 163.83,83.5593298 163.898,84.262 C163.966,84.9646702 164,85.4746651 164,85.792 C163.909333,87.333341 163.592003,88.4213302 163.048,89.056 C162.821332,89.2826678 162.674,89.4413329 162.606,89.532 C162.538,89.6226671 162.379335,89.7586658 162.13,89.94 C161.880665,90.1213342 161.688001,90.1893336 161.552,90.144 C161.415999,90.0986664 161.189335,90.076 160.872,90.076 C159.965329,89.8039986 159.421334,89.101339 159.24,87.968 C159.058666,86.7893274 158.990666,85.9053363 159.036,85.316 C159.036,85.1346658 159.07,84.2620078 159.138,82.698 C159.206,81.1339922 159.24,79.9440041 159.24,79.128 C159.24,77.4053247 159.262666,75.9546726 159.308,74.776 C159.308,74.6399993 159.330666,72.1240245 159.376,67.228 C159.421334,65.0519891 159.444,63.5106712 159.444,62.604 C159.444,62.4679993 159.41,62.3546671 159.342,62.264 C159.274,62.1733329 159.217334,62.1166668 159.172,62.094 C159.126666,62.0713332 159.013334,62.06 158.832,62.06 L158.492,62.06 C157.993331,61.9693329 156.837342,61.9466664 155.024,61.992 C153.210658,62.0373336 152.054669,62.0373336 151.556,61.992 C150.966664,61.992 150.434002,61.7426692 149.958,61.244 C149.481998,60.7453308 149.221334,60.1786698 149.176,59.544 C149.130666,58.9546637 149.289332,58.4106692 149.652,57.912 C150.014668,57.4133308 150.490664,57.1186671 151.08,57.028 C152.757342,56.7106651 154.570657,56.5973329 156.52,56.688 C158.016007,56.7786671 158.899999,56.6993346 159.172,56.45 C159.444001,56.2006654 159.602666,55.3280075 159.648,53.832 C159.693334,53.4693315 159.716,53.0613356 159.716,52.608 C159.716,52.1546644 159.727333,51.7013356 159.75,51.248 C159.772667,50.7946644 159.784,50.3866685 159.784,50.024 C159.874667,48.5733261 160.577327,47.8026671 161.892,47.712 C162.390669,47.712 162.877998,47.915998 163.354,48.324 C163.830002,48.732002 164.113333,49.2306637 164.204,49.82 C164.385334,51.1346732 164.430667,52.1319966 164.34,52.812 C164.294666,53.537337 164.317333,54.8519905 164.408,56.756 C164.453334,57.3906698 164.79333,57.7759993 165.428,57.912 C167.649344,58.320002 169.213329,58.886663 170.12,59.612 Z M173.928,82.256 C173.882666,82.256 173.792001,82.2220003 173.656,82.154 C173.519999,82.0859997 173.406667,82.0633332 173.316,82.086 C173.225333,82.1086668 173.157334,82.1653329 173.112,82.256 C172.975999,82.5733349 173.043999,82.935998 173.316,83.344 C174.132004,84.477339 175.333325,85.2706644 176.92,85.724 C177.056001,85.7693336 177.305332,85.8373329 177.668,85.928 C178.030668,86.0186671 178.313999,86.0866664 178.518,86.132 C178.722001,86.1773336 178.948665,86.2906658 179.198,86.472 C179.447335,86.6533342 179.662666,86.8573322 179.844,87.084 C180.161335,87.5373356 180.376666,88.0586637 180.49,88.648 C180.603334,89.2373363 180.569334,89.735998 180.388,90.144 C179.843997,91.0053376 179.005339,91.3453342 177.872,91.164 C174.471983,90.7106644 171.865342,89.4413438 170.052,87.356 C168.510659,85.497324 167.785333,82.6186862 167.876,78.72 C167.876,78.4933322 167.91,78.017337 167.978,77.292 C168.046,76.566663 168.08,75.9660024 168.08,75.49 C168.08,75.0139976 168.034667,74.3453376 167.944,73.484 C167.853333,72.9853308 167.909999,72.5093356 168.114,72.056 C168.318001,71.6026644 168.612665,71.2173349 168.998,70.9 C169.383335,70.5826651 169.825331,70.3786671 170.324,70.288 C170.913336,70.1066658 171.389332,69.7893356 171.752,69.336 C173.02134,67.794659 174.925321,66.8426685 177.464,66.48 C178.778673,66.2533322 180.093327,66.6613281 181.408,67.704 C182.722673,68.7466719 183.561332,69.9706596 183.924,71.376 C184.377336,73.0533417 184.139338,74.7986576 183.21,76.612 C182.280662,78.4253424 180.943342,79.8646613 179.198,80.93 C177.452658,81.9953387 175.696009,82.4373342 173.928,82.256 Z M173.724,75.116 C173.406665,75.6600027 173.349999,76.1019983 173.554,76.442 C173.758001,76.7820017 174.199997,76.952 174.88,76.952 C175.51467,76.9973336 176.217329,76.6913366 176.988,76.034 C177.758671,75.3766634 178.325332,74.6173376 178.688,73.756 C179.005335,72.9853295 178.892003,72.3506692 178.348,71.852 C177.894664,71.443998 177.260004,71.3986651 176.444,71.716 C176.081332,71.8520007 175.741335,72.0673319 175.424,72.362 C175.106665,72.6566681 174.880001,72.9173322 174.744,73.144 C174.607999,73.3706678 174.426668,73.7219976 174.2,74.198 C173.973332,74.6740024 173.814667,74.9799993 173.724,75.116 Z M206.636,68.316 C205.502661,69.4040054 204.822668,70.6279932 204.596,71.988 C204.459999,72.713337 204.618664,73.3026644 205.072,73.756 C205.208001,73.8920007 205.59333,74.2886634 206.228,74.946 C206.86267,75.6033366 207.361332,76.0906651 207.724,76.408 C209.537342,78.0400082 210.625332,79.8533234 210.988,81.848 C211.260001,83.0266726 211.022004,84.3639925 210.274,85.86 C209.525996,87.3560075 208.472007,88.4439966 207.112,89.124 C204.573321,90.3933397 202.306677,90.8466685 200.312,90.484 C200.039999,90.4386664 199.700002,90.416 199.292,90.416 L198.272,90.416 C197.863998,90.3706664 197.410669,90.1213356 196.912,89.668 C196.413331,89.2146644 196.118667,88.784002 196.028,88.376 C195.937333,87.9226644 196.039332,87.4013363 196.334,86.812 C196.628668,86.2226637 196.979998,85.8600007 197.388,85.724 C197.433334,85.724 198.181326,85.6786671 199.632,85.588 C199.949335,85.6786671 200.311998,85.724 200.72,85.724 C201.128002,85.724 201.467999,85.7013336 201.74,85.656 C202.012001,85.6106664 202.397331,85.5313339 202.896,85.418 C203.394669,85.3046661 203.757332,85.2253336 203.984,85.18 C204.664003,85.0439993 205.219331,84.7266692 205.65,84.228 C206.080669,83.7293308 206.205334,83.2080027 206.024,82.664 C205.797332,81.8026624 205.298671,81.0546698 204.528,80.42 C202.669324,78.9239925 201.264005,77.3826746 200.312,75.796 C199.450662,74.2999925 199.314664,72.4413444 199.904,70.22 C200.493336,68.2706569 201.42266,66.6840061 202.692,65.46 C204.777344,63.4199898 206.998655,62.6946637 209.356,63.284 C210.262671,63.5106678 211.112663,64.1113285 211.906,65.086 C212.699337,66.0606715 213.096,67.0013288 213.096,67.908 C213.141334,68.7240041 212.824003,69.3473312 212.144,69.778 C211.463997,70.2086688 210.738671,70.2426685 209.968,69.88 C208.879995,69.3813308 208.177335,68.8826692 207.86,68.384 C207.542665,67.8399973 207.134669,67.8173308 206.636,68.316 Z M220.644,82.256 C220.598666,82.256 220.508001,82.2220003 220.372,82.154 C220.235999,82.0859997 220.122667,82.0633332 220.032,82.086 C219.941333,82.1086668 219.873334,82.1653329 219.828,82.256 C219.691999,82.5733349 219.759999,82.935998 220.032,83.344 C220.848004,84.477339 222.049325,85.2706644 223.636,85.724 C223.772001,85.7693336 224.021332,85.8373329 224.384,85.928 C224.746668,86.0186671 225.029999,86.0866664 225.234,86.132 C225.438001,86.1773336 225.664665,86.2906658 225.914,86.472 C226.163335,86.6533342 226.378666,86.8573322 226.56,87.084 C226.877335,87.5373356 227.092666,88.0586637 227.206,88.648 C227.319334,89.2373363 227.285334,89.735998 227.104,90.144 C226.559997,91.0053376 225.721339,91.3453342 224.588,91.164 C221.187983,90.7106644 218.581342,89.4413438 216.768,87.356 C215.226659,85.497324 214.501333,82.6186862 214.592,78.72 C214.592,78.4933322 214.626,78.017337 214.694,77.292 C214.762,76.566663 214.796,75.9660024 214.796,75.49 C214.796,75.0139976 214.750667,74.3453376 214.66,73.484 C214.569333,72.9853308 214.625999,72.5093356 214.83,72.056 C215.034001,71.6026644 215.328665,71.2173349 215.714,70.9 C216.099335,70.5826651 216.541331,70.3786671 217.04,70.288 C217.629336,70.1066658 218.105332,69.7893356 218.468,69.336 C219.73734,67.794659 221.641321,66.8426685 224.18,66.48 C225.494673,66.2533322 226.809327,66.6613281 228.124,67.704 C229.438673,68.7466719 230.277332,69.9706596 230.64,71.376 C231.093336,73.0533417 230.855338,74.7986576 229.926,76.612 C228.996662,78.4253424 227.659342,79.8646613 225.914,80.93 C224.168658,81.9953387 222.412009,82.4373342 220.644,82.256 Z M220.44,75.116 C220.122665,75.6600027 220.065999,76.1019983 220.27,76.442 C220.474001,76.7820017 220.915997,76.952 221.596,76.952 C222.23067,76.9973336 222.933329,76.6913366 223.704,76.034 C224.474671,75.3766634 225.041332,74.6173376 225.404,73.756 C225.721335,72.9853295 225.608003,72.3506692 225.064,71.852 C224.610664,71.443998 223.976004,71.3986651 223.16,71.716 C222.797332,71.8520007 222.457335,72.0673319 222.14,72.362 C221.822665,72.6566681 221.596001,72.9173322 221.46,73.144 C221.323999,73.3706678 221.142668,73.7219976 220.916,74.198 C220.689332,74.6740024 220.530667,74.9799993 220.44,75.116 Z M266.136,90.348 C266.136,90.6653349 266.17,91.186663 266.238,91.912 C266.306,92.637337 266.34,93.1586651 266.34,93.476 C266.34,93.7933349 266.317334,94.314663 266.272,95.04 C266.045332,96.3093397 265.365339,97.0346658 264.232,97.216 C263.642664,97.2613336 263.098669,97.1366681 262.6,96.842 C262.101331,96.5473319 261.716001,96.1053363 261.444,95.516 C261.171999,95.0173308 261.036,94.3373376 261.036,93.476 C260.763999,85.6786277 260.582667,80.8960088 260.492,79.128 C260.446666,78.7653315 260.424,78.3233359 260.424,77.802 L260.424,76.442 C260.424,76.0566647 260.401334,75.6033359 260.356,75.082 C260.310666,74.5606641 260.220001,74.0733356 260.084,73.62 C258.315991,76.3853472 257.364001,77.8813322 257.228,78.108 C256.774664,78.833337 256.004005,80.0799912 254.916,81.848 C253.827995,83.6160088 252.989336,84.9759952 252.4,85.928 C252.127999,86.336002 251.788002,86.6759986 251.38,86.948 C250.971998,87.2200014 250.552669,87.4013329 250.122,87.492 C249.691331,87.5826671 249.249336,87.5826671 248.796,87.492 C248.115997,87.3106658 247.560669,86.9253363 247.13,86.336 C246.699331,85.7466637 246.461334,85.0440041 246.416,84.228 C246.189332,80.4653145 246.302664,75.9320265 246.756,70.628 C246.801334,70.1293308 246.858,69.3700051 246.926,68.35 C246.994,67.3299949 247.050666,66.5706692 247.096,66.072 C247.141334,65.4826637 247.413331,64.9160027 247.912,64.372 C248.410669,63.8279973 248.954664,63.5106671 249.544,63.42 C250.586672,63.2839993 251.402664,63.7146617 251.992,64.712 C252.173334,64.9386678 252.286666,65.2219983 252.332,65.562 C252.377334,65.9020017 252.4,66.173999 252.4,66.378 C252.4,66.582001 252.366,66.9106644 252.298,67.364 C252.23,67.8173356 252.196,68.0893329 252.196,68.18 C251.923999,71.5346834 251.765334,74.5719864 251.72,77.292 C251.992001,77.3826671 252.218666,77.2693349 252.4,76.952 C252.717335,76.226663 253.102664,75.501337 253.556,74.776 C254.009336,74.050663 254.55333,73.223338 255.188,72.294 C255.82267,71.364662 256.298665,70.6733356 256.616,70.22 C257.613338,68.678659 258.565329,67.5680034 259.472,66.888 C260.288004,66.2986637 261.217328,66.1513319 262.26,66.446 C263.302672,66.7406681 264.027998,67.3639952 264.436,68.316 C265.07067,69.6306732 265.433333,71.5799871 265.524,74.164 C265.614667,75.6600075 265.694,77.3826569 265.762,79.332 C265.83,81.2813431 265.886666,83.2193237 265.932,85.146 C265.977334,87.0726763 266.045333,88.806659 266.136,90.348 Z M289.868,94.768 C289.958667,95.2666692 289.890668,95.7653308 289.664,96.264 C289.437332,96.7626692 289.086002,97.1366654 288.61,97.386 C288.133998,97.6353346 287.635336,97.7033339 287.114,97.59 C286.592664,97.4766661 286.173335,97.2386685 285.856,96.876 C285.130663,95.9693288 284.654668,94.8813397 284.428,93.612 C284.155999,92.1613261 283.453339,88.7613601 282.32,83.412 C282.229333,83.1399986 282.15,82.7206695 282.082,82.154 C282.014,81.5873305 281.923334,81.0546692 281.81,80.556 C281.696666,80.0573308 281.549334,79.5813356 281.368,79.128 C280.869331,80.1706719 280.053339,81.4853254 278.92,83.072 C277.786661,84.6586746 277.084001,85.7013308 276.812,86.2 C276.086663,87.3786726 275.078006,88.0926654 273.786,88.342 C272.493994,88.5913346 271.372005,88.3080041 270.42,87.492 C269.921331,87.083998 269.558668,86.4493376 269.332,85.588 C268.833331,83.6839905 268.946663,81.3493472 269.672,78.584 C270.760005,74.7306474 272.663986,71.3986807 275.384,68.588 C277.42401,66.4573227 279.667988,65.958661 282.116,67.092 C283.340006,67.6360027 283.997333,68.9279898 284.088,70.968 C284.133334,71.4666692 284.303332,71.8973315 284.598,72.26 C284.892668,72.6226685 285.130666,73.007998 285.312,73.416 C285.493334,73.824002 285.674666,74.4019963 285.856,75.15 C286.037334,75.8980037 286.150666,76.3399993 286.196,76.476 C286.513335,77.6546726 286.841998,79.3886552 287.182,81.678 C287.522002,83.9673448 287.827999,85.6333281 288.1,86.676 C288.553336,88.3986753 288.870666,90.0079925 289.052,91.504 C289.097334,91.7760014 289.369331,92.8639905 289.868,94.768 Z M274.908,79.944 C276.94801,76.9066515 278.239997,74.5493417 278.784,72.872 C277.922662,73.5520034 277.084004,74.6399925 276.268,76.136 C275.451996,77.6320075 274.998667,78.9013281 274.908,79.944 Z M317,59.612 C318.450674,60.7906726 318.904003,61.8786617 318.36,62.876 C318.133332,63.284002 317.657337,63.589999 316.932,63.794 C316.206663,63.998001 315.504003,64.0093342 314.824,63.828 C314.461332,63.7373329 313.951337,63.6240007 313.294,63.488 C312.636663,63.3519993 312.149335,63.2386671 311.832,63.148 C311.514665,63.0573329 311.299334,63.0913325 311.186,63.25 C311.072666,63.4086675 311.061333,63.6239986 311.152,63.896 C311.242667,64.2133349 311.288,64.5419983 311.288,64.882 C311.288,65.2220017 311.265334,65.6299976 311.22,66.106 C311.174666,66.5820024 311.152,66.9106658 311.152,67.092 C311.106666,67.6360027 311.072667,68.270663 311.05,68.996 C311.027333,69.721337 311.016,70.446663 311.016,71.172 L311.016,73.076 C310.970666,73.801337 310.959333,75.4106542 310.982,77.904 C311.004667,80.3973458 310.925334,81.9839966 310.744,82.664 C310.698666,83.0266685 310.71,83.5593298 310.778,84.262 C310.846,84.9646702 310.88,85.4746651 310.88,85.792 C310.789333,87.333341 310.472003,88.4213302 309.928,89.056 C309.701332,89.2826678 309.554,89.4413329 309.486,89.532 C309.418,89.6226671 309.259335,89.7586658 309.01,89.94 C308.760665,90.1213342 308.568001,90.1893336 308.432,90.144 C308.295999,90.0986664 308.069335,90.076 307.752,90.076 C306.845329,89.8039986 306.301334,89.101339 306.12,87.968 C305.938666,86.7893274 305.870666,85.9053363 305.916,85.316 C305.916,85.1346658 305.95,84.2620078 306.018,82.698 C306.086,81.1339922 306.12,79.9440041 306.12,79.128 C306.12,77.4053247 306.142666,75.9546726 306.188,74.776 C306.188,74.6399993 306.210666,72.1240245 306.256,67.228 C306.301334,65.0519891 306.324,63.5106712 306.324,62.604 C306.324,62.4679993 306.29,62.3546671 306.222,62.264 C306.154,62.1733329 306.097334,62.1166668 306.052,62.094 C306.006666,62.0713332 305.893334,62.06 305.712,62.06 L305.372,62.06 C304.873331,61.9693329 303.717342,61.9466664 301.904,61.992 C300.090658,62.0373336 298.934669,62.0373336 298.436,61.992 C297.846664,61.992 297.314002,61.7426692 296.838,61.244 C296.361998,60.7453308 296.101334,60.1786698 296.056,59.544 C296.010666,58.9546637 296.169332,58.4106692 296.532,57.912 C296.894668,57.4133308 297.370664,57.1186671 297.96,57.028 C299.637342,56.7106651 301.450657,56.5973329 303.4,56.688 C304.896007,56.7786671 305.779999,56.6993346 306.052,56.45 C306.324001,56.2006654 306.482666,55.3280075 306.528,53.832 C306.573334,53.4693315 306.596,53.0613356 306.596,52.608 C306.596,52.1546644 306.607333,51.7013356 306.63,51.248 C306.652667,50.7946644 306.664,50.3866685 306.664,50.024 C306.754667,48.5733261 307.457327,47.8026671 308.772,47.712 C309.270669,47.712 309.757998,47.915998 310.234,48.324 C310.710002,48.732002 310.993333,49.2306637 311.084,49.82 C311.265334,51.1346732 311.310667,52.1319966 311.22,52.812 C311.174666,53.537337 311.197333,54.8519905 311.288,56.756 C311.333334,57.3906698 311.67333,57.7759993 312.308,57.912 C314.529344,58.320002 316.093329,58.886663 317,59.612 Z M320.808,82.256 C320.762666,82.256 320.672001,82.2220003 320.536,82.154 C320.399999,82.0859997 320.286667,82.0633332 320.196,82.086 C320.105333,82.1086668 320.037334,82.1653329 319.992,82.256 C319.855999,82.5733349 319.923999,82.935998 320.196,83.344 C321.012004,84.477339 322.213325,85.2706644 323.8,85.724 C323.936001,85.7693336 324.185332,85.8373329 324.548,85.928 C324.910668,86.0186671 325.193999,86.0866664 325.398,86.132 C325.602001,86.1773336 325.828665,86.2906658 326.078,86.472 C326.327335,86.6533342 326.542666,86.8573322 326.724,87.084 C327.041335,87.5373356 327.256666,88.0586637 327.37,88.648 C327.483334,89.2373363 327.449334,89.735998 327.268,90.144 C326.723997,91.0053376 325.885339,91.3453342 324.752,91.164 C321.351983,90.7106644 318.745342,89.4413438 316.932,87.356 C315.390659,85.497324 314.665333,82.6186862 314.756,78.72 C314.756,78.4933322 314.79,78.017337 314.858,77.292 C314.926,76.566663 314.96,75.9660024 314.96,75.49 C314.96,75.0139976 314.914667,74.3453376 314.824,73.484 C314.733333,72.9853308 314.789999,72.5093356 314.994,72.056 C315.198001,71.6026644 315.492665,71.2173349 315.878,70.9 C316.263335,70.5826651 316.705331,70.3786671 317.204,70.288 C317.793336,70.1066658 318.269332,69.7893356 318.632,69.336 C319.90134,67.794659 321.805321,66.8426685 324.344,66.48 C325.658673,66.2533322 326.973327,66.6613281 328.288,67.704 C329.602673,68.7466719 330.441332,69.9706596 330.804,71.376 C331.257336,73.0533417 331.019338,74.7986576 330.09,76.612 C329.160662,78.4253424 327.823342,79.8646613 326.078,80.93 C324.332658,81.9953387 322.576009,82.4373342 320.808,82.256 Z M320.604,75.116 C320.286665,75.6600027 320.229999,76.1019983 320.434,76.442 C320.638001,76.7820017 321.079997,76.952 321.76,76.952 C322.39467,76.9973336 323.097329,76.6913366 323.868,76.034 C324.638671,75.3766634 325.205332,74.6173376 325.568,73.756 C325.885335,72.9853295 325.772003,72.3506692 325.228,71.852 C324.774664,71.443998 324.140004,71.3986651 323.324,71.716 C322.961332,71.8520007 322.621335,72.0673319 322.304,72.362 C321.986665,72.6566681 321.760001,72.9173322 321.624,73.144 C321.487999,73.3706678 321.306668,73.7219976 321.08,74.198 C320.853332,74.6740024 320.694667,74.9799993 320.604,75.116 Z M339.576,59.34 C339.530666,60.065337 339.508,60.9266617 339.508,61.924 C339.508,62.9213383 339.496667,63.884662 339.474,64.814 C339.451333,65.743338 339.394667,66.5933295 339.304,67.364 C339.167999,68.7240068 339.1,70.6279878 339.1,73.076 L339.1,77.768 C339.054666,78.493337 339.088666,79.5813261 339.202,81.032 C339.315334,82.4826739 339.372,83.570663 339.372,84.296 C339.326666,85.021337 339.326666,85.9393278 339.372,87.05 C339.417334,88.1606722 339.451333,89.0899963 339.474,89.838 C339.496667,90.5860037 339.485334,91.526661 339.44,92.66 C339.349333,93.9293397 338.828005,94.6999986 337.876,94.972 C336.787995,95.3346685 335.858671,94.8813397 335.088,93.612 C334.861332,93.203998 334.702667,92.7620024 334.612,92.286 C334.521333,91.8099976 334.476,91.3113359 334.476,90.79 C334.476,90.2686641 334.453334,89.9173342 334.408,89.736 C334.181332,83.4799687 334.090666,77.1106991 334.136,70.628 C334.136,69.902663 334.158666,69.1093376 334.204,68.248 C334.249334,67.3866624 334.294666,66.4460051 334.34,65.426 C334.385334,64.4059949 334.430666,63.6240027 334.476,63.08 C334.476,62.8533322 334.487333,62.1506726 334.51,60.972 C334.532667,59.7933274 334.589333,58.8866698 334.68,58.252 C334.68,57.9346651 334.747999,55.5320224 334.884,51.044 C334.884,50.4999973 335.133331,49.9786692 335.632,49.48 C336.130669,48.9813308 336.651997,48.732 337.196,48.732 C337.740003,48.732 338.238664,48.9586644 338.692,49.412 C339.145336,49.8653356 339.439999,50.4319966 339.576,51.112 C339.666667,51.6106692 339.734666,52.1319973 339.78,52.676 C339.825334,53.2200027 339.836667,53.8093302 339.814,54.444 C339.791333,55.0786698 339.78,55.5886647 339.78,55.974 C339.78,56.3593353 339.746,56.9486627 339.678,57.742 C339.61,58.5353373 339.576,59.0679986 339.576,59.34 Z M349.912,82.256 C349.866666,82.256 349.776001,82.2220003 349.64,82.154 C349.503999,82.0859997 349.390667,82.0633332 349.3,82.086 C349.209333,82.1086668 349.141334,82.1653329 349.096,82.256 C348.959999,82.5733349 349.027999,82.935998 349.3,83.344 C350.116004,84.477339 351.317325,85.2706644 352.904,85.724 C353.040001,85.7693336 353.289332,85.8373329 353.652,85.928 C354.014668,86.0186671 354.297999,86.0866664 354.502,86.132 C354.706001,86.1773336 354.932665,86.2906658 355.182,86.472 C355.431335,86.6533342 355.646666,86.8573322 355.828,87.084 C356.145335,87.5373356 356.360666,88.0586637 356.474,88.648 C356.587334,89.2373363 356.553334,89.735998 356.372,90.144 C355.827997,91.0053376 354.989339,91.3453342 353.856,91.164 C350.455983,90.7106644 347.849342,89.4413438 346.036,87.356 C344.494659,85.497324 343.769333,82.6186862 343.86,78.72 C343.86,78.4933322 343.894,78.017337 343.962,77.292 C344.03,76.566663 344.064,75.9660024 344.064,75.49 C344.064,75.0139976 344.018667,74.3453376 343.928,73.484 C343.837333,72.9853308 343.893999,72.5093356 344.098,72.056 C344.302001,71.6026644 344.596665,71.2173349 344.982,70.9 C345.367335,70.5826651 345.809331,70.3786671 346.308,70.288 C346.897336,70.1066658 347.373332,69.7893356 347.736,69.336 C349.00534,67.794659 350.909321,66.8426685 353.448,66.48 C354.762673,66.2533322 356.077327,66.6613281 357.392,67.704 C358.706673,68.7466719 359.545332,69.9706596 359.908,71.376 C360.361336,73.0533417 360.123338,74.7986576 359.194,76.612 C358.264662,78.4253424 356.927342,79.8646613 355.182,80.93 C353.436658,81.9953387 351.680009,82.4373342 349.912,82.256 Z M349.708,75.116 C349.390665,75.6600027 349.333999,76.1019983 349.538,76.442 C349.742001,76.7820017 350.183997,76.952 350.864,76.952 C351.49867,76.9973336 352.201329,76.6913366 352.972,76.034 C353.742671,75.3766634 354.309332,74.6173376 354.672,73.756 C354.989335,72.9853295 354.876003,72.3506692 354.332,71.852 C353.878664,71.443998 353.244004,71.3986651 352.428,71.716 C352.065332,71.8520007 351.725335,72.0673319 351.408,72.362 C351.090665,72.6566681 350.864001,72.9173322 350.728,73.144 C350.591999,73.3706678 350.410668,73.7219976 350.184,74.198 C349.957332,74.6740024 349.798667,74.9799993 349.708,75.116 Z M380.172,64.168 C380.353334,64.7573363 380.160669,65.3806634 379.594,66.038 C379.027331,66.6953366 378.358671,67.0693329 377.588,67.16 C377.043997,67.2053336 376.48867,67.3073325 375.922,67.466 C375.355331,67.6246675 374.743337,67.805999 374.086,68.01 C373.428663,68.214001 372.896002,68.3613329 372.488,68.452 C371.898664,68.5880007 371.558667,68.9506637 371.468,69.54 C371.014664,72.940017 370.765334,75.2519939 370.72,76.476 C370.674666,76.8386685 370.686,77.0653329 370.754,77.156 C370.822,77.2466671 371.059998,77.2466671 371.468,77.156 C372.465338,76.747998 373.439995,77.0653281 374.392,78.108 C374.890669,78.6066692 374.958668,79.4453274 374.596,80.624 C374.550666,80.8053342 374.471334,80.9639993 374.358,81.1 C374.244666,81.2360007 374.165334,81.3266664 374.12,81.372 C374.074666,81.4173336 373.938668,81.5079993 373.712,81.644 C373.485332,81.7800007 373.372,81.8706664 373.372,81.916 C372.419995,82.5960034 371.717336,82.9813329 371.264,83.072 C371.082666,83.072 370.935334,83.1059997 370.822,83.174 C370.708666,83.2420003 370.618,83.2986664 370.55,83.344 C370.482,83.3893336 370.414,83.4573329 370.346,83.548 C370.278,83.6386671 370.221334,83.7066664 370.176,83.752 C370.130666,83.7973336 370.096667,83.8993325 370.074,84.058 C370.051333,84.2166675 370.028667,84.3186664 370.006,84.364 C369.983333,84.4093336 369.960667,84.5226658 369.938,84.704 C369.915333,84.8853342 369.904,84.9986664 369.904,85.044 C369.813333,85.8146705 369.734,86.6419956 369.666,87.526 C369.598,88.4100044 369.552667,89.4073278 369.53,90.518 C369.507333,91.6286722 369.496,92.4559973 369.496,93 C369.450666,93.3173349 369.439333,93.8839959 369.462,94.7 C369.484667,95.5160041 369.496,96.0599986 369.496,96.332 C369.450666,97.7373404 368.918005,98.5533322 367.898,98.78 C366.877995,99.0066678 366.005337,98.4626732 365.28,97.148 C365.007999,96.6493308 364.804001,96.0826698 364.668,95.448 C364.531999,94.8133302 364.464,94.2806688 364.464,93.85 C364.464,93.4193312 364.486666,92.8186705 364.532,92.048 C364.577334,91.2773295 364.6,90.7106685 364.6,90.348 C364.6,90.0306651 364.667999,88.8066773 364.804,86.676 C364.849334,86.1773308 364.622669,85.9053336 364.124,85.86 C363.171995,85.7693329 362.526002,85.2933376 362.186,84.432 C361.845998,83.5706624 361.99333,82.7546705 362.628,81.984 C363.036002,81.4853308 363.353332,81.1906671 363.58,81.1 C364.804006,80.6013308 365.438666,79.6266739 365.484,78.176 C365.529334,77.5413302 365.642666,76.4306746 365.824,74.844 C366.005334,73.2573254 366.118666,72.0106712 366.164,71.104 C365.257329,71.5573356 364.48667,71.7386671 363.852,71.648 C363.126663,71.6026664 362.605335,71.3306692 362.288,70.832 C361.970665,70.3333308 361.925332,69.7440034 362.152,69.064 C362.650669,67.7039932 363.761325,66.5933376 365.484,65.732 C366.708006,65.1879973 367.546664,64.6440027 368,64.1 C368.408002,63.6013308 369.133328,63.4653322 370.176,63.692 C370.584002,63.7826671 370.946665,63.7600007 371.264,63.624 C371.762669,63.3519986 372.283997,63.1480007 372.828,63.012 C373.372003,62.8759993 374.063329,62.7286675 374.902,62.57 C375.740671,62.4113325 376.295999,62.2866671 376.568,62.196 C377.429338,62.0146658 378.188663,62.1166647 378.846,62.502 C379.503337,62.8873353 379.945332,63.442663 380.172,64.168 Z M392.072,69.2 C393.47734,69.8800034 394.53133,70.7979942 395.234,71.954 C395.93667,73.1100058 396.197334,74.4359925 396.016,75.932 C395.38133,81.3720272 393.296018,85.8373159 389.76,89.328 C387.946658,91.1413424 385.793346,91.7080034 383.3,91.028 C381.078656,90.4386637 379.65067,88.8973458 379.016,86.404 C378.743999,85.2253274 378.630666,84.2960034 378.676,83.616 C378.676,81.0773206 379.333327,78.312015 380.648,75.32 C381.28267,73.778659 381.962663,72.4866719 382.688,71.444 C382.824001,71.2173322 382.926,70.8433359 382.994,70.322 C383.062,69.8006641 383.118666,69.4720007 383.164,69.336 C383.390668,68.7013302 383.617332,68.3613336 383.844,68.316 C384.161335,68.1799993 384.63733,67.9646681 385.272,67.67 C385.90667,67.3753319 386.484664,67.1373342 387.006,66.956 C387.527336,66.7746658 388.037331,66.684 388.536,66.684 C389.533338,66.6386664 390.34933,67.1599946 390.984,68.248 C391.210668,68.656002 391.573331,68.9733322 392.072,69.2 Z M391.052,75.592 C391.142667,74.9573302 390.825337,74.3226698 390.1,73.688 C389.374663,73.0533302 388.717336,72.8039993 388.128,72.94 C387.946666,72.9853336 387.765334,73.0986658 387.584,73.28 C385.362656,76.680017 384.116001,79.9213179 383.844,83.004 C383.934667,83.9560048 383.98,84.4659997 383.98,84.534 C383.98,84.6020003 383.991333,84.6926661 384.014,84.806 C384.036667,84.9193339 384.059333,85.0099997 384.082,85.078 C384.104667,85.1460003 384.138666,85.2253329 384.184,85.316 C384.229334,85.4066671 384.274666,85.4859997 384.32,85.554 C384.365334,85.6220003 384.422,85.6899997 384.49,85.758 C384.558,85.8260003 384.659999,85.8826664 384.796,85.928 C385.476003,86.0640007 386.087997,85.8600027 386.632,85.316 C389.034679,82.7773206 390.507997,79.5360197 391.052,75.592 Z M417.844,90.348 C417.844,90.6653349 417.878,91.186663 417.946,91.912 C418.014,92.637337 418.048,93.1586651 418.048,93.476 C418.048,93.7933349 418.025334,94.314663 417.98,95.04 C417.753332,96.3093397 417.073339,97.0346658 415.94,97.216 C415.350664,97.2613336 414.806669,97.1366681 414.308,96.842 C413.809331,96.5473319 413.424001,96.1053363 413.152,95.516 C412.879999,95.0173308 412.744,94.3373376 412.744,93.476 C412.471999,85.6786277 412.290667,80.8960088 412.2,79.128 C412.154666,78.7653315 412.132,78.3233359 412.132,77.802 L412.132,76.442 C412.132,76.0566647 412.109334,75.6033359 412.064,75.082 C412.018666,74.5606641 411.928001,74.0733356 411.792,73.62 C410.023991,76.3853472 409.072001,77.8813322 408.936,78.108 C408.482664,78.833337 407.712005,80.0799912 406.624,81.848 C405.535995,83.6160088 404.697336,84.9759952 404.108,85.928 C403.835999,86.336002 403.496002,86.6759986 403.088,86.948 C402.679998,87.2200014 402.260669,87.4013329 401.83,87.492 C401.399331,87.5826671 400.957336,87.5826671 400.504,87.492 C399.823997,87.3106658 399.268669,86.9253363 398.838,86.336 C398.407331,85.7466637 398.169334,85.0440041 398.124,84.228 C397.897332,80.4653145 398.010664,75.9320265 398.464,70.628 C398.509334,70.1293308 398.566,69.3700051 398.634,68.35 C398.702,67.3299949 398.758666,66.5706692 398.804,66.072 C398.849334,65.4826637 399.121331,64.9160027 399.62,64.372 C400.118669,63.8279973 400.662664,63.5106671 401.252,63.42 C402.294672,63.2839993 403.110664,63.7146617 403.7,64.712 C403.881334,64.9386678 403.994666,65.2219983 404.04,65.562 C404.085334,65.9020017 404.108,66.173999 404.108,66.378 C404.108,66.582001 404.074,66.9106644 404.006,67.364 C403.938,67.8173356 403.904,68.0893329 403.904,68.18 C403.631999,71.5346834 403.473334,74.5719864 403.428,77.292 C403.700001,77.3826671 403.926666,77.2693349 404.108,76.952 C404.425335,76.226663 404.810664,75.501337 405.264,74.776 C405.717336,74.050663 406.26133,73.223338 406.896,72.294 C407.53067,71.364662 408.006665,70.6733356 408.324,70.22 C409.321338,68.678659 410.273329,67.5680034 411.18,66.888 C411.996004,66.2986637 412.925328,66.1513319 413.968,66.446 C415.010672,66.7406681 415.735998,67.3639952 416.144,68.316 C416.77867,69.6306732 417.141333,71.5799871 417.232,74.164 C417.322667,75.6600075 417.402,77.3826569 417.47,79.332 C417.538,81.2813431 417.594666,83.2193237 417.64,85.146 C417.685334,87.0726763 417.753333,88.806659 417.844,90.348 Z" id="oglasite-se-na-telef" fill="#FFFFFF"></path>
                </g>
            </g>
        </g>
    </g>
</svg>