<?xml version="1.0" encoding="UTF-8"?>
<svg width="483px" height="153px" viewBox="0 0 483 153" version="1.1" xmlns="http://www.w3.org/2000/svg" xmlns:xlink="http://www.w3.org/1999/xlink">
    <!-- Generator: Sketch 52.2 (67145) - http://www.bohemiancoding.com/sketch -->
    <title>MIDDLE1</title>
    <desc>Created with Sketch.</desc>
    <g id="-" stroke="none" stroke-width="1" fill="none" fill-rule="evenodd">
        <g id="screen_1" transform="translate(-717.000000, -516.000000)">
            <g id="MIDDLE1" transform="translate(718.000000, 517.000000)">
                <g id="MIDDLE">
                    <g id="button">
                        <g id="Group-5">
                            <path d="M16.2246,15.5537 L21.2106,122.7847 L21.6276,137.0107 L16.2246,140.5017 L25.3316,143.5097 L44.6286,144.8487 L71.7106,140.5017 L102.0966,140.5017 L130.4996,138.9037 L153.5426,135.0247 L178.7196,135.0247 L213.0686,132.7777 L227.6006,132.2557 L249.3986,133.6187 L265.9116,134.2797 L278.4626,135.0247 L469.8996,131.4667 L470.3636,116.7737 L464.2156,101.2517 L462.3296,67.7897 L465.9296,36.9007 L468.5286,21.9997 L469.8996,3.4907 L417.4836,9.6547 L391.6006,14.4207 C391.6006,14.4207 304.2246,24.9587 175.4166,14.2247 L16.2246,15.5537 Z" id="Fill-1" fill="#EC1D24"></path>
                            <path d="M6.9961,105.4374 C7.6281,102.8164 7.6281,98.6964 7.6281,96.4494 C7.6281,92.7044 8.2601,90.4574 9.5221,85.5874 C9.5221,84.8384 10.1541,82.2174 11.4171,79.9704 C12.0491,77.3484 12.6811,73.9784 13.3111,72.4804 C15.8381,63.4914 17.1001,51.5064 16.4701,33.1554 C16.4701,17.0514 16.4701,17.4254 17.7321,34.2794 C18.3641,39.1474 18.9951,43.2674 18.9951,43.2674 C18.9951,43.6424 19.6271,50.0084 19.6271,57.8744 C19.6271,65.3644 20.2591,71.7314 20.2591,72.1054 C20.2591,72.1054 20.8901,85.5874 20.8901,101.6924 C20.8901,117.7964 21.5211,131.2794 21.5211,132.0284 C22.7841,136.1484 21.5211,138.3954 18.9951,139.5184 C17.1001,139.8934 17.1001,139.8934 18.3641,139.8934 C18.9951,139.8934 20.8901,139.5184 22.1531,139.1444 L24.0481,138.0204 L24.6791,133.9014 C24.6791,131.2794 24.6791,129.7814 24.0481,129.0324 C23.4161,127.9094 22.7841,122.6664 22.7841,103.5654 C22.7841,89.3334 22.7841,76.9744 22.1531,73.6034 C22.1531,70.6074 21.5211,65.7384 21.5211,63.1174 C21.5211,58.2484 20.2591,41.0204 19.6271,29.4104 C19.6271,26.7894 18.9951,23.0434 18.9951,20.7964 L18.3641,17.4254 L21.5211,17.0514 L38.5721,17.0514 C54.3601,16.6764 92.2521,16.6764 100.4611,17.0514 L116.2491,17.0514 C121.3021,16.6764 127.6161,16.3024 130.1421,16.3024 C132.6691,16.3024 135.1941,15.9274 135.8261,15.9274 C136.4581,15.5534 159.8241,15.1784 168.6651,15.5534 C173.0861,15.9274 183.1901,16.3024 190.7681,16.3024 C197.7151,16.3024 204.0301,16.6764 205.2931,16.6764 C206.5571,16.6764 209.7141,17.0514 212.8711,17.0514 C218.5551,17.4254 229.9231,17.8004 231.1851,18.1744 C231.8171,18.1744 231.8171,18.1744 231.8171,17.8004 C231.1851,17.4254 231.1851,17.4254 232.4481,17.8004 C232.4481,18.1744 236.2371,18.5494 240.6581,18.5494 C245.0791,18.5494 250.7631,18.9234 253.9201,18.9234 C257.0781,18.9234 262.7621,19.2984 267.1821,19.2984 C271.6021,19.2984 286.1281,19.6724 298.7581,19.6724 C311.3891,20.0474 322.7561,20.0474 324.0181,20.0474 C327.1761,20.0474 344.2271,19.2984 346.7531,19.2984 C351.1741,18.9234 360.6461,18.5494 366.9621,17.8004 C370.7511,17.8004 378.9611,17.0514 385.9071,16.3024 C392.2231,15.1784 401.0631,14.4294 404.8521,14.0554 C412.4311,13.3054 416.2211,12.9314 425.0611,12.1824 C428.8501,11.4334 433.2711,11.0584 435.7971,11.0584 C438.3231,10.6844 442.7441,10.3094 446.5331,9.9354 C449.6901,9.5604 454.1111,9.1864 456.0061,9.1864 C458.5321,9.1864 461.0581,9.1864 462.9521,8.8114 C466.1101,8.4374 466.1101,8.4374 467.3731,12.5564 C468.6361,17.0514 469.2671,20.7964 468.0051,23.7924 C466.7421,26.7894 466.7421,27.9124 466.1101,35.7774 C464.2161,47.3874 464.2161,51.8814 462.9521,56.7494 C462.3211,60.4954 462.3211,64.9894 462.3211,72.8544 C462.9521,85.2134 463.5841,92.7044 466.7421,100.9434 C467.3731,103.5654 468.6361,107.3104 469.2671,108.8084 C469.2671,109.9314 469.8991,112.1784 469.8991,113.3024 C470.5311,114.4254 470.5311,117.4214 469.8991,120.7924 C469.2911,125.8424 469.2681,126.3754 468.1391,126.4094 C468.2821,126.7784 468.2951,127.1674 468.1781,127.5414 C469.2541,127.5804 469.2671,127.9664 469.2671,129.0324 C468.6361,129.7814 468.6361,130.5304 468.0051,130.5304 C456.6381,133.1524 456.0061,133.5264 448.4281,133.5264 C434.5341,134.2754 406.1161,134.6504 401.6951,134.2754 C397.2741,133.9014 388.4331,133.5264 368.2251,133.1524 C363.1731,133.1524 354.9631,132.7774 349.2791,132.7774 C337.2801,132.0284 318.3351,132.4034 304.4411,133.1524 C288.6531,133.9014 257.7091,133.5264 229.9231,132.4034 L219.1861,132.4034 C218.5551,132.4034 214.7661,132.4034 209.7141,132.7774 C205.2931,132.7774 196.4521,133.1524 190.1371,133.5264 C183.1901,133.9014 173.7181,134.6504 169.2971,134.6504 C156.6661,135.0244 153.5091,135.0244 145.9311,135.7734 C142.7721,136.5224 135.8261,136.8974 131.4051,137.2714 C126.9851,137.6464 121.9331,138.0204 120.0381,138.3954 C109.9341,139.1444 101.0931,139.8934 95.4091,140.2674 C85.9361,140.6424 78.9891,141.3914 75.8321,141.7654 C70.7801,142.1404 66.3591,142.1404 42.9931,142.5144 L26.5731,142.8894 L27.2051,141.7654 C27.8371,141.0164 27.2051,141.0164 26.5731,141.7654 C25.9421,142.1404 25.3101,142.5144 25.3101,142.5144 C25.3101,142.5144 24.6791,142.5144 24.0481,142.8894 C22.7841,143.6384 21.5211,143.6384 18.3641,143.2634 C15.2061,142.8894 12.6811,141.7654 11.4171,140.2674 C10.7851,139.5184 10.1541,139.1444 9.5221,139.1444 C9.5221,139.1444 8.8921,138.3954 8.2601,137.2714 C5.7331,135.0244 5.1011,126.7854 6.3651,112.1784 C6.3651,111.0554 6.9961,107.6844 6.9961,105.4374 Z M8.8921,17.0514 L12.6811,17.0514 C13.9431,17.0514 13.9431,17.4254 14.5751,22.2944 C15.2061,31.2834 15.2061,48.1364 14.5751,53.7534 C14.5751,59.7464 12.6811,67.9864 11.4171,73.2294 C10.7851,74.7274 10.1541,77.7234 9.5221,79.5954 C9.5221,81.0934 8.8921,82.9664 8.2601,82.9664 C8.2601,83.3404 8.2601,81.0934 7.6281,45.5144 C7.6281,31.2834 6.9961,19.2984 6.9961,18.9234 C6.9961,17.4254 6.9961,17.4254 8.8921,17.0514 Z M28.4681,15.1784 C30.3621,15.1784 34.7831,14.8044 37.9411,14.4294 C41.7301,14.0554 48.6771,13.6804 54.9921,13.3054 C60.6761,12.5564 68.2541,12.1824 72.6751,11.8074 C80.2531,11.0584 111.8281,11.0584 145.2991,11.4334 C162.3501,11.8074 166.7701,11.8074 157.2981,12.1824 C147.8251,12.5564 139.6151,12.9314 135.1941,13.3054 C132.6691,13.6804 129.5111,14.0554 127.6161,14.0554 L118.7751,14.0554 C109.3031,14.8044 101.7251,15.1784 84.0421,15.1784 C73.9371,15.1784 56.8871,15.1784 46.7821,15.5534 L25.9421,15.5534 C24.6791,15.1784 25.3101,15.1784 28.4681,15.1784 Z M295.6001,10.6844 C313.2831,10.6844 325.9131,10.6844 337.2801,9.9354 C342.9641,9.5604 359.3841,9.5604 363.8051,9.9354 C370.7511,10.6844 373.2771,11.0584 395.3801,11.0584 C407.3791,11.4334 417.4831,11.8074 417.4831,11.8074 C417.4831,11.8074 415.5891,12.1824 412.4311,12.1824 C397.9061,13.6804 388.4331,14.8044 377.6971,15.9274 C374.5401,16.3024 368.8561,17.0514 364.4351,17.0514 C360.0161,17.4254 356.2251,17.8004 354.9631,17.8004 C354.3311,17.8004 349.9111,18.1744 345.4901,18.1744 C332.2281,18.9234 317.7031,18.9234 291.1801,18.5494 C259.6031,18.1744 234.9751,17.4254 226.7651,17.0514 C218.5551,16.3024 199.6091,15.5534 185.7161,15.1784 C177.5071,15.1784 169.2971,14.8044 166.7701,14.8044 C161.0871,14.4294 145.2991,14.4294 136.4581,14.8044 C132.0371,15.1784 125.0911,15.5534 120.6701,15.9274 C116.2491,15.9274 110.5651,16.3024 108.6711,16.3024 L104.8821,16.3024 C104.8821,15.9274 107.4081,15.9274 111.8281,15.5534 C125.7221,15.1784 134.5631,14.8044 137.0891,14.4294 C137.7211,14.0554 144.0361,13.6804 150.9821,13.3054 C157.2981,13.3054 165.5081,12.9314 169.9291,12.5564 C192.6631,11.8074 265.2871,10.6844 295.6001,10.6844 Z M451.5851,8.4374 C451.5851,8.4374 450.9541,8.8114 449.6901,8.8114 L449.0591,8.8114 C449.6901,8.4374 452.2171,8.0624 451.5851,8.4374 Z M461.0581,7.6884 C459.7951,7.6884 457.9001,8.0624 456.0061,8.0624 C450.9541,8.4374 454.1111,7.6884 459.1631,7.3134 C461.0581,7.3134 461.6891,7.3134 461.0581,7.6884 Z M370.7511,9.1864 C380.2241,9.1864 400.4331,8.4374 407.3791,7.6884 C409.2731,7.6884 414.9571,7.3134 419.3781,6.9394 C423.1671,6.5644 428.8501,6.1904 430.7451,5.8154 C437.6911,5.4414 455.3741,5.0664 459.1631,5.8154 L461.6891,6.1904 L457.2681,6.5644 C454.7431,6.9394 447.1651,7.6884 440.8501,8.8114 C430.7451,10.3094 428.2191,10.6844 420.6411,10.6844 L410.5371,10.6844 C410.5371,10.6844 403.5901,10.3094 394.7491,10.3094 C378.3291,10.3094 368.2251,9.9354 367.5941,9.5604 C367.5941,9.1864 368.8561,9.1864 370.7511,9.1864 Z M468.6361,8.4374 L468.6361,9.1864 C468.0051,9.1864 467.3731,9.1864 467.3731,8.8114 C467.3731,8.0624 468.0051,8.0624 468.6361,8.4374 Z M469.8991,6.5644 C470.5311,6.1904 471.1621,6.5644 470.5311,7.3134 C470.5311,8.0624 469.8991,8.4374 469.2671,8.4374 C468.6361,8.4374 468.6361,6.9394 469.8991,6.5644 Z M469.2671,15.1784 C469.2671,12.5564 469.2671,11.0584 469.8991,10.3094 C470.5311,9.1864 470.5311,9.1864 470.5311,11.0584 L470.5311,16.3024 L469.8991,19.2984 L469.2671,15.1784 Z M471.7941,53.7534 C473.0571,64.2404 473.0571,73.6034 472.4261,87.8344 C472.4261,96.0754 471.7941,104.6884 471.7941,106.1864 C471.7941,108.0594 471.1621,109.5574 471.1621,109.5574 C471.1621,109.9314 470.5311,109.5574 470.5311,109.5574 C470.5311,108.8084 468.6361,100.5694 467.3731,97.9474 C464.8471,91.2064 464.2161,83.7154 464.2161,70.9824 L464.2161,57.8744 C465.4781,52.6304 466.1101,50.7574 466.1101,47.7614 C466.7421,43.6424 468.0051,31.6574 468.6361,27.9124 C469.2671,24.9164 469.2671,24.9164 469.2671,29.7854 C469.8991,32.0324 469.8991,35.0284 469.8991,35.7774 C469.8991,36.1514 470.5311,38.7734 470.5311,41.3954 C471.1621,45.5144 471.1621,48.5104 471.7941,53.7534 Z M473.0571,13.6804 C473.0571,13.6804 473.6881,14.0554 473.6881,14.4294 C473.6881,14.8044 473.6881,17.8004 474.9511,20.7964 C476.2151,26.4144 476.2151,38.3984 474.9511,45.8894 C474.9511,48.1364 474.3201,51.8814 474.3201,54.8774 L473.6881,60.1214 L473.0571,52.2554 C473.0571,47.7614 472.4261,42.8934 472.4261,40.6454 C471.1621,33.5304 471.7941,14.0554 473.0571,13.6804 Z M476.8461,115.1744 C476.8461,122.6664 476.8461,129.0324 477.4771,129.7814 C477.4771,130.1564 478.1091,131.6544 478.1091,132.7774 C478.7401,134.6504 478.7401,135.0244 477.4771,135.0244 C476.2151,135.0244 476.2151,134.6504 476.2151,134.2754 C476.2151,133.5264 475.5831,133.5264 474.9511,133.5264 C473.6881,133.5264 473.6881,133.1524 473.6881,131.2794 C474.3201,130.1564 474.3201,128.6584 474.9511,128.2834 C475.5831,127.9094 475.5831,127.9094 474.9511,127.5344 C473.6881,127.1604 472.4261,114.8004 473.0571,108.8084 C473.6881,101.6924 473.6881,90.8314 473.6881,84.4644 C473.6881,81.0934 474.3201,78.0974 474.3201,78.4724 C475.5831,78.8464 476.8461,99.4454 476.8461,115.1744 Z M472.4261,132.7774 C471.7941,132.7774 471.7941,132.4034 471.7941,132.0284 L472.4261,132.0284 L473.0571,132.4034 L472.4261,132.7774 Z M471.1621,126.7854 L471.1621,124.5384 C471.7941,121.9164 472.4261,122.2914 472.4261,125.2874 C472.4261,126.7854 472.4261,127.1604 471.1621,126.7854 Z M471.7941,127.9094 C471.7941,127.9094 472.4261,127.9094 472.4261,128.2834 C472.4261,128.6584 471.7941,129.0324 471.7941,129.0324 C471.1621,129.0324 471.1621,129.0324 471.1621,128.6584 C471.1621,127.9094 471.1621,127.9094 471.7941,127.9094 Z M470.5311,130.9054 C470.5311,130.9054 471.1621,130.5304 471.7941,130.5304 C473.0571,130.1564 473.0571,130.1564 472.4261,130.9054 C471.1621,131.6544 469.8991,131.6544 470.5311,130.9054 Z M468.0051,134.6504 C464.2161,135.0244 461.6891,135.3994 452.8491,135.3994 C447.7961,135.3994 440.8501,135.7734 437.0601,135.7734 C433.9021,136.1484 401.0631,136.1484 365.0671,136.1484 L290.5481,136.1484 C285.4961,136.5224 277.2861,136.8974 273.4971,136.8974 C263.3921,137.2714 254.5521,137.6464 247.6041,138.0204 C245.0791,138.3954 238.7641,138.7694 233.7121,139.1444 C229.2911,139.5184 223.6071,139.8934 222.3441,139.8934 C217.2921,140.6424 207.8191,141.0164 197.0841,141.7654 L185.0851,141.7654 C175.6121,141.7654 163.6131,141.0164 159.1921,141.0164 C149.0881,140.2674 142.7721,139.8934 128.8801,139.8934 L114.9861,139.8934 C116.2491,139.5184 123.8271,138.7694 133.3001,138.0204 C138.9831,137.6464 144.0361,137.2714 144.6681,137.2714 C144.6681,137.2714 146.5621,136.8974 147.8251,136.8974 C149.0881,136.8974 150.9821,136.5224 152.2461,136.5224 C153.5091,136.1484 156.6661,136.1484 159.1921,136.1484 C171.8221,135.7734 182.5581,135.3994 192.0311,134.6504 C196.4521,134.2754 195.1881,134.2754 209.7141,133.9014 C222.3441,133.5264 235.6061,133.5264 255.8141,134.2754 C269.7081,134.6504 286.7591,134.6504 300.6521,134.2754 C322.1241,133.5264 336.0171,133.1524 347.3851,133.9014 C353.0681,133.9014 361.9101,134.2754 367.5941,134.2754 C387.8021,134.6504 394.1171,135.0244 402.3271,135.3994 L416.8511,135.3994 C420.0101,135.3994 426.9561,135.0244 432.6401,135.0244 C447.7961,135.0244 456.6381,134.6504 462.3211,133.1524 C466.7421,132.0284 467.3731,132.0284 467.3731,132.7774 C467.3731,133.1524 467.3731,133.5264 468.6361,133.9014 L469.8991,134.2754 L468.0051,134.6504 Z M193.9261,142.8894 C193.9261,142.8894 190.7681,143.2634 187.6101,143.6384 C184.4531,144.0124 180.6641,144.3874 179.4011,144.7624 C178.1381,145.1364 174.3491,145.5104 171.1911,145.5104 C168.0331,145.8854 164.8761,146.2594 163.6131,146.2594 L161.0871,146.2594 C161.0871,146.2594 158.5601,145.8854 155.4031,145.8854 C152.8771,145.8854 149.0881,145.5104 147.8251,145.1364 C143.4041,144.3874 135.8261,143.6384 132.0371,143.2634 C130.1421,143.2634 127.6161,142.8894 126.3531,142.5144 C124.4591,142.1404 122.5641,141.7654 120.6701,141.7654 C119.4061,141.7654 116.8811,141.7654 115.6171,141.3914 L113.0921,141.0164 L118.1431,140.6424 C130.1421,140.2674 146.5621,140.6424 162.3501,141.7654 C164.2441,141.7654 168.0331,142.1404 171.1911,142.5144 L185.7161,142.5144 C190.7681,142.5144 194.5581,142.5144 193.9261,142.8894 Z M57.5171,144.3874 C57.5171,144.7624 55.6231,145.1364 53.7281,145.1364 C50.5711,145.1364 46.1501,145.5104 45.5191,146.2594 C44.8881,146.2594 44.2561,146.6344 43.6251,146.6344 C42.3611,146.6344 40.4671,146.6344 38.5721,147.0094 C36.6781,147.3834 32.8891,147.7584 30.9941,147.7584 C27.2051,148.1324 27.2051,147.7584 24.6791,147.0094 C22.7841,146.2594 21.5211,145.8854 21.5211,145.8854 C20.8901,145.8854 20.2591,145.5104 18.9951,145.1364 L17.7321,144.3874 L20.8901,144.0124 C22.7841,144.0124 27.2051,143.6384 30.3621,143.6384 C36.6781,143.2634 37.3091,143.2634 36.6781,144.0124 C36.6781,144.7624 37.9411,144.7624 50.5711,144.3874 C56.2551,144.0124 58.1491,144.0124 57.5171,144.3874 Z M3.8391,118.5454 C3.2071,118.5454 3.2071,110.6804 3.8391,110.6804 C3.8391,110.3064 4.4711,112.1784 4.4711,114.4254 C4.4711,116.6724 3.8391,118.5454 3.8391,118.5454 Z M3.2071,130.9054 L3.2071,130.1564 L3.2071,129.7814 C3.2071,129.7814 3.8391,129.7814 3.8391,130.1564 C3.8391,130.5304 3.8391,130.9054 3.2071,130.9054 Z M3.2071,17.8004 L5.1011,17.4254 L5.7331,22.2944 C5.7331,24.5414 6.3651,32.4064 5.7331,39.1474 C5.7331,45.8894 5.7331,58.9974 6.3651,68.7354 C6.9961,85.5874 6.3651,96.8244 4.4711,100.1944 C4.4711,101.3184 3.8391,103.1904 3.2071,104.6884 C3.2071,106.1864 2.5761,108.8084 2.5761,110.3064 C1.9441,111.8044 1.3121,117.7964 1.3121,123.7894 L1.3121,134.2754 L4.4711,138.0204 C6.3651,139.8934 8.2601,141.7654 8.2601,141.7654 C8.8921,142.1404 9.5221,142.5144 10.1541,142.5144 C10.7851,142.8894 13.3111,144.0124 15.8381,145.1364 C18.3641,146.2594 20.8901,147.3834 20.8901,147.3834 C21.5211,147.3834 22.1531,147.3834 22.7841,147.7584 C23.4161,148.1324 22.7841,148.5074 21.5211,148.5074 L19.6271,148.5074 L18.3641,148.5074 C17.7321,148.5074 17.7321,148.8814 17.7321,149.2564 C17.7321,149.6304 17.7321,150.0054 19.6271,149.6304 C20.8901,149.6304 23.4161,149.2564 25.3101,149.2564 C32.2581,148.8814 42.3611,147.7584 48.6771,146.6344 C50.5711,145.8854 53.0981,145.5104 54.3601,145.5104 C55.6231,145.5104 58.1491,145.5104 59.4121,144.7624 C61.3081,144.3874 63.2011,144.0124 63.8331,144.0124 C65.0971,144.0124 66.9911,144.0124 68.8861,143.6384 C70.7801,143.2634 73.9371,142.8894 77.0951,142.8894 C84.6731,142.5144 90.3571,142.5144 93.5151,142.1404 C103.6191,141.3914 109.9341,141.3914 114.3541,142.1404 C116.2491,142.5144 118.1431,142.5144 119.4061,142.5144 C120.6701,142.5144 123.8271,142.8894 126.9851,143.2634 C133.3001,144.3874 138.3521,144.7624 142.7721,145.5104 C144.6681,145.5104 147.1931,145.8854 148.4571,145.8854 C152.8771,147.0094 172.4541,147.0094 177.5071,145.8854 C184.4531,144.3874 211.6081,141.7654 229.9231,140.6424 C234.3431,140.6424 240.6581,140.2674 245.0791,139.5184 C262.7621,138.0204 285.4961,137.2714 348.0171,137.2714 C365.0671,137.2714 383.3811,137.2714 387.8021,137.6464 C399.1691,138.0204 436.4291,138.0204 444.0071,137.6464 C447.1651,137.2714 452.2171,136.8974 455.3741,136.5224 C464.2161,136.1484 475.5831,135.7734 477.4771,136.5224 C478.7401,136.8974 479.3721,136.8974 480.0041,136.1484 C480.6351,135.7734 480.6351,135.0244 479.3721,130.5304 C478.7401,126.0364 478.7401,123.7894 478.7401,115.9234 C479.3721,108.4334 478.7401,105.0634 478.1091,101.3184 C476.2151,91.9554 475.5831,76.5994 475.5831,59.3724 C476.2151,52.6304 476.2151,41.0204 476.2151,33.5304 C476.2151,20.4214 476.2151,18.9234 474.9511,15.1784 C473.0571,9.1864 472.4261,8.0624 474.3201,6.9394 C475.5831,5.8154 475.5831,5.4414 473.6881,5.0664 C473.0571,5.0664 472.4261,5.0664 473.0571,3.1944 C473.0571,1.6964 473.0571,0.5724 472.4261,0.5724 C471.7941,0.1984 470.5311,1.3214 469.2671,2.8194 C468.6361,4.6924 467.3731,5.4414 468.0051,4.3174 C468.0051,3.1944 466.7421,3.1944 466.1101,3.9434 C465.4781,4.6924 464.2161,4.6924 452.2171,4.6924 C442.1121,4.3174 437.6911,4.6924 432.0081,5.0664 C427.5881,5.4414 421.9041,5.8154 419.3781,5.8154 C416.8511,6.1904 411.1681,6.5644 406.7471,6.9394 C395.3801,7.6884 374.5401,8.0624 358.1211,8.4374 C351.1741,8.4374 340.4381,8.4374 334.7551,8.8114 C326.5451,9.1864 308.2301,9.5604 251.3931,9.5604 C198.9781,9.5604 177.5071,9.9354 175.6121,9.9354 C173.0861,10.6844 136.4581,10.6844 99.8301,10.3094 C89.0941,10.3094 78.9891,10.3094 76.4641,10.6844 C72.0431,10.6844 56.2551,12.1824 46.1501,12.9314 C43.6251,12.9314 39.8361,13.3054 37.9411,13.3054 C35.4151,13.6804 30.9941,14.0554 27.8371,14.0554 C24.0481,14.4294 20.8901,14.8044 20.2591,14.8044 C18.9951,15.1784 18.9951,14.8044 18.9951,14.0554 C19.6271,13.3054 20.2591,12.5564 20.2591,12.1824 C21.5211,11.4334 20.8901,8.8114 19.6271,8.8114 C18.3641,8.4374 17.1001,10.3094 17.1001,14.0554 C17.1001,14.4294 16.4701,14.4294 16.4701,14.4294 C15.8381,14.4294 15.2061,14.4294 15.2061,14.8044 C14.5751,15.1784 12.6811,15.5534 10.7851,15.9274 C6.9961,16.3024 6.9961,16.3024 6.3651,15.5534 C5.7331,14.4294 6.3651,6.5644 6.9961,5.8154 L6.9961,5.4414 C5.1011,5.4414 4.4711,6.9394 4.4711,11.4334 L4.4711,16.3024 L2.5761,16.6764 C-0.5819,17.0514 0.0501,17.8004 3.2071,17.8004 Z" id="Stroke-3" stroke="#231F20" stroke-width="3"></path>
                        </g>
                    </g>
                    <path d="M114.824,66.888 C116.138673,69.6986807 116.410671,73.0533138 115.64,76.952 C115.231998,78.810676 114.529338,80.5219922 113.532,82.086 C112.534662,83.6500078 111.220008,85.3159912 109.588,87.084 C109.361332,87.3106678 109.044002,87.6393312 108.636,88.07 C108.227998,88.5006688 107.933334,88.8066658 107.752,88.988 C107.570666,89.1693342 107.434667,89.3959986 107.344,89.668 C107.253333,89.9400014 107.208,90.1553325 107.208,90.314 C107.208,90.4726675 107.219333,90.7219983 107.242,91.062 C107.264667,91.4020017 107.276,91.6173329 107.276,91.708 C107.321334,92.6146712 107.355333,94.0313237 107.378,95.958 C107.400667,97.8846763 107.434666,99.5959925 107.48,101.092 C107.525334,102.588007 107.615999,104.015993 107.752,105.376 C107.797334,105.874669 107.650002,106.407331 107.31,106.974 C106.969998,107.54067 106.596002,107.891999 106.188,108.028 C105.235995,108.345335 104.352004,108.028005 103.536,107.076 C102.810663,106.259996 102.470666,105.058675 102.516,103.472 C102.334666,98.2586406 102.244,94.9266739 102.244,93.476 C102.289334,93.0226644 102.108002,92.7733336 101.7,92.728 C100.838662,92.6373329 100.113336,92.2746698 99.524,91.64 C98.9799973,91.0506637 98.7646661,90.393337 98.878,89.668 C98.9913339,88.942663 99.4333295,88.4440014 100.204,88.172 C101.065338,87.8999986 101.631999,87.4693363 101.904,86.88 C102.176001,86.2906637 102.289334,85.5426712 102.244,84.636 C102.153333,83.1853261 102.175999,79.7853601 102.312,74.436 C102.357334,73.3933281 102.312001,72.6000027 102.176,72.056 C102.039999,71.5119973 102.073999,70.7186719 102.278,69.676 C102.482001,68.6333281 102.584,68.0666671 102.584,67.976 C102.765334,65.8906562 103.150664,61.9013628 103.74,56.008 C103.785334,55.1919959 104.136663,54.5346692 104.794,54.036 C105.451337,53.5373308 106.187996,53.3559993 107.004,53.492 C107.502669,53.5373336 107.933332,53.7526647 108.296,54.138 C108.658668,54.5233353 108.862666,54.9879973 108.908,55.532 C109.044001,56.8466732 108.953335,58.0253281 108.636,59.068 C108.499999,59.476002 108.409334,59.883998 108.364,60.292 C108.318666,60.700002 108.284667,61.2099969 108.262,61.822 C108.239333,62.4340031 108.205334,62.8533322 108.16,63.08 C108.16,63.5333356 108.409331,63.6920007 108.908,63.556 C111.492013,62.830663 113.463993,63.9413186 114.824,66.888 Z M110.676,74.572 C110.948001,72.9853254 110.834669,71.3760082 110.336,69.744 C110.199999,69.335998 110.064001,69.0753339 109.928,68.962 C109.791999,68.8486661 109.452003,68.9279986 108.908,69.2 C107.819995,70.0160041 107.366666,71.0359939 107.548,72.26 C107.548,72.4866678 107.525334,72.8379976 107.48,73.314 C107.434666,73.7900024 107.412,74.0959993 107.412,74.232 L107.412,81.508 C109.089342,80.0573261 110.177331,77.7453492 110.676,74.572 Z M131.552,69.2 C132.95734,69.8800034 134.01133,70.7979942 134.714,71.954 C135.41667,73.1100058 135.677334,74.4359925 135.496,75.932 C134.86133,81.3720272 132.776018,85.8373159 129.24,89.328 C127.426658,91.1413424 125.273346,91.7080034 122.78,91.028 C120.558656,90.4386637 119.13067,88.8973458 118.496,86.404 C118.223999,85.2253274 118.110666,84.2960034 118.156,83.616 C118.156,81.0773206 118.813327,78.312015 120.128,75.32 C120.76267,73.778659 121.442663,72.4866719 122.168,71.444 C122.304001,71.2173322 122.406,70.8433359 122.474,70.322 C122.542,69.8006641 122.598666,69.4720007 122.644,69.336 C122.870668,68.7013302 123.097332,68.3613336 123.324,68.316 C123.641335,68.1799993 124.11733,67.9646681 124.752,67.67 C125.38667,67.3753319 125.964664,67.1373342 126.486,66.956 C127.007336,66.7746658 127.517331,66.684 128.016,66.684 C129.013338,66.6386664 129.82933,67.1599946 130.464,68.248 C130.690668,68.656002 131.053331,68.9733322 131.552,69.2 Z M130.532,75.592 C130.622667,74.9573302 130.305337,74.3226698 129.58,73.688 C128.854663,73.0533302 128.197336,72.8039993 127.608,72.94 C127.426666,72.9853336 127.245334,73.0986658 127.064,73.28 C124.842656,76.680017 123.596001,79.9213179 123.324,83.004 C123.414667,83.9560048 123.46,84.4659997 123.46,84.534 C123.46,84.6020003 123.471333,84.6926661 123.494,84.806 C123.516667,84.9193339 123.539333,85.0099997 123.562,85.078 C123.584667,85.1460003 123.618666,85.2253329 123.664,85.316 C123.709334,85.4066671 123.754666,85.4859997 123.8,85.554 C123.845334,85.6220003 123.902,85.6899997 123.97,85.758 C124.038,85.8260003 124.139999,85.8826664 124.276,85.928 C124.956003,86.0640007 125.567997,85.8600027 126.112,85.316 C128.514679,82.7773206 129.987997,79.5360197 130.532,75.592 Z M159.704,87.152 C160.837339,88.8746753 160.474676,90.2799946 158.616,91.368 C158.207998,91.6400014 157.732003,91.6966675 157.188,91.538 C156.643997,91.3793325 156.168002,91.0506692 155.76,90.552 C155.170664,89.6906624 154.332005,88.4780078 153.244,86.914 C152.155995,85.3499922 151.476001,84.3866685 151.204,84.024 C149.526658,81.6213213 148.302671,80.057337 147.532,79.332 C147.033331,78.8333308 146.659335,78.584 146.41,78.584 C146.160665,78.584 145.764003,78.8106644 145.22,79.264 C144.902665,79.4906678 144.630668,79.7626651 144.404,80.08 C144.177332,80.3973349 144.007334,80.6693322 143.894,80.896 C143.780666,81.1226678 143.701334,81.4513312 143.656,81.882 C143.610666,82.3126688 143.588,82.629999 143.588,82.834 L143.588,84.908 C143.542666,89.7133574 143.497334,93.1133234 143.452,95.108 C143.406666,96.1506719 142.704007,97.0573295 141.344,97.828 C140.890664,98.0546678 140.403336,97.9980017 139.882,97.658 C139.360664,97.3179983 138.986668,96.8306698 138.76,96.196 C138.623999,95.8786651 138.522,95.4820024 138.454,95.006 C138.386,94.5299976 138.352,94.2013342 138.352,94.02 C138.352,93.8386658 138.363333,93.4080034 138.386,92.728 C138.408667,92.0479966 138.42,91.6853336 138.42,91.64 C138.42,91.5039993 138.408667,90.7446736 138.386,89.362 C138.363333,87.9793264 138.397333,87.2200007 138.488,87.084 C138.533334,86.6306644 138.227337,86.2566681 137.57,85.962 C136.912663,85.6673319 136.482001,85.157337 136.278,84.432 C136.073999,83.706663 136.175998,83.0493363 136.584,82.46 C137.672005,80.7826583 138.238666,79.944 138.284,79.944 C138.374667,79.7626658 138.454,79.5813342 138.522,79.4 C138.59,79.2186658 138.635333,79.0146678 138.658,78.788 C138.680667,78.5613322 138.692,78.3573342 138.692,78.176 C138.692,77.9946658 138.680667,77.7793346 138.658,77.53 C138.635333,77.2806654 138.624,77.0880007 138.624,76.952 C138.624,76.3626637 138.646666,74.4360163 138.692,71.172 C138.737334,67.771983 138.827999,64.9160116 138.964,62.604 C139.190668,59.1586494 139.439999,56.1893458 139.712,53.696 C139.802667,53.1973308 139.938666,51.8826773 140.12,49.752 C140.210667,48.8453288 140.709329,48.0746698 141.616,47.44 C142.432004,46.9413308 143.179997,46.8846647 143.86,47.27 C144.540003,47.6553353 144.947999,48.2559959 145.084,49.072 C145.129334,49.3440014 145.152,49.6159986 145.152,49.888 C145.152,50.1600014 145.140667,50.4319986 145.118,50.704 C145.095333,50.9760014 145.072667,51.2366654 145.05,51.486 C145.027333,51.7353346 144.993334,52.0073319 144.948,52.302 C144.902666,52.5966681 144.88,52.8573322 144.88,53.084 C144.290664,60.4733703 143.950667,65.5506528 143.86,68.316 L143.86,73.892 C144.358669,73.6653322 144.857331,73.2346698 145.356,72.6 C146.126671,71.6479952 147.327992,70.5826726 148.96,69.404 C149.322668,69.1319986 149.707998,68.792002 150.116,68.384 L151.374,67.126 C151.804669,66.6953312 152.201332,66.3440014 152.564,66.072 C153.19867,65.5733308 154.105327,65.0293363 155.284,64.44 C156.190671,64.031998 156.983997,64.3039952 157.664,65.256 C158.026668,65.8000027 158.162667,66.3666637 158.072,66.956 C157.981333,67.5453363 157.732002,68.043998 157.324,68.452 C157.051999,68.6786678 155.397349,70.0613206 152.36,72.6 C152.269333,72.6906671 152.201334,72.736 152.156,72.736 C152.065333,72.8720007 151.929334,73.0193325 151.748,73.178 C151.566666,73.3366675 151.419334,73.4726661 151.306,73.586 C151.192666,73.6993339 151.068001,73.8466658 150.932,74.028 C150.795999,74.2093342 150.705334,74.3679993 150.66,74.504 C150.569333,74.7760014 150.603333,75.0026658 150.762,75.184 C150.920667,75.3653342 151.135999,75.557999 151.408,75.762 C151.680001,75.966001 151.861333,76.1359993 151.952,76.272 C154.717347,79.7626841 157.301321,83.3893145 159.704,87.152 Z M181.668,71.172 C182.620005,72.4866732 182.552005,73.6199952 181.464,74.572 C181.055998,74.9346685 180.432671,75.0820003 179.594,75.014 C178.755329,74.9459997 178.132002,74.6853356 177.724,74.232 C177.587999,74.1413329 176.953339,73.3933404 175.82,71.988 C175.457332,71.5346644 175.140001,71.5799973 174.868,72.124 C174.550665,72.8946705 173.916005,74.1413247 172.964,75.864 C172.011995,77.5866753 171.354668,78.9466617 170.992,79.944 C170.810666,80.4880027 170.538668,81.122663 170.176,81.848 C169.813332,82.573337 169.484668,83.2759966 169.19,83.956 C168.895332,84.6360034 168.657334,85.2706637 168.476,85.86 C168.203999,86.9026719 167.546672,87.7413302 166.504,88.376 C165.642662,88.8293356 164.770004,88.8633353 163.886,88.478 C163.001996,88.0926647 162.446668,87.4240048 162.22,86.472 C162.083999,85.8826637 161.982,85.2140037 161.914,84.466 C161.846,83.7179963 161.800667,83.140002 161.778,82.732 C161.755333,82.323998 161.732667,81.6213383 161.71,80.624 C161.687333,79.6266617 161.676,79.0146678 161.676,78.788 C161.676,78.062663 161.721333,76.929341 161.812,75.388 C161.812,74.5719959 162.106664,73.7900037 162.696,73.042 C163.285336,72.2939963 163.965329,72.123998 164.736,72.532 C166.322675,73.3026705 167.070667,74.2999939 166.98,75.524 C166.98,75.5693336 167.025333,75.9319966 167.116,76.612 C167.478668,76.0679973 167.829998,75.5013363 168.17,74.912 C168.510002,74.3226637 168.895331,73.5406715 169.326,72.566 C169.756669,71.5913285 170.039999,70.9906678 170.176,70.764 C170.629336,69.8119952 171.445327,68.565341 172.624,67.024 C173.25867,66.2079959 174.085995,65.7773336 175.106,65.732 C176.126005,65.6866664 177.043996,66.026663 177.86,66.752 C179.084006,67.8400054 180.353327,69.313324 181.668,71.172 Z M186.224,67.092 C186.813336,67.1373336 187.345998,67.2959986 187.822,67.568 C188.298002,67.8400014 188.660665,68.179998 188.91,68.588 C189.159335,68.996002 189.284,69.403998 189.284,69.812 C189.147999,71.6253424 189.057334,74.6853118 189.012,78.992 C188.966666,79.6720034 188.91,80.9639905 188.842,82.868 C188.774,84.7720095 188.74,86.2226617 188.74,87.22 C188.785334,87.9906705 188.762667,89.1239925 188.672,90.62 C188.626666,92.0706739 187.924007,92.8639993 186.564,93 C185.883997,93.0453336 185.272003,92.8866685 184.728,92.524 C184.183997,92.1613315 183.844001,91.6626698 183.708,91.028 C183.526666,90.8013322 183.47,89.9060078 183.538,88.342 C183.606,86.7779922 183.64,85.8826678 183.64,85.656 L183.64,80.216 C183.64,79.490663 183.662666,78.3686743 183.708,76.85 C183.753334,75.3313257 183.798666,73.9940058 183.844,72.838 C183.889334,71.6819942 183.979999,70.5600054 184.116,69.472 C184.161334,68.7013295 184.387998,68.1006688 184.796,67.67 C185.204002,67.2393312 185.679997,67.0466664 186.224,67.092 Z M186.156,62.808 C185.702664,62.808 185.249336,62.5360027 184.796,61.992 C184.342664,61.4479973 184.093334,60.8813363 184.048,60.292 C184.002666,59.2946617 184.251997,58.4446702 184.796,57.742 C185.340003,57.0393298 186.042662,56.688 186.904,56.688 C187.629337,56.688 188.195998,56.9373308 188.604,57.436 C189.012002,57.9346692 189.238666,58.648662 189.284,59.578 C189.329334,60.507338 189.057336,61.2666637 188.468,61.856 C187.878664,62.4453363 187.108005,62.7626664 186.156,62.808 Z M199.552,76.952 C199.506666,77.3146685 199.518,77.8926627 199.586,78.686 C199.654,79.4793373 199.665334,80.079998 199.62,80.488 C199.529333,81.0773363 199.461334,81.7459963 199.416,82.494 C199.370666,83.2420037 199.336667,83.9106637 199.314,84.5 C199.291333,85.0893363 199.246,85.746663 199.178,86.472 C199.11,87.197337 199.030667,87.8546637 198.94,88.444 C198.849333,88.9426692 198.702001,89.8266603 198.498,91.096 C198.293999,92.3653397 198.101334,93.362663 197.92,94.088 C197.511998,95.946676 196.514675,98.1679871 194.928,100.752 C194.519998,101.341336 193.851338,102.111995 192.922,103.064 C191.992662,104.016005 191.346668,104.718664 190.984,105.172 C190.077329,106.396006 188.944007,106.713336 187.584,106.124 C186.94933,105.897332 186.530001,105.455337 186.326,104.798 C186.121999,104.140663 186.201332,103.49467 186.564,102.86 C186.881335,102.406664 187.232665,101.953336 187.618,101.5 C188.003335,101.046664 188.456664,100.548003 188.978,100.004 C189.499336,99.4599973 189.873332,99.0293349 190.1,98.712 C191.188005,97.4879939 192.162662,95.6746787 193.024,93.272 C193.432002,92.1839946 193.749332,90.9826732 193.976,89.668 C194.202668,88.3533268 194.35,87.231338 194.418,86.302 C194.486,85.372662 194.565333,84.1260078 194.656,82.562 C194.746667,80.9979922 194.814666,79.853337 194.86,79.128 C194.950667,78.2213288 195.007333,77.2240054 195.03,76.136 C195.052667,75.0479946 195.052667,74.0846709 195.03,73.246 C195.007333,72.4073291 194.996,71.3986726 194.996,70.22 L194.996,67.296 C194.996,66.2079946 195.267997,65.3240034 195.812,64.644 C196.310669,64.0093302 197.013329,63.8053322 197.92,64.032 C198.55467,64.1680007 199.030665,64.6439959 199.348,65.46 C199.484001,65.8226685 199.574666,66.2193312 199.62,66.65 C199.665334,67.0806688 199.699333,67.4433319 199.722,67.738 C199.744667,68.0326681 199.756,68.4746637 199.756,69.064 L199.756,70.424 C199.756,70.7413349 199.744667,71.6819922 199.722,73.246 C199.699333,74.8100078 199.642667,76.0453288 199.552,76.952 Z M195.88,61.924 C194.61066,61.7426658 193.794668,61.1760048 193.432,60.224 C193.114665,59.3626624 193.216664,58.3086729 193.738,57.062 C194.259336,55.8153271 194.882663,55.0106685 195.608,54.648 C195.970668,54.4666658 196.378664,54.376 196.832,54.376 C197.693338,54.4213336 198.339331,54.6933308 198.77,55.192 C199.200669,55.6906692 199.348001,56.3706624 199.212,57.232 C198.985332,58.6373404 198.486671,59.9293274 197.716,61.108 C197.307998,61.7880034 196.696004,62.0600007 195.88,61.924 Z M209.344,82.256 C209.298666,82.256 209.208001,82.2220003 209.072,82.154 C208.935999,82.0859997 208.822667,82.0633332 208.732,82.086 C208.641333,82.1086668 208.573334,82.1653329 208.528,82.256 C208.391999,82.5733349 208.459999,82.935998 208.732,83.344 C209.548004,84.477339 210.749325,85.2706644 212.336,85.724 C212.472001,85.7693336 212.721332,85.8373329 213.084,85.928 C213.446668,86.0186671 213.729999,86.0866664 213.934,86.132 C214.138001,86.1773336 214.364665,86.2906658 214.614,86.472 C214.863335,86.6533342 215.078666,86.8573322 215.26,87.084 C215.577335,87.5373356 215.792666,88.0586637 215.906,88.648 C216.019334,89.2373363 215.985334,89.735998 215.804,90.144 C215.259997,91.0053376 214.421339,91.3453342 213.288,91.164 C209.887983,90.7106644 207.281342,89.4413438 205.468,87.356 C203.926659,85.497324 203.201333,82.6186862 203.292,78.72 C203.292,78.4933322 203.326,78.017337 203.394,77.292 C203.462,76.566663 203.496,75.9660024 203.496,75.49 C203.496,75.0139976 203.450667,74.3453376 203.36,73.484 C203.269333,72.9853308 203.325999,72.5093356 203.53,72.056 C203.734001,71.6026644 204.028665,71.2173349 204.414,70.9 C204.799335,70.5826651 205.241331,70.3786671 205.74,70.288 C206.329336,70.1066658 206.805332,69.7893356 207.168,69.336 C208.43734,67.794659 210.341321,66.8426685 212.88,66.48 C214.194673,66.2533322 215.509327,66.6613281 216.824,67.704 C218.138673,68.7466719 218.977332,69.9706596 219.34,71.376 C219.793336,73.0533417 219.555338,74.7986576 218.626,76.612 C217.696662,78.4253424 216.359342,79.8646613 214.614,80.93 C212.868658,81.9953387 211.112009,82.4373342 209.344,82.256 Z M209.14,75.116 C208.822665,75.6600027 208.765999,76.1019983 208.97,76.442 C209.174001,76.7820017 209.615997,76.952 210.296,76.952 C210.93067,76.9973336 211.633329,76.6913366 212.404,76.034 C213.174671,75.3766634 213.741332,74.6173376 214.104,73.756 C214.421335,72.9853295 214.308003,72.3506692 213.764,71.852 C213.310664,71.443998 212.676004,71.3986651 211.86,71.716 C211.497332,71.8520007 211.157335,72.0673319 210.84,72.362 C210.522665,72.6566681 210.296001,72.9173322 210.16,73.144 C210.023999,73.3706678 209.842668,73.7219976 209.616,74.198 C209.389332,74.6740024 209.230667,74.9799993 209.14,75.116 Z M234.572,59.612 C236.022674,60.7906726 236.476003,61.8786617 235.932,62.876 C235.705332,63.284002 235.229337,63.589999 234.504,63.794 C233.778663,63.998001 233.076003,64.0093342 232.396,63.828 C232.033332,63.7373329 231.523337,63.6240007 230.866,63.488 C230.208663,63.3519993 229.721335,63.2386671 229.404,63.148 C229.086665,63.0573329 228.871334,63.0913325 228.758,63.25 C228.644666,63.4086675 228.633333,63.6239986 228.724,63.896 C228.814667,64.2133349 228.86,64.5419983 228.86,64.882 C228.86,65.2220017 228.837334,65.6299976 228.792,66.106 C228.746666,66.5820024 228.724,66.9106658 228.724,67.092 C228.678666,67.6360027 228.644667,68.270663 228.622,68.996 C228.599333,69.721337 228.588,70.446663 228.588,71.172 L228.588,73.076 C228.542666,73.801337 228.531333,75.4106542 228.554,77.904 C228.576667,80.3973458 228.497334,81.9839966 228.316,82.664 C228.270666,83.0266685 228.282,83.5593298 228.35,84.262 C228.418,84.9646702 228.452,85.4746651 228.452,85.792 C228.361333,87.333341 228.044003,88.4213302 227.5,89.056 C227.273332,89.2826678 227.126,89.4413329 227.058,89.532 C226.99,89.6226671 226.831335,89.7586658 226.582,89.94 C226.332665,90.1213342 226.140001,90.1893336 226.004,90.144 C225.867999,90.0986664 225.641335,90.076 225.324,90.076 C224.417329,89.8039986 223.873334,89.101339 223.692,87.968 C223.510666,86.7893274 223.442666,85.9053363 223.488,85.316 C223.488,85.1346658 223.522,84.2620078 223.59,82.698 C223.658,81.1339922 223.692,79.9440041 223.692,79.128 C223.692,77.4053247 223.714666,75.9546726 223.76,74.776 C223.76,74.6399993 223.782666,72.1240245 223.828,67.228 C223.873334,65.0519891 223.896,63.5106712 223.896,62.604 C223.896,62.4679993 223.862,62.3546671 223.794,62.264 C223.726,62.1733329 223.669334,62.1166668 223.624,62.094 C223.578666,62.0713332 223.465334,62.06 223.284,62.06 L222.944,62.06 C222.445331,61.9693329 221.289342,61.9466664 219.476,61.992 C217.662658,62.0373336 216.506669,62.0373336 216.008,61.992 C215.418664,61.992 214.886002,61.7426692 214.41,61.244 C213.933998,60.7453308 213.673334,60.1786698 213.628,59.544 C213.582666,58.9546637 213.741332,58.4106692 214.104,57.912 C214.466668,57.4133308 214.942664,57.1186671 215.532,57.028 C217.209342,56.7106651 219.022657,56.5973329 220.972,56.688 C222.468007,56.7786671 223.351999,56.6993346 223.624,56.45 C223.896001,56.2006654 224.054666,55.3280075 224.1,53.832 C224.145334,53.4693315 224.168,53.0613356 224.168,52.608 C224.168,52.1546644 224.179333,51.7013356 224.202,51.248 C224.224667,50.7946644 224.236,50.3866685 224.236,50.024 C224.326667,48.5733261 225.029327,47.8026671 226.344,47.712 C226.842669,47.712 227.329998,47.915998 227.806,48.324 C228.282002,48.732002 228.565333,49.2306637 228.656,49.82 C228.837334,51.1346732 228.882667,52.1319966 228.792,52.812 C228.746666,53.537337 228.769333,54.8519905 228.86,56.756 C228.905334,57.3906698 229.24533,57.7759993 229.88,57.912 C232.101344,58.320002 233.665329,58.886663 234.572,59.612 Z M238.38,82.256 C238.334666,82.256 238.244001,82.2220003 238.108,82.154 C237.971999,82.0859997 237.858667,82.0633332 237.768,82.086 C237.677333,82.1086668 237.609334,82.1653329 237.564,82.256 C237.427999,82.5733349 237.495999,82.935998 237.768,83.344 C238.584004,84.477339 239.785325,85.2706644 241.372,85.724 C241.508001,85.7693336 241.757332,85.8373329 242.12,85.928 C242.482668,86.0186671 242.765999,86.0866664 242.97,86.132 C243.174001,86.1773336 243.400665,86.2906658 243.65,86.472 C243.899335,86.6533342 244.114666,86.8573322 244.296,87.084 C244.613335,87.5373356 244.828666,88.0586637 244.942,88.648 C245.055334,89.2373363 245.021334,89.735998 244.84,90.144 C244.295997,91.0053376 243.457339,91.3453342 242.324,91.164 C238.923983,90.7106644 236.317342,89.4413438 234.504,87.356 C232.962659,85.497324 232.237333,82.6186862 232.328,78.72 C232.328,78.4933322 232.362,78.017337 232.43,77.292 C232.498,76.566663 232.532,75.9660024 232.532,75.49 C232.532,75.0139976 232.486667,74.3453376 232.396,73.484 C232.305333,72.9853308 232.361999,72.5093356 232.566,72.056 C232.770001,71.6026644 233.064665,71.2173349 233.45,70.9 C233.835335,70.5826651 234.277331,70.3786671 234.776,70.288 C235.365336,70.1066658 235.841332,69.7893356 236.204,69.336 C237.47334,67.794659 239.377321,66.8426685 241.916,66.48 C243.230673,66.2533322 244.545327,66.6613281 245.86,67.704 C247.174673,68.7466719 248.013332,69.9706596 248.376,71.376 C248.829336,73.0533417 248.591338,74.7986576 247.662,76.612 C246.732662,78.4253424 245.395342,79.8646613 243.65,80.93 C241.904658,81.9953387 240.148009,82.4373342 238.38,82.256 Z M238.176,75.116 C237.858665,75.6600027 237.801999,76.1019983 238.006,76.442 C238.210001,76.7820017 238.651997,76.952 239.332,76.952 C239.96667,76.9973336 240.669329,76.6913366 241.44,76.034 C242.210671,75.3766634 242.777332,74.6173376 243.14,73.756 C243.457335,72.9853295 243.344003,72.3506692 242.8,71.852 C242.346664,71.443998 241.712004,71.3986651 240.896,71.716 C240.533332,71.8520007 240.193335,72.0673319 239.876,72.362 C239.558665,72.6566681 239.332001,72.9173322 239.196,73.144 C239.059999,73.3706678 238.878668,73.7219976 238.652,74.198 C238.425332,74.6740024 238.266667,74.9799993 238.176,75.116 Z M276.936,59.612 C278.386674,60.7906726 278.840003,61.8786617 278.296,62.876 C278.069332,63.284002 277.593337,63.589999 276.868,63.794 C276.142663,63.998001 275.440003,64.0093342 274.76,63.828 C274.397332,63.7373329 273.887337,63.6240007 273.23,63.488 C272.572663,63.3519993 272.085335,63.2386671 271.768,63.148 C271.450665,63.0573329 271.235334,63.0913325 271.122,63.25 C271.008666,63.4086675 270.997333,63.6239986 271.088,63.896 C271.178667,64.2133349 271.224,64.5419983 271.224,64.882 C271.224,65.2220017 271.201334,65.6299976 271.156,66.106 C271.110666,66.5820024 271.088,66.9106658 271.088,67.092 C271.042666,67.6360027 271.008667,68.270663 270.986,68.996 C270.963333,69.721337 270.952,70.446663 270.952,71.172 L270.952,73.076 C270.906666,73.801337 270.895333,75.4106542 270.918,77.904 C270.940667,80.3973458 270.861334,81.9839966 270.68,82.664 C270.634666,83.0266685 270.646,83.5593298 270.714,84.262 C270.782,84.9646702 270.816,85.4746651 270.816,85.792 C270.725333,87.333341 270.408003,88.4213302 269.864,89.056 C269.637332,89.2826678 269.49,89.4413329 269.422,89.532 C269.354,89.6226671 269.195335,89.7586658 268.946,89.94 C268.696665,90.1213342 268.504001,90.1893336 268.368,90.144 C268.231999,90.0986664 268.005335,90.076 267.688,90.076 C266.781329,89.8039986 266.237334,89.101339 266.056,87.968 C265.874666,86.7893274 265.806666,85.9053363 265.852,85.316 C265.852,85.1346658 265.886,84.2620078 265.954,82.698 C266.022,81.1339922 266.056,79.9440041 266.056,79.128 C266.056,77.4053247 266.078666,75.9546726 266.124,74.776 C266.124,74.6399993 266.146666,72.1240245 266.192,67.228 C266.237334,65.0519891 266.26,63.5106712 266.26,62.604 C266.26,62.4679993 266.226,62.3546671 266.158,62.264 C266.09,62.1733329 266.033334,62.1166668 265.988,62.094 C265.942666,62.0713332 265.829334,62.06 265.648,62.06 L265.308,62.06 C264.809331,61.9693329 263.653342,61.9466664 261.84,61.992 C260.026658,62.0373336 258.870669,62.0373336 258.372,61.992 C257.782664,61.992 257.250002,61.7426692 256.774,61.244 C256.297998,60.7453308 256.037334,60.1786698 255.992,59.544 C255.946666,58.9546637 256.105332,58.4106692 256.468,57.912 C256.830668,57.4133308 257.306664,57.1186671 257.896,57.028 C259.573342,56.7106651 261.386657,56.5973329 263.336,56.688 C264.832007,56.7786671 265.715999,56.6993346 265.988,56.45 C266.260001,56.2006654 266.418666,55.3280075 266.464,53.832 C266.509334,53.4693315 266.532,53.0613356 266.532,52.608 C266.532,52.1546644 266.543333,51.7013356 266.566,51.248 C266.588667,50.7946644 266.6,50.3866685 266.6,50.024 C266.690667,48.5733261 267.393327,47.8026671 268.708,47.712 C269.206669,47.712 269.693998,47.915998 270.17,48.324 C270.646002,48.732002 270.929333,49.2306637 271.02,49.82 C271.201334,51.1346732 271.246667,52.1319966 271.156,52.812 C271.110666,53.537337 271.133333,54.8519905 271.224,56.756 C271.269334,57.3906698 271.60933,57.7759993 272.244,57.912 C274.465344,58.320002 276.029329,58.886663 276.936,59.612 Z M280.744,82.256 C280.698666,82.256 280.608001,82.2220003 280.472,82.154 C280.335999,82.0859997 280.222667,82.0633332 280.132,82.086 C280.041333,82.1086668 279.973334,82.1653329 279.928,82.256 C279.791999,82.5733349 279.859999,82.935998 280.132,83.344 C280.948004,84.477339 282.149325,85.2706644 283.736,85.724 C283.872001,85.7693336 284.121332,85.8373329 284.484,85.928 C284.846668,86.0186671 285.129999,86.0866664 285.334,86.132 C285.538001,86.1773336 285.764665,86.2906658 286.014,86.472 C286.263335,86.6533342 286.478666,86.8573322 286.66,87.084 C286.977335,87.5373356 287.192666,88.0586637 287.306,88.648 C287.419334,89.2373363 287.385334,89.735998 287.204,90.144 C286.659997,91.0053376 285.821339,91.3453342 284.688,91.164 C281.287983,90.7106644 278.681342,89.4413438 276.868,87.356 C275.326659,85.497324 274.601333,82.6186862 274.692,78.72 C274.692,78.4933322 274.726,78.017337 274.794,77.292 C274.862,76.566663 274.896,75.9660024 274.896,75.49 C274.896,75.0139976 274.850667,74.3453376 274.76,73.484 C274.669333,72.9853308 274.725999,72.5093356 274.93,72.056 C275.134001,71.6026644 275.428665,71.2173349 275.814,70.9 C276.199335,70.5826651 276.641331,70.3786671 277.14,70.288 C277.729336,70.1066658 278.205332,69.7893356 278.568,69.336 C279.83734,67.794659 281.741321,66.8426685 284.28,66.48 C285.594673,66.2533322 286.909327,66.6613281 288.224,67.704 C289.538673,68.7466719 290.377332,69.9706596 290.74,71.376 C291.193336,73.0533417 290.955338,74.7986576 290.026,76.612 C289.096662,78.4253424 287.759342,79.8646613 286.014,80.93 C284.268658,81.9953387 282.512009,82.4373342 280.744,82.256 Z M280.54,75.116 C280.222665,75.6600027 280.165999,76.1019983 280.37,76.442 C280.574001,76.7820017 281.015997,76.952 281.696,76.952 C282.33067,76.9973336 283.033329,76.6913366 283.804,76.034 C284.574671,75.3766634 285.141332,74.6173376 285.504,73.756 C285.821335,72.9853295 285.708003,72.3506692 285.164,71.852 C284.710664,71.443998 284.076004,71.3986651 283.26,71.716 C282.897332,71.8520007 282.557335,72.0673319 282.24,72.362 C281.922665,72.6566681 281.696001,72.9173322 281.56,73.144 C281.423999,73.3706678 281.242668,73.7219976 281.016,74.198 C280.789332,74.6740024 280.630667,74.9799993 280.54,75.116 Z M299.512,59.34 C299.466666,60.065337 299.444,60.9266617 299.444,61.924 C299.444,62.9213383 299.432667,63.884662 299.41,64.814 C299.387333,65.743338 299.330667,66.5933295 299.24,67.364 C299.103999,68.7240068 299.036,70.6279878 299.036,73.076 L299.036,77.768 C298.990666,78.493337 299.024666,79.5813261 299.138,81.032 C299.251334,82.4826739 299.308,83.570663 299.308,84.296 C299.262666,85.021337 299.262666,85.9393278 299.308,87.05 C299.353334,88.1606722 299.387333,89.0899963 299.41,89.838 C299.432667,90.5860037 299.421334,91.526661 299.376,92.66 C299.285333,93.9293397 298.764005,94.6999986 297.812,94.972 C296.723995,95.3346685 295.794671,94.8813397 295.024,93.612 C294.797332,93.203998 294.638667,92.7620024 294.548,92.286 C294.457333,91.8099976 294.412,91.3113359 294.412,90.79 C294.412,90.2686641 294.389334,89.9173342 294.344,89.736 C294.117332,83.4799687 294.026666,77.1106991 294.072,70.628 C294.072,69.902663 294.094666,69.1093376 294.14,68.248 C294.185334,67.3866624 294.230666,66.4460051 294.276,65.426 C294.321334,64.4059949 294.366666,63.6240027 294.412,63.08 C294.412,62.8533322 294.423333,62.1506726 294.446,60.972 C294.468667,59.7933274 294.525333,58.8866698 294.616,58.252 C294.616,57.9346651 294.683999,55.5320224 294.82,51.044 C294.82,50.4999973 295.069331,49.9786692 295.568,49.48 C296.066669,48.9813308 296.587997,48.732 297.132,48.732 C297.676003,48.732 298.174664,48.9586644 298.628,49.412 C299.081336,49.8653356 299.375999,50.4319966 299.512,51.112 C299.602667,51.6106692 299.670666,52.1319973 299.716,52.676 C299.761334,53.2200027 299.772667,53.8093302 299.75,54.444 C299.727333,55.0786698 299.716,55.5886647 299.716,55.974 C299.716,56.3593353 299.682,56.9486627 299.614,57.742 C299.546,58.5353373 299.512,59.0679986 299.512,59.34 Z M309.848,82.256 C309.802666,82.256 309.712001,82.2220003 309.576,82.154 C309.439999,82.0859997 309.326667,82.0633332 309.236,82.086 C309.145333,82.1086668 309.077334,82.1653329 309.032,82.256 C308.895999,82.5733349 308.963999,82.935998 309.236,83.344 C310.052004,84.477339 311.253325,85.2706644 312.84,85.724 C312.976001,85.7693336 313.225332,85.8373329 313.588,85.928 C313.950668,86.0186671 314.233999,86.0866664 314.438,86.132 C314.642001,86.1773336 314.868665,86.2906658 315.118,86.472 C315.367335,86.6533342 315.582666,86.8573322 315.764,87.084 C316.081335,87.5373356 316.296666,88.0586637 316.41,88.648 C316.523334,89.2373363 316.489334,89.735998 316.308,90.144 C315.763997,91.0053376 314.925339,91.3453342 313.792,91.164 C310.391983,90.7106644 307.785342,89.4413438 305.972,87.356 C304.430659,85.497324 303.705333,82.6186862 303.796,78.72 C303.796,78.4933322 303.83,78.017337 303.898,77.292 C303.966,76.566663 304,75.9660024 304,75.49 C304,75.0139976 303.954667,74.3453376 303.864,73.484 C303.773333,72.9853308 303.829999,72.5093356 304.034,72.056 C304.238001,71.6026644 304.532665,71.2173349 304.918,70.9 C305.303335,70.5826651 305.745331,70.3786671 306.244,70.288 C306.833336,70.1066658 307.309332,69.7893356 307.672,69.336 C308.94134,67.794659 310.845321,66.8426685 313.384,66.48 C314.698673,66.2533322 316.013327,66.6613281 317.328,67.704 C318.642673,68.7466719 319.481332,69.9706596 319.844,71.376 C320.297336,73.0533417 320.059338,74.7986576 319.13,76.612 C318.200662,78.4253424 316.863342,79.8646613 315.118,80.93 C313.372658,81.9953387 311.616009,82.4373342 309.848,82.256 Z M309.644,75.116 C309.326665,75.6600027 309.269999,76.1019983 309.474,76.442 C309.678001,76.7820017 310.119997,76.952 310.8,76.952 C311.43467,76.9973336 312.137329,76.6913366 312.908,76.034 C313.678671,75.3766634 314.245332,74.6173376 314.608,73.756 C314.925335,72.9853295 314.812003,72.3506692 314.268,71.852 C313.814664,71.443998 313.180004,71.3986651 312.364,71.716 C312.001332,71.8520007 311.661335,72.0673319 311.344,72.362 C311.026665,72.6566681 310.800001,72.9173322 310.664,73.144 C310.527999,73.3706678 310.346668,73.7219976 310.12,74.198 C309.893332,74.6740024 309.734667,74.9799993 309.644,75.116 Z M340.108,64.168 C340.289334,64.7573363 340.096669,65.3806634 339.53,66.038 C338.96333,66.6953366 338.294671,67.0693329 337.524,67.16 C336.979997,67.2053336 336.42467,67.3073325 335.858,67.466 C335.29133,67.6246675 334.679337,67.805999 334.022,68.01 C333.364663,68.214001 332.832002,68.3613329 332.424,68.452 C331.834664,68.5880007 331.494667,68.9506637 331.404,69.54 C330.950664,72.940017 330.701334,75.2519939 330.656,76.476 C330.610666,76.8386685 330.622,77.0653329 330.69,77.156 C330.758,77.2466671 330.995998,77.2466671 331.404,77.156 C332.401338,76.747998 333.375995,77.0653281 334.328,78.108 C334.826669,78.6066692 334.894668,79.4453274 334.532,80.624 C334.486666,80.8053342 334.407334,80.9639993 334.294,81.1 C334.180666,81.2360007 334.101334,81.3266664 334.056,81.372 C334.010666,81.4173336 333.874668,81.5079993 333.648,81.644 C333.421332,81.7800007 333.308,81.8706664 333.308,81.916 C332.355995,82.5960034 331.653336,82.9813329 331.2,83.072 C331.018666,83.072 330.871334,83.1059997 330.758,83.174 C330.644666,83.2420003 330.554,83.2986664 330.486,83.344 C330.418,83.3893336 330.35,83.4573329 330.282,83.548 C330.214,83.6386671 330.157334,83.7066664 330.112,83.752 C330.066666,83.7973336 330.032667,83.8993325 330.01,84.058 C329.987333,84.2166675 329.964667,84.3186664 329.942,84.364 C329.919333,84.4093336 329.896667,84.5226658 329.874,84.704 C329.851333,84.8853342 329.84,84.9986664 329.84,85.044 C329.749333,85.8146705 329.67,86.6419956 329.602,87.526 C329.534,88.4100044 329.488667,89.4073278 329.466,90.518 C329.443333,91.6286722 329.432,92.4559973 329.432,93 C329.386666,93.3173349 329.375333,93.8839959 329.398,94.7 C329.420667,95.5160041 329.432,96.0599986 329.432,96.332 C329.386666,97.7373404 328.854005,98.5533322 327.834,98.78 C326.813995,99.0066678 325.941337,98.4626732 325.216,97.148 C324.943999,96.6493308 324.740001,96.0826698 324.604,95.448 C324.467999,94.8133302 324.4,94.2806688 324.4,93.85 C324.4,93.4193312 324.422666,92.8186705 324.468,92.048 C324.513334,91.2773295 324.536,90.7106685 324.536,90.348 C324.536,90.0306651 324.603999,88.8066773 324.74,86.676 C324.785334,86.1773308 324.558669,85.9053336 324.06,85.86 C323.107995,85.7693329 322.462002,85.2933376 322.122,84.432 C321.781998,83.5706624 321.92933,82.7546705 322.564,81.984 C322.972002,81.4853308 323.289332,81.1906671 323.516,81.1 C324.740006,80.6013308 325.374666,79.6266739 325.42,78.176 C325.465334,77.5413302 325.578666,76.4306746 325.76,74.844 C325.941334,73.2573254 326.054666,72.0106712 326.1,71.104 C325.193329,71.5573356 324.42267,71.7386671 323.788,71.648 C323.062663,71.6026664 322.541335,71.3306692 322.224,70.832 C321.906665,70.3333308 321.861332,69.7440034 322.088,69.064 C322.586669,67.7039932 323.697325,66.5933376 325.42,65.732 C326.644006,65.1879973 327.482664,64.6440027 327.936,64.1 C328.344002,63.6013308 329.069328,63.4653322 330.112,63.692 C330.520002,63.7826671 330.882665,63.7600007 331.2,63.624 C331.698669,63.3519986 332.219997,63.1480007 332.764,63.012 C333.308003,62.8759993 333.999329,62.7286675 334.838,62.57 C335.676671,62.4113325 336.231999,62.2866671 336.504,62.196 C337.365338,62.0146658 338.124663,62.1166647 338.782,62.502 C339.439337,62.8873353 339.881332,63.442663 340.108,64.168 Z M352.008,69.2 C353.41334,69.8800034 354.46733,70.7979942 355.17,71.954 C355.87267,73.1100058 356.133334,74.4359925 355.952,75.932 C355.31733,81.3720272 353.232018,85.8373159 349.696,89.328 C347.882658,91.1413424 345.729346,91.7080034 343.236,91.028 C341.014656,90.4386637 339.58667,88.8973458 338.952,86.404 C338.679999,85.2253274 338.566666,84.2960034 338.612,83.616 C338.612,81.0773206 339.269327,78.312015 340.584,75.32 C341.21867,73.778659 341.898663,72.4866719 342.624,71.444 C342.760001,71.2173322 342.862,70.8433359 342.93,70.322 C342.998,69.8006641 343.054666,69.4720007 343.1,69.336 C343.326668,68.7013302 343.553332,68.3613336 343.78,68.316 C344.097335,68.1799993 344.57333,67.9646681 345.208,67.67 C345.84267,67.3753319 346.420664,67.1373342 346.942,66.956 C347.463336,66.7746658 347.973331,66.684 348.472,66.684 C349.469338,66.6386664 350.28533,67.1599946 350.92,68.248 C351.146668,68.656002 351.509331,68.9733322 352.008,69.2 Z M350.988,75.592 C351.078667,74.9573302 350.761337,74.3226698 350.036,73.688 C349.310663,73.0533302 348.653336,72.8039993 348.064,72.94 C347.882666,72.9853336 347.701334,73.0986658 347.52,73.28 C345.298656,76.680017 344.052001,79.9213179 343.78,83.004 C343.870667,83.9560048 343.916,84.4659997 343.916,84.534 C343.916,84.6020003 343.927333,84.6926661 343.95,84.806 C343.972667,84.9193339 343.995333,85.0099997 344.018,85.078 C344.040667,85.1460003 344.074666,85.2253329 344.12,85.316 C344.165334,85.4066671 344.210666,85.4859997 344.256,85.554 C344.301334,85.6220003 344.358,85.6899997 344.426,85.758 C344.494,85.8260003 344.595999,85.8826664 344.732,85.928 C345.412003,86.0640007 346.023997,85.8600027 346.568,85.316 C348.970679,82.7773206 350.443997,79.5360197 350.988,75.592 Z M377.78,90.348 C377.78,90.6653349 377.814,91.186663 377.882,91.912 C377.95,92.637337 377.984,93.1586651 377.984,93.476 C377.984,93.7933349 377.961334,94.314663 377.916,95.04 C377.689332,96.3093397 377.009339,97.0346658 375.876,97.216 C375.286664,97.2613336 374.742669,97.1366681 374.244,96.842 C373.745331,96.5473319 373.360001,96.1053363 373.088,95.516 C372.815999,95.0173308 372.68,94.3373376 372.68,93.476 C372.407999,85.6786277 372.226667,80.8960088 372.136,79.128 C372.090666,78.7653315 372.068,78.3233359 372.068,77.802 L372.068,76.442 C372.068,76.0566647 372.045334,75.6033359 372,75.082 C371.954666,74.5606641 371.864001,74.0733356 371.728,73.62 C369.959991,76.3853472 369.008001,77.8813322 368.872,78.108 C368.418664,78.833337 367.648005,80.0799912 366.56,81.848 C365.471995,83.6160088 364.633336,84.9759952 364.044,85.928 C363.771999,86.336002 363.432002,86.6759986 363.024,86.948 C362.615998,87.2200014 362.196669,87.4013329 361.766,87.492 C361.335331,87.5826671 360.893336,87.5826671 360.44,87.492 C359.759997,87.3106658 359.204669,86.9253363 358.774,86.336 C358.343331,85.7466637 358.105334,85.0440041 358.06,84.228 C357.833332,80.4653145 357.946664,75.9320265 358.4,70.628 C358.445334,70.1293308 358.502,69.3700051 358.57,68.35 C358.638,67.3299949 358.694666,66.5706692 358.74,66.072 C358.785334,65.4826637 359.057331,64.9160027 359.556,64.372 C360.054669,63.8279973 360.598664,63.5106671 361.188,63.42 C362.230672,63.2839993 363.046664,63.7146617 363.636,64.712 C363.817334,64.9386678 363.930666,65.2219983 363.976,65.562 C364.021334,65.9020017 364.044,66.173999 364.044,66.378 C364.044,66.582001 364.01,66.9106644 363.942,67.364 C363.874,67.8173356 363.84,68.0893329 363.84,68.18 C363.567999,71.5346834 363.409334,74.5719864 363.364,77.292 C363.636001,77.3826671 363.862666,77.2693349 364.044,76.952 C364.361335,76.226663 364.746664,75.501337 365.2,74.776 C365.653336,74.050663 366.19733,73.223338 366.832,72.294 C367.46667,71.364662 367.942665,70.6733356 368.26,70.22 C369.257338,68.678659 370.209329,67.5680034 371.116,66.888 C371.932004,66.2986637 372.861328,66.1513319 373.904,66.446 C374.946672,66.7406681 375.671998,67.3639952 376.08,68.316 C376.71467,69.6306732 377.077333,71.5799871 377.168,74.164 C377.258667,75.6600075 377.338,77.3826569 377.406,79.332 C377.474,81.2813431 377.530666,83.2193237 377.576,85.146 C377.621334,87.0726763 377.689333,88.806659 377.78,90.348 Z" id="pokrijete-telefon" fill="#FFFFFF"></path>
                </g>
            </g>
        </g>
    </g>
</svg>