<?xml version="1.0" encoding="UTF-8"?>
<svg width="281px" height="274px" viewBox="0 0 281 274" version="1.1" xmlns="http://www.w3.org/2000/svg" xmlns:xlink="http://www.w3.org/1999/xlink">
    <!-- Generator: Sketch 52.2 (67145) - http://www.bohemiancoding.com/sketch -->
    <title>PLAY_AGAIN</title>
    <desc>Created with Sketch.</desc>
    <defs>
        <polygon id="path-1" points="0 0.00044094982 280.8527 0.00044094982 280.8527 273.550722 0 273.550722"></polygon>
    </defs>
    <g id="-" stroke="none" stroke-width="1" fill="none" fill-rule="evenodd">
        <g id="screen4" transform="translate(-820.000000, -403.000000)">
            <g id="PLAY_AGAIN" transform="translate(820.000000, 403.000000)">
                <g id="Group-3">
                    <mask id="mask-2" fill="white">
                        <use xlink:href="#path-1"></use>
                    </mask>
                    <g id="Clip-2"></g>
                    <path d="M203.6367,36.9526 C244.4007,61.7736 265.0427,97.0366 265.2837,143.7516 C264.1627,151.6216 261.7077,159.3886 258.9297,167.3356 C258.6447,168.3466 257.8557,169.2156 257.7127,169.7226 C257.2457,170.4096 257.2867,171.2376 256.8207,171.9266 C249.6497,181.9136 241.1437,191.7996 232.0907,200.7126 C223.2827,207.7856 214.2547,213.7056 204.3567,218.8346 C198.0217,221.9646 191.3627,225.2756 184.6637,227.7586 C189.8047,224.0196 194.9487,220.2826 199.7267,215.8976 C203.1077,213.5736 206.3067,210.9256 208.9997,208.1376 C216.1887,201.9736 223.0117,195.1606 229.8367,188.3496 C236.3367,181.7196 242.4737,174.4426 247.9237,166.6976 C247.5607,166.0496 247.3787,165.7266 247.0147,165.0786 C247.0147,165.0786 246.5087,164.9356 246.3267,164.6116 C241.0827,169.6846 235.6577,174.4356 230.5537,179.0036 C232.5997,176.5766 234.6057,173.3206 236.4687,170.5716 C240.5217,164.8906 243.7037,158.4196 245.8747,151.6646 C245.5107,151.0156 245.1477,150.3676 245.1087,149.5396 C245.2487,149.0336 245.2487,149.0336 245.0667,148.7096 C244.0567,148.4266 243.5507,148.2836 242.7207,148.3236 C241.1017,149.2316 238.9777,149.9986 236.6707,150.4416 C236.3467,150.6246 236.0227,150.8066 235.6987,150.9876 C212.9047,185.5006 183.2617,212.3616 147.5957,231.5276 C140.2867,235.2026 133.0207,239.7076 125.7537,244.2126 C119.2767,247.8486 119.4337,251.1666 126.7357,254.3086 C141.6597,260.4126 157.1937,265.3236 173.2957,268.2106 C181.8517,269.7976 189.5787,271.4226 197.9527,272.6846 C204.6687,274.0266 211.3047,273.7086 217.3967,272.4196 C218.5097,271.3696 219.1577,271.0066 220.1297,270.4616 C220.4537,270.2786 220.7787,270.0976 221.7487,269.5526 C221.3457,268.0736 221.5887,266.2326 221.6927,264.8976 C221.3287,264.2496 220.4597,263.4616 219.4497,263.1756 C216.5967,262.6466 213.9257,262.4426 211.5797,262.0566 C213.5617,261.7946 215.5447,261.5336 217.5287,261.2726 C218.3587,261.2316 219.0047,260.8686 219.5107,261.0116 C219.6537,260.5056 219.6147,259.6766 219.9367,259.4956 L219.5737,258.8476 C218.0567,258.4206 216.2157,258.1756 214.0517,258.1126 C218.5237,257.7326 222.4897,257.2106 226.9587,256.8306 C228.6197,256.7516 229.9147,256.0236 230.8467,254.6486 L230.9897,254.1426 C230.8077,253.8196 230.6257,253.4956 230.2617,252.8476 C229.7557,252.7056 229.7557,252.7056 229.2497,252.5646 C221.6817,254.2566 213.8927,254.7956 206.0227,253.6756 C200.5007,252.9406 194.9787,252.2086 189.4567,251.4746 C195.6887,249.6806 201.2347,247.4186 206.7407,244.3276 C220.5247,237.0176 232.5707,228.1276 243.5257,217.2926 L243.3447,216.9706 C258.7557,201.9316 269.8207,182.9446 276.0327,159.8666 C278.5887,150.7646 280.1357,141.3776 280.8527,132.0326 C280.3217,117.4246 277.8047,103.0776 272.6587,89.3556 C257.1807,47.3616 227.7697,19.9996 184.5667,6.7696 C141.0387,-6.2804 100.9157,-0.3704 63.3237,23.7106 C54.7987,29.7716 46.6407,36.4806 38.8447,43.8386 C10.5747,71.6306 -2.1213,105.1626 0.2877,145.1216 C3.2447,186.0526 20.5937,218.4806 52.3347,242.4026 C62.1407,249.2506 72.7997,253.0646 84.4507,253.3386 L78.3287,246.9796 L92.2657,249.8056 L89.9027,245.5956 L97.2887,243.5796 C92.5787,238.9816 87.4027,235.0716 81.1127,232.2136 C69.6877,226.2746 58.8307,218.3146 48.5417,208.3306 C48.8657,208.1486 49.1907,207.9666 49.1907,207.9666 C49.6577,207.2786 49.9407,206.2686 49.9017,205.4376 C29.1247,181.3236 18.4697,153.2316 18.7617,121.1246 C18.9737,111.6356 21.0257,102.3916 25.1007,93.7166 L24.8567,95.5566 L25.9477,97.5006 L27.6457,98.2506 L41.4257,73.4796 C40.2087,75.8656 38.8137,77.9286 37.9207,80.1326 C37.2097,82.6606 36.3177,84.8646 35.6077,87.3926 C35.1407,88.0816 34.7147,89.5976 34.7547,90.4276 C34.6517,91.7626 34.3677,92.7736 34.7717,94.2516 C40.1637,81.8546 46.7897,70.8946 55.2957,61.0096 C56.5517,59.4536 57.8077,57.8966 59.3877,56.1586 C66.2517,50.1776 73.1567,45.0226 80.5657,40.0146 C121.1757,12.9616 162.2247,12.4936 203.6367,36.9526" id="Fill-1" fill="#231F20" mask="url(#mask-2)"></path>
                </g>
            </g>
        </g>
    </g>
</svg>