<?xml version="1.0" encoding="UTF-8"?>
<svg width="372px" height="113px" viewBox="0 0 372 113" version="1.1" xmlns="http://www.w3.org/2000/svg" xmlns:xlink="http://www.w3.org/1999/xlink">
    <!-- Generator: Sketch 52.2 (67145) - http://www.bohemiancoding.com/sketch -->
    <title>Question</title>
    <desc>Created with Sketch.</desc>
    <g id="-" stroke="none" stroke-width="1" fill="none" fill-rule="evenodd">
        <g id="screen_1" transform="translate(-774.000000, -337.000000)" fill="#000000">
            <g id="Question" transform="translate(771.000000, 325.000000)">
                <g id="Kaj-storite?">
                    <path d="M15.6,55.06 C15.6866671,55.1466671 15.9033316,55.2766658 16.25,55.45 C21.1900247,50.1633069 23.7899987,47.3466684 24.05,47 C27.2566827,43.7066502 31.2433095,39.7200234 36.01,35.04 C37.9166762,33.1333238 39.0433316,32.0500013 39.39,31.79 C42.5100156,29.7966567 44.8066593,29.666658 46.28,31.4 C47.2333381,32.4400052 47.6666671,33.7183257 47.58,35.235 C47.4933329,36.7516742 46.8433394,38.1166606 45.63,39.33 L33.8,51.16 C32.7599948,52.3733394 29.8133576,55.579974 24.96,60.78 C24.2666632,61.5600039 24.1799974,62.383329 24.7,63.25 C28.5133524,69.7500325 31.7633199,75.3833095 34.45,80.15 C35.8366736,82.750013 38.696645,88.0366268 43.03,96.01 C43.1166671,96.2700013 44.0049915,98.0033173 45.695,101.21 C47.3850085,104.416683 48.7066619,106.799992 49.66,108.36 C50.526671,109.920008 51.0899987,111.913321 51.35,114.34 C51.5233342,116.246676 50.9600065,117.546663 49.66,118.24 C48.1866593,118.933337 46.7133407,118.716672 45.24,117.59 C43.8533264,116.636662 42.5533394,115.033345 41.34,112.78 C36.7466437,104.459958 33.5400091,98.6100169 31.72,95.23 C27.9066476,87.8632965 23.5300247,79.84671 18.59,71.18 C18.1566645,70.313329 17.7666684,69.88 17.42,69.88 C17.0733316,69.88 16.5966697,70.2699961 15.99,71.05 C14.8633277,72.4366736 14.3,74.0399909 14.3,75.86 C14.2133329,77.9400104 14.1050007,80.1716548 13.975,82.555 C13.8449994,84.9383453 13.7150007,87.4516535 13.585,90.095 C13.4549994,92.7383466 13.3466671,94.926658 13.26,96.66 L13.26,100.43 C13.26,102.163342 13.2166671,103.419996 13.13,104.2 C13.0433329,105.933342 12.4583387,107.276662 11.375,108.23 C10.2916613,109.183338 9.0566736,109.443335 7.67,109.01 C6.2833264,108.576664 5.22167035,107.796672 4.485,106.67 C3.74832965,105.543328 3.3366671,104.200008 3.25,102.64 C3.1633329,99.6066515 3.27166515,95.295028 3.575,89.705 C3.87833485,84.1149721 4.03,80.6266736 4.03,79.24 C4.2033342,74.2999753 5.0266593,62.3834278 6.5,43.49 C7.0200026,35.9499623 7.6699961,30.3600182 8.45,26.72 C8.7100013,25.5066606 9.38166125,24.5316704 10.465,23.795 C11.5483387,23.0583297 12.7399935,22.7333329 14.04,22.82 C14.906671,22.9066671 15.7516625,23.4483284 16.575,24.445 C17.3983374,25.4416716 17.8533329,26.5033277 17.94,27.63 C18.0266671,29.0166736 18.0050006,30.4466593 17.875,31.92 C17.7449994,33.3933407 17.5500013,35.1483232 17.29,37.185 C17.0299987,39.2216768 16.8566671,40.673329 16.77,41.54 C16.6833329,42.1466697 16.2933368,46.6532913 15.6,55.06 Z M89.96,102.38 C90.1333342,103.333338 90.0033355,104.286662 89.57,105.24 C89.1366645,106.193338 88.4650046,106.908331 87.555,107.385 C86.6449955,107.861669 85.6916716,107.991668 84.695,107.775 C83.6983283,107.558332 82.8966697,107.103337 82.29,106.41 C80.9033264,104.676658 79.9933355,102.596679 79.56,100.17 C79.0399974,97.3966528 77.6966775,90.8967178 75.53,80.67 C75.3566658,80.1499974 75.2050007,79.3483388 75.075,78.265 C74.9449994,77.1816612 74.7716678,76.1633381 74.555,75.21 C74.3383323,74.2566619 74.0566684,73.346671 73.71,72.48 C72.7566619,74.4733433 71.1966775,76.9866515 69.03,80.02 C66.8633225,83.0533485 65.5200026,85.0466619 65,86 C63.6133264,88.2533446 61.6850124,89.618331 59.215,90.095 C56.7449877,90.571669 54.6000091,90.0300078 52.78,88.47 C51.8266619,87.6899961 51.1333355,86.4766749 50.7,84.83 C49.7466619,81.1899818 49.9633264,76.7266931 51.35,71.44 C53.4300104,64.0732965 57.069974,57.7033602 62.27,52.33 C66.1700195,48.2566463 70.4599766,47.3033225 75.14,49.47 C77.4800117,50.5100052 78.7366658,52.9799805 78.91,56.88 C78.9966671,57.8333381 79.3216638,58.6566632 79.885,59.35 C80.4483361,60.0433368 80.9033316,60.7799961 81.25,61.56 C81.5966684,62.3400039 81.9433316,63.4449929 82.29,64.875 C82.6366684,66.3050071 82.8533329,67.1499987 82.94,67.41 C83.5466697,69.6633446 84.1749967,72.9783115 84.825,77.355 C85.4750033,81.7316886 86.0599974,84.9166567 86.58,86.91 C87.446671,90.2033498 88.0533316,93.2799857 88.4,96.14 C88.4866671,96.6600026 89.0066619,98.7399818 89.96,102.38 Z M61.36,74.04 C65.2600195,68.2333043 67.7299948,63.7266827 68.77,60.52 C67.1233251,61.8200065 65.5200078,63.8999857 63.96,66.76 C62.3999922,69.6200143 61.5333342,72.0466567 61.36,74.04 Z M104.78,68.32 C104.693333,69.0133368 104.714999,70.1183257 104.845,71.635 C104.975001,73.1516742 104.996667,74.2999961 104.91,75.08 C104.736666,76.2066723 104.606667,77.4849928 104.52,78.915 C104.433333,80.3450071 104.368334,81.6233277 104.325,82.75 C104.281666,83.8766723 104.195001,85.1333264 104.065,86.52 C103.934999,87.9066736 103.783334,89.1633277 103.61,90.29 C103.436666,91.2433381 103.155002,92.9333212 102.765,95.36 C102.374998,97.7866788 102.006668,99.6933264 101.66,101.08 C100.879996,104.633351 98.9733485,108.879975 95.94,113.82 C95.1599961,114.946672 93.8816755,116.419991 92.105,118.24 C90.3283244,120.060009 89.0933368,121.403329 88.4,122.27 C86.666658,124.610012 84.500013,125.216672 81.9,124.09 C80.6866606,123.656665 79.885002,122.811673 79.495,121.555 C79.1049981,120.298327 79.2566632,119.063339 79.95,117.85 C80.5566697,116.983329 81.2283297,116.116671 81.965,115.25 C82.7016704,114.383329 83.5683283,113.430005 84.565,112.39 C85.5616716,111.349995 86.2766645,110.52667 86.71,109.92 C88.7900104,107.579988 90.6533251,104.113356 92.3,99.52 C93.0800039,97.4399896 93.6866645,95.1433459 94.12,92.63 C94.5533355,90.1166541 94.8349994,87.9716755 94.965,86.195 C95.0950007,84.4183245 95.2466658,82.035015 95.42,79.045 C95.5933342,76.054985 95.7233329,73.8666736 95.81,72.48 C95.9833342,70.746658 96.0916664,68.8400104 96.135,66.76 C96.1783336,64.6799896 96.1783336,62.8383414 96.135,61.235 C96.0916664,59.6316587 96.07,57.7033446 96.07,55.45 L96.07,49.86 C96.07,47.7799896 96.5899948,46.0900065 97.63,44.79 C98.5833381,43.5766606 99.926658,43.1866645 101.66,43.62 C102.873339,43.8800013 103.78333,44.7899922 104.39,46.35 C104.650001,47.0433368 104.823333,47.8016626 104.91,48.625 C104.996667,49.4483374 105.061666,50.1416639 105.105,50.705 C105.148334,51.2683361 105.17,52.1133277 105.17,53.24 L105.17,55.84 C105.17,56.4466697 105.148334,58.244985 105.105,61.235 C105.061666,64.225015 104.953334,66.586658 104.78,68.32 Z M97.76,39.59 C95.3333212,39.2433316 93.7733368,38.1600091 93.08,36.34 C92.4733303,34.6933251 92.6683283,32.6783453 93.665,30.295 C94.6616716,27.9116547 95.8533264,26.3733368 97.24,25.68 C97.9333368,25.3333316 98.713329,25.16 99.58,25.16 C101.226675,25.2466671 102.461663,25.7666619 103.285,26.72 C104.108337,27.6733381 104.390001,28.9733251 104.13,30.62 C103.696664,33.3066801 102.743341,35.7766554 101.27,38.03 C100.489996,39.3300065 99.3200078,39.8500013 97.76,39.59 Z M149.89,51.81 C147.723322,53.8900104 146.423335,56.229987 145.99,58.83 C145.729999,60.2166736 146.033329,61.343329 146.9,62.21 C147.160001,62.4700013 147.896661,63.2283271 149.11,64.485 C150.323339,65.741673 151.276663,66.6733303 151.97,67.28 C155.436684,70.4000156 157.516663,73.8666476 158.21,77.68 C158.730003,79.9333446 158.275007,82.4899857 156.845,85.35 C155.414993,88.2100143 153.400013,90.2899935 150.8,91.59 C145.946642,94.0166788 141.613352,94.8833368 137.8,94.19 C137.279997,94.1033329 136.630004,94.06 135.85,94.06 L133.9,94.06 C133.119996,93.9733329 132.253338,93.496671 131.3,92.63 C130.346662,91.763329 129.783334,90.9400039 129.61,90.16 C129.436666,89.293329 129.631664,88.2966723 130.195,87.17 C130.758336,86.0433277 131.429996,85.3500013 132.21,85.09 C132.296667,85.09 133.726653,85.0033342 136.5,84.83 C137.10667,85.0033342 137.799996,85.09 138.58,85.09 C139.360004,85.09 140.009997,85.0466671 140.53,84.96 C141.050003,84.8733329 141.786662,84.7216677 142.74,84.505 C143.693338,84.2883322 144.386664,84.1366671 144.82,84.05 C146.120006,83.7899987 147.181663,83.1833381 148.005,82.23 C148.828337,81.2766619 149.066668,80.2800052 148.72,79.24 C148.286664,77.5933251 147.333341,76.1633394 145.86,74.95 C142.306649,72.0899857 139.620009,69.1433485 137.8,66.11 C136.153325,63.2499857 135.893328,59.6966879 137.02,55.45 C138.146672,51.7233147 139.923321,48.6900117 142.35,46.35 C146.336687,42.4499805 150.583311,41.0633277 155.09,42.19 C156.823342,42.6233355 158.448326,43.7716573 159.965,45.635 C161.481674,47.4983427 162.24,49.296658 162.24,51.03 C162.326667,52.5900078 161.720006,53.7816625 160.42,54.605 C159.119993,55.4283375 157.733341,55.4933368 156.26,54.8 C154.17999,53.8466619 152.83667,52.8933381 152.23,51.94 C151.62333,50.8999948 150.843338,50.8566619 149.89,51.81 Z M188.76,35.17 C191.533347,37.4233446 192.400005,39.5033238 191.36,41.41 C190.926664,42.1900039 190.016674,42.774998 188.63,43.165 C187.243326,43.555002 185.900006,43.5766684 184.6,43.23 C183.906663,43.0566658 182.931673,42.8400013 181.675,42.58 C180.418327,42.3199987 179.48667,42.1033342 178.88,41.93 C178.27333,41.7566658 177.861668,41.8216652 177.645,42.125 C177.428332,42.4283348 177.406666,42.8399974 177.58,43.36 C177.753334,43.9666697 177.84,44.5949968 177.84,45.245 C177.84,45.8950033 177.796667,46.6749955 177.71,47.585 C177.623333,48.4950046 177.58,49.1233316 177.58,49.47 C177.493333,50.5100052 177.428334,51.7233264 177.385,53.11 C177.341666,54.4966736 177.32,55.8833264 177.32,57.27 L177.32,60.91 C177.233333,62.2966736 177.211666,65.3733095 177.255,70.14 C177.298334,74.9066905 177.146668,77.9399935 176.8,79.24 C176.713333,79.9333368 176.734999,80.95166 176.865,82.295 C176.995001,83.63834 177.06,84.6133303 177.06,85.22 C176.886666,88.1666814 176.280005,90.2466606 175.24,91.46 C174.806664,91.8933355 174.525001,92.1966658 174.395,92.37 C174.264999,92.5433342 173.961669,92.8033316 173.485,93.15 C173.008331,93.4966684 172.640001,93.6266671 172.38,93.54 C172.119999,93.4533329 171.68667,93.41 171.08,93.41 C169.346658,92.8899974 168.306668,91.5466775 167.96,89.38 C167.613332,87.1266554 167.483333,85.4366723 167.57,84.31 C167.57,83.9633316 167.634999,82.2950149 167.765,79.305 C167.895001,76.314985 167.96,74.0400078 167.96,72.48 C167.96,69.1866502 168.003333,66.4133446 168.09,64.16 C168.09,63.8999987 168.133333,59.0900468 168.22,49.73 C168.306667,45.5699792 168.35,42.623342 168.35,40.89 C168.35,40.6299987 168.285001,40.4133342 168.155,40.24 C168.024999,40.0666658 167.916667,39.9583335 167.83,39.915 C167.743333,39.8716664 167.526668,39.85 167.18,39.85 L166.53,39.85 C165.576662,39.6766658 163.366684,39.6333329 159.9,39.72 C156.433316,39.8066671 154.223338,39.8066671 153.27,39.72 C152.143328,39.72 151.125005,39.2433381 150.215,38.29 C149.304995,37.3366619 148.806667,36.2533394 148.72,35.04 C148.633333,33.9133277 148.936663,32.8733381 149.63,31.92 C150.323337,30.9666619 151.233328,30.4033342 152.36,30.23 C155.566683,29.6233303 159.033315,29.4066658 162.76,29.58 C165.620014,29.7533342 167.309997,29.601669 167.83,29.125 C168.350003,28.648331 168.653333,26.9800143 168.74,24.12 C168.826667,23.4266632 168.87,22.646671 168.87,21.78 C168.87,20.913329 168.891666,20.046671 168.935,19.18 C168.978334,18.313329 169,17.5333368 169,16.84 C169.173334,14.0666528 170.516654,12.5933342 173.03,12.42 C173.983338,12.42 174.914995,12.8099961 175.825,13.59 C176.735005,14.3700039 177.276666,15.3233277 177.45,16.45 C177.796668,18.9633459 177.883334,20.8699935 177.71,22.17 C177.623333,23.5566736 177.666666,26.0699818 177.84,29.71 C177.926667,30.9233394 178.576661,31.6599987 179.79,31.92 C184.036688,32.7000039 187.026658,33.7833264 188.76,35.17 Z M208.78,53.5 C211.46668,54.8000065 213.48166,56.5549889 214.825,58.765 C216.16834,60.9750111 216.666668,63.5099857 216.32,66.37 C215.106661,76.770052 211.120034,85.3066333 204.36,91.98 C200.893316,95.446684 196.776691,96.5300065 192.01,95.23 C187.763312,94.1033277 185.033339,91.1566905 183.82,86.39 C183.299997,84.1366554 183.083333,82.3600065 183.17,81.06 C183.17,76.2066424 184.426654,70.9200286 186.94,65.2 C188.153339,62.2533186 189.453326,59.7833433 190.84,57.79 C191.100001,57.3566645 191.294999,56.6416717 191.425,55.645 C191.555001,54.6483284 191.663333,54.0200013 191.75,53.76 C192.183335,52.5466606 192.616665,51.8966671 193.05,51.81 C193.65667,51.5499987 194.566661,51.1383361 195.78,50.575 C196.993339,50.0116638 198.098328,49.5566684 199.095,49.21 C200.091672,48.8633316 201.066662,48.69 202.02,48.69 C203.926676,48.6033329 205.486661,49.5999896 206.7,51.68 C207.133336,52.4600039 207.826662,53.0666645 208.78,53.5 Z M206.83,65.72 C207.003334,64.5066606 206.396674,63.2933394 205.01,62.08 C203.623326,60.8666606 202.366672,60.3899987 201.24,60.65 C200.893332,60.7366671 200.546668,60.9533316 200.2,61.3 C195.953312,67.8000325 193.570003,73.9966372 193.05,79.89 C193.223334,81.7100091 193.31,82.6849993 193.31,82.815 C193.31,82.9450006 193.331666,83.1183322 193.375,83.335 C193.418334,83.5516677 193.461666,83.7249993 193.505,83.855 C193.548334,83.9850007 193.613333,84.1366658 193.7,84.31 C193.786667,84.4833342 193.873333,84.6349994 193.96,84.765 C194.046667,84.8950007 194.154999,85.0249994 194.285,85.155 C194.415001,85.2850007 194.609999,85.3933329 194.87,85.48 C196.170006,85.7400013 197.339995,85.3500052 198.38,84.31 C202.973356,79.4566424 205.789995,73.2600377 206.83,65.72 Z M258.44,57.27 C260.260009,59.7833459 260.13001,61.9499909 258.05,63.77 C257.269996,64.4633368 256.078341,64.7450007 254.475,64.615 C252.871659,64.4849994 251.680004,63.986671 250.9,63.12 C250.639999,62.9466658 249.426677,61.5166801 247.26,58.83 C246.566663,57.963329 245.960003,58.0499948 245.44,59.09 C244.83333,60.5633407 243.620009,62.9466502 241.8,66.24 C239.979991,69.5333498 238.723337,72.1333238 238.03,74.04 C237.683332,75.0800052 237.163337,76.2933264 236.47,77.68 C235.776663,79.0666736 235.148336,80.4099935 234.585,81.71 C234.021664,83.0100065 233.566668,84.2233277 233.22,85.35 C232.699997,87.3433433 231.443343,88.9466606 229.45,90.16 C227.803325,91.026671 226.135008,91.0916704 224.445,90.355 C222.754992,89.6183297 221.693335,88.3400091 221.26,86.52 C220.999999,85.3933277 220.805001,84.1150071 220.675,82.685 C220.544999,81.2549928 220.458334,80.1500039 220.415,79.37 C220.371666,78.5899961 220.328334,77.2466762 220.285,75.34 C220.241666,73.4333238 220.22,72.2633355 220.22,71.83 C220.22,70.4433264 220.306666,68.2766814 220.48,65.33 C220.48,63.7699922 221.043328,62.2750072 222.17,60.845 C223.296672,59.4149928 224.596659,59.0899961 226.07,59.87 C229.103348,61.3433407 230.533334,63.2499883 230.36,65.59 C230.36,65.6766671 230.446666,66.3699935 230.62,67.67 C231.313337,66.6299948 231.984997,65.5466723 232.635,64.42 C233.285003,63.2933277 234.021663,61.7983426 234.845,59.935 C235.668337,58.0716573 236.209999,56.9233355 236.47,56.49 C237.336671,54.6699909 238.896655,52.2866814 241.15,49.34 C242.363339,47.7799922 243.94499,46.9566671 245.895,46.87 C247.84501,46.7833329 249.599992,47.4333264 251.16,48.82 C253.500012,50.9000104 255.926654,53.7166489 258.44,57.27 Z M267.15,49.47 C268.276672,49.5566671 269.294995,49.8599974 270.205,50.38 C271.115005,50.9000026 271.808331,51.5499961 272.285,52.33 C272.761669,53.1100039 273,53.8899961 273,54.67 C272.739999,58.136684 272.566667,63.9866255 272.48,72.22 C272.393333,73.5200065 272.285001,75.9899818 272.155,79.63 C272.024999,83.2700182 271.96,86.0433238 271.96,87.95 C272.046667,89.4233407 272.003334,91.5899857 271.83,94.45 C271.743333,97.2233472 270.400013,98.7399987 267.8,99 C266.499993,99.0866671 265.330005,98.7833368 264.29,98.09 C263.249995,97.3966632 262.600001,96.4433394 262.34,95.23 C261.993332,94.7966645 261.884999,93.0850149 262.015,90.095 C262.145001,87.104985 262.21,85.3933355 262.21,84.96 L262.21,74.56 C262.21,73.1733264 262.253333,71.0283479 262.34,68.125 C262.426667,65.2216521 262.513333,62.6650111 262.6,60.455 C262.686667,58.2449889 262.859999,56.1000104 263.12,54.02 C263.206667,52.5466593 263.639996,51.3983374 264.42,50.575 C265.200004,49.7516625 266.109995,49.3833329 267.15,49.47 Z M267.02,41.28 C266.153329,41.28 265.286671,40.7600052 264.42,39.72 C263.553329,38.6799948 263.076667,37.5966723 262.99,36.47 C262.903333,34.5633238 263.379995,32.93834 264.42,31.595 C265.460005,30.25166 266.803325,29.58 268.45,29.58 C269.836674,29.58 270.919996,30.0566619 271.7,31.01 C272.480004,31.9633381 272.913333,33.3283244 273,35.105 C273.086667,36.8816755 272.566672,38.3333277 271.44,39.46 C270.313328,40.5866723 268.840009,41.1933329 267.02,41.28 Z M304.2,35.17 C306.973347,37.4233446 307.840005,39.5033238 306.8,41.41 C306.366664,42.1900039 305.456674,42.774998 304.07,43.165 C302.683326,43.555002 301.340006,43.5766684 300.04,43.23 C299.346663,43.0566658 298.371673,42.8400013 297.115,42.58 C295.858327,42.3199987 294.92667,42.1033342 294.32,41.93 C293.71333,41.7566658 293.301668,41.8216652 293.085,42.125 C292.868332,42.4283348 292.846666,42.8399974 293.02,43.36 C293.193334,43.9666697 293.28,44.5949968 293.28,45.245 C293.28,45.8950033 293.236667,46.6749955 293.15,47.585 C293.063333,48.4950046 293.02,49.1233316 293.02,49.47 C292.933333,50.5100052 292.868334,51.7233264 292.825,53.11 C292.781666,54.4966736 292.76,55.8833264 292.76,57.27 L292.76,60.91 C292.673333,62.2966736 292.651666,65.3733095 292.695,70.14 C292.738334,74.9066905 292.586668,77.9399935 292.24,79.24 C292.153333,79.9333368 292.174999,80.95166 292.305,82.295 C292.435001,83.63834 292.5,84.6133303 292.5,85.22 C292.326666,88.1666814 291.720005,90.2466606 290.68,91.46 C290.246664,91.8933355 289.965001,92.1966658 289.835,92.37 C289.704999,92.5433342 289.401669,92.8033316 288.925,93.15 C288.448331,93.4966684 288.080001,93.6266671 287.82,93.54 C287.559999,93.4533329 287.12667,93.41 286.52,93.41 C284.786658,92.8899974 283.746668,91.5466775 283.4,89.38 C283.053332,87.1266554 282.923333,85.4366723 283.01,84.31 C283.01,83.9633316 283.074999,82.2950149 283.205,79.305 C283.335001,76.314985 283.4,74.0400078 283.4,72.48 C283.4,69.1866502 283.443333,66.4133446 283.53,64.16 C283.53,63.8999987 283.573333,59.0900468 283.66,49.73 C283.746667,45.5699792 283.79,42.623342 283.79,40.89 C283.79,40.6299987 283.725001,40.4133342 283.595,40.24 C283.464999,40.0666658 283.356667,39.9583335 283.27,39.915 C283.183333,39.8716664 282.966668,39.85 282.62,39.85 L281.97,39.85 C281.016662,39.6766658 278.806684,39.6333329 275.34,39.72 C271.873316,39.8066671 269.663338,39.8066671 268.71,39.72 C267.583328,39.72 266.565005,39.2433381 265.655,38.29 C264.744995,37.3366619 264.246667,36.2533394 264.16,35.04 C264.073333,33.9133277 264.376663,32.8733381 265.07,31.92 C265.763337,30.9666619 266.673328,30.4033342 267.8,30.23 C271.006683,29.6233303 274.473315,29.4066658 278.2,29.58 C281.060014,29.7533342 282.749997,29.601669 283.27,29.125 C283.790003,28.648331 284.093333,26.9800143 284.18,24.12 C284.266667,23.4266632 284.31,22.646671 284.31,21.78 C284.31,20.913329 284.331666,20.046671 284.375,19.18 C284.418334,18.313329 284.44,17.5333368 284.44,16.84 C284.613334,14.0666528 285.956654,12.5933342 288.47,12.42 C289.423338,12.42 290.354995,12.8099961 291.265,13.59 C292.175005,14.3700039 292.716666,15.3233277 292.89,16.45 C293.236668,18.9633459 293.323334,20.8699935 293.15,22.17 C293.063333,23.5566736 293.106666,26.0699818 293.28,29.71 C293.366667,30.9233394 294.016661,31.6599987 295.23,31.92 C299.476688,32.7000039 302.466658,33.7833264 304.2,35.17 Z M311.48,78.46 C311.393333,78.46 311.220001,78.3950007 310.96,78.265 C310.699999,78.1349994 310.483334,78.0916664 310.31,78.135 C310.136666,78.1783335 310.006667,78.2866658 309.92,78.46 C309.659999,79.0666697 309.789997,79.7599961 310.31,80.54 C311.870008,82.7066775 314.166652,84.223329 317.2,85.09 C317.460001,85.1766671 317.936663,85.3066658 318.63,85.48 C319.323337,85.6533342 319.864998,85.7833329 320.255,85.87 C320.645002,85.9566671 321.078331,86.1733316 321.555,86.52 C322.031669,86.8666684 322.443332,87.2566645 322.79,87.69 C323.39667,88.556671 323.808332,89.5533277 324.025,90.68 C324.241668,91.8066723 324.176668,92.7599961 323.83,93.54 C322.789995,95.1866749 321.186678,95.8366684 319.02,95.49 C312.519968,94.623329 307.536684,92.1966866 304.07,88.21 C301.123319,84.6566489 299.736666,79.1533706 299.91,71.7 C299.91,71.2666645 299.974999,70.3566736 300.105,68.97 C300.235001,67.5833264 300.3,66.4350046 300.3,65.525 C300.3,64.6149955 300.213334,63.3366749 300.04,61.69 C299.866666,60.7366619 299.974998,59.826671 300.365,58.96 C300.755002,58.093329 301.31833,57.3566697 302.055,56.75 C302.79167,56.1433303 303.636662,55.7533342 304.59,55.58 C305.716672,55.2333316 306.626663,54.626671 307.32,53.76 C309.746679,50.8133186 313.386642,48.9933368 318.24,48.3 C320.753346,47.8666645 323.266654,48.6466567 325.78,50.64 C328.293346,52.6333433 329.896663,54.9733199 330.59,57.66 C331.456671,60.8666827 331.001676,64.203316 329.225,67.67 C327.448324,71.136684 324.891683,73.8883232 321.555,75.925 C318.218317,77.9616769 314.860017,78.8066684 311.48,78.46 Z M311.09,64.81 C310.48333,65.8500052 310.374998,66.6949968 310.765,67.345 C311.155002,67.9950032 311.999993,68.32 313.3,68.32 C314.513339,68.4066671 315.856659,67.8216729 317.33,66.565 C318.803341,65.3083271 319.886663,63.8566749 320.58,62.21 C321.18667,60.7366593 320.970005,59.5233381 319.93,58.57 C319.063329,57.7899961 317.850008,57.7033303 316.29,58.31 C315.596663,58.5700013 314.94667,58.9816638 314.34,59.545 C313.73333,60.1083361 313.300001,60.6066645 313.04,61.04 C312.779999,61.4733355 312.433335,62.1449955 312,63.055 C311.566665,63.9650046 311.263334,64.5499987 311.09,64.81 Z M374.01,32.31 C374.61667,34.7366788 374.92,37.1199883 374.92,39.46 C374.92,46.0466996 372.450025,53.3266268 367.51,61.3 C363.089978,67.9733667 358.713355,74.6466333 354.38,81.32 L351.26,87.82 C349.873326,90.2466788 348.096677,91.5899987 345.93,91.85 C341.509978,92.3700026 339.386666,91.6333433 339.56,89.64 C340.16667,82.9666333 344.174963,74.0400559 351.585,62.86 C358.995037,51.6799441 363.133329,42.8833654 364,36.47 C364.173334,35.1699935 363.913337,33.9783388 363.22,32.895 C362.526663,31.8116612 361.530006,31.27 360.23,31.27 C359.103328,31.27 357.673342,32.136658 355.94,33.87 C354.726661,35.5166749 352.77668,37.9866502 350.09,41.28 C349.48333,42.0600039 348.703338,44.4866463 347.75,48.56 C347.14333,51.3333472 345.453347,52.5900013 342.68,52.33 C339.039982,51.9833316 337.003335,50.2500156 336.57,47.13 C336.483333,46.4366632 336.44,45.7433368 336.44,45.05 C336.44,40.9766463 338.08665,36.9900195 341.38,33.09 C343.200009,30.9233225 346.449977,27.9766853 351.13,24.25 C353.990014,21.9966554 356.76332,20.9133329 359.45,21 C362.830017,21.1733342 365.906653,22.2566567 368.68,24.25 C371.453347,26.2433433 373.229996,28.9299831 374.01,32.31 Z M347.88,106.15 C348.313335,106.843337 348.53,107.536663 348.53,108.23 C348.53,109.530006 347.836674,110.786661 346.45,112 C345.063326,113.213339 343.720006,113.82 342.42,113.82 C339.559986,113.82 337.393341,112.000018 335.92,108.36 C334.966662,106.019988 335.183326,104.286672 336.57,103.16 C337.610005,102.379996 339.646651,102.29333 342.68,102.9 C345.193346,103.420003 346.926662,104.503325 347.88,106.15 Z"></path>
                </g>
            </g>
        </g>
    </g>
</svg>