<?xml version="1.0" encoding="UTF-8"?>
<svg width="483px" height="153px" viewBox="0 0 483 153" version="1.1" xmlns="http://www.w3.org/2000/svg" xmlns:xlink="http://www.w3.org/1999/xlink">
    <!-- Generator: Sketch 52.2 (67145) - http://www.bohemiancoding.com/sketch -->
    <title>RIGHT1</title>
    <desc>Created with Sketch.</desc>
    <g id="-" stroke="none" stroke-width="1" fill="none" fill-rule="evenodd">
        <g id="screen_1" transform="translate(-1294.000000, -516.000000)">
            <g id="RIGHT1" transform="translate(1295.000000, 517.000000)">
                <g id="RIGHT">
                    <g id="button">
                        <g id="Group-5">
                            <path d="M16.2246,15.5537 L21.2106,122.7847 L21.6276,137.0107 L16.2246,140.5017 L25.3316,143.5097 L44.6286,144.8487 L71.7106,140.5017 L102.0966,140.5017 L130.4996,138.9037 L153.5426,135.0247 L178.7196,135.0247 L213.0686,132.7777 L227.6006,132.2557 L249.3986,133.6187 L265.9116,134.2797 L278.4626,135.0247 L469.8996,131.4667 L470.3636,116.7737 L464.2156,101.2517 L462.3296,67.7897 L465.9296,36.9007 L468.5286,21.9997 L469.8996,3.4907 L417.4836,9.6547 L391.6006,14.4207 C391.6006,14.4207 304.2246,24.9587 175.4166,14.2247 L16.2246,15.5537 Z" id="Fill-1" fill="#EC1D24"></path>
                            <path d="M6.9961,105.4374 C7.6281,102.8164 7.6281,98.6964 7.6281,96.4494 C7.6281,92.7044 8.2601,90.4574 9.5221,85.5874 C9.5221,84.8384 10.1541,82.2174 11.4171,79.9704 C12.0491,77.3484 12.6811,73.9784 13.3111,72.4804 C15.8381,63.4914 17.1001,51.5064 16.4701,33.1554 C16.4701,17.0514 16.4701,17.4254 17.7321,34.2794 C18.3641,39.1474 18.9951,43.2674 18.9951,43.2674 C18.9951,43.6424 19.6271,50.0084 19.6271,57.8744 C19.6271,65.3644 20.2591,71.7314 20.2591,72.1054 C20.2591,72.1054 20.8901,85.5874 20.8901,101.6924 C20.8901,117.7964 21.5211,131.2794 21.5211,132.0284 C22.7841,136.1484 21.5211,138.3954 18.9951,139.5184 C17.1001,139.8934 17.1001,139.8934 18.3641,139.8934 C18.9951,139.8934 20.8901,139.5184 22.1531,139.1444 L24.0481,138.0204 L24.6791,133.9014 C24.6791,131.2794 24.6791,129.7814 24.0481,129.0324 C23.4161,127.9094 22.7841,122.6664 22.7841,103.5654 C22.7841,89.3334 22.7841,76.9744 22.1531,73.6034 C22.1531,70.6074 21.5211,65.7384 21.5211,63.1174 C21.5211,58.2484 20.2591,41.0204 19.6271,29.4104 C19.6271,26.7894 18.9951,23.0434 18.9951,20.7964 L18.3641,17.4254 L21.5211,17.0514 L38.5721,17.0514 C54.3601,16.6764 92.2521,16.6764 100.4611,17.0514 L116.2491,17.0514 C121.3021,16.6764 127.6161,16.3024 130.1421,16.3024 C132.6691,16.3024 135.1941,15.9274 135.8261,15.9274 C136.4581,15.5534 159.8241,15.1784 168.6651,15.5534 C173.0861,15.9274 183.1901,16.3024 190.7681,16.3024 C197.7151,16.3024 204.0301,16.6764 205.2931,16.6764 C206.5571,16.6764 209.7141,17.0514 212.8711,17.0514 C218.5551,17.4254 229.9231,17.8004 231.1851,18.1744 C231.8171,18.1744 231.8171,18.1744 231.8171,17.8004 C231.1851,17.4254 231.1851,17.4254 232.4481,17.8004 C232.4481,18.1744 236.2371,18.5494 240.6581,18.5494 C245.0791,18.5494 250.7631,18.9234 253.9201,18.9234 C257.0781,18.9234 262.7621,19.2984 267.1821,19.2984 C271.6021,19.2984 286.1281,19.6724 298.7581,19.6724 C311.3891,20.0474 322.7561,20.0474 324.0181,20.0474 C327.1761,20.0474 344.2271,19.2984 346.7531,19.2984 C351.1741,18.9234 360.6461,18.5494 366.9621,17.8004 C370.7511,17.8004 378.9611,17.0514 385.9071,16.3024 C392.2231,15.1784 401.0631,14.4294 404.8521,14.0554 C412.4311,13.3054 416.2211,12.9314 425.0611,12.1824 C428.8501,11.4334 433.2711,11.0584 435.7971,11.0584 C438.3231,10.6844 442.7441,10.3094 446.5331,9.9354 C449.6901,9.5604 454.1111,9.1864 456.0061,9.1864 C458.5321,9.1864 461.0581,9.1864 462.9521,8.8114 C466.1101,8.4374 466.1101,8.4374 467.3731,12.5564 C468.6361,17.0514 469.2671,20.7964 468.0051,23.7924 C466.7421,26.7894 466.7421,27.9124 466.1101,35.7774 C464.2161,47.3874 464.2161,51.8814 462.9521,56.7494 C462.3211,60.4954 462.3211,64.9894 462.3211,72.8544 C462.9521,85.2134 463.5841,92.7044 466.7421,100.9434 C467.3731,103.5654 468.6361,107.3104 469.2671,108.8084 C469.2671,109.9314 469.8991,112.1784 469.8991,113.3024 C470.5311,114.4254 470.5311,117.4214 469.8991,120.7924 C469.2911,125.8424 469.2681,126.3754 468.1391,126.4094 C468.2821,126.7784 468.2951,127.1674 468.1781,127.5414 C469.2541,127.5804 469.2671,127.9664 469.2671,129.0324 C468.6361,129.7814 468.6361,130.5304 468.0051,130.5304 C456.6381,133.1524 456.0061,133.5264 448.4281,133.5264 C434.5341,134.2754 406.1161,134.6504 401.6951,134.2754 C397.2741,133.9014 388.4331,133.5264 368.2251,133.1524 C363.1731,133.1524 354.9631,132.7774 349.2791,132.7774 C337.2801,132.0284 318.3351,132.4034 304.4411,133.1524 C288.6531,133.9014 257.7091,133.5264 229.9231,132.4034 L219.1861,132.4034 C218.5551,132.4034 214.7661,132.4034 209.7141,132.7774 C205.2931,132.7774 196.4521,133.1524 190.1371,133.5264 C183.1901,133.9014 173.7181,134.6504 169.2971,134.6504 C156.6661,135.0244 153.5091,135.0244 145.9311,135.7734 C142.7721,136.5224 135.8261,136.8974 131.4051,137.2714 C126.9851,137.6464 121.9331,138.0204 120.0381,138.3954 C109.9341,139.1444 101.0931,139.8934 95.4091,140.2674 C85.9361,140.6424 78.9891,141.3914 75.8321,141.7654 C70.7801,142.1404 66.3591,142.1404 42.9931,142.5144 L26.5731,142.8894 L27.2051,141.7654 C27.8371,141.0164 27.2051,141.0164 26.5731,141.7654 C25.9421,142.1404 25.3101,142.5144 25.3101,142.5144 C25.3101,142.5144 24.6791,142.5144 24.0481,142.8894 C22.7841,143.6384 21.5211,143.6384 18.3641,143.2634 C15.2061,142.8894 12.6811,141.7654 11.4171,140.2674 C10.7851,139.5184 10.1541,139.1444 9.5221,139.1444 C9.5221,139.1444 8.8921,138.3954 8.2601,137.2714 C5.7331,135.0244 5.1011,126.7854 6.3651,112.1784 C6.3651,111.0554 6.9961,107.6844 6.9961,105.4374 Z M8.8921,17.0514 L12.6811,17.0514 C13.9431,17.0514 13.9431,17.4254 14.5751,22.2944 C15.2061,31.2834 15.2061,48.1364 14.5751,53.7534 C14.5751,59.7464 12.6811,67.9864 11.4171,73.2294 C10.7851,74.7274 10.1541,77.7234 9.5221,79.5954 C9.5221,81.0934 8.8921,82.9664 8.2601,82.9664 C8.2601,83.3404 8.2601,81.0934 7.6281,45.5144 C7.6281,31.2834 6.9961,19.2984 6.9961,18.9234 C6.9961,17.4254 6.9961,17.4254 8.8921,17.0514 Z M28.4681,15.1784 C30.3621,15.1784 34.7831,14.8044 37.9411,14.4294 C41.7301,14.0554 48.6771,13.6804 54.9921,13.3054 C60.6761,12.5564 68.2541,12.1824 72.6751,11.8074 C80.2531,11.0584 111.8281,11.0584 145.2991,11.4334 C162.3501,11.8074 166.7701,11.8074 157.2981,12.1824 C147.8251,12.5564 139.6151,12.9314 135.1941,13.3054 C132.6691,13.6804 129.5111,14.0554 127.6161,14.0554 L118.7751,14.0554 C109.3031,14.8044 101.7251,15.1784 84.0421,15.1784 C73.9371,15.1784 56.8871,15.1784 46.7821,15.5534 L25.9421,15.5534 C24.6791,15.1784 25.3101,15.1784 28.4681,15.1784 Z M295.6001,10.6844 C313.2831,10.6844 325.9131,10.6844 337.2801,9.9354 C342.9641,9.5604 359.3841,9.5604 363.8051,9.9354 C370.7511,10.6844 373.2771,11.0584 395.3801,11.0584 C407.3791,11.4334 417.4831,11.8074 417.4831,11.8074 C417.4831,11.8074 415.5891,12.1824 412.4311,12.1824 C397.9061,13.6804 388.4331,14.8044 377.6971,15.9274 C374.5401,16.3024 368.8561,17.0514 364.4351,17.0514 C360.0161,17.4254 356.2251,17.8004 354.9631,17.8004 C354.3311,17.8004 349.9111,18.1744 345.4901,18.1744 C332.2281,18.9234 317.7031,18.9234 291.1801,18.5494 C259.6031,18.1744 234.9751,17.4254 226.7651,17.0514 C218.5551,16.3024 199.6091,15.5534 185.7161,15.1784 C177.5071,15.1784 169.2971,14.8044 166.7701,14.8044 C161.0871,14.4294 145.2991,14.4294 136.4581,14.8044 C132.0371,15.1784 125.0911,15.5534 120.6701,15.9274 C116.2491,15.9274 110.5651,16.3024 108.6711,16.3024 L104.8821,16.3024 C104.8821,15.9274 107.4081,15.9274 111.8281,15.5534 C125.7221,15.1784 134.5631,14.8044 137.0891,14.4294 C137.7211,14.0554 144.0361,13.6804 150.9821,13.3054 C157.2981,13.3054 165.5081,12.9314 169.9291,12.5564 C192.6631,11.8074 265.2871,10.6844 295.6001,10.6844 Z M451.5851,8.4374 C451.5851,8.4374 450.9541,8.8114 449.6901,8.8114 L449.0591,8.8114 C449.6901,8.4374 452.2171,8.0624 451.5851,8.4374 Z M461.0581,7.6884 C459.7951,7.6884 457.9001,8.0624 456.0061,8.0624 C450.9541,8.4374 454.1111,7.6884 459.1631,7.3134 C461.0581,7.3134 461.6891,7.3134 461.0581,7.6884 Z M370.7511,9.1864 C380.2241,9.1864 400.4331,8.4374 407.3791,7.6884 C409.2731,7.6884 414.9571,7.3134 419.3781,6.9394 C423.1671,6.5644 428.8501,6.1904 430.7451,5.8154 C437.6911,5.4414 455.3741,5.0664 459.1631,5.8154 L461.6891,6.1904 L457.2681,6.5644 C454.7431,6.9394 447.1651,7.6884 440.8501,8.8114 C430.7451,10.3094 428.2191,10.6844 420.6411,10.6844 L410.5371,10.6844 C410.5371,10.6844 403.5901,10.3094 394.7491,10.3094 C378.3291,10.3094 368.2251,9.9354 367.5941,9.5604 C367.5941,9.1864 368.8561,9.1864 370.7511,9.1864 Z M468.6361,8.4374 L468.6361,9.1864 C468.0051,9.1864 467.3731,9.1864 467.3731,8.8114 C467.3731,8.0624 468.0051,8.0624 468.6361,8.4374 Z M469.8991,6.5644 C470.5311,6.1904 471.1621,6.5644 470.5311,7.3134 C470.5311,8.0624 469.8991,8.4374 469.2671,8.4374 C468.6361,8.4374 468.6361,6.9394 469.8991,6.5644 Z M469.2671,15.1784 C469.2671,12.5564 469.2671,11.0584 469.8991,10.3094 C470.5311,9.1864 470.5311,9.1864 470.5311,11.0584 L470.5311,16.3024 L469.8991,19.2984 L469.2671,15.1784 Z M471.7941,53.7534 C473.0571,64.2404 473.0571,73.6034 472.4261,87.8344 C472.4261,96.0754 471.7941,104.6884 471.7941,106.1864 C471.7941,108.0594 471.1621,109.5574 471.1621,109.5574 C471.1621,109.9314 470.5311,109.5574 470.5311,109.5574 C470.5311,108.8084 468.6361,100.5694 467.3731,97.9474 C464.8471,91.2064 464.2161,83.7154 464.2161,70.9824 L464.2161,57.8744 C465.4781,52.6304 466.1101,50.7574 466.1101,47.7614 C466.7421,43.6424 468.0051,31.6574 468.6361,27.9124 C469.2671,24.9164 469.2671,24.9164 469.2671,29.7854 C469.8991,32.0324 469.8991,35.0284 469.8991,35.7774 C469.8991,36.1514 470.5311,38.7734 470.5311,41.3954 C471.1621,45.5144 471.1621,48.5104 471.7941,53.7534 Z M473.0571,13.6804 C473.0571,13.6804 473.6881,14.0554 473.6881,14.4294 C473.6881,14.8044 473.6881,17.8004 474.9511,20.7964 C476.2151,26.4144 476.2151,38.3984 474.9511,45.8894 C474.9511,48.1364 474.3201,51.8814 474.3201,54.8774 L473.6881,60.1214 L473.0571,52.2554 C473.0571,47.7614 472.4261,42.8934 472.4261,40.6454 C471.1621,33.5304 471.7941,14.0554 473.0571,13.6804 Z M476.8461,115.1744 C476.8461,122.6664 476.8461,129.0324 477.4771,129.7814 C477.4771,130.1564 478.1091,131.6544 478.1091,132.7774 C478.7401,134.6504 478.7401,135.0244 477.4771,135.0244 C476.2151,135.0244 476.2151,134.6504 476.2151,134.2754 C476.2151,133.5264 475.5831,133.5264 474.9511,133.5264 C473.6881,133.5264 473.6881,133.1524 473.6881,131.2794 C474.3201,130.1564 474.3201,128.6584 474.9511,128.2834 C475.5831,127.9094 475.5831,127.9094 474.9511,127.5344 C473.6881,127.1604 472.4261,114.8004 473.0571,108.8084 C473.6881,101.6924 473.6881,90.8314 473.6881,84.4644 C473.6881,81.0934 474.3201,78.0974 474.3201,78.4724 C475.5831,78.8464 476.8461,99.4454 476.8461,115.1744 Z M472.4261,132.7774 C471.7941,132.7774 471.7941,132.4034 471.7941,132.0284 L472.4261,132.0284 L473.0571,132.4034 L472.4261,132.7774 Z M471.1621,126.7854 L471.1621,124.5384 C471.7941,121.9164 472.4261,122.2914 472.4261,125.2874 C472.4261,126.7854 472.4261,127.1604 471.1621,126.7854 Z M471.7941,127.9094 C471.7941,127.9094 472.4261,127.9094 472.4261,128.2834 C472.4261,128.6584 471.7941,129.0324 471.7941,129.0324 C471.1621,129.0324 471.1621,129.0324 471.1621,128.6584 C471.1621,127.9094 471.1621,127.9094 471.7941,127.9094 Z M470.5311,130.9054 C470.5311,130.9054 471.1621,130.5304 471.7941,130.5304 C473.0571,130.1564 473.0571,130.1564 472.4261,130.9054 C471.1621,131.6544 469.8991,131.6544 470.5311,130.9054 Z M468.0051,134.6504 C464.2161,135.0244 461.6891,135.3994 452.8491,135.3994 C447.7961,135.3994 440.8501,135.7734 437.0601,135.7734 C433.9021,136.1484 401.0631,136.1484 365.0671,136.1484 L290.5481,136.1484 C285.4961,136.5224 277.2861,136.8974 273.4971,136.8974 C263.3921,137.2714 254.5521,137.6464 247.6041,138.0204 C245.0791,138.3954 238.7641,138.7694 233.7121,139.1444 C229.2911,139.5184 223.6071,139.8934 222.3441,139.8934 C217.2921,140.6424 207.8191,141.0164 197.0841,141.7654 L185.0851,141.7654 C175.6121,141.7654 163.6131,141.0164 159.1921,141.0164 C149.0881,140.2674 142.7721,139.8934 128.8801,139.8934 L114.9861,139.8934 C116.2491,139.5184 123.8271,138.7694 133.3001,138.0204 C138.9831,137.6464 144.0361,137.2714 144.6681,137.2714 C144.6681,137.2714 146.5621,136.8974 147.8251,136.8974 C149.0881,136.8974 150.9821,136.5224 152.2461,136.5224 C153.5091,136.1484 156.6661,136.1484 159.1921,136.1484 C171.8221,135.7734 182.5581,135.3994 192.0311,134.6504 C196.4521,134.2754 195.1881,134.2754 209.7141,133.9014 C222.3441,133.5264 235.6061,133.5264 255.8141,134.2754 C269.7081,134.6504 286.7591,134.6504 300.6521,134.2754 C322.1241,133.5264 336.0171,133.1524 347.3851,133.9014 C353.0681,133.9014 361.9101,134.2754 367.5941,134.2754 C387.8021,134.6504 394.1171,135.0244 402.3271,135.3994 L416.8511,135.3994 C420.0101,135.3994 426.9561,135.0244 432.6401,135.0244 C447.7961,135.0244 456.6381,134.6504 462.3211,133.1524 C466.7421,132.0284 467.3731,132.0284 467.3731,132.7774 C467.3731,133.1524 467.3731,133.5264 468.6361,133.9014 L469.8991,134.2754 L468.0051,134.6504 Z M193.9261,142.8894 C193.9261,142.8894 190.7681,143.2634 187.6101,143.6384 C184.4531,144.0124 180.6641,144.3874 179.4011,144.7624 C178.1381,145.1364 174.3491,145.5104 171.1911,145.5104 C168.0331,145.8854 164.8761,146.2594 163.6131,146.2594 L161.0871,146.2594 C161.0871,146.2594 158.5601,145.8854 155.4031,145.8854 C152.8771,145.8854 149.0881,145.5104 147.8251,145.1364 C143.4041,144.3874 135.8261,143.6384 132.0371,143.2634 C130.1421,143.2634 127.6161,142.8894 126.3531,142.5144 C124.4591,142.1404 122.5641,141.7654 120.6701,141.7654 C119.4061,141.7654 116.8811,141.7654 115.6171,141.3914 L113.0921,141.0164 L118.1431,140.6424 C130.1421,140.2674 146.5621,140.6424 162.3501,141.7654 C164.2441,141.7654 168.0331,142.1404 171.1911,142.5144 L185.7161,142.5144 C190.7681,142.5144 194.5581,142.5144 193.9261,142.8894 Z M57.5171,144.3874 C57.5171,144.7624 55.6231,145.1364 53.7281,145.1364 C50.5711,145.1364 46.1501,145.5104 45.5191,146.2594 C44.8881,146.2594 44.2561,146.6344 43.6251,146.6344 C42.3611,146.6344 40.4671,146.6344 38.5721,147.0094 C36.6781,147.3834 32.8891,147.7584 30.9941,147.7584 C27.2051,148.1324 27.2051,147.7584 24.6791,147.0094 C22.7841,146.2594 21.5211,145.8854 21.5211,145.8854 C20.8901,145.8854 20.2591,145.5104 18.9951,145.1364 L17.7321,144.3874 L20.8901,144.0124 C22.7841,144.0124 27.2051,143.6384 30.3621,143.6384 C36.6781,143.2634 37.3091,143.2634 36.6781,144.0124 C36.6781,144.7624 37.9411,144.7624 50.5711,144.3874 C56.2551,144.0124 58.1491,144.0124 57.5171,144.3874 Z M3.8391,118.5454 C3.2071,118.5454 3.2071,110.6804 3.8391,110.6804 C3.8391,110.3064 4.4711,112.1784 4.4711,114.4254 C4.4711,116.6724 3.8391,118.5454 3.8391,118.5454 Z M3.2071,130.9054 L3.2071,130.1564 L3.2071,129.7814 C3.2071,129.7814 3.8391,129.7814 3.8391,130.1564 C3.8391,130.5304 3.8391,130.9054 3.2071,130.9054 Z M3.2071,17.8004 L5.1011,17.4254 L5.7331,22.2944 C5.7331,24.5414 6.3651,32.4064 5.7331,39.1474 C5.7331,45.8894 5.7331,58.9974 6.3651,68.7354 C6.9961,85.5874 6.3651,96.8244 4.4711,100.1944 C4.4711,101.3184 3.8391,103.1904 3.2071,104.6884 C3.2071,106.1864 2.5761,108.8084 2.5761,110.3064 C1.9441,111.8044 1.3121,117.7964 1.3121,123.7894 L1.3121,134.2754 L4.4711,138.0204 C6.3651,139.8934 8.2601,141.7654 8.2601,141.7654 C8.8921,142.1404 9.5221,142.5144 10.1541,142.5144 C10.7851,142.8894 13.3111,144.0124 15.8381,145.1364 C18.3641,146.2594 20.8901,147.3834 20.8901,147.3834 C21.5211,147.3834 22.1531,147.3834 22.7841,147.7584 C23.4161,148.1324 22.7841,148.5074 21.5211,148.5074 L19.6271,148.5074 L18.3641,148.5074 C17.7321,148.5074 17.7321,148.8814 17.7321,149.2564 C17.7321,149.6304 17.7321,150.0054 19.6271,149.6304 C20.8901,149.6304 23.4161,149.2564 25.3101,149.2564 C32.2581,148.8814 42.3611,147.7584 48.6771,146.6344 C50.5711,145.8854 53.0981,145.5104 54.3601,145.5104 C55.6231,145.5104 58.1491,145.5104 59.4121,144.7624 C61.3081,144.3874 63.2011,144.0124 63.8331,144.0124 C65.0971,144.0124 66.9911,144.0124 68.8861,143.6384 C70.7801,143.2634 73.9371,142.8894 77.0951,142.8894 C84.6731,142.5144 90.3571,142.5144 93.5151,142.1404 C103.6191,141.3914 109.9341,141.3914 114.3541,142.1404 C116.2491,142.5144 118.1431,142.5144 119.4061,142.5144 C120.6701,142.5144 123.8271,142.8894 126.9851,143.2634 C133.3001,144.3874 138.3521,144.7624 142.7721,145.5104 C144.6681,145.5104 147.1931,145.8854 148.4571,145.8854 C152.8771,147.0094 172.4541,147.0094 177.5071,145.8854 C184.4531,144.3874 211.6081,141.7654 229.9231,140.6424 C234.3431,140.6424 240.6581,140.2674 245.0791,139.5184 C262.7621,138.0204 285.4961,137.2714 348.0171,137.2714 C365.0671,137.2714 383.3811,137.2714 387.8021,137.6464 C399.1691,138.0204 436.4291,138.0204 444.0071,137.6464 C447.1651,137.2714 452.2171,136.8974 455.3741,136.5224 C464.2161,136.1484 475.5831,135.7734 477.4771,136.5224 C478.7401,136.8974 479.3721,136.8974 480.0041,136.1484 C480.6351,135.7734 480.6351,135.0244 479.3721,130.5304 C478.7401,126.0364 478.7401,123.7894 478.7401,115.9234 C479.3721,108.4334 478.7401,105.0634 478.1091,101.3184 C476.2151,91.9554 475.5831,76.5994 475.5831,59.3724 C476.2151,52.6304 476.2151,41.0204 476.2151,33.5304 C476.2151,20.4214 476.2151,18.9234 474.9511,15.1784 C473.0571,9.1864 472.4261,8.0624 474.3201,6.9394 C475.5831,5.8154 475.5831,5.4414 473.6881,5.0664 C473.0571,5.0664 472.4261,5.0664 473.0571,3.1944 C473.0571,1.6964 473.0571,0.5724 472.4261,0.5724 C471.7941,0.1984 470.5311,1.3214 469.2671,2.8194 C468.6361,4.6924 467.3731,5.4414 468.0051,4.3174 C468.0051,3.1944 466.7421,3.1944 466.1101,3.9434 C465.4781,4.6924 464.2161,4.6924 452.2171,4.6924 C442.1121,4.3174 437.6911,4.6924 432.0081,5.0664 C427.5881,5.4414 421.9041,5.8154 419.3781,5.8154 C416.8511,6.1904 411.1681,6.5644 406.7471,6.9394 C395.3801,7.6884 374.5401,8.0624 358.1211,8.4374 C351.1741,8.4374 340.4381,8.4374 334.7551,8.8114 C326.5451,9.1864 308.2301,9.5604 251.3931,9.5604 C198.9781,9.5604 177.5071,9.9354 175.6121,9.9354 C173.0861,10.6844 136.4581,10.6844 99.8301,10.3094 C89.0941,10.3094 78.9891,10.3094 76.4641,10.6844 C72.0431,10.6844 56.2551,12.1824 46.1501,12.9314 C43.6251,12.9314 39.8361,13.3054 37.9411,13.3054 C35.4151,13.6804 30.9941,14.0554 27.8371,14.0554 C24.0481,14.4294 20.8901,14.8044 20.2591,14.8044 C18.9951,15.1784 18.9951,14.8044 18.9951,14.0554 C19.6271,13.3054 20.2591,12.5564 20.2591,12.1824 C21.5211,11.4334 20.8901,8.8114 19.6271,8.8114 C18.3641,8.4374 17.1001,10.3094 17.1001,14.0554 C17.1001,14.4294 16.4701,14.4294 16.4701,14.4294 C15.8381,14.4294 15.2061,14.4294 15.2061,14.8044 C14.5751,15.1784 12.6811,15.5534 10.7851,15.9274 C6.9961,16.3024 6.9961,16.3024 6.3651,15.5534 C5.7331,14.4294 6.3651,6.5644 6.9961,5.8154 L6.9961,5.4414 C5.1011,5.4414 4.4711,6.9394 4.4711,11.4334 L4.4711,16.3024 L2.5761,16.6764 C-0.5819,17.0514 0.0501,17.8004 3.2071,17.8004 Z" id="Stroke-3" stroke="#231F20" stroke-width="3"></path>
                        </g>
                    </g>
                    <path d="M128.272,73.96 C128.952003,74.7760041 129.178668,75.9319925 128.952,77.428 C128.815999,78.2440041 128.181339,81.847968 127.048,88.24 C125.869327,94.9040333 125.212001,98.7573281 125.076,99.8 C124.849332,101.794677 124.554668,103.81199 124.192,105.852 C124.010666,106.668004 123.670669,107.279998 123.172,107.688 C122.673331,108.096002 122.084003,108.254667 121.404,108.164 C119.681325,107.891999 118.910666,106.872009 119.092,105.104 C119.137334,104.423997 119.250666,103.44934 119.432,102.18 L119.84,99.324 C119.930667,98.2813281 120.168665,96.7626766 120.554,94.768 C120.939335,92.7733234 121.177333,91.3000048 121.268,90.348 C121.358667,89.8493308 121.449333,89.3166695 121.54,88.75 C121.630667,88.1833305 121.732666,87.6733356 121.846,87.22 C121.959334,86.7666644 122.083999,86.2226698 122.22,85.588 C122.356001,84.9533302 122.469333,84.4093356 122.56,83.956 L122.628,83.072 C121.267993,84.7946753 120.520001,85.7239993 120.384,85.86 C119.295995,87.0840061 118.457336,87.899998 117.868,88.308 C116.46266,89.1693376 115.12534,89.1920041 113.856,88.376 C112.722661,87.6959966 112.156,86.5400082 112.156,84.908 C112.156,81.4626494 113.153323,77.7453533 115.148,73.756 C116.55334,70.8546522 118.139991,68.5880082 119.908,66.956 C121.540008,65.414659 123.126659,64.6666664 124.668,64.712 C125.393337,64.712 126.050664,64.9273312 126.64,65.358 C127.229336,65.7886688 127.659999,66.366663 127.932,67.092 C128.385336,68.3613397 128.521334,69.4946617 128.34,70.492 C128.249333,71.0813363 128.158667,71.4213329 128.068,71.512 C127.841332,71.6933342 127.682667,71.8633325 127.592,72.022 C127.501333,72.1806675 127.433334,72.3053329 127.388,72.396 C127.342666,72.4866671 127.365333,72.6226658 127.456,72.804 C127.546667,72.9853342 127.614666,73.1099997 127.66,73.178 C127.705334,73.2460003 127.807333,73.381999 127.966,73.586 C128.124667,73.790001 128.226666,73.9146664 128.272,73.96 Z M121.608,76.204 C121.698667,76.1133329 121.891332,75.8753353 122.186,75.49 C122.480668,75.1046647 122.695999,74.8440007 122.832,74.708 C122.968001,74.5719993 123.171999,74.3566681 123.444,74.062 C123.716001,73.7673319 123.976665,73.518001 124.226,73.314 C124.475335,73.109999 124.735999,72.9173342 125.008,72.736 C124.917333,72.6453329 124.770001,72.4866678 124.566,72.26 C124.361999,72.0333322 124.203334,71.8633339 124.09,71.75 C123.976666,71.6366661 123.863334,71.4666678 123.75,71.24 C123.636666,71.0133322 123.534667,70.7640014 123.444,70.492 C120.814654,73.7106828 119.160003,76.815985 118.48,79.808 C119.296004,78.9466624 120.33866,77.745341 121.608,76.204 Z M150.916,71.172 C151.868005,72.4866732 151.800005,73.6199952 150.712,74.572 C150.303998,74.9346685 149.680671,75.0820003 148.842,75.014 C148.003329,74.9459997 147.380002,74.6853356 146.972,74.232 C146.835999,74.1413329 146.201339,73.3933404 145.068,71.988 C144.705332,71.5346644 144.388001,71.5799973 144.116,72.124 C143.798665,72.8946705 143.164005,74.1413247 142.212,75.864 C141.259995,77.5866753 140.602668,78.9466617 140.24,79.944 C140.058666,80.4880027 139.786668,81.122663 139.424,81.848 C139.061332,82.573337 138.732668,83.2759966 138.438,83.956 C138.143332,84.6360034 137.905334,85.2706637 137.724,85.86 C137.451999,86.9026719 136.794672,87.7413302 135.752,88.376 C134.890662,88.8293356 134.018004,88.8633353 133.134,88.478 C132.249996,88.0926647 131.694668,87.4240048 131.468,86.472 C131.331999,85.8826637 131.23,85.2140037 131.162,84.466 C131.094,83.7179963 131.048667,83.140002 131.026,82.732 C131.003333,82.323998 130.980667,81.6213383 130.958,80.624 C130.935333,79.6266617 130.924,79.0146678 130.924,78.788 C130.924,78.062663 130.969333,76.929341 131.06,75.388 C131.06,74.5719959 131.354664,73.7900037 131.944,73.042 C132.533336,72.2939963 133.213329,72.123998 133.984,72.532 C135.570675,73.3026705 136.318667,74.2999939 136.228,75.524 C136.228,75.5693336 136.273333,75.9319966 136.364,76.612 C136.726668,76.0679973 137.077998,75.5013363 137.418,74.912 C137.758002,74.3226637 138.143331,73.5406715 138.574,72.566 C139.004669,71.5913285 139.287999,70.9906678 139.424,70.764 C139.877336,69.8119952 140.693327,68.565341 141.872,67.024 C142.50667,66.2079959 143.333995,65.7773336 144.354,65.732 C145.374005,65.6866664 146.291996,66.026663 147.108,66.752 C148.332006,67.8400054 149.601327,69.313324 150.916,71.172 Z M158.736,82.256 C158.690666,82.256 158.600001,82.2220003 158.464,82.154 C158.327999,82.0859997 158.214667,82.0633332 158.124,82.086 C158.033333,82.1086668 157.965334,82.1653329 157.92,82.256 C157.783999,82.5733349 157.851999,82.935998 158.124,83.344 C158.940004,84.477339 160.141325,85.2706644 161.728,85.724 C161.864001,85.7693336 162.113332,85.8373329 162.476,85.928 C162.838668,86.0186671 163.121999,86.0866664 163.326,86.132 C163.530001,86.1773336 163.756665,86.2906658 164.006,86.472 C164.255335,86.6533342 164.470666,86.8573322 164.652,87.084 C164.969335,87.5373356 165.184666,88.0586637 165.298,88.648 C165.411334,89.2373363 165.377334,89.735998 165.196,90.144 C164.651997,91.0053376 163.813339,91.3453342 162.68,91.164 C159.279983,90.7106644 156.673342,89.4413438 154.86,87.356 C153.318659,85.497324 152.593333,82.6186862 152.684,78.72 C152.684,78.4933322 152.718,78.017337 152.786,77.292 C152.854,76.566663 152.888,75.9660024 152.888,75.49 C152.888,75.0139976 152.842667,74.3453376 152.752,73.484 C152.661333,72.9853308 152.717999,72.5093356 152.922,72.056 C153.126001,71.6026644 153.420665,71.2173349 153.806,70.9 C154.191335,70.5826651 154.633331,70.3786671 155.132,70.288 C155.721336,70.1066658 156.197332,69.7893356 156.56,69.336 C157.82934,67.794659 159.733321,66.8426685 162.272,66.48 C163.586673,66.2533322 164.901327,66.6613281 166.216,67.704 C167.530673,68.7466719 168.369332,69.9706596 168.732,71.376 C169.185336,73.0533417 168.947338,74.7986576 168.018,76.612 C167.088662,78.4253424 165.751342,79.8646613 164.006,80.93 C162.260658,81.9953387 160.504009,82.4373342 158.736,82.256 Z M158.532,75.116 C158.214665,75.6600027 158.157999,76.1019983 158.362,76.442 C158.566001,76.7820017 159.007997,76.952 159.688,76.952 C160.32267,76.9973336 161.025329,76.6913366 161.796,76.034 C162.566671,75.3766634 163.133332,74.6173376 163.496,73.756 C163.813335,72.9853295 163.700003,72.3506692 163.156,71.852 C162.702664,71.443998 162.068004,71.3986651 161.252,71.716 C160.889332,71.8520007 160.549335,72.0673319 160.232,72.362 C159.914665,72.6566681 159.688001,72.9173322 159.552,73.144 C159.415999,73.3706678 159.234668,73.7219976 159.008,74.198 C158.781332,74.6740024 158.622667,74.9799993 158.532,75.116 Z M178.116,68.316 C176.982661,69.4040054 176.302668,70.6279932 176.076,71.988 C175.939999,72.713337 176.098664,73.3026644 176.552,73.756 C176.688001,73.8920007 177.07333,74.2886634 177.708,74.946 C178.34267,75.6033366 178.841332,76.0906651 179.204,76.408 C181.017342,78.0400082 182.105332,79.8533234 182.468,81.848 C182.740001,83.0266726 182.502004,84.3639925 181.754,85.86 C181.005996,87.3560075 179.952007,88.4439966 178.592,89.124 C176.053321,90.3933397 173.786677,90.8466685 171.792,90.484 C171.519999,90.4386664 171.180002,90.416 170.772,90.416 L169.752,90.416 C169.343998,90.3706664 168.890669,90.1213356 168.392,89.668 C167.893331,89.2146644 167.598667,88.784002 167.508,88.376 C167.417333,87.9226644 167.519332,87.4013363 167.814,86.812 C168.108668,86.2226637 168.459998,85.8600007 168.868,85.724 C168.913334,85.724 169.661326,85.6786671 171.112,85.588 C171.429335,85.6786671 171.791998,85.724 172.2,85.724 C172.608002,85.724 172.947999,85.7013336 173.22,85.656 C173.492001,85.6106664 173.877331,85.5313339 174.376,85.418 C174.874669,85.3046661 175.237332,85.2253336 175.464,85.18 C176.144003,85.0439993 176.699331,84.7266692 177.13,84.228 C177.560669,83.7293308 177.685334,83.2080027 177.504,82.664 C177.277332,81.8026624 176.778671,81.0546698 176.008,80.42 C174.149324,78.9239925 172.744005,77.3826746 171.792,75.796 C170.930662,74.2999925 170.794664,72.4413444 171.384,70.22 C171.973336,68.2706569 172.90266,66.6840061 174.172,65.46 C176.257344,63.4199898 178.478655,62.6946637 180.836,63.284 C181.742671,63.5106678 182.592663,64.1113285 183.386,65.086 C184.179337,66.0606715 184.576,67.0013288 184.576,67.908 C184.621334,68.7240041 184.304003,69.3473312 183.624,69.778 C182.943997,70.2086688 182.218671,70.2426685 181.448,69.88 C180.359995,69.3813308 179.657335,68.8826692 179.34,68.384 C179.022665,67.8399973 178.614669,67.8173308 178.116,68.316 Z M198.448,59.612 C199.898674,60.7906726 200.352003,61.8786617 199.808,62.876 C199.581332,63.284002 199.105337,63.589999 198.38,63.794 C197.654663,63.998001 196.952003,64.0093342 196.272,63.828 C195.909332,63.7373329 195.399337,63.6240007 194.742,63.488 C194.084663,63.3519993 193.597335,63.2386671 193.28,63.148 C192.962665,63.0573329 192.747334,63.0913325 192.634,63.25 C192.520666,63.4086675 192.509333,63.6239986 192.6,63.896 C192.690667,64.2133349 192.736,64.5419983 192.736,64.882 C192.736,65.2220017 192.713334,65.6299976 192.668,66.106 C192.622666,66.5820024 192.6,66.9106658 192.6,67.092 C192.554666,67.6360027 192.520667,68.270663 192.498,68.996 C192.475333,69.721337 192.464,70.446663 192.464,71.172 L192.464,73.076 C192.418666,73.801337 192.407333,75.4106542 192.43,77.904 C192.452667,80.3973458 192.373334,81.9839966 192.192,82.664 C192.146666,83.0266685 192.158,83.5593298 192.226,84.262 C192.294,84.9646702 192.328,85.4746651 192.328,85.792 C192.237333,87.333341 191.920003,88.4213302 191.376,89.056 C191.149332,89.2826678 191.002,89.4413329 190.934,89.532 C190.866,89.6226671 190.707335,89.7586658 190.458,89.94 C190.208665,90.1213342 190.016001,90.1893336 189.88,90.144 C189.743999,90.0986664 189.517335,90.076 189.2,90.076 C188.293329,89.8039986 187.749334,89.101339 187.568,87.968 C187.386666,86.7893274 187.318666,85.9053363 187.364,85.316 C187.364,85.1346658 187.398,84.2620078 187.466,82.698 C187.534,81.1339922 187.568,79.9440041 187.568,79.128 C187.568,77.4053247 187.590666,75.9546726 187.636,74.776 C187.636,74.6399993 187.658666,72.1240245 187.704,67.228 C187.749334,65.0519891 187.772,63.5106712 187.772,62.604 C187.772,62.4679993 187.738,62.3546671 187.67,62.264 C187.602,62.1733329 187.545334,62.1166668 187.5,62.094 C187.454666,62.0713332 187.341334,62.06 187.16,62.06 L186.82,62.06 C186.321331,61.9693329 185.165342,61.9466664 183.352,61.992 C181.538658,62.0373336 180.382669,62.0373336 179.884,61.992 C179.294664,61.992 178.762002,61.7426692 178.286,61.244 C177.809998,60.7453308 177.549334,60.1786698 177.504,59.544 C177.458666,58.9546637 177.617332,58.4106692 177.98,57.912 C178.342668,57.4133308 178.818664,57.1186671 179.408,57.028 C181.085342,56.7106651 182.898657,56.5973329 184.848,56.688 C186.344007,56.7786671 187.227999,56.6993346 187.5,56.45 C187.772001,56.2006654 187.930666,55.3280075 187.976,53.832 C188.021334,53.4693315 188.044,53.0613356 188.044,52.608 C188.044,52.1546644 188.055333,51.7013356 188.078,51.248 C188.100667,50.7946644 188.112,50.3866685 188.112,50.024 C188.202667,48.5733261 188.905327,47.8026671 190.22,47.712 C190.718669,47.712 191.205998,47.915998 191.682,48.324 C192.158002,48.732002 192.441333,49.2306637 192.532,49.82 C192.713334,51.1346732 192.758667,52.1319966 192.668,52.812 C192.622666,53.537337 192.645333,54.8519905 192.736,56.756 C192.781334,57.3906698 193.12133,57.7759993 193.756,57.912 C195.977344,58.320002 197.541329,58.886663 198.448,59.612 Z M202.256,82.256 C202.210666,82.256 202.120001,82.2220003 201.984,82.154 C201.847999,82.0859997 201.734667,82.0633332 201.644,82.086 C201.553333,82.1086668 201.485334,82.1653329 201.44,82.256 C201.303999,82.5733349 201.371999,82.935998 201.644,83.344 C202.460004,84.477339 203.661325,85.2706644 205.248,85.724 C205.384001,85.7693336 205.633332,85.8373329 205.996,85.928 C206.358668,86.0186671 206.641999,86.0866664 206.846,86.132 C207.050001,86.1773336 207.276665,86.2906658 207.526,86.472 C207.775335,86.6533342 207.990666,86.8573322 208.172,87.084 C208.489335,87.5373356 208.704666,88.0586637 208.818,88.648 C208.931334,89.2373363 208.897334,89.735998 208.716,90.144 C208.171997,91.0053376 207.333339,91.3453342 206.2,91.164 C202.799983,90.7106644 200.193342,89.4413438 198.38,87.356 C196.838659,85.497324 196.113333,82.6186862 196.204,78.72 C196.204,78.4933322 196.238,78.017337 196.306,77.292 C196.374,76.566663 196.408,75.9660024 196.408,75.49 C196.408,75.0139976 196.362667,74.3453376 196.272,73.484 C196.181333,72.9853308 196.237999,72.5093356 196.442,72.056 C196.646001,71.6026644 196.940665,71.2173349 197.326,70.9 C197.711335,70.5826651 198.153331,70.3786671 198.652,70.288 C199.241336,70.1066658 199.717332,69.7893356 200.08,69.336 C201.34934,67.794659 203.253321,66.8426685 205.792,66.48 C207.106673,66.2533322 208.421327,66.6613281 209.736,67.704 C211.050673,68.7466719 211.889332,69.9706596 212.252,71.376 C212.705336,73.0533417 212.467338,74.7986576 211.538,76.612 C210.608662,78.4253424 209.271342,79.8646613 207.526,80.93 C205.780658,81.9953387 204.024009,82.4373342 202.256,82.256 Z M202.052,75.116 C201.734665,75.6600027 201.677999,76.1019983 201.882,76.442 C202.086001,76.7820017 202.527997,76.952 203.208,76.952 C203.84267,76.9973336 204.545329,76.6913366 205.316,76.034 C206.086671,75.3766634 206.653332,74.6173376 207.016,73.756 C207.333335,72.9853295 207.220003,72.3506692 206.676,71.852 C206.222664,71.443998 205.588004,71.3986651 204.772,71.716 C204.409332,71.8520007 204.069335,72.0673319 203.752,72.362 C203.434665,72.6566681 203.208001,72.9173322 203.072,73.144 C202.935999,73.3706678 202.754668,73.7219976 202.528,74.198 C202.301332,74.6740024 202.142667,74.9799993 202.052,75.116 Z M247.748,90.348 C247.748,90.6653349 247.782,91.186663 247.85,91.912 C247.918,92.637337 247.952,93.1586651 247.952,93.476 C247.952,93.7933349 247.929334,94.314663 247.884,95.04 C247.657332,96.3093397 246.977339,97.0346658 245.844,97.216 C245.254664,97.2613336 244.710669,97.1366681 244.212,96.842 C243.713331,96.5473319 243.328001,96.1053363 243.056,95.516 C242.783999,95.0173308 242.648,94.3373376 242.648,93.476 C242.375999,85.6786277 242.194667,80.8960088 242.104,79.128 C242.058666,78.7653315 242.036,78.3233359 242.036,77.802 L242.036,76.442 C242.036,76.0566647 242.013334,75.6033359 241.968,75.082 C241.922666,74.5606641 241.832001,74.0733356 241.696,73.62 C239.927991,76.3853472 238.976001,77.8813322 238.84,78.108 C238.386664,78.833337 237.616005,80.0799912 236.528,81.848 C235.439995,83.6160088 234.601336,84.9759952 234.012,85.928 C233.739999,86.336002 233.400002,86.6759986 232.992,86.948 C232.583998,87.2200014 232.164669,87.4013329 231.734,87.492 C231.303331,87.5826671 230.861336,87.5826671 230.408,87.492 C229.727997,87.3106658 229.172669,86.9253363 228.742,86.336 C228.311331,85.7466637 228.073334,85.0440041 228.028,84.228 C227.801332,80.4653145 227.914664,75.9320265 228.368,70.628 C228.413334,70.1293308 228.47,69.3700051 228.538,68.35 C228.606,67.3299949 228.662666,66.5706692 228.708,66.072 C228.753334,65.4826637 229.025331,64.9160027 229.524,64.372 C230.022669,63.8279973 230.566664,63.5106671 231.156,63.42 C232.198672,63.2839993 233.014664,63.7146617 233.604,64.712 C233.785334,64.9386678 233.898666,65.2219983 233.944,65.562 C233.989334,65.9020017 234.012,66.173999 234.012,66.378 C234.012,66.582001 233.978,66.9106644 233.91,67.364 C233.842,67.8173356 233.808,68.0893329 233.808,68.18 C233.535999,71.5346834 233.377334,74.5719864 233.332,77.292 C233.604001,77.3826671 233.830666,77.2693349 234.012,76.952 C234.329335,76.226663 234.714664,75.501337 235.168,74.776 C235.621336,74.050663 236.16533,73.223338 236.8,72.294 C237.43467,71.364662 237.910665,70.6733356 238.228,70.22 C239.225338,68.678659 240.177329,67.5680034 241.084,66.888 C241.900004,66.2986637 242.829328,66.1513319 243.872,66.446 C244.914672,66.7406681 245.639998,67.3639952 246.048,68.316 C246.68267,69.6306732 247.045333,71.5799871 247.136,74.164 C247.226667,75.6600075 247.306,77.3826569 247.374,79.332 C247.442,81.2813431 247.498666,83.2193237 247.544,85.146 C247.589334,87.0726763 247.657333,88.806659 247.748,90.348 Z M271.48,94.768 C271.570667,95.2666692 271.502668,95.7653308 271.276,96.264 C271.049332,96.7626692 270.698002,97.1366654 270.222,97.386 C269.745998,97.6353346 269.247336,97.7033339 268.726,97.59 C268.204664,97.4766661 267.785335,97.2386685 267.468,96.876 C266.742663,95.9693288 266.266668,94.8813397 266.04,93.612 C265.767999,92.1613261 265.065339,88.7613601 263.932,83.412 C263.841333,83.1399986 263.762,82.7206695 263.694,82.154 C263.626,81.5873305 263.535334,81.0546692 263.422,80.556 C263.308666,80.0573308 263.161334,79.5813356 262.98,79.128 C262.481331,80.1706719 261.665339,81.4853254 260.532,83.072 C259.398661,84.6586746 258.696001,85.7013308 258.424,86.2 C257.698663,87.3786726 256.690006,88.0926654 255.398,88.342 C254.105994,88.5913346 252.984005,88.3080041 252.032,87.492 C251.533331,87.083998 251.170668,86.4493376 250.944,85.588 C250.445331,83.6839905 250.558663,81.3493472 251.284,78.584 C252.372005,74.7306474 254.275986,71.3986807 256.996,68.588 C259.03601,66.4573227 261.279988,65.958661 263.728,67.092 C264.952006,67.6360027 265.609333,68.9279898 265.7,70.968 C265.745334,71.4666692 265.915332,71.8973315 266.21,72.26 C266.504668,72.6226685 266.742666,73.007998 266.924,73.416 C267.105334,73.824002 267.286666,74.4019963 267.468,75.15 C267.649334,75.8980037 267.762666,76.3399993 267.808,76.476 C268.125335,77.6546726 268.453998,79.3886552 268.794,81.678 C269.134002,83.9673448 269.439999,85.6333281 269.712,86.676 C270.165336,88.3986753 270.482666,90.0079925 270.664,91.504 C270.709334,91.7760014 270.981331,92.8639905 271.48,94.768 Z M256.52,79.944 C258.56001,76.9066515 259.851997,74.5493417 260.396,72.872 C259.534662,73.5520034 258.696004,74.6399925 257.88,76.136 C257.063996,77.6320075 256.610667,78.9013281 256.52,79.944 Z M307.928,87.152 C309.061339,88.8746753 308.698676,90.2799946 306.84,91.368 C306.431998,91.6400014 305.956003,91.6966675 305.412,91.538 C304.867997,91.3793325 304.392002,91.0506692 303.984,90.552 C303.394664,89.6906624 302.556005,88.4780078 301.468,86.914 C300.379995,85.3499922 299.700001,84.3866685 299.428,84.024 C297.750658,81.6213213 296.526671,80.057337 295.756,79.332 C295.257331,78.8333308 294.883335,78.584 294.634,78.584 C294.384665,78.584 293.988003,78.8106644 293.444,79.264 C293.126665,79.4906678 292.854668,79.7626651 292.628,80.08 C292.401332,80.3973349 292.231334,80.6693322 292.118,80.896 C292.004666,81.1226678 291.925334,81.4513312 291.88,81.882 C291.834666,82.3126688 291.812,82.629999 291.812,82.834 L291.812,84.908 C291.766666,89.7133574 291.721334,93.1133234 291.676,95.108 C291.630666,96.1506719 290.928007,97.0573295 289.568,97.828 C289.114664,98.0546678 288.627336,97.9980017 288.106,97.658 C287.584664,97.3179983 287.210668,96.8306698 286.984,96.196 C286.847999,95.8786651 286.746,95.4820024 286.678,95.006 C286.61,94.5299976 286.576,94.2013342 286.576,94.02 C286.576,93.8386658 286.587333,93.4080034 286.61,92.728 C286.632667,92.0479966 286.644,91.6853336 286.644,91.64 C286.644,91.5039993 286.632667,90.7446736 286.61,89.362 C286.587333,87.9793264 286.621333,87.2200007 286.712,87.084 C286.757334,86.6306644 286.451337,86.2566681 285.794,85.962 C285.136663,85.6673319 284.706001,85.157337 284.502,84.432 C284.297999,83.706663 284.399998,83.0493363 284.808,82.46 C285.896005,80.7826583 286.462666,79.944 286.508,79.944 C286.598667,79.7626658 286.678,79.5813342 286.746,79.4 C286.814,79.2186658 286.859333,79.0146678 286.882,78.788 C286.904667,78.5613322 286.916,78.3573342 286.916,78.176 C286.916,77.9946658 286.904667,77.7793346 286.882,77.53 C286.859333,77.2806654 286.848,77.0880007 286.848,76.952 C286.848,76.3626637 286.870666,74.4360163 286.916,71.172 C286.961334,67.771983 287.051999,64.9160116 287.188,62.604 C287.414668,59.1586494 287.663999,56.1893458 287.936,53.696 C288.026667,53.1973308 288.162666,51.8826773 288.344,49.752 C288.434667,48.8453288 288.933329,48.0746698 289.84,47.44 C290.656004,46.9413308 291.403997,46.8846647 292.084,47.27 C292.764003,47.6553353 293.171999,48.2559959 293.308,49.072 C293.353334,49.3440014 293.376,49.6159986 293.376,49.888 C293.376,50.1600014 293.364667,50.4319986 293.342,50.704 C293.319333,50.9760014 293.296667,51.2366654 293.274,51.486 C293.251333,51.7353346 293.217334,52.0073319 293.172,52.302 C293.126666,52.5966681 293.104,52.8573322 293.104,53.084 C292.514664,60.4733703 292.174667,65.5506528 292.084,68.316 L292.084,73.892 C292.582669,73.6653322 293.081331,73.2346698 293.58,72.6 C294.350671,71.6479952 295.551992,70.5826726 297.184,69.404 C297.546668,69.1319986 297.931998,68.792002 298.34,68.384 L299.598,67.126 C300.028669,66.6953312 300.425332,66.3440014 300.788,66.072 C301.42267,65.5733308 302.329327,65.0293363 303.508,64.44 C304.414671,64.031998 305.207997,64.3039952 305.888,65.256 C306.250668,65.8000027 306.386667,66.3666637 306.296,66.956 C306.205333,67.5453363 305.956002,68.043998 305.548,68.452 C305.275999,68.6786678 303.621349,70.0613206 300.584,72.6 C300.493333,72.6906671 300.425334,72.736 300.38,72.736 C300.289333,72.8720007 300.153334,73.0193325 299.972,73.178 C299.790666,73.3366675 299.643334,73.4726661 299.53,73.586 C299.416666,73.6993339 299.292001,73.8466658 299.156,74.028 C299.019999,74.2093342 298.929334,74.3679993 298.884,74.504 C298.793333,74.7760014 298.827333,75.0026658 298.986,75.184 C299.144667,75.3653342 299.359999,75.557999 299.632,75.762 C299.904001,75.966001 300.085333,76.1359993 300.176,76.272 C302.941347,79.7626841 305.525321,83.3893145 307.928,87.152 Z M330.64,94.768 C330.730667,95.2666692 330.662668,95.7653308 330.436,96.264 C330.209332,96.7626692 329.858002,97.1366654 329.382,97.386 C328.905998,97.6353346 328.407336,97.7033339 327.886,97.59 C327.364664,97.4766661 326.945335,97.2386685 326.628,96.876 C325.902663,95.9693288 325.426668,94.8813397 325.2,93.612 C324.927999,92.1613261 324.225339,88.7613601 323.092,83.412 C323.001333,83.1399986 322.922,82.7206695 322.854,82.154 C322.786,81.5873305 322.695334,81.0546692 322.582,80.556 C322.468666,80.0573308 322.321334,79.5813356 322.14,79.128 C321.641331,80.1706719 320.825339,81.4853254 319.692,83.072 C318.558661,84.6586746 317.856001,85.7013308 317.584,86.2 C316.858663,87.3786726 315.850006,88.0926654 314.558,88.342 C313.265994,88.5913346 312.144005,88.3080041 311.192,87.492 C310.693331,87.083998 310.330668,86.4493376 310.104,85.588 C309.605331,83.6839905 309.718663,81.3493472 310.444,78.584 C311.532005,74.7306474 313.435986,71.3986807 316.156,68.588 C318.19601,66.4573227 320.439988,65.958661 322.888,67.092 C324.112006,67.6360027 324.769333,68.9279898 324.86,70.968 C324.905334,71.4666692 325.075332,71.8973315 325.37,72.26 C325.664668,72.6226685 325.902666,73.007998 326.084,73.416 C326.265334,73.824002 326.446666,74.4019963 326.628,75.15 C326.809334,75.8980037 326.922666,76.3399993 326.968,76.476 C327.285335,77.6546726 327.613998,79.3886552 327.954,81.678 C328.294002,83.9673448 328.599999,85.6333281 328.872,86.676 C329.325336,88.3986753 329.642666,90.0079925 329.824,91.504 C329.869334,91.7760014 330.141331,92.8639905 330.64,94.768 Z M315.68,79.944 C317.72001,76.9066515 319.011997,74.5493417 319.556,72.872 C318.694662,73.5520034 317.856004,74.6399925 317.04,76.136 C316.223996,77.6320075 315.770667,78.9013281 315.68,79.944 Z M352.604,66.956 C352.921335,67.2733349 353.102666,67.7493302 353.148,68.384 C353.193334,69.0186698 353.057335,69.539998 352.74,69.948 C351.425327,71.7160088 350.020007,74.0279857 348.524,76.884 C346.801325,80.1933499 345.441338,83.0719878 344.444,85.52 C343.763997,87.1520082 343.016004,88.8066583 342.2,90.484 C342.018666,90.892002 341.826001,91.5266624 341.622,92.388 C341.417999,93.2493376 341.202668,93.9066644 340.976,94.36 C340.658665,94.9493363 340.126004,95.4593312 339.378,95.89 C338.629996,96.3206688 337.984003,96.4680007 337.44,96.332 C336.261327,96.1506658 335.490668,95.3800068 335.128,94.02 C333.903994,89.9853132 332.521341,83.8653744 330.98,75.66 C330.934666,75.3879986 330.798668,74.7646715 330.572,73.79 C330.345332,72.8153285 330.186667,72.0560027 330.096,71.512 C329.914666,69.9253254 330.231996,68.769337 331.048,68.044 C331.68267,67.4999973 332.419329,67.329999 333.258,67.534 C334.096671,67.738001 334.595333,68.2366627 334.754,69.03 C334.912667,69.8233373 335.082666,70.6619956 335.264,71.546 C335.445334,72.4300044 335.637999,73.4046613 335.842,74.47 C336.046001,75.5353387 336.193333,76.3626637 336.284,76.952 C337.054671,80.760019 337.75733,83.8426549 338.392,86.2 C339.117337,85.4293295 339.819997,84.114676 340.5,82.256 C340.908002,81.122661 341.633328,79.5813431 342.676,77.632 C343.718672,75.6826569 344.330666,74.5266685 344.512,74.164 C345.192003,72.7133261 346.393325,70.7866787 348.116,68.384 C348.524002,67.8399973 349.113329,67.3186692 349.884,66.82 C350.926672,66.1399966 351.833329,66.1853295 352.604,66.956 Z M365.728,69.2 C367.13334,69.8800034 368.18733,70.7979942 368.89,71.954 C369.59267,73.1100058 369.853334,74.4359925 369.672,75.932 C369.03733,81.3720272 366.952018,85.8373159 363.416,89.328 C361.602658,91.1413424 359.449346,91.7080034 356.956,91.028 C354.734656,90.4386637 353.30667,88.8973458 352.672,86.404 C352.399999,85.2253274 352.286666,84.2960034 352.332,83.616 C352.332,81.0773206 352.989327,78.312015 354.304,75.32 C354.93867,73.778659 355.618663,72.4866719 356.344,71.444 C356.480001,71.2173322 356.582,70.8433359 356.65,70.322 C356.718,69.8006641 356.774666,69.4720007 356.82,69.336 C357.046668,68.7013302 357.273332,68.3613336 357.5,68.316 C357.817335,68.1799993 358.29333,67.9646681 358.928,67.67 C359.56267,67.3753319 360.140664,67.1373342 360.662,66.956 C361.183336,66.7746658 361.693331,66.684 362.192,66.684 C363.189338,66.6386664 364.00533,67.1599946 364.64,68.248 C364.866668,68.656002 365.229331,68.9733322 365.728,69.2 Z M364.708,75.592 C364.798667,74.9573302 364.481337,74.3226698 363.756,73.688 C363.030663,73.0533302 362.373336,72.8039993 361.784,72.94 C361.602666,72.9853336 361.421334,73.0986658 361.24,73.28 C359.018656,76.680017 357.772001,79.9213179 357.5,83.004 C357.590667,83.9560048 357.636,84.4659997 357.636,84.534 C357.636,84.6020003 357.647333,84.6926661 357.67,84.806 C357.692667,84.9193339 357.715333,85.0099997 357.738,85.078 C357.760667,85.1460003 357.794666,85.2253329 357.84,85.316 C357.885334,85.4066671 357.930666,85.4859997 357.976,85.554 C358.021334,85.6220003 358.078,85.6899997 358.146,85.758 C358.214,85.8260003 358.315999,85.8826664 358.452,85.928 C359.132003,86.0640007 359.743997,85.8600027 360.288,85.316 C362.690679,82.7773206 364.163997,79.5360197 364.708,75.592 Z" id="greste-na-kavo" fill="#FFFFFF"></path>
                </g>
            </g>
        </g>
    </g>
</svg>