<svg xmlns="http://www.w3.org/2000/svg" width="481" height="150" viewBox="0 0 481 150"><g><g><g><g><g><g><path fill="#ec1d24" d="M46.22 45.553l4.986 107.231.417 14.226-5.403 3.491 9.107 3.008 19.297 1.339 27.082-4.347h30.386l28.403-1.598 23.043-3.879h25.177l34.349-2.247 14.532-.522 21.798 1.363 16.513.661 12.551.745 191.437-3.558.464-14.693-6.148-15.522-1.886-33.462 3.6-30.889 2.599-14.901 1.371-18.509-52.416 6.164-25.883 4.766s-87.376 10.538-216.184-.196z"/></g><g><path fill="none" stroke="#231f20" stroke-miterlimit="50" stroke-width="3" d="M32.576 46.676l1.895-.374v-4.869c0-4.494.63-5.992 2.525-5.992v.374c-.63.75-1.263 8.614-.63 9.738.63.75.63.75 4.42.374 1.895-.374 3.79-.749 4.42-1.123 0-.375.632-.375 1.264-.375 0 0 .63 0 .63-.374 0-3.746 1.264-5.618 2.527-5.244 1.263 0 1.894 2.622.632 3.371 0 .374-.632 1.123-1.264 1.873 0 .75 0 1.123 1.264.75.631 0 3.79-.376 7.578-.75 3.157 0 7.578-.375 10.104-.75 1.895 0 5.684-.374 8.21-.374 10.104-.749 25.892-2.247 30.313-2.247 2.525-.375 12.63-.375 23.366-.375 36.628.375 73.256.375 75.782-.374 1.895 0 23.366-.375 75.781-.375 56.837 0 75.152-.374 83.362-.749 5.683-.374 16.42-.374 23.366-.374 16.42-.375 37.26-.749 48.626-1.498 4.421-.375 10.104-.749 12.631-1.124 2.526 0 8.21-.374 12.63-.749 5.683-.374 10.104-.749 20.21-.374 11.998 0 13.26 0 13.892-.749.632-.749 1.895-.749 1.895.374-.632 1.124.631.375 1.262-1.498 1.264-1.498 2.527-2.62 3.16-2.247.63 0 .63 1.124.63 2.622-.63 1.872 0 1.872.631 1.872 1.895.375 1.895.75.632 1.873-1.894 1.123-1.263 2.247.631 8.24 1.264 3.744 1.264 5.242 1.264 18.351 0 7.49 0 19.1-.632 25.842 0 17.227.632 32.583 2.526 41.946.631 3.745 1.263 7.115.631 14.605 0 7.866 0 10.113.632 14.607 1.263 4.494 1.263 5.243.632 5.618-.632.75-1.264.75-2.527.374-1.894-.749-13.26-.374-22.103 0-3.157.375-8.209.75-11.367 1.124-7.578.374-44.838.374-56.205 0-4.42-.375-22.735-.375-39.785-.375-62.52 0-85.255.75-102.938 2.247-4.42.75-10.736 1.124-15.156 1.124-18.315 1.123-45.47 3.745-52.416 5.243-5.053 1.124-24.63 1.124-29.05 0-1.264 0-3.789-.375-5.685-.375-4.42-.748-9.472-1.123-15.787-2.247-3.158-.374-6.315-.749-7.579-.749-1.263 0-3.157 0-5.052-.374-4.42-.749-10.735-.749-20.839 0-3.158.374-8.842.374-16.42.75-3.158 0-6.315.373-8.209.748-1.895.374-3.789.374-5.053.374-.632 0-2.525.375-4.42.75-1.264.748-3.79.748-5.053.748-1.262 0-3.789.375-5.683 1.124-6.316 1.124-16.419 2.247-23.367 2.622-1.894 0-4.42.374-5.683.374-1.895.375-1.895 0-1.895-.374 0-.375 0-.749.632-.749h3.157c1.263 0 1.895-.375 1.263-.749-.63-.375-1.263-.375-1.894-.375l-5.052-2.247c-2.527-1.124-5.053-2.247-5.684-2.622-.632 0-1.262-.374-1.894-.749l-3.789-3.745-3.159-3.745V153.79c0-5.993.632-11.985 1.264-13.483 0-1.498.631-4.12.631-5.618.632-1.498 1.264-3.37 1.264-4.494 1.894-3.37 2.525-14.607 1.894-31.459-.632-9.738-.632-22.846-.632-29.588.632-6.74 0-14.606 0-16.853l-.632-4.869-1.894.375c-3.157 0-3.789-.749-.63-1.124zM33.84 160.16c0-.379-.632-.379-.632-.379v1.134c.632 0 .632-.378.632-.755zm.622-15.73c0-2.25-.626-4.124-.626-3.75-.626 0-.626 7.875 0 7.875 0 0 .626-1.875.626-4.125zm46.11 29.96c-12.63.375-13.893.375-13.893-.376.631-.75 0-.75-6.316-.375-3.157 0-7.578.375-9.472.375l-3.158.376 1.263.75c1.264.375 1.895.751 2.526.751 0 0 1.263.375 3.158 1.126 2.526.751 2.526 1.126 6.315.751 1.895 0 5.684-.376 7.578-.75 1.895-.376 3.79-.376 5.053-.376.631 0 1.263-.376 1.894-.376.631-.75 5.052-1.126 8.21-1.126 1.894 0 3.788-.375 3.788-.75.632-.376-1.262-.376-6.946 0zm135.154-1.876h-14.527c-3.158-.374-6.948-.749-8.842-.749-15.79-1.123-32.212-1.498-44.212-1.123l-5.052.374 2.525.375c1.265.374 3.79.374 5.054.374 1.894 0 3.79.375 5.684.75 1.263.374 3.79.748 5.684.748 3.79.375 11.369 1.124 15.79 1.873 1.264.374 5.053.75 7.58.75 3.157 0 5.684.373 5.684.373h2.526c1.264 0 4.42-.374 7.58-.749 3.158 0 6.947-.374 8.21-.748 1.263-.375 5.053-.75 8.21-1.124l6.317-.749c.632-.375-3.158-.375-8.21-.375zm284.174-8.239l-1.263-.374c-1.263-.375-1.263-.749-1.263-1.124 0-.749-.63-.749-5.052.375-5.683 1.498-14.525 1.872-29.68 1.872-5.685 0-12.63.375-15.79.375h-14.524c-8.21-.375-14.525-.749-34.733-1.124-5.684 0-14.526-.374-20.209-.374-11.368-.749-25.26-.375-46.733.374-13.893.375-30.944.375-44.838 0-20.208-.749-33.47-.749-46.1-.374-14.526.374-13.262.374-17.683.75-9.473.748-20.209 1.122-32.839 1.497-2.526 0-5.683 0-6.946.374-1.264 0-3.158.375-4.42.375-1.264 0-3.158.374-3.158.374-.632 0-5.685.375-11.368.75-9.473.748-17.05 1.497-18.314 1.872h13.894c13.892 0 20.208.374 30.312 1.123 4.421 0 16.42.75 25.893.75h12c10.734-.75 20.207-1.124 25.26-1.873 1.262 0 6.946-.375 11.367-.749 5.052-.375 11.367-.749 13.892-1.124 6.948-.374 15.788-.749 25.893-1.123 3.79 0 12-.375 17.051-.749h74.52c35.995 0 68.834 0 71.992-.375 3.79 0 10.736-.374 15.79-.374 8.84 0 11.366-.375 15.155-.749zm2.527-3.364c.631-.756.631-.756-.632-.378-.632 0-1.263.378-1.263.378-.632.755.631.755 1.895 0zm-1.264-2.253c0 .374 0 .374.637.374 0 0 .637-.374.637-.749 0-.374-.637-.374-.637-.374-.637 0-.637 0-.637.75zm1.274-3.377c0-2.988-.637-3.362-1.274-.747v2.242c1.274.374 1.274 0 1.274-1.495zm.631 7.122l-.636-.375h-.637c0 .375 0 .75.637.75zm1.253-53.93c0-.376-.632 2.62-.632 5.991 0 6.367 0 17.228-.63 24.344-.632 5.992.63 18.352 1.893 18.726.632.375.632.375 0 .75-.63.374-.63 1.872-1.263 2.995 0 1.873 0 2.247 1.263 2.247.632 0 1.264 0 1.264.75 0 .374 0 .748 1.262.748 1.263 0 1.263-.374.632-2.247 0-1.123-.632-2.62-.632-2.996-.63-.749-.63-7.115-.63-14.607 0-15.729-1.264-36.328-2.527-36.702zm-1.894-37.828c0 2.248.631 7.116.631 11.61l.631 7.866.632-5.244c0-2.996.631-6.74.631-8.988 1.264-7.49 1.264-19.475 0-25.093-1.263-2.996-1.263-5.992-1.263-6.367 0-.374-.63-.749-.63-.749-1.264.375-1.896 19.85-.632 26.965zm-1.895.749c0-2.622-.632-5.244-.632-5.618 0-.749 0-3.744-.632-5.991 0-4.868 0-4.868-.63-1.873-.632 3.745-1.895 15.728-2.527 19.847 0 2.995-.632 4.868-1.894 10.112v13.106c0 12.732.631 20.222 3.157 26.962 1.263 2.622 3.158 10.86 3.158 11.608 0 0 .631.374.631 0 0 0 .632-1.497.632-3.37 0-1.498.632-10.11.632-18.35.631-14.23.631-23.591-.632-34.077-.632-5.242-.632-8.238-1.263-12.356zm-.632-22.096l.632-2.996v-5.244c0-1.872 0-1.872-.632-.749-.632.75-.632 2.247-.632 4.87zm-.632-10.86c.632 0 1.264-.376 1.264-1.125.631-.749 0-1.123-.632-.749-1.263.375-1.263 1.873-.632 1.873zm-1.894.373c0 .375.637.375 1.273.375v-.749c-.636-.375-1.273-.375-1.273.374zm-99.779.75c.631.374 10.736.748 27.158.748 8.842 0 15.79.375 15.79.375h10.105c7.579 0 10.105-.375 20.21-1.873 6.317-1.123 13.895-1.872 16.42-2.247l4.422-.374-2.526-.375c-3.79-.749-21.474-.374-28.421 0-1.895.375-7.579.75-11.368 1.124-4.422.374-10.106.75-12 .75-6.947.748-27.159 1.497-36.633 1.497-1.895 0-3.157 0-3.157.374zm91.562-2.248c-5.046.375-8.199 1.124-3.153.75 1.891 0 3.784-.375 5.045-.375.63-.375 0-.375-1.892-.375zm-10.097 1.498h.631c1.264 0 1.895-.374 1.895-.374.632-.375-1.895 0-2.526.374zM199.93 42.56c-4.42.375-12.63.75-18.947.75-6.946.375-13.26.75-13.893 1.125-2.526.375-11.367.75-25.26 1.125-4.42.374-6.947.374-6.947.75h3.79c1.893 0 7.577-.376 11.998-.376 4.421-.374 11.367-.75 15.788-1.124 8.841-.375 24.63-.375 30.312 0 2.527 0 10.737.374 18.946.374 13.893.376 32.84 1.126 41.05 1.876 8.21.374 32.837 1.124 64.414 1.5 26.523.374 41.048.374 54.31-.376 4.421 0 8.841-.375 9.473-.375 1.262 0 5.053-.375 9.472-.75 4.421 0 10.105-.75 13.262-1.125 10.736-1.124 20.21-2.25 34.734-3.749 3.158 0 5.052-.375 5.052-.375s-10.104-.375-22.103-.75c-22.103 0-24.629-.374-31.575-1.124-4.42-.376-20.84-.376-26.525 0-11.367.75-23.997.75-41.68.75-30.313 0-102.937 1.124-125.67 1.874zM55.942 45.543h20.84c10.105-.374 27.155-.374 37.26-.374 17.683 0 25.261-.373 34.733-1.12h8.841c1.895 0 5.053-.374 7.578-.748 4.421-.374 12.631-.748 22.104-1.12 9.472-.375 5.052-.375-11.999-.748-33.47-.374-65.046-.374-72.624.373-4.42.374-11.999.747-17.683 1.495-6.315.374-13.262.748-17.05 1.121-3.159.374-7.58.747-9.474.747-3.158 0-3.789 0-2.526.374zm-18.946 3.38c0 .375.632 12.36.632 26.591.632 35.58.632 37.826.632 37.452.632 0 1.262-1.873 1.262-3.37.632-1.873 1.263-4.869 1.895-6.367 1.264-5.243 3.158-13.483 3.158-19.476.631-5.617.631-22.47 0-31.459-.632-4.869-.632-5.243-1.894-5.243h-3.789c-1.896.374-1.896.374-1.896 1.872zm-.63 93.255c-1.265 14.607-.633 22.846 1.894 25.093a13.406 13.406 0 0 0 1.262 1.873c.632 0 1.263.374 1.895 1.123 1.264 1.498 3.79 2.622 6.947 2.996 3.157.375 4.42.375 5.684-.374.631-.375 1.262-.375 1.262-.375l1.263-.749c.632-.749 1.264-.749.632 0l-.632 1.124 16.42-.375c23.366-.374 27.787-.374 32.84-.749 3.156-.374 10.103-1.123 19.576-1.498 5.684-.374 14.525-1.123 24.63-1.872 1.894-.375 6.946-.749 11.366-1.124 4.421-.374 11.367-.749 14.526-1.498 7.578-.749 10.735-.749 23.366-1.123 4.421 0 13.893-.749 20.84-1.124 6.315-.374 15.156-.749 19.577-.749 5.052-.374 8.841-.374 9.472-.374h10.737c27.786 1.123 58.73 1.498 74.518.75 13.894-.75 32.84-1.125 44.838-.376 5.684 0 13.894.375 18.946.375 20.208.374 29.05.75 33.47 1.123 4.421.375 32.84 0 46.733-.749 7.578 0 8.21-.374 19.577-2.996.631 0 .631-.749 1.262-1.498 0-1.066-.013-1.452-1.089-1.49a1.693 1.693 0 0 0-.039-1.133c1.13-.034 1.152-.567 1.76-5.617.632-3.37.632-6.367 0-7.49 0-1.124-.632-3.37-.632-4.494-.63-1.498-1.894-5.243-2.525-7.865-3.158-8.239-3.79-15.73-4.42-28.089 0-7.865 0-12.359.63-16.105 1.264-4.868 1.264-9.362 3.158-20.972.632-7.865.632-8.988 1.895-11.985 1.262-2.996.631-6.74-.632-11.236-1.263-4.119-1.263-4.119-4.42-3.745-1.895.375-4.42.375-6.947.375-1.895 0-6.316.374-9.473.75-3.789.373-8.21.748-10.736 1.122-2.526 0-6.947.375-10.736 1.124-8.84.75-12.63 1.123-20.209 1.873-3.789.374-12.629 1.123-18.945 2.247-6.946.75-15.156 1.498-18.945 1.498-6.316.75-15.788 1.123-20.209 1.498-2.526 0-19.577.75-22.735.75-1.262 0-12.629 0-25.26-.376-12.63 0-27.156-.374-31.576-.374-4.42 0-10.104-.375-13.262-.375-3.157 0-8.84-.374-13.262-.374-4.42 0-8.21-.375-8.21-.749-1.263-.375-1.263-.375-.63 0 0 .374 0 .374-.633.374-1.262-.374-12.63-.749-18.314-1.123-3.157 0-6.314-.375-7.578-.375-1.263 0-7.578-.374-14.525-.374-7.578 0-17.682-.375-22.103-.749-8.84-.375-32.207 0-32.839.374-.632 0-3.157.375-5.684.375-2.526 0-8.84.374-13.893.75h-15.788c-8.209-.376-46.1-.376-61.889 0h-17.05l-3.158.373.631 3.371c0 2.247.632 5.993.632 8.614.632 11.61 1.894 28.838 1.894 33.707 0 2.621.632 7.49.632 10.486.631 3.371.631 15.73.631 29.962 0 19.101.632 24.344 1.264 25.467.631.75.631 2.247.631 4.87l-.63 4.118-1.896 1.124c-1.263.374-3.158.75-3.789.75-1.264 0-1.264 0 .631-.376 2.526-1.123 3.79-3.37 2.526-7.49 0-.749-.63-14.232-.63-30.336 0-16.105-.632-29.587-.632-29.587 0-.374-.632-6.74-.632-14.23 0-7.867-.632-14.233-.632-14.608 0 0-.63-4.12-1.263-8.988-1.262-16.854-1.262-17.228-1.262-1.124.63 18.351-.632 30.336-3.159 39.325-.63 1.498-1.262 4.868-1.894 7.49-1.263 2.247-1.895 4.868-1.895 5.617-1.262 4.87-1.894 7.117-1.894 10.862 0 2.247 0 6.367-.632 8.988 0 2.247-.63 5.618-.63 6.741z"/></g></g></g><g><path fill="#fff" d="M407.577 115.148a512.644 512.644 0 0 0-.17-5.814c-.068-1.95-.147-3.672-.238-5.168-.09-2.584-.453-4.533-1.088-5.848-.408-.952-1.133-1.575-2.176-1.87-1.042-.295-1.972-.147-2.788.442-.906.68-1.858 1.79-2.856 3.332-.317.453-.793 1.145-1.428 2.074a74.25 74.25 0 0 0-1.632 2.482c-.453.725-.838 1.45-1.156 2.176-.181.317-.408.43-.68.34.046-2.72.204-5.757.476-9.112 0-.09.034-.363.102-.816a7.52 7.52 0 0 0 .102-.986c0-.204-.022-.476-.068-.816a1.688 1.688 0 0 0-.34-.85c-.589-.997-1.405-1.428-2.448-1.292-.589.09-1.133.408-1.632.952-.498.544-.77 1.11-.816 1.7-.045.499-.102 1.258-.17 2.278-.068 1.02-.124 1.78-.17 2.278-.453 5.304-.566 9.837-.34 13.6.046.816.284 1.519.714 2.108.431.59.986.975 1.666 1.156.454.09.896.09 1.326 0a3.6 3.6 0 0 0 1.258-.544 3.642 3.642 0 0 0 1.02-1.02c.59-.952 1.428-2.312 2.516-4.08a733.614 733.614 0 0 1 2.312-3.74c.136-.227 1.088-1.723 2.856-4.488.136.453.227.94.272 1.462.046.521.068.975.068 1.36v1.36c0 .521.023.963.068 1.326.091 1.768.272 6.55.544 14.348 0 .861.136 1.541.408 2.04.272.59.658 1.031 1.156 1.326.499.295 1.043.42 1.632.374 1.134-.181 1.814-.907 2.04-2.176a28.49 28.49 0 0 0 .068-1.564c0-.317-.034-.839-.102-1.564a19.064 19.064 0 0 1-.102-1.564c-.09-1.541-.158-3.275-.204-5.202zm-31.008.17c-.544.544-1.156.748-1.836.612a.775.775 0 0 1-.306-.17 1.35 1.35 0 0 1-.17-.204 2.223 2.223 0 0 1-.238-.476 2.352 2.352 0 0 1-.102-.544c0-.068-.045-.578-.136-1.53.272-3.083 1.519-6.324 3.74-9.724.182-.181.363-.295.544-.34.59-.136 1.247.113 1.972.748.726.635 1.043 1.27.952 1.904-.544 3.944-2.017 7.185-4.42 9.724zm4.352-17.067c-.634-1.089-1.45-1.61-2.448-1.565a4.64 4.64 0 0 0-1.53.272c-.521.181-1.099.42-1.734.714-.634.295-1.11.51-1.428.647-.226.045-.453.385-.68 1.02-.045.136-.102.465-.17.986-.068.522-.17.896-.306 1.123-.725 1.043-1.405 2.335-2.04 3.877-1.314 2.994-1.972 5.76-1.972 8.3-.045.68.068 1.61.34 2.789.635 2.494 2.063 4.036 4.284 4.626 2.494.68 4.647.113 6.46-1.7 3.536-3.493 5.622-7.96 6.256-13.402.182-1.497-.079-2.823-.782-3.98-.702-1.156-1.756-2.075-3.162-2.755-.498-.227-.861-.544-1.088-.952zm-12.138-5.747c-.657-.385-1.416-.487-2.278-.306-.272.09-.827.215-1.666.374a37.79 37.79 0 0 0-2.074.442 6.594 6.594 0 0 0-1.564.612c-.317.136-.68.159-1.088.068-1.042-.227-1.768-.09-2.176.408-.453.544-1.292 1.088-2.516 1.632-1.722.861-2.833 1.972-3.332 3.332-.226.68-.181 1.27.136 1.768.318.499.839.77 1.564.816.635.09 1.406-.09 2.312-.544-.045.907-.158 2.153-.34 3.74-.181 1.587-.294 2.697-.34 3.332-.045 1.45-.68 2.425-1.904 2.924-.226.09-.544.385-.952.884-.634.77-.782 1.587-.442 2.448s.986 1.337 1.938 1.428c.499.045.726.317.68.816-.136 2.13-.204 3.355-.204 3.672 0 .363-.022.93-.068 1.7a32.7 32.7 0 0 0-.068 1.802c0 .43.068.963.204 1.598.136.635.34 1.201.612 1.7.726 1.315 1.598 1.859 2.618 1.632 1.02-.227 1.553-1.043 1.598-2.448 0-.272-.011-.816-.034-1.632-.022-.816-.011-1.383.034-1.7 0-.544.012-1.371.034-2.482a53.645 53.645 0 0 1 .374-5.474c0-.045.012-.159.034-.34.023-.181.046-.295.068-.34.023-.045.046-.147.068-.306.023-.159.057-.26.102-.306.046-.045.102-.113.17-.204a.865.865 0 0 1 .204-.204c.068-.045.159-.102.272-.17a.85.85 0 0 1 .442-.102c.454-.09 1.156-.476 2.108-1.156 0-.045.114-.136.34-.272.227-.136.363-.227.408-.272a4.83 4.83 0 0 0 .238-.272 1.18 1.18 0 0 0 .238-.476c.363-1.179.295-2.017-.204-2.516-.952-1.043-1.926-1.36-2.924-.952-.408.09-.646.09-.714 0-.068-.09-.079-.317-.034-.68.046-1.224.295-3.536.748-6.936.091-.59.431-.952 1.02-1.088.408-.09.941-.238 1.598-.442.658-.204 1.27-.385 1.836-.544a8.924 8.924 0 0 1 1.666-.306c.771-.09 1.44-.465 2.006-1.122.567-.657.76-1.28.578-1.87a2.857 2.857 0 0 0-1.326-1.666zM340.12 104.2c.226-.476.407-.827.543-1.054.136-.227.362-.487.679-.782a3.09 3.09 0 0 1 1.018-.646c.814-.317 1.448-.272 1.9.136.543.499.656 1.133.34 1.904-.362.861-.928 1.62-1.697 2.278-.77.657-1.47.963-2.104.918-.68 0-1.12-.17-1.324-.51-.204-.34-.147-.782.17-1.326.09-.136.249-.442.475-.918zm5 6.732a10.67 10.67 0 0 0 4.011-4.318c.93-1.813 1.168-3.559.714-5.236-.362-1.405-1.201-2.63-2.516-3.672-1.314-1.043-2.629-1.45-3.944-1.224-2.538.363-4.442 1.315-5.712 2.856-.362.453-.838.77-1.428.952-.498.09-.94.295-1.326.612-.385.317-.68.703-.884 1.156a2.37 2.37 0 0 0-.17 1.428c.091.861.136 1.53.136 2.006 0 .476-.034 1.077-.102 1.802-.068.725-.102 1.201-.102 1.428-.09 3.899.635 6.777 2.176 8.636 1.814 2.085 4.42 3.355 7.82 3.808 1.134.181 1.972-.159 2.516-1.02.182-.408.216-.907.102-1.496a4.013 4.013 0 0 0-.646-1.564 3.327 3.327 0 0 0-.646-.612c-.249-.181-.476-.295-.68-.34a35.437 35.437 0 0 1-.85-.204 11.98 11.98 0 0 1-.748-.204c-1.586-.453-2.788-1.247-3.604-2.38-.272-.408-.34-.77-.204-1.088a.304.304 0 0 1 .204-.17c.091-.023.204 0 .34.068.136.068.227.102.272.102 1.768.181 3.525-.26 5.27-1.326zm-15.505-23.188c.068-.793.102-1.383.102-1.768s.012-.895.034-1.53a14.937 14.937 0 0 0-.238-3.332c-.136-.68-.43-1.247-.884-1.7-.453-.453-.952-.68-1.496-.68s-1.065.25-1.564.748c-.498.499-.748 1.02-.748 1.564-.136 4.488-.204 6.89-.204 7.208-.09.635-.147 1.541-.17 2.72a179.568 179.568 0 0 0-.034 2.108 65.31 65.31 0 0 0-.136 2.346c-.045 1.02-.09 1.96-.136 2.822a45.537 45.537 0 0 0-.068 2.38c-.045 6.483.046 12.852.272 19.108.046.181.068.533.068 1.054s.046 1.02.136 1.496c.091.476.25.918.476 1.326.771 1.27 1.7 1.723 2.788 1.36.952-.272 1.474-1.043 1.564-2.312.046-1.133.057-2.074.034-2.822-.022-.748-.056-1.677-.102-2.788-.045-1.11-.045-2.029 0-2.754 0-.725-.056-1.813-.17-3.264-.113-1.45-.147-2.539-.102-3.264v-4.692c0-2.448.068-4.352.204-5.712.091-.77.148-1.62.17-2.55.023-.93.034-1.893.034-2.89 0-.997.023-1.859.068-2.584 0-.272.034-.805.102-1.598zM311.017 104.2c.227-.476.408-.827.544-1.054.136-.227.363-.487.68-.782.318-.295.658-.51 1.02-.646.816-.317 1.451-.272 1.904.136.544.499.658 1.133.34 1.904-.362.861-.929 1.62-1.7 2.278-.77.657-1.473.963-2.108.918-.68 0-1.122-.17-1.326-.51-.204-.34-.147-.782.17-1.326.091-.136.25-.442.476-.918zm4.991 6.732a10.667 10.667 0 0 0 4.01-4.318c.929-1.813 1.167-3.559.713-5.236-.362-1.405-1.2-2.63-2.514-3.672-1.314-1.043-2.628-1.45-3.942-1.224-2.537.363-4.44 1.315-5.708 2.856-.363.453-.838.77-1.427.952-.499.09-.94.295-1.325.612s-.68.703-.884 1.156a2.37 2.37 0 0 0-.17 1.428c.09.861.136 1.53.136 2.006 0 .476-.034 1.077-.102 1.802-.068.725-.102 1.201-.102 1.428-.09 3.899.635 6.777 2.175 8.636 1.812 2.085 4.417 3.355 7.815 3.808 1.133.181 1.97-.159 2.515-1.02.18-.408.215-.907.102-1.496a4.014 4.014 0 0 0-.646-1.564 3.326 3.326 0 0 0-.646-.612c-.249-.181-.475-.295-.68-.34a35.406 35.406 0 0 1-.849-.204c-.362-.09-.611-.159-.747-.204-1.586-.453-2.787-1.247-3.602-2.38-.272-.408-.34-.77-.204-1.088a.304.304 0 0 1 .204-.17c.09-.023.204 0 .34.068.136.068.226.102.272.102 1.766.181 3.522-.26 5.266-1.326zm-13.763-23.018c-.634-.136-.974-.521-1.02-1.156-.09-1.904-.113-3.219-.068-3.944.091-.68.046-1.677-.136-2.992-.09-.59-.374-1.088-.85-1.496-.476-.408-.963-.612-1.462-.612-1.314.09-2.017.861-2.108 2.312 0 .363-.011.77-.034 1.224-.022.453-.034.907-.034 1.36 0 .453-.022.861-.068 1.224-.045 1.496-.204 2.369-.476 2.618-.272.25-1.156.329-2.652.238-1.949-.09-3.762.023-5.44.34-.589.09-1.065.385-1.428.884a2.388 2.388 0 0 0-.476 1.632c.046.635.306 1.201.782 1.7.476.499 1.009.748 1.598.748.499.045 1.655.045 3.468 0 1.814-.045 2.97-.023 3.468.068h.34c.182 0 .295.011.34.034.046.023.102.08.17.17a.55.55 0 0 1 .102.34c0 .907-.022 2.448-.068 4.624-.045 4.896-.068 7.412-.068 7.548-.045 1.179-.068 2.63-.068 4.352 0 .816-.034 2.006-.102 3.57a136.619 136.619 0 0 0-.102 2.618c-.045.59.023 1.473.204 2.652.182 1.133.726 1.836 1.632 2.108.318 0 .544.023.68.068.136.045.329-.023.578-.204.25-.181.408-.317.476-.408.068-.09.216-.25.442-.476.544-.635.862-1.723.952-3.264 0-.317-.034-.827-.102-1.53-.068-.703-.079-1.235-.034-1.598.182-.68.261-2.267.238-4.76-.022-2.493-.011-4.103.034-4.828v-1.904c0-.725.012-1.45.034-2.176.023-.725.057-1.36.102-1.904 0-.181.023-.51.068-.986.046-.476.068-.884.068-1.224 0-.34-.045-.669-.136-.986-.09-.272-.079-.487.034-.646.114-.159.329-.193.646-.102.318.09.805.204 1.462.34.658.136 1.168.25 1.53.34.68.181 1.383.17 2.108-.034.726-.204 1.202-.51 1.428-.918.544-.997.091-2.085-1.36-3.264-.906-.725-2.47-1.292-4.692-1.7zM268.653 104.2c.227-.476.408-.827.544-1.054.136-.227.363-.487.68-.782.318-.295.658-.51 1.02-.646.816-.317 1.451-.272 1.904.136.544.499.658 1.133.34 1.904-.362.861-.929 1.62-1.7 2.278-.77.657-1.473.963-2.108.918-.68 0-1.122-.17-1.326-.51-.204-.34-.147-.782.17-1.326.091-.136.25-.442.476-.918zm4.998 6.732a10.67 10.67 0 0 0 4.012-4.318c.93-1.813 1.168-3.559.714-5.236-.362-1.405-1.201-2.63-2.516-3.672-1.314-1.043-2.629-1.45-3.944-1.224-2.538.363-4.442 1.315-5.712 2.856-.362.453-.838.77-1.428.952-.498.09-.94.295-1.326.612-.385.317-.68.703-.884 1.156a2.37 2.37 0 0 0-.17 1.428c.091.861.136 1.53.136 2.006 0 .476-.034 1.077-.102 1.802-.068.725-.102 1.201-.102 1.428-.09 3.899.635 6.777 2.176 8.636 1.814 2.085 4.42 3.355 7.82 3.808 1.134.181 1.972-.159 2.516-1.02.182-.408.216-.907.102-1.496a4.013 4.013 0 0 0-.646-1.564 3.327 3.327 0 0 0-.646-.612c-.249-.181-.476-.295-.68-.34a35.437 35.437 0 0 1-.85-.204 11.98 11.98 0 0 1-.748-.204c-1.586-.453-2.788-1.247-3.604-2.38-.272-.408-.34-.77-.204-1.088a.304.304 0 0 1 .204-.17c.091-.023.204 0 .34.068.136.068.227.102.272.102 1.768.181 3.525-.26 5.27-1.326zM259.89 87.914c-.635-.136-.976-.521-1.02-1.156-.092-1.904-.114-3.219-.069-3.944.09-.68.045-1.677-.136-2.992-.09-.59-.374-1.088-.85-1.496-.477-.408-.964-.612-1.463-.612-1.315.09-2.018.861-2.109 2.312 0 .363-.011.77-.034 1.224-.023.453-.034.907-.034 1.36 0 .453-.023.861-.068 1.224-.045 1.496-.204 2.369-.476 2.618-.272.25-1.157.329-2.653.238-1.95-.09-3.765.023-5.443.34-.59.09-1.066.385-1.428.884a2.387 2.387 0 0 0-.477 1.632c.046.635.306 1.201.783 1.7.476.499 1.009.748 1.598.748.5.045 1.656.045 3.47 0 1.814-.045 2.97-.023 3.47.068h.34c.181 0 .294.011.34.034.045.023.102.08.17.17a.55.55 0 0 1 .102.34c0 .907-.023 2.448-.068 4.624-.045 4.896-.068 7.412-.068 7.548-.046 1.179-.068 2.63-.068 4.352 0 .816-.034 2.006-.102 3.57a136.584 136.584 0 0 0-.102 2.618c-.046.59.022 1.473.204 2.652.181 1.133.725 1.836 1.633 2.108.317 0 .544.023.68.068.136.045.329-.023.578-.204.25-.181.408-.317.476-.408.068-.09.216-.25.442-.476.545-.635.862-1.723.953-3.264 0-.317-.034-.827-.102-1.53-.068-.703-.08-1.235-.034-1.598.181-.68.26-2.267.238-4.76-.023-2.493-.011-4.103.034-4.828v-1.904c0-.725.011-1.45.034-2.176.023-.725.057-1.36.102-1.904 0-.181.023-.51.068-.986.045-.476.068-.884.068-1.224 0-.34-.045-.669-.136-.986-.09-.272-.08-.487.034-.646.113-.159.329-.193.646-.102.318.09.805.204 1.463.34.658.136 1.168.25 1.53.34.681.181 1.384.17 2.11-.034.725-.204 1.201-.51 1.428-.918.544-.997.091-2.085-1.36-3.264-.907-.725-2.472-1.292-4.694-1.7zM239.617 104.2c.227-.476.408-.827.544-1.054.136-.227.363-.487.68-.782.318-.295.658-.51 1.02-.646.816-.317 1.451-.272 1.904.136.544.499.658 1.133.34 1.904-.362.861-.929 1.62-1.7 2.278-.77.657-1.473.963-2.108.918-.68 0-1.122-.17-1.326-.51-.204-.34-.147-.782.17-1.326.091-.136.25-.442.476-.918zm4.991 6.732a10.667 10.667 0 0 0 4.01-4.318c.929-1.813 1.167-3.559.713-5.236-.362-1.405-1.2-2.63-2.514-3.672-1.314-1.043-2.628-1.45-3.942-1.224-2.537.363-4.44 1.315-5.708 2.856-.363.453-.838.77-1.427.952-.499.09-.94.295-1.325.612s-.68.703-.884 1.156a2.37 2.37 0 0 0-.17 1.428c.09.861.136 1.53.136 2.006 0 .476-.034 1.077-.102 1.802-.068.725-.102 1.201-.102 1.428-.09 3.899.635 6.777 2.175 8.636 1.812 2.085 4.417 3.355 7.815 3.808 1.133.181 1.97-.159 2.515-1.02.18-.408.215-.907.102-1.496a4.014 4.014 0 0 0-.646-1.564 3.326 3.326 0 0 0-.646-.612c-.249-.181-.475-.295-.68-.34a35.406 35.406 0 0 1-.849-.204c-.362-.09-.611-.159-.747-.204-1.586-.453-2.787-1.247-3.602-2.38-.272-.408-.34-.77-.204-1.088a.304.304 0 0 1 .204-.17c.09-.023.204 0 .34.068.136.068.226.102.272.102 1.766.181 3.522-.26 5.266-1.326zm-16.89-19.822a9.877 9.877 0 0 0 1.495-3.876c.136-.861-.011-1.541-.442-2.04-.43-.499-1.076-.77-1.938-.816a2.7 2.7 0 0 0-1.224.272c-.725.363-1.348 1.167-1.87 2.414-.521 1.247-.623 2.3-.306 3.162.363.952 1.179 1.519 2.448 1.7.816.136 1.428-.136 1.836-.816zm2.005 12.138c.023-1.564.034-2.505.034-2.822v-1.36c0-.59-.011-1.031-.034-1.326a39.989 39.989 0 0 0-.102-1.088 4.813 4.813 0 0 0-.272-1.19c-.317-.816-.793-1.292-1.428-1.428-.906-.227-1.609-.023-2.108.612-.544.68-.816 1.564-.816 2.652v2.924c0 1.179.012 2.187.034 3.026.023.839.023 1.802 0 2.89a38.233 38.233 0 0 1-.17 2.992c-.045.725-.113 1.87-.204 3.434-.09 1.564-.17 2.81-.238 3.74-.068.93-.215 2.051-.442 3.366a19.88 19.88 0 0 1-.952 3.604c-.861 2.403-1.836 4.216-2.924 5.44-.226.317-.6.748-1.122 1.292a34.267 34.267 0 0 0-1.36 1.496 18.37 18.37 0 0 0-1.054 1.36c-.362.635-.442 1.28-.238 1.938.204.657.624 1.1 1.258 1.326 1.36.59 2.494.272 3.4-.952.363-.453 1.009-1.156 1.938-2.108.93-.952 1.598-1.723 2.006-2.312 1.587-2.584 2.584-4.805 2.992-6.664.182-.725.374-1.723.578-2.992.204-1.27.352-2.153.442-2.652.091-.59.17-1.247.238-1.972a36.22 36.22 0 0 0 .136-1.972c.023-.59.057-1.258.102-2.006.046-.748.114-1.417.204-2.006.046-.408.034-1.009-.034-1.802-.068-.793-.079-1.371-.034-1.734.091-.907.148-2.142.17-3.706zm-11.254-11.39c.59-.59.862-1.349.816-2.278-.045-.93-.272-1.643-.68-2.142-.408-.499-.974-.748-1.7-.748-.861 0-1.564.351-2.108 1.054-.544.703-.793 1.553-.748 2.55.046.59.295 1.156.748 1.7.454.544.907.816 1.36.816.952-.045 1.723-.363 2.312-.952zm-3.67 5.814c-.408.43-.635 1.031-.68 1.802a39.6 39.6 0 0 0-.273 3.366c-.046 1.156-.09 2.493-.136 4.012-.046 1.519-.068 2.64-.068 3.366v5.44c0 .227-.035 1.122-.103 2.686-.068 1.564-.011 2.46.17 2.686a2.32 2.32 0 0 0 1.022 1.496 2.884 2.884 0 0 0 1.84.476c1.362-.136 2.066-.93 2.111-2.38.091-1.496.114-2.63.068-3.4 0-.997.034-2.448.103-4.352.068-1.904.124-3.196.17-3.876.045-4.307.136-7.367.272-9.18 0-.408-.125-.816-.374-1.224-.25-.408-.613-.748-1.09-1.02a3.77 3.77 0 0 0-1.601-.476c-.545-.045-1.022.147-1.43.578zm-6.938-.918c-.816-.725-1.734-1.065-2.754-1.02-1.02.045-1.847.476-2.482 1.292-1.178 1.541-1.994 2.788-2.448 3.74-.136.227-.419.827-.85 1.802-.43.975-.816 1.757-1.156 2.346-.34.59-.691 1.156-1.054 1.7a28.78 28.78 0 0 1-.136-1.088c.091-1.224-.657-2.221-2.244-2.992-.77-.408-1.45-.238-2.04.51-.589.748-.884 1.53-.884 2.346-.09 1.541-.136 2.675-.136 3.4 0 .227.012.839.034 1.836.023.997.046 1.7.068 2.108.023.408.068.986.136 1.734s.17 1.417.306 2.006c.227.952.782 1.62 1.666 2.006.884.385 1.757.351 2.618-.102 1.043-.635 1.7-1.473 1.972-2.516.182-.59.42-1.224.714-1.904.295-.68.624-1.383.986-2.108.363-.725.635-1.36.816-1.904.363-.997 1.02-2.357 1.972-4.08.952-1.723 1.587-2.97 1.904-3.74.272-.544.59-.59.952-.136 1.134 1.405 1.768 2.153 1.904 2.244.408.453 1.032.714 1.87.782.839.068 1.462-.08 1.87-.442 1.088-.952 1.156-2.085.204-3.4-1.314-1.859-2.584-3.332-3.808-4.42zm-25.908 9.52c-.09-.136-.272-.306-.544-.51a4.248 4.248 0 0 1-.646-.578c-.158-.181-.192-.408-.102-.68.046-.136.136-.295.272-.476s.261-.329.374-.442c.114-.113.261-.25.442-.408a2.34 2.34 0 0 0 .408-.442c.046 0 .114-.045.204-.136l4.964-4.148c.408-.408.658-.907.748-1.496.091-.59-.045-1.156-.408-1.7-.68-.952-1.473-1.224-2.38-.816-1.178.59-2.085 1.133-2.72 1.632-.362.272-.759.623-1.19 1.054l-1.258 1.258c-.408.408-.793.748-1.156 1.02-1.632 1.179-2.833 2.244-3.604 3.196-.498.635-.997 1.065-1.496 1.292v-5.576c.091-2.765.431-7.843 1.02-15.232 0-.227.023-.487.068-.782.046-.295.08-.567.102-.816.023-.25.046-.51.068-.782a9.82 9.82 0 0 0 .034-.816c0-.272-.022-.544-.068-.816-.136-.816-.544-1.417-1.224-1.802-.68-.385-1.428-.329-2.244.17-.906.635-1.405 1.405-1.496 2.312-.181 2.13-.317 3.445-.408 3.944-.272 2.493-.521 5.463-.748 8.908-.136 2.312-.226 5.168-.272 8.568a706.67 706.67 0 0 0-.068 5.78c0 .136.012.329.034.578.023.25.034.465.034.646s-.011.385-.034.612c-.022.227-.068.43-.136.612a5.662 5.662 0 0 1-.238.544c-.045 0-.612.839-1.7 2.516-.408.59-.51 1.247-.306 1.972.204.725.635 1.235 1.292 1.53.658.295.964.669.918 1.122-.09.136-.124.895-.102 2.278.023 1.383.034 2.142.034 2.278 0 .045-.011.408-.034 1.088a53.45 53.45 0 0 0-.034 1.292c0 .181.034.51.102.986.068.476.17.873.306 1.19.227.635.601 1.122 1.122 1.462.522.34 1.009.397 1.462.17 1.36-.77 2.063-1.677 2.108-2.72.046-1.995.091-5.395.136-10.2v-2.074c0-.204.023-.521.068-.952.046-.43.125-.76.238-.986.114-.227.284-.499.51-.816.227-.317.499-.59.816-.816.544-.453.941-.68 1.19-.68.25 0 .624.25 1.122.748.771.725 1.995 2.29 3.672 4.692.272.363.952 1.326 2.04 2.89a610.504 610.504 0 0 1 2.516 3.638c.408.499.884.827 1.428.986.544.159 1.02.102 1.428-.17 1.859-1.088 2.222-2.493 1.088-4.216a131.348 131.348 0 0 0-7.752-10.88zm-25.84 9.044c-.544.544-1.156.748-1.836.612a.775.775 0 0 1-.306-.17 1.35 1.35 0 0 1-.17-.204 2.223 2.223 0 0 1-.238-.476 2.352 2.352 0 0 1-.102-.544c0-.068-.045-.578-.136-1.53.272-3.083 1.519-6.324 3.74-9.724.182-.181.363-.295.544-.34.59-.136 1.247.113 1.972.748.726.635 1.043 1.27.952 1.904-.544 3.944-2.017 7.185-4.42 9.724zm4.345-17.067c-.634-1.089-1.45-1.61-2.446-1.565-.499 0-1.008.09-1.53.272-.52.181-1.098.42-1.732.714-.635.295-1.11.51-1.428.647-.226.045-.453.385-.68 1.02-.045.136-.101.465-.17.986-.067.522-.17.896-.305 1.123-.725 1.043-1.405 2.335-2.039 3.877-1.314 2.994-1.97 5.76-1.97 8.3-.046.68.067 1.61.34 2.789.633 2.494 2.06 4.036 4.28 4.626 2.493.68 4.645.113 6.457-1.7 3.534-3.493 5.618-7.96 6.252-13.402.182-1.497-.079-2.823-.781-3.98-.702-1.156-1.756-2.075-3.16-2.755-.499-.227-.861-.544-1.088-.952zm-23.045 13.259v-7.276c0-.136.023-.442.068-.918.046-.476.068-.827.068-1.054-.181-1.224.272-2.244 1.36-3.06.544-.272.884-.351 1.02-.238.136.113.272.374.408.782.499 1.632.612 3.241.34 4.828-.498 3.173-1.586 5.485-3.264 6.936zm1.496-17.952c-.498.136-.748-.023-.748-.476.046-.227.08-.646.102-1.258.023-.612.057-1.122.102-1.53.046-.408.136-.816.272-1.224.318-1.043.408-2.221.272-3.536a2.247 2.247 0 0 0-.612-1.394 1.974 1.974 0 0 0-1.292-.646 2.762 2.762 0 0 0-2.21.544c-.657.499-1.008 1.156-1.054 1.972-.589 5.893-.974 9.883-1.156 11.968 0 .09-.102.657-.306 1.7-.204 1.043-.238 1.836-.102 2.38.136.544.182 1.337.136 2.38-.136 5.35-.158 8.75-.068 10.2.046.907-.068 1.655-.34 2.244-.272.59-.838 1.02-1.7 1.292-.77.272-1.212.77-1.326 1.496-.113.725.102 1.383.646 1.972.59.635 1.315.997 2.176 1.088.408.045.59.295.544.748 0 1.45.091 4.783.272 9.996-.045 1.587.295 2.788 1.02 3.604.816.952 1.7 1.27 2.652.952.408-.136.782-.487 1.122-1.054.34-.567.488-1.1.442-1.598a61.963 61.963 0 0 1-.272-4.284c-.045-1.496-.079-3.207-.102-5.134-.022-1.927-.056-3.343-.102-4.25 0-.09-.011-.306-.034-.646-.022-.34-.034-.59-.034-.748 0-.159.046-.374.136-.646.091-.272.227-.499.408-.68.182-.181.476-.487.884-.918.408-.43.726-.76.952-.986 1.632-1.768 2.947-3.434 3.944-4.998a15.748 15.748 0 0 0 2.108-5.134c.771-3.899.499-7.253-.816-10.064-1.36-2.947-3.332-4.057-5.916-3.332z"/></g></g></g></g></svg>