<svg xmlns="http://www.w3.org/2000/svg" width="481" height="150" viewBox="0 0 481 150"><g><g><g><g><g><g><path fill="#ec1d24" d="M46.22 45.553l4.986 107.231.417 14.226-5.403 3.491 9.107 3.008 19.297 1.339 27.082-4.347h30.386l28.403-1.598 23.043-3.879h25.177l34.349-2.247 14.532-.522 21.798 1.363 16.513.661 12.551.745 191.437-3.558.464-14.693-6.148-15.522-1.886-33.462 3.6-30.889 2.599-14.901 1.371-18.509-52.416 6.164-25.883 4.766s-87.376 10.538-216.184-.196z"/></g><g><path fill="none" stroke="#231f20" stroke-miterlimit="50" stroke-width="3" d="M32.576 46.676l1.895-.374v-4.869c0-4.494.63-5.992 2.525-5.992v.374c-.63.75-1.263 8.614-.63 9.738.63.75.63.75 4.42.374 1.895-.374 3.79-.749 4.42-1.123 0-.375.632-.375 1.264-.375 0 0 .63 0 .63-.374 0-3.746 1.264-5.618 2.527-5.244 1.263 0 1.894 2.622.632 3.371 0 .374-.632 1.123-1.264 1.873 0 .75 0 1.123 1.264.75.631 0 3.79-.376 7.578-.75 3.157 0 7.578-.375 10.104-.75 1.895 0 5.684-.374 8.21-.374 10.104-.749 25.892-2.247 30.313-2.247 2.525-.375 12.63-.375 23.366-.375 36.628.375 73.256.375 75.782-.374 1.895 0 23.366-.375 75.781-.375 56.837 0 75.152-.374 83.362-.749 5.683-.374 16.42-.374 23.366-.374 16.42-.375 37.26-.749 48.626-1.498 4.421-.375 10.104-.749 12.631-1.124 2.526 0 8.21-.374 12.63-.749 5.683-.374 10.104-.749 20.21-.374 11.998 0 13.26 0 13.892-.749.632-.749 1.895-.749 1.895.374-.632 1.124.631.375 1.262-1.498 1.264-1.498 2.527-2.62 3.16-2.247.63 0 .63 1.124.63 2.622-.63 1.872 0 1.872.631 1.872 1.895.375 1.895.75.632 1.873-1.894 1.123-1.263 2.247.631 8.24 1.264 3.744 1.264 5.242 1.264 18.351 0 7.49 0 19.1-.632 25.842 0 17.227.632 32.583 2.526 41.946.631 3.745 1.263 7.115.631 14.605 0 7.866 0 10.113.632 14.607 1.263 4.494 1.263 5.243.632 5.618-.632.75-1.264.75-2.527.374-1.894-.749-13.26-.374-22.103 0-3.157.375-8.209.75-11.367 1.124-7.578.374-44.838.374-56.205 0-4.42-.375-22.735-.375-39.785-.375-62.52 0-85.255.75-102.938 2.247-4.42.75-10.736 1.124-15.156 1.124-18.315 1.123-45.47 3.745-52.416 5.243-5.053 1.124-24.63 1.124-29.05 0-1.264 0-3.789-.375-5.685-.375-4.42-.748-9.472-1.123-15.787-2.247-3.158-.374-6.315-.749-7.579-.749-1.263 0-3.157 0-5.052-.374-4.42-.749-10.735-.749-20.839 0-3.158.374-8.842.374-16.42.75-3.158 0-6.315.373-8.209.748-1.895.374-3.789.374-5.053.374-.632 0-2.525.375-4.42.75-1.264.748-3.79.748-5.053.748-1.262 0-3.789.375-5.683 1.124-6.316 1.124-16.419 2.247-23.367 2.622-1.894 0-4.42.374-5.683.374-1.895.375-1.895 0-1.895-.374 0-.375 0-.749.632-.749h3.157c1.263 0 1.895-.375 1.263-.749-.63-.375-1.263-.375-1.894-.375l-5.052-2.247c-2.527-1.124-5.053-2.247-5.684-2.622-.632 0-1.262-.374-1.894-.749l-3.789-3.745-3.159-3.745V153.79c0-5.993.632-11.985 1.264-13.483 0-1.498.631-4.12.631-5.618.632-1.498 1.264-3.37 1.264-4.494 1.894-3.37 2.525-14.607 1.894-31.459-.632-9.738-.632-22.846-.632-29.588.632-6.74 0-14.606 0-16.853l-.632-4.869-1.894.375c-3.157 0-3.789-.749-.63-1.124zM33.84 160.16c0-.379-.632-.379-.632-.379v1.134c.632 0 .632-.378.632-.755zm.622-15.73c0-2.25-.626-4.124-.626-3.75-.626 0-.626 7.875 0 7.875 0 0 .626-1.875.626-4.125zm46.11 29.96c-12.63.375-13.893.375-13.893-.376.631-.75 0-.75-6.316-.375-3.157 0-7.578.375-9.472.375l-3.158.376 1.263.75c1.264.375 1.895.751 2.526.751 0 0 1.263.375 3.158 1.126 2.526.751 2.526 1.126 6.315.751 1.895 0 5.684-.376 7.578-.75 1.895-.376 3.79-.376 5.053-.376.631 0 1.263-.376 1.894-.376.631-.75 5.052-1.126 8.21-1.126 1.894 0 3.788-.375 3.788-.75.632-.376-1.262-.376-6.946 0zm135.154-1.876h-14.527c-3.158-.374-6.948-.749-8.842-.749-15.79-1.123-32.212-1.498-44.212-1.123l-5.052.374 2.525.375c1.265.374 3.79.374 5.054.374 1.894 0 3.79.375 5.684.75 1.263.374 3.79.748 5.684.748 3.79.375 11.369 1.124 15.79 1.873 1.264.374 5.053.75 7.58.75 3.157 0 5.684.373 5.684.373h2.526c1.264 0 4.42-.374 7.58-.749 3.158 0 6.947-.374 8.21-.748 1.263-.375 5.053-.75 8.21-1.124l6.317-.749c.632-.375-3.158-.375-8.21-.375zm284.174-8.239l-1.263-.374c-1.263-.375-1.263-.749-1.263-1.124 0-.749-.63-.749-5.052.375-5.683 1.498-14.525 1.872-29.68 1.872-5.685 0-12.63.375-15.79.375h-14.524c-8.21-.375-14.525-.749-34.733-1.124-5.684 0-14.526-.374-20.209-.374-11.368-.749-25.26-.375-46.733.374-13.893.375-30.944.375-44.838 0-20.208-.749-33.47-.749-46.1-.374-14.526.374-13.262.374-17.683.75-9.473.748-20.209 1.122-32.839 1.497-2.526 0-5.683 0-6.946.374-1.264 0-3.158.375-4.42.375-1.264 0-3.158.374-3.158.374-.632 0-5.685.375-11.368.75-9.473.748-17.05 1.497-18.314 1.872h13.894c13.892 0 20.208.374 30.312 1.123 4.421 0 16.42.75 25.893.75h12c10.734-.75 20.207-1.124 25.26-1.873 1.262 0 6.946-.375 11.367-.749 5.052-.375 11.367-.749 13.892-1.124 6.948-.374 15.788-.749 25.893-1.123 3.79 0 12-.375 17.051-.749h74.52c35.995 0 68.834 0 71.992-.375 3.79 0 10.736-.374 15.79-.374 8.84 0 11.366-.375 15.155-.749zm2.527-3.364c.631-.756.631-.756-.632-.378-.632 0-1.263.378-1.263.378-.632.755.631.755 1.895 0zm-1.264-2.253c0 .374 0 .374.637.374 0 0 .637-.374.637-.749 0-.374-.637-.374-.637-.374-.637 0-.637 0-.637.75zm1.274-3.377c0-2.988-.637-3.362-1.274-.747v2.242c1.274.374 1.274 0 1.274-1.495zm.631 7.122l-.636-.375h-.637c0 .375 0 .75.637.75zm1.253-53.93c0-.376-.632 2.62-.632 5.991 0 6.367 0 17.228-.63 24.344-.632 5.992.63 18.352 1.893 18.726.632.375.632.375 0 .75-.63.374-.63 1.872-1.263 2.995 0 1.873 0 2.247 1.263 2.247.632 0 1.264 0 1.264.75 0 .374 0 .748 1.262.748 1.263 0 1.263-.374.632-2.247 0-1.123-.632-2.62-.632-2.996-.63-.749-.63-7.115-.63-14.607 0-15.729-1.264-36.328-2.527-36.702zm-1.894-37.828c0 2.248.631 7.116.631 11.61l.631 7.866.632-5.244c0-2.996.631-6.74.631-8.988 1.264-7.49 1.264-19.475 0-25.093-1.263-2.996-1.263-5.992-1.263-6.367 0-.374-.63-.749-.63-.749-1.264.375-1.896 19.85-.632 26.965zm-1.895.749c0-2.622-.632-5.244-.632-5.618 0-.749 0-3.744-.632-5.991 0-4.868 0-4.868-.63-1.873-.632 3.745-1.895 15.728-2.527 19.847 0 2.995-.632 4.868-1.894 10.112v13.106c0 12.732.631 20.222 3.157 26.962 1.263 2.622 3.158 10.86 3.158 11.608 0 0 .631.374.631 0 0 0 .632-1.497.632-3.37 0-1.498.632-10.11.632-18.35.631-14.23.631-23.591-.632-34.077-.632-5.242-.632-8.238-1.263-12.356zm-.632-22.096l.632-2.996v-5.244c0-1.872 0-1.872-.632-.749-.632.75-.632 2.247-.632 4.87zm-.632-10.86c.632 0 1.264-.376 1.264-1.125.631-.749 0-1.123-.632-.749-1.263.375-1.263 1.873-.632 1.873zm-1.894.373c0 .375.637.375 1.273.375v-.749c-.636-.375-1.273-.375-1.273.374zm-99.779.75c.631.374 10.736.748 27.158.748 8.842 0 15.79.375 15.79.375h10.105c7.579 0 10.105-.375 20.21-1.873 6.317-1.123 13.895-1.872 16.42-2.247l4.422-.374-2.526-.375c-3.79-.749-21.474-.374-28.421 0-1.895.375-7.579.75-11.368 1.124-4.422.374-10.106.75-12 .75-6.947.748-27.159 1.497-36.633 1.497-1.895 0-3.157 0-3.157.374zm91.562-2.248c-5.046.375-8.199 1.124-3.153.75 1.891 0 3.784-.375 5.045-.375.63-.375 0-.375-1.892-.375zm-10.097 1.498h.631c1.264 0 1.895-.374 1.895-.374.632-.375-1.895 0-2.526.374zM199.93 42.56c-4.42.375-12.63.75-18.947.75-6.946.375-13.26.75-13.893 1.125-2.526.375-11.367.75-25.26 1.125-4.42.374-6.947.374-6.947.75h3.79c1.893 0 7.577-.376 11.998-.376 4.421-.374 11.367-.75 15.788-1.124 8.841-.375 24.63-.375 30.312 0 2.527 0 10.737.374 18.946.374 13.893.376 32.84 1.126 41.05 1.876 8.21.374 32.837 1.124 64.414 1.5 26.523.374 41.048.374 54.31-.376 4.421 0 8.841-.375 9.473-.375 1.262 0 5.053-.375 9.472-.75 4.421 0 10.105-.75 13.262-1.125 10.736-1.124 20.21-2.25 34.734-3.749 3.158 0 5.052-.375 5.052-.375s-10.104-.375-22.103-.75c-22.103 0-24.629-.374-31.575-1.124-4.42-.376-20.84-.376-26.525 0-11.367.75-23.997.75-41.68.75-30.313 0-102.937 1.124-125.67 1.874zM55.942 45.543h20.84c10.105-.374 27.155-.374 37.26-.374 17.683 0 25.261-.373 34.733-1.12h8.841c1.895 0 5.053-.374 7.578-.748 4.421-.374 12.631-.748 22.104-1.12 9.472-.375 5.052-.375-11.999-.748-33.47-.374-65.046-.374-72.624.373-4.42.374-11.999.747-17.683 1.495-6.315.374-13.262.748-17.05 1.121-3.159.374-7.58.747-9.474.747-3.158 0-3.789 0-2.526.374zm-18.946 3.38c0 .375.632 12.36.632 26.591.632 35.58.632 37.826.632 37.452.632 0 1.262-1.873 1.262-3.37.632-1.873 1.263-4.869 1.895-6.367 1.264-5.243 3.158-13.483 3.158-19.476.631-5.617.631-22.47 0-31.459-.632-4.869-.632-5.243-1.894-5.243h-3.789c-1.896.374-1.896.374-1.896 1.872zm-.63 93.255c-1.265 14.607-.633 22.846 1.894 25.093a13.406 13.406 0 0 0 1.262 1.873c.632 0 1.263.374 1.895 1.123 1.264 1.498 3.79 2.622 6.947 2.996 3.157.375 4.42.375 5.684-.374.631-.375 1.262-.375 1.262-.375l1.263-.749c.632-.749 1.264-.749.632 0l-.632 1.124 16.42-.375c23.366-.374 27.787-.374 32.84-.749 3.156-.374 10.103-1.123 19.576-1.498 5.684-.374 14.525-1.123 24.63-1.872 1.894-.375 6.946-.749 11.366-1.124 4.421-.374 11.367-.749 14.526-1.498 7.578-.749 10.735-.749 23.366-1.123 4.421 0 13.893-.749 20.84-1.124 6.315-.374 15.156-.749 19.577-.749 5.052-.374 8.841-.374 9.472-.374h10.737c27.786 1.123 58.73 1.498 74.518.75 13.894-.75 32.84-1.125 44.838-.376 5.684 0 13.894.375 18.946.375 20.208.374 29.05.75 33.47 1.123 4.421.375 32.84 0 46.733-.749 7.578 0 8.21-.374 19.577-2.996.631 0 .631-.749 1.262-1.498 0-1.066-.013-1.452-1.089-1.49a1.693 1.693 0 0 0-.039-1.133c1.13-.034 1.152-.567 1.76-5.617.632-3.37.632-6.367 0-7.49 0-1.124-.632-3.37-.632-4.494-.63-1.498-1.894-5.243-2.525-7.865-3.158-8.239-3.79-15.73-4.42-28.089 0-7.865 0-12.359.63-16.105 1.264-4.868 1.264-9.362 3.158-20.972.632-7.865.632-8.988 1.895-11.985 1.262-2.996.631-6.74-.632-11.236-1.263-4.119-1.263-4.119-4.42-3.745-1.895.375-4.42.375-6.947.375-1.895 0-6.316.374-9.473.75-3.789.373-8.21.748-10.736 1.122-2.526 0-6.947.375-10.736 1.124-8.84.75-12.63 1.123-20.209 1.873-3.789.374-12.629 1.123-18.945 2.247-6.946.75-15.156 1.498-18.945 1.498-6.316.75-15.788 1.123-20.209 1.498-2.526 0-19.577.75-22.735.75-1.262 0-12.629 0-25.26-.376-12.63 0-27.156-.374-31.576-.374-4.42 0-10.104-.375-13.262-.375-3.157 0-8.84-.374-13.262-.374-4.42 0-8.21-.375-8.21-.749-1.263-.375-1.263-.375-.63 0 0 .374 0 .374-.633.374-1.262-.374-12.63-.749-18.314-1.123-3.157 0-6.314-.375-7.578-.375-1.263 0-7.578-.374-14.525-.374-7.578 0-17.682-.375-22.103-.749-8.84-.375-32.207 0-32.839.374-.632 0-3.157.375-5.684.375-2.526 0-8.84.374-13.893.75h-15.788c-8.209-.376-46.1-.376-61.889 0h-17.05l-3.158.373.631 3.371c0 2.247.632 5.993.632 8.614.632 11.61 1.894 28.838 1.894 33.707 0 2.621.632 7.49.632 10.486.631 3.371.631 15.73.631 29.962 0 19.101.632 24.344 1.264 25.467.631.75.631 2.247.631 4.87l-.63 4.118-1.896 1.124c-1.263.374-3.158.75-3.789.75-1.264 0-1.264 0 .631-.376 2.526-1.123 3.79-3.37 2.526-7.49 0-.749-.63-14.232-.63-30.336 0-16.105-.632-29.587-.632-29.587 0-.374-.632-6.74-.632-14.23 0-7.867-.632-14.233-.632-14.608 0 0-.63-4.12-1.263-8.988-1.262-16.854-1.262-17.228-1.262-1.124.63 18.351-.632 30.336-3.159 39.325-.63 1.498-1.262 4.868-1.894 7.49-1.263 2.247-1.895 4.868-1.895 5.617-1.262 4.87-1.894 7.117-1.894 10.862 0 2.247 0 6.367-.632 8.988 0 2.247-.63 5.618-.63 6.741z"/></g></g></g><g><path fill="#fff" d="M394.722 105.594c.09-.635-.227-1.27-.953-1.904-.727-.635-1.385-.884-1.975-.748-.182.045-.363.159-.545.34-2.224 3.4-3.473 6.641-3.745 9.724.09.952.136 1.462.136 1.53a2.35 2.35 0 0 0 .102.544 2.222 2.222 0 0 0 .238.476c.046.068.103.136.17.204.069.068.171.125.307.17.681.136 1.294-.068 1.839-.612 2.406-2.539 3.881-5.78 4.426-9.724zm1.002-6.391c1.405.68 2.458 1.599 3.16 2.755.703 1.157.963 2.483.782 3.98-.634 5.442-2.718 9.909-6.252 13.401-1.813 1.814-3.965 2.381-6.457 1.7-2.22-.589-3.647-2.13-4.281-4.625-.272-1.18-.385-2.109-.34-2.79 0-2.539.657-5.305 1.97-8.299.635-1.542 1.315-2.834 2.04-3.877.136-.227.238-.601.306-1.123.067-.521.124-.85.17-.986.226-.635.452-.975.679-1.02.317-.136.793-.352 1.427-.647a18.937 18.937 0 0 1 1.733-.714 4.634 4.634 0 0 1 1.53-.272c.996-.045 1.812.476 2.446 1.565.226.408.589.725 1.087.952zm-13.116-2.245c.317.317.499.793.544 1.428.045.635-.09 1.156-.408 1.564-1.315 1.768-2.72 4.08-4.216 6.936-1.723 3.31-3.083 6.188-4.08 8.636a93.996 93.996 0 0 1-2.244 4.964c-.181.408-.374 1.043-.578 1.904-.204.861-.42 1.519-.646 1.972-.317.59-.85 1.1-1.598 1.53-.748.43-1.394.578-1.938.442-1.179-.181-1.95-.952-2.312-2.312-1.224-4.035-2.607-10.155-4.148-18.36-.045-.272-.181-.895-.408-1.87a39.244 39.244 0 0 1-.476-2.278c-.181-1.587.136-2.743.952-3.468.635-.544 1.371-.714 2.21-.51.839.204 1.337.703 1.496 1.496.159.793.329 1.632.51 2.516.181.884.374 1.859.578 2.924.204 1.065.351 1.893.442 2.482.77 3.808 1.473 6.89 2.108 9.248.725-.77 1.428-2.085 2.108-3.944.408-1.133 1.133-2.675 2.176-4.624a239.94 239.94 0 0 0 1.836-3.468c.68-1.45 1.881-3.377 3.604-5.78.408-.544.997-1.065 1.768-1.564 1.043-.68 1.95-.635 2.72.136zm-36.924 12.998c2.04-3.042 3.332-5.402 3.876-7.082-.861.68-1.7 1.77-2.516 3.269-.816 1.498-1.27 2.769-1.36 3.813zm14.96 14.823c.09.499.023.998-.204 1.497a2.308 2.308 0 0 1-1.054 1.122c-.476.25-.975.317-1.496.204-.521-.113-.94-.351-1.258-.714-.725-.907-1.201-1.996-1.428-3.265-.272-1.451-.975-4.853-2.108-10.204-.09-.272-.17-.691-.238-1.258-.068-.567-.159-1.1-.272-1.599a9.523 9.523 0 0 0-.442-1.428c-.499 1.043-1.315 2.358-2.448 3.945-1.133 1.587-1.836 2.63-2.108 3.13-.725 1.178-1.734 1.893-3.026 2.142-1.292.25-2.414-.034-3.366-.85-.499-.408-.861-1.043-1.088-1.905-.499-1.905-.385-4.24.34-7.006 1.088-3.855 2.992-7.188 5.712-10 2.04-2.13 4.284-2.63 6.732-1.496 1.224.544 1.881 1.837 1.972 3.877.045.5.215.93.51 1.293.295.363.533.748.714 1.156.181.408.363.986.544 1.735.181.748.295 1.19.34 1.326.317 1.18.646 2.914.986 5.204.34 2.29.646 3.956.918 5 .453 1.723.77 3.333.952 4.829.045.272.317 1.36.816 3.265zm-22.702-7.625c1.134 1.723.77 3.128-1.089 4.216-.408.272-.884.329-1.428.17-.545-.159-1.02-.487-1.429-.986a610.31 610.31 0 0 0-2.517-3.638c-1.088-1.564-1.769-2.527-2.04-2.89-1.679-2.403-2.903-3.967-3.674-4.692-.5-.499-.873-.748-1.123-.748s-.646.227-1.19.68c-.318.227-.59.499-.817.816-.226.317-.396.59-.51.816-.113.227-.193.555-.238.986-.045.43-.068.748-.068.952v2.074c-.045 4.805-.09 8.205-.136 10.2-.045 1.043-.748 1.95-2.109 2.72-.453.227-.94.17-1.462-.17s-.896-.827-1.123-1.462c-.136-.317-.238-.714-.306-1.19s-.102-.805-.102-.986c0-.181.011-.612.034-1.292.023-.68.034-1.043.034-1.088 0-.136-.011-.895-.034-2.278-.023-1.383.011-2.142.102-2.278.045-.453-.26-.827-.918-1.122-.658-.295-1.089-.805-1.293-1.53-.204-.725-.102-1.383.306-1.972 1.089-1.677 1.656-2.516 1.7-2.516.092-.181.171-.363.239-.544.068-.181.113-.385.136-.612.023-.227.034-.43.034-.612a7.27 7.27 0 0 0-.034-.646 6.84 6.84 0 0 1-.034-.578c0-.59.023-2.516.068-5.78.045-3.4.136-6.256.272-8.568.227-3.445.476-6.415.748-8.908.091-.499.227-1.813.409-3.944.09-.907.59-1.677 1.496-2.312.817-.499 1.565-.555 2.245-.17.68.385 1.089.986 1.225 1.802.045.272.068.544.068.816 0 .272-.012.544-.034.816l-.068.782c-.023.25-.057.521-.102.816a5.21 5.21 0 0 0-.068.782c-.59 7.39-.93 12.467-1.02 15.232v5.576c.498-.227.997-.657 1.496-1.292.77-.952 1.973-2.017 3.605-3.196.363-.272.749-.612 1.157-1.02l1.258-1.258c.431-.43.828-.782 1.19-1.054.636-.499 1.543-1.043 2.722-1.632.907-.408 1.7-.136 2.38.816.364.544.5 1.11.41 1.7-.092.59-.341 1.088-.75 1.496l-4.965 4.148c-.091.09-.159.136-.204.136-.091.136-.227.283-.409.442a9.32 9.32 0 0 0-.442.408c-.113.113-.238.26-.374.442-.136.181-.227.34-.272.476-.09.272-.057.499.102.68.159.181.374.374.646.578.272.204.454.374.545.51a131.351 131.351 0 0 1 7.755 10.88zm-51.418-7.198c2.04-3.042 3.332-5.402 3.876-7.082-.861.68-1.7 1.77-2.516 3.269-.816 1.498-1.27 2.769-1.36 3.813zm14.96 14.823c.09.499.023.998-.204 1.497a2.308 2.308 0 0 1-1.054 1.122c-.476.25-.975.317-1.496.204-.521-.113-.94-.351-1.258-.714-.725-.907-1.201-1.996-1.428-3.265-.272-1.451-.975-4.853-2.108-10.204-.09-.272-.17-.691-.238-1.258-.068-.567-.159-1.1-.272-1.599a9.523 9.523 0 0 0-.442-1.428c-.499 1.043-1.315 2.358-2.448 3.945-1.133 1.587-1.836 2.63-2.108 3.13-.725 1.178-1.734 1.893-3.026 2.142-1.292.25-2.414-.034-3.366-.85-.499-.408-.861-1.043-1.088-1.905-.499-1.905-.385-4.24.34-7.006 1.088-3.855 2.992-7.188 5.712-10 2.04-2.13 4.284-2.63 6.732-1.496 1.224.544 1.881 1.837 1.972 3.877.045.5.215.93.51 1.293.295.363.533.748.714 1.156.181.408.363.986.544 1.735.181.748.295 1.19.34 1.326.317 1.18.646 2.914.986 5.204.34 2.29.646 3.956.918 5 .453 1.723.77 3.333.952 4.829.045.272.317 1.36.816 3.265zm-23.732-4.429c0 .317.034.839.102 1.564.068.725.102 1.247.102 1.564 0 .317-.023.839-.068 1.564-.227 1.27-.907 1.995-2.04 2.176a2.723 2.723 0 0 1-1.632-.374c-.499-.295-.884-.737-1.156-1.326-.272-.499-.408-1.179-.408-2.04-.272-7.797-.453-12.58-.544-14.348a10.93 10.93 0 0 1-.068-1.326v-1.36c0-.385-.023-.839-.068-1.36a7.27 7.27 0 0 0-.272-1.462 556.092 556.092 0 0 0-2.856 4.488c-.453.725-1.224 1.972-2.312 3.74a1934.95 1934.95 0 0 1-2.516 4.08 3.642 3.642 0 0 1-1.02 1.02 3.6 3.6 0 0 1-1.258.544c-.43.09-.873.09-1.326 0a2.96 2.96 0 0 1-1.666-1.156c-.43-.59-.669-1.292-.714-2.108-.227-3.763-.113-8.296.34-13.6.045-.499.102-1.258.17-2.278.068-1.02.125-1.78.17-2.278.045-.59.317-1.156.816-1.7.499-.544 1.043-.861 1.632-.952 1.043-.136 1.859.295 2.448 1.292.181.227.295.51.34.85.045.34.068.612.068.816 0 .204-.034.533-.102.986-.068.453-.102.725-.102.816-.272 3.355-.43 6.392-.476 9.112.272.09.499-.023.68-.34.317-.725.703-1.45 1.156-2.176a74.25 74.25 0 0 1 1.632-2.482c.635-.93 1.11-1.62 1.428-2.074.997-1.541 1.95-2.652 2.856-3.332.816-.59 1.745-.737 2.788-.442 1.043.295 1.768.918 2.176 1.87.635 1.315.997 3.264 1.088 5.848.09 1.496.17 3.219.238 5.168.068 1.95.125 3.887.17 5.814.045 1.927.113 3.66.204 5.202zm-45.696-15.232c-.317.544-.374.986-.17 1.326.204.34.646.51 1.326.51.635.045 1.337-.26 2.108-.918.77-.657 1.337-1.417 1.7-2.278.317-.77.204-1.405-.34-1.904-.453-.408-1.088-.453-1.904-.136a3.097 3.097 0 0 0-1.02.646c-.317.295-.544.555-.68.782-.136.227-.317.578-.544 1.054-.227.476-.385.782-.476.918zm.204 7.14c-.045 0-.136-.034-.272-.102-.136-.068-.25-.09-.34-.068a.304.304 0 0 0-.204.17c-.136.317-.068.68.204 1.088.816 1.133 2.017 1.927 3.604 2.38.136.045.385.113.748.204.363.09.646.159.85.204.204.045.43.159.68.34.25.181.465.385.646.612.317.453.533.975.646 1.564.113.59.08 1.088-.102 1.496-.544.861-1.383 1.201-2.516 1.02-3.4-.453-6.007-1.723-7.82-3.808-1.541-1.859-2.267-4.737-2.176-8.636 0-.227.034-.703.102-1.428a19.97 19.97 0 0 0 .102-1.802c0-.476-.045-1.145-.136-2.006a2.37 2.37 0 0 1 .17-1.428c.204-.453.499-.839.884-1.156a2.854 2.854 0 0 1 1.326-.612 2.854 2.854 0 0 0 1.428-.952c1.27-1.541 3.173-2.493 5.712-2.856 1.315-.227 2.63.181 3.944 1.224 1.315 1.043 2.153 2.267 2.516 3.672.453 1.677.215 3.423-.714 5.236a10.67 10.67 0 0 1-4.012 4.318c-1.745 1.065-3.502 1.507-5.27 1.326zm-3.808-22.644c1.45 1.179 1.904 2.267 1.36 3.264-.227.408-.703.714-1.428.918a3.924 3.924 0 0 1-2.108.034c-.363-.09-.873-.204-1.53-.34a22.193 22.193 0 0 1-1.462-.34c-.317-.09-.533-.057-.646.102-.113.159-.125.374-.034.646.09.317.136.646.136.986 0 .34-.023.748-.068 1.224-.045.476-.068.805-.068.986-.045.544-.08 1.179-.102 1.904-.023.725-.034 1.45-.034 2.176v1.904c-.045.725-.057 2.335-.034 4.828.023 2.493-.057 4.08-.238 4.76-.045.363-.034.895.034 1.598.068.703.102 1.213.102 1.53-.09 1.541-.408 2.63-.952 3.264a5.591 5.591 0 0 0-.442.476c-.068.09-.227.227-.476.408-.25.181-.442.25-.578.204-.136-.045-.363-.068-.68-.068-.907-.272-1.45-.975-1.632-2.108-.181-1.179-.25-2.063-.204-2.652 0-.181.034-1.054.102-2.618a88.97 88.97 0 0 0 .102-3.57c0-1.723.023-3.173.068-4.352 0-.136.023-2.652.068-7.548.045-2.176.068-3.717.068-4.624a.55.55 0 0 0-.102-.34.584.584 0 0 0-.17-.17c-.045-.023-.159-.034-.34-.034h-.34c-.499-.09-1.655-.113-3.468-.068s-2.97.045-3.468 0c-.59 0-1.122-.25-1.598-.748-.476-.499-.737-1.065-.782-1.7a2.388 2.388 0 0 1 .476-1.632c.363-.499.839-.793 1.428-.884 1.677-.317 3.49-.43 5.44-.34 1.496.09 2.38.011 2.652-.238.272-.25.43-1.122.476-2.618.045-.363.068-.77.068-1.224 0-.453.011-.907.034-1.36.023-.453.034-.861.034-1.224.09-1.45.793-2.221 2.108-2.312.499 0 .986.204 1.462.612.476.408.76.907.85 1.496.181 1.315.227 2.312.136 2.992-.045.725-.023 2.04.068 3.944.045.635.385 1.02 1.02 1.156 2.221.408 3.785.975 4.692 1.7zm-20.332 8.704c-1.133 1.088-1.813 2.312-2.04 3.672-.136.725.023 1.315.476 1.768.136.136.521.533 1.156 1.19a26.837 26.837 0 0 0 1.496 1.462c1.813 1.632 2.901 3.445 3.264 5.44.272 1.179.034 2.516-.714 4.012-.748 1.496-1.802 2.584-3.162 3.264-2.539 1.27-4.805 1.723-6.8 1.36a6.367 6.367 0 0 0-1.02-.068h-1.02c-.408-.045-.861-.295-1.36-.748-.499-.453-.793-.884-.884-1.292-.09-.453.011-.975.306-1.564.295-.59.646-.952 1.054-1.088.045 0 .793-.045 2.244-.136.317.09.68.136 1.088.136.408 0 .748-.023 1.02-.068.272-.045.657-.125 1.156-.238.499-.113.861-.193 1.088-.238.68-.136 1.235-.453 1.666-.952.43-.499.555-1.02.374-1.564-.227-.861-.725-1.61-1.496-2.244-1.859-1.496-3.264-3.037-4.216-4.624-.861-1.496-.997-3.355-.408-5.576.59-1.95 1.519-3.536 2.788-4.76 2.085-2.04 4.307-2.765 6.664-2.176.907.227 1.757.827 2.55 1.802.793.975 1.19 1.915 1.19 2.822.045.816-.272 1.44-.952 1.87-.68.43-1.405.465-2.176.102-1.088-.499-1.79-.997-2.108-1.496-.317-.544-.725-.567-1.224-.068zm-19.584 6.8c-.317.544-.374.986-.17 1.326.204.34.646.51 1.326.51.635.045 1.337-.26 2.108-.918.77-.657 1.337-1.417 1.7-2.278.317-.77.204-1.405-.34-1.904-.453-.408-1.088-.453-1.904-.136a3.097 3.097 0 0 0-1.02.646c-.317.295-.544.555-.68.782-.136.227-.317.578-.544 1.054-.227.476-.385.782-.476.918zm.204 7.14c-.045 0-.136-.034-.272-.102-.136-.068-.25-.09-.34-.068a.304.304 0 0 0-.204.17c-.136.317-.068.68.204 1.088.816 1.133 2.017 1.927 3.604 2.38.136.045.385.113.748.204.363.09.646.159.85.204.204.045.43.159.68.34.25.181.465.385.646.612.317.453.533.975.646 1.564.113.59.08 1.088-.102 1.496-.544.861-1.383 1.201-2.516 1.02-3.4-.453-6.007-1.723-7.82-3.808-1.541-1.859-2.267-4.737-2.176-8.636 0-.227.034-.703.102-1.428a19.97 19.97 0 0 0 .102-1.802c0-.476-.045-1.145-.136-2.006a2.37 2.37 0 0 1 .17-1.428c.204-.453.499-.839.884-1.156a2.854 2.854 0 0 1 1.326-.612 2.854 2.854 0 0 0 1.428-.952c1.27-1.541 3.173-2.493 5.712-2.856 1.315-.227 2.63.181 3.944 1.224 1.315 1.043 2.153 2.267 2.516 3.672.453 1.677.215 3.423-.714 5.236a10.67 10.67 0 0 1-4.012 4.318c-1.745 1.065-3.502 1.507-5.27 1.326zm-7.82-11.084c.952 1.315.884 2.448-.204 3.4-.408.363-1.031.51-1.87.442-.839-.068-1.462-.329-1.87-.782-.136-.09-.77-.839-1.904-2.244-.363-.453-.68-.408-.952.136-.317.77-.952 2.017-1.904 3.74-.952 1.723-1.61 3.083-1.972 4.08a14.924 14.924 0 0 1-.816 1.904 42.579 42.579 0 0 0-.986 2.108c-.295.68-.533 1.315-.714 1.904-.272 1.043-.93 1.881-1.972 2.516-.861.453-1.734.487-2.618.102-.884-.385-1.44-1.054-1.666-2.006a15.032 15.032 0 0 1-.306-2.006 53.02 53.02 0 0 1-.136-1.734 74.616 74.616 0 0 1-.068-2.108 120.59 120.59 0 0 1-.034-1.836c0-.725.045-1.859.136-3.4 0-.816.295-1.598.884-2.346.59-.748 1.27-.918 2.04-.51 1.587.77 2.335 1.768 2.244 2.992 0 .045.045.408.136 1.088.363-.544.714-1.11 1.054-1.7.34-.59.725-1.371 1.156-2.346.43-.975.714-1.575.85-1.802.453-.952 1.27-2.199 2.448-3.74.635-.816 1.462-1.247 2.482-1.292 1.02-.045 1.938.295 2.754 1.02 1.224 1.088 2.493 2.561 3.808 4.42zm-29.308 5.032c.09-.09.283-.329.578-.714.295-.385.51-.646.646-.782s.34-.351.612-.646c.272-.295.533-.544.782-.748.25-.204.51-.397.782-.578a14.2 14.2 0 0 1-.442-.476 14.329 14.329 0 0 0-.476-.51 1.978 1.978 0 0 1-.34-.51 5.71 5.71 0 0 1-.306-.748c-2.63 3.219-4.284 6.324-4.964 9.316.816-.861 1.859-2.063 3.128-3.604zm6.664-2.244c.68.816.907 1.972.68 3.468-.136.816-.77 4.42-1.904 10.812-1.179 6.664-1.836 10.517-1.972 11.56a97.42 97.42 0 0 1-.884 6.052c-.181.816-.521 1.428-1.02 1.836-.499.408-1.088.567-1.768.476-1.723-.272-2.493-1.292-2.312-3.06.045-.68.159-1.655.34-2.924l.408-2.856c.09-1.043.329-2.561.714-4.556.385-1.995.623-3.468.714-4.42.09-.499.181-1.031.272-1.598.09-.567.193-1.077.306-1.53.113-.453.238-.997.374-1.632.136-.635.25-1.179.34-1.632l.068-.884c-1.36 1.723-2.108 2.652-2.244 2.788-1.088 1.224-1.927 2.04-2.516 2.448-1.405.861-2.743.884-4.012.068-1.133-.68-1.7-1.836-1.7-3.468 0-3.445.997-7.163 2.992-11.152 1.405-2.901 2.992-5.168 4.76-6.8 1.632-1.541 3.219-2.29 4.76-2.244.725 0 1.383.215 1.972.646.59.43 1.02 1.009 1.292 1.734.453 1.27.59 2.403.408 3.4-.09.59-.181.93-.272 1.02-.227.181-.385.351-.476.51a8.19 8.19 0 0 0-.204.374c-.045.09-.023.227.068.408.09.181.159.306.204.374.045.068.147.204.306.408s.26.329.306.374z"/></g></g></g></g></svg>