<svg xmlns="http://www.w3.org/2000/svg" width="596" height="150" viewBox="0 0 596 150"><defs><clipPath id="ysofa"><path d="M357 78h14v13h-14z"/></clipPath></defs><g><g><g><g><g><g><path fill="#ec1d24" d="M50.098 45.553l6.178 107.231.517 14.226-6.695 3.491 11.284 3.008 23.91 1.339 33.558-4.347h37.65l35.194-1.598 28.553-3.879h31.196l42.561-2.247 18.007-.522 27.01 1.363 20.46.661 15.552.745 237.207-3.558.575-14.693-7.618-15.522-2.337-33.462 4.46-30.889 3.221-14.901 1.699-18.509-64.948 6.164-32.071 4.766s-108.266 10.538-267.87-.196z"/></g><g><path fill="none" stroke="#231f20" stroke-miterlimit="50" stroke-width="3" d="M33.192 46.676l2.348-.374v-4.869c0-4.494.78-5.992 3.129-5.992v.374c-.782.75-1.565 8.614-.782 9.738.782.75.782.75 5.477.374 2.349-.374 4.696-.749 5.478-1.123 0-.375.783-.375 1.566-.375 0 0 .78 0 .78-.374 0-3.746 1.567-5.618 3.132-5.244 1.565 0 2.347 2.622.783 3.371 0 .374-.783 1.123-1.566 1.873 0 .75 0 1.123 1.566.75.782 0 4.695-.376 9.39-.75 3.911 0 9.39-.375 12.52-.75 2.347 0 7.042-.374 10.171-.374 12.52-.749 32.084-2.247 37.562-2.247 3.128-.375 15.65-.375 28.952-.375 45.385.375 90.77.375 93.9-.374 2.349 0 28.953-.375 93.9-.375 70.425 0 93.12-.374 103.292-.749 7.042-.374 20.345-.374 28.953-.374 20.344-.375 46.167-.749 60.251-1.498 5.478-.375 12.52-.749 15.651-1.124 3.13 0 10.173-.374 15.65-.749 7.042-.374 12.52-.749 25.04-.374 14.868 0 16.432 0 17.215-.749.783-.749 2.348-.749 2.348.374-.783 1.124.782.375 1.564-1.498 1.566-1.498 3.131-2.62 3.914-2.247.782 0 .782 1.124.782 2.622-.782 1.872 0 1.872.782 1.872 2.348.375 2.348.75.783 1.873-2.347 1.123-1.565 2.247.782 8.24 1.566 3.744 1.566 5.242 1.566 18.351 0 7.49 0 19.1-.783 25.842 0 17.227.783 32.583 3.13 41.946.782 3.745 1.565 7.115.782 14.605 0 7.866 0 10.113.783 14.607 1.565 4.494 1.565 5.243.783 5.618-.783.75-1.566.75-3.131.374-2.347-.749-16.432-.374-27.388 0-3.911.375-10.171.75-14.084 1.124-9.39.374-55.558.374-69.643 0-5.478-.375-28.17-.375-49.297-.375-77.469 0-105.638.75-127.549 2.247-5.478.75-13.303 1.124-18.78 1.124-22.693 1.123-56.34 3.745-64.948 5.243-6.26 1.124-30.518 1.124-35.995 0-1.566 0-4.695-.375-7.044-.375-5.477-.748-11.737-1.123-19.562-2.247-3.913-.374-7.824-.749-9.39-.749-1.566 0-3.912 0-6.26-.374-5.477-.749-13.302-.749-25.822 0-3.913.374-10.956.374-20.346.75-3.913 0-7.824.373-10.171.748-2.348.374-4.695.374-6.261.374-.783 0-3.129.375-5.478.75-1.565.748-4.695.748-6.26.748-1.564 0-4.695.375-7.042 1.124-7.826 1.124-20.344 2.247-28.954 2.622-2.346 0-5.476.374-7.041.374-2.348.375-2.348 0-2.348-.374 0-.375 0-.749.783-.749h3.912c1.564 0 2.348-.375 1.564-.749-.781-.375-1.564-.375-2.346-.375l-6.26-2.247c-3.131-1.124-6.261-2.247-7.043-2.622-.783 0-1.564-.374-2.347-.749l-4.695-3.745-3.914-3.745V153.79c0-5.993.783-11.985 1.566-13.483 0-1.498.782-4.12.782-5.618.783-1.498 1.566-3.37 1.566-4.494 2.347-3.37 3.129-14.607 2.347-31.459-.783-9.738-.783-22.846-.783-29.588.783-6.74 0-14.606 0-16.853l-.783-4.869-2.347.375c-3.912 0-4.695-.749-.782-1.124zm1.565 113.484c0-.379-.783-.379-.783-.379v1.134c.783 0 .783-.378.783-.755zm.77-15.73c0-2.25-.775-4.124-.775-3.75-.776 0-.776 7.875 0 7.875 0 0 .776-1.875.776-4.125zm57.135 29.96c-15.65.375-17.215.375-17.215-.376.782-.75 0-.75-7.826-.375-3.911 0-9.39.375-11.736.375l-3.913.376 1.565.75c1.566.375 2.348.751 3.13.751 0 0 1.565.375 3.913 1.126 3.13.751 3.13 1.126 7.824.751 2.348 0 7.043-.376 9.39-.75 2.348-.376 4.695-.376 6.261-.376.782 0 1.565-.376 2.347-.376.782-.75 6.26-1.126 10.172-1.126 2.348 0 4.695-.375 4.695-.75.783-.376-1.564-.376-8.607 0zm167.467-1.876h-18c-3.913-.374-8.609-.749-10.956-.749-19.565-1.123-39.913-1.498-54.783-1.123l-6.26.374 3.13.375c1.566.374 4.695.374 6.262.374 2.347 0 4.695.375 7.042.75 1.566.374 4.696.748 7.044.748 4.696.375 14.087 1.124 19.565 1.873 1.565.374 6.26.75 9.391.75 3.913 0 7.044.373 7.044.373h3.13c1.566 0 5.478-.374 9.391-.749 3.914 0 8.61-.374 10.174-.748 1.566-.375 6.261-.75 10.173-1.124l7.827-.749c.784-.375-3.913-.375-10.174-.375zm352.116-8.239l-1.565-.374c-1.565-.375-1.565-.749-1.565-1.124 0-.749-.782-.749-6.26.375-7.041 1.498-17.997 1.872-36.777 1.872-7.043 0-15.65.375-19.564.375h-17.996c-10.173-.375-17.998-.749-43.038-1.124-7.042 0-17.998-.374-25.04-.374-14.086-.749-31.3-.375-57.906.374-17.215.375-38.343.375-55.558 0-25.04-.749-41.473-.749-57.122-.374-18 .374-16.433.374-21.911.75-11.738.748-25.04 1.122-40.69 1.497-3.13 0-7.042 0-8.607.374-1.566 0-3.913.375-5.478.375s-3.912.374-3.912.374c-.783 0-7.044.375-14.086.75-11.738.748-21.127 1.497-22.692 1.872h17.215c17.214 0 25.04.374 37.56 1.123 5.478 0 20.345.75 32.083.75h14.868c13.302-.75 25.04-1.124 31.3-1.873 1.564 0 8.607-.375 14.085-.749 6.26-.375 14.085-.749 17.214-1.124 8.609-.374 19.562-.749 32.083-1.123 4.695 0 14.868-.375 21.128-.749h92.335c44.602 0 85.293 0 89.206-.375 4.696 0 13.303-.374 19.564-.374 10.953 0 14.084-.375 18.78-.749zm3.131-3.364c.782-.756.782-.756-.783-.378-.783 0-1.565.378-1.565.378-.783.755.782.755 2.348 0zm-1.566-2.253c0 .374 0 .374.79.374 0 0 .789-.374.789-.749 0-.374-.79-.374-.79-.374-.789 0-.789 0-.789.75zm1.579-3.377c0-2.988-.79-3.362-1.579-.747v2.242c1.579.374 1.579 0 1.579-1.495zm.782 7.122l-.788-.375h-.79c0 .375 0 .75.79.75zm1.552-53.93c0-.376-.783 2.62-.783 5.991 0 6.367 0 17.228-.782 24.344-.782 5.992.782 18.352 2.347 18.726.783.375.783.375 0 .75-.782.374-.782 1.872-1.565 2.995 0 1.873 0 2.247 1.565 2.247.783 0 1.566 0 1.566.75 0 .374 0 .748 1.564.748 1.565 0 1.565-.374.783-2.247 0-1.123-.783-2.62-.783-2.996-.782-.749-.782-7.115-.782-14.607 0-15.729-1.565-36.328-3.13-36.702zm-2.347-37.828c0 2.248.782 7.116.782 11.61l.782 7.866.783-5.244c0-2.996.782-6.74.782-8.988 1.566-7.49 1.566-19.475 0-25.093-1.565-2.996-1.565-5.992-1.565-6.367 0-.374-.782-.749-.782-.749-1.565.375-2.348 19.85-.782 26.965zm-2.348.749c0-2.622-.783-5.244-.783-5.618 0-.749 0-3.744-.783-5.991 0-4.868 0-4.868-.782-1.873-.782 3.745-2.347 15.728-3.13 19.847 0 2.995-.783 4.868-2.347 10.112v13.106c0 12.732.782 20.222 3.912 26.962 1.565 2.622 3.913 10.86 3.913 11.608 0 0 .782.374.782 0 0 0 .783-1.497.783-3.37 0-1.498.783-10.11.783-18.35.782-14.23.782-23.591-.783-34.077-.783-5.242-.783-8.238-1.565-12.356zm-.783-22.096l.783-2.996v-5.244c0-1.872 0-1.872-.783-.749-.783.75-.783 2.247-.783 4.87zm-.783-10.86c.783 0 1.566-.376 1.566-1.125.782-.749 0-1.123-.783-.749-1.565.375-1.565 1.873-.783 1.873zm-2.347.373c0 .375.79.375 1.578.375v-.749c-.788-.375-1.578-.375-1.578.374zm-123.635.75c.782.374 13.303.748 33.651.748 10.956 0 19.565.375 19.565.375h12.521c9.391 0 12.521-.375 25.044-1.873 7.825-1.123 17.216-1.872 20.345-2.247l5.479-.374-3.13-.375c-4.696-.749-26.61-.374-35.217 0-2.348.375-9.39.75-14.086 1.124-5.478.374-12.522.75-14.87.75-8.607.748-33.65 1.497-45.39 1.497-2.348 0-3.912 0-3.912.374zm113.453-2.248c-6.252.375-10.158 1.124-3.907.75 2.344 0 4.69-.375 6.252-.375.781-.375 0-.375-2.345-.375zm-12.51 1.498h.781c1.567 0 2.348-.374 2.348-.374.784-.375-2.348 0-3.13.374zM240.557 42.56c-5.478.375-15.651.75-23.477.75-8.607.375-16.432.75-17.215 1.125-3.13.375-14.085.75-31.3 1.125-5.477.374-8.607.374-8.607.75h4.695c2.347 0 9.39-.376 14.868-.376 5.478-.374 14.084-.75 19.562-1.124 10.955-.375 30.518-.375 37.56 0 3.13 0 13.303.374 23.475.374 17.215.376 40.69 1.126 50.863 1.876 10.173.374 40.69 1.124 79.816 1.5 32.864.374 50.862.374 67.295-.376 5.478 0 10.954-.375 11.738-.375 1.563 0 6.26-.375 11.736-.75 5.478 0 12.521-.75 16.433-1.125 13.303-1.124 25.04-2.25 43.038-3.749 3.913 0 6.26-.375 6.26-.375s-12.52-.375-27.387-.75c-27.388 0-30.518-.374-39.124-1.124-5.478-.376-25.824-.376-32.867 0-14.085.75-29.734.75-51.645.75-37.56 0-127.548 1.124-155.717 1.874zM62.145 45.543h25.822c12.521-.374 33.647-.374 46.168-.374 21.911 0 31.3-.373 43.038-1.12h10.954c2.348 0 6.261-.374 9.39-.748 5.478-.374 15.651-.748 27.389-1.12 11.736-.375 6.26-.375-14.868-.748-41.473-.374-80.597-.374-89.987.373-5.478.374-14.868.747-21.911 1.495-7.825.374-16.433.748-21.128 1.121-3.913.374-9.39.747-11.738.747-3.913 0-4.694 0-3.13.374zm-23.476 3.38c0 .375.783 12.36.783 26.591.783 35.58.783 37.826.783 37.452.783 0 1.564-1.873 1.564-3.37.783-1.873 1.565-4.869 2.348-6.367 1.566-5.243 3.913-13.483 3.913-19.476.782-5.617.782-22.47 0-31.459-.783-4.869-.783-5.243-2.347-5.243h-4.695c-2.35.374-2.35.374-2.35 1.872zm-.782 93.255c-1.566 14.607-.783 22.846 2.348 25.093a13.748 13.748 0 0 0 1.564 1.873c.783 0 1.565.374 2.348 1.123 1.566 1.498 4.695 2.622 8.608 2.996 3.912.375 5.477.375 7.043-.374.782-.375 1.563-.375 1.563-.375s.784-.374 1.565-.749c.784-.749 1.567-.749.784 0l-.784 1.124 20.346-.375c28.953-.374 34.43-.374 40.69-.749 3.912-.374 12.52-1.123 24.258-1.498 7.043-.374 17.998-1.123 30.518-1.872 2.348-.375 8.607-.749 14.084-1.124 5.478-.374 14.085-.749 18-1.498 9.389-.749 13.3-.749 28.952-1.123 5.478 0 17.214-.749 25.822-1.124 7.825-.374 18.78-.749 24.258-.749 6.26-.374 10.954-.374 11.736-.374h13.304c34.43 1.123 72.772 1.498 92.335.75 17.215-.75 40.69-1.125 55.558-.376 7.043 0 17.215.375 23.475.375 25.04.374 35.995.75 41.473 1.123 5.478.375 40.69 0 57.906-.749 9.39 0 10.173-.374 24.257-2.996.782 0 .782-.749 1.564-1.498 0-1.066-.016-1.452-1.35-1.49a1.389 1.389 0 0 0-.048-1.133c1.4-.034 1.428-.567 2.181-5.617.783-3.37.783-6.367 0-7.49 0-1.124-.783-3.37-.783-4.494-.782-1.498-2.347-5.243-3.129-7.865-3.913-8.239-4.696-15.73-5.478-28.089 0-7.865 0-12.359.782-16.105 1.566-4.868 1.566-9.362 3.913-20.972.783-7.865.783-8.988 2.348-11.985 1.564-2.996.782-6.74-.783-11.236-1.565-4.119-1.565-4.119-5.478-3.745-2.347.375-5.477.375-8.606.375-2.349 0-7.827.374-11.738.75-4.695.373-10.173.748-13.303 1.122-3.13 0-8.608.375-13.303 1.124-10.953.75-15.65 1.123-25.04 1.873-4.696.374-15.65 1.123-23.475 2.247-8.607.75-18.78 1.498-23.475 1.498-7.826.75-19.562 1.123-25.04 1.498-3.13 0-24.258.75-28.17.75-1.565 0-15.65 0-31.3-.376-15.65 0-33.649-.374-39.126-.374-5.476 0-12.52-.375-16.432-.375-3.912 0-10.955-.374-16.433-.374s-10.173-.375-10.173-.749c-1.565-.375-1.565-.375-.782 0 0 .374 0 .374-.783.374-1.564-.374-15.65-.749-22.692-1.123-3.912 0-7.824-.375-9.39-.375-1.565 0-9.39-.374-17.998-.374-9.39 0-21.91-.375-27.387-.749-10.955-.375-39.908 0-40.69.374-.784 0-3.913.375-7.044.375-3.13 0-10.953.374-17.214.75H154.48c-10.172-.376-57.123-.376-76.686 0H56.667l-3.912.373.782 3.371c0 2.247.783 5.993.783 8.614.783 11.61 2.347 28.838 2.347 33.707 0 2.621.783 7.49.783 10.486.782 3.371.782 15.73.782 29.962 0 19.101.783 24.344 1.566 25.467.782.75.782 2.247.782 4.87l-.782 4.118-2.348 1.124c-1.565.374-3.913.75-4.695.75-1.566 0-1.566 0 .782-.376 3.13-1.123 4.695-3.37 3.13-7.49 0-.749-.782-14.232-.782-30.336 0-16.105-.782-29.587-.782-29.587 0-.374-.783-6.74-.783-14.23 0-7.867-.783-14.233-.783-14.608 0 0-.782-4.12-1.565-8.988-1.564-16.854-1.564-17.228-1.564-1.124.78 18.351-.783 30.336-3.914 39.325-.78 1.498-1.564 4.868-2.347 7.49-1.565 2.247-2.348 4.868-2.348 5.617-1.564 4.87-2.347 7.117-2.347 10.862 0 2.247 0 6.367-.783 8.988 0 2.247-.782 5.618-.782 6.741z"/></g></g></g><g><path fill="#fff" d="M559.047 109.956c2.035-3.042 3.324-5.402 3.866-7.082-.859.68-1.695 1.77-2.51 3.269-.813 1.498-1.265 2.769-1.356 3.813zm14.96 14.823c.091.499.023.998-.204 1.497a2.308 2.308 0 0 1-1.054 1.122c-.476.25-.974.317-1.496.204-.521-.113-.94-.351-1.258-.714-.725-.907-1.201-1.996-1.428-3.265-.272-1.451-.974-4.853-2.108-10.204-.09-.272-.17-.691-.238-1.258-.068-.567-.158-1.1-.272-1.599a9.523 9.523 0 0 0-.442-1.428c-.498 1.043-1.314 2.358-2.448 3.945-1.133 1.587-1.836 2.63-2.108 3.13-.725 1.178-1.734 1.893-3.026 2.142-1.292.25-2.414-.034-3.366-.85-.498-.408-.861-1.043-1.088-1.905-.498-1.905-.385-4.24.34-7.006 1.088-3.855 2.992-7.188 5.712-10 2.04-2.13 4.284-2.63 6.732-1.496 1.224.544 1.882 1.837 1.972 3.877.046.5.216.93.51 1.293.295.363.533.748.714 1.156.182.408.363.986.544 1.735.182.748.295 1.19.34 1.326.318 1.18.646 2.914.986 5.204.34 2.29.646 3.956.918 5 .454 1.723.771 3.333.952 4.829.046.272.318 1.36.816 3.265zm-22.712-7.625c1.134 1.723.771 3.128-1.088 4.216-.408.272-.884.329-1.428.17-.544-.159-1.02-.487-1.428-.986-.589-.861-1.428-2.074-2.516-3.638s-1.768-2.527-2.04-2.89c-1.677-2.403-2.901-3.967-3.672-4.692-.498-.499-.872-.748-1.122-.748-.249 0-.646.227-1.19.68-.317.227-.589.499-.816.816-.226.317-.396.59-.51.816-.113.227-.192.555-.238.986-.045.43-.068.748-.068.952v2.074c-.045 4.805-.09 8.205-.136 10.2-.045 1.043-.748 1.95-2.108 2.72-.453.227-.94.17-1.462-.17-.521-.34-.895-.827-1.122-1.462-.136-.317-.238-.714-.306-1.19s-.102-.805-.102-.986c0-.181.012-.612.034-1.292.023-.68.034-1.043.034-1.088 0-.136-.011-.895-.034-2.278-.022-1.383.012-2.142.102-2.278.046-.453-.26-.827-.918-1.122-.657-.295-1.088-.805-1.292-1.53-.204-.725-.102-1.383.306-1.972 1.088-1.677 1.655-2.516 1.7-2.516.091-.181.17-.363.238-.544.068-.181.114-.385.136-.612.023-.227.034-.43.034-.612 0-.181-.011-.397-.034-.646a6.844 6.844 0 0 1-.034-.578c0-.59.023-2.516.068-5.78.046-3.4.136-6.256.272-8.568.227-3.445.476-6.415.748-8.908.091-.499.227-1.813.408-3.944.091-.907.59-1.677 1.496-2.312.816-.499 1.564-.555 2.244-.17.68.385 1.088.986 1.224 1.802.046.272.068.544.068.816 0 .272-.011.544-.034.816-.022.272-.045.533-.068.782-.022.25-.056.521-.102.816a5.213 5.213 0 0 0-.068.782c-.589 7.39-.929 12.467-1.02 15.232v5.576c.499-.227.998-.657 1.496-1.292.771-.952 1.972-2.017 3.604-3.196.363-.272.748-.612 1.156-1.02l1.258-1.258c.431-.43.828-.782 1.19-1.054.635-.499 1.542-1.043 2.72-1.632.907-.408 1.7-.136 2.38.816.363.544.499 1.11.408 1.7-.09.59-.34 1.088-.748 1.496l-4.964 4.148c-.09.09-.158.136-.204.136a2.34 2.34 0 0 1-.408.442 9.324 9.324 0 0 0-.442.408c-.113.113-.238.26-.374.442-.136.181-.226.34-.272.476-.09.272-.056.499.102.68.159.181.374.374.646.578.272.204.454.374.544.51 2.766 3.49 5.35 7.117 7.752 10.88zm-23.46-15.98c.952 1.315.884 2.448-.204 3.4-.408.363-1.031.51-1.87.442-.838-.068-1.462-.329-1.87-.782-.136-.09-.77-.839-1.904-2.244-.362-.453-.68-.408-.952.136-.317.77-.952 2.017-1.904 3.74-.952 1.723-1.609 3.083-1.972 4.08a14.924 14.924 0 0 1-.816 1.904 42.579 42.579 0 0 0-.986 2.108c-.294.68-.532 1.315-.714 1.904-.272 1.043-.929 1.881-1.972 2.516-.861.453-1.734.487-2.618.102-.884-.385-1.439-1.054-1.666-2.006a15.032 15.032 0 0 1-.306-2.006 53.02 53.02 0 0 1-.136-1.734 74.616 74.616 0 0 1-.068-2.108 120.59 120.59 0 0 1-.034-1.836c0-.725.046-1.859.136-3.4 0-.816.295-1.598.884-2.346.59-.748 1.27-.918 2.04-.51 1.587.77 2.335 1.768 2.244 2.992 0 .045.046.408.136 1.088.363-.544.714-1.11 1.054-1.7.34-.59.726-1.371 1.156-2.346.431-.975.714-1.575.85-1.802.454-.952 1.27-2.199 2.448-3.74.635-.816 1.462-1.247 2.482-1.292 1.02-.045 1.938.295 2.754 1.02 1.224 1.088 2.494 2.561 3.808 4.42zm-26.996 4.42c.091-.635-.226-1.27-.952-1.904-.725-.635-1.382-.884-1.972-.748-.181.045-.362.159-.544.34-2.221 3.4-3.468 6.641-3.74 9.724.091.952.136 1.462.136 1.53a2.352 2.352 0 0 0 .102.544 2.223 2.223 0 0 0 .238.476c.046.068.102.136.17.204.068.068.17.125.306.17.68.136 1.292-.068 1.836-.612 2.403-2.539 3.876-5.78 4.42-9.724zm1.02-6.391c1.406.68 2.46 1.599 3.162 2.755.703 1.157.964 2.483.782 3.98-.634 5.442-2.72 9.909-6.256 13.401-1.813 1.814-3.966 2.381-6.46 1.7-2.221-.589-3.649-2.13-4.284-4.625-.272-1.18-.385-2.109-.34-2.79 0-2.539.658-5.305 1.972-8.299.635-1.542 1.315-2.834 2.04-3.877.136-.227.238-.601.306-1.123.068-.521.125-.85.17-.986.227-.635.454-.975.68-1.02a57.75 57.75 0 0 0 1.428-.647 18.953 18.953 0 0 1 1.734-.714 4.64 4.64 0 0 1 1.53-.272c.998-.045 1.814.476 2.448 1.565.227.408.59.725 1.088.952zm-10.472-9.59c1.451 1.18 1.904 2.268 1.36 3.265-.226.408-.702.714-1.428.918a3.924 3.924 0 0 1-2.108.034c-.362-.09-.872-.204-1.53-.34a22.193 22.193 0 0 1-1.462-.34c-.317-.09-.532-.057-.646.102-.113.159-.124.374-.034.646.091.317.136.646.136.986 0 .34-.022.748-.068 1.224-.045.476-.068.805-.068.986-.045.544-.079 1.179-.102 1.904-.022.725-.034 1.45-.034 2.176v1.904c-.045.725-.056 2.335-.034 4.828.023 2.493-.056 4.08-.238 4.76-.045.363-.034.895.034 1.598.068.703.102 1.213.102 1.53-.09 1.541-.408 2.63-.952 3.264a5.591 5.591 0 0 0-.442.476c-.068.09-.226.227-.476.408-.249.181-.442.25-.578.204-.136-.045-.362-.068-.68-.068-.906-.272-1.45-.975-1.632-2.108-.181-1.179-.249-2.063-.204-2.652 0-.181.034-1.054.102-2.618a88.97 88.97 0 0 0 .102-3.57c0-1.723.023-3.173.068-4.352 0-.136.023-2.652.068-7.548.046-2.176.068-3.717.068-4.624a.55.55 0 0 0-.102-.34.584.584 0 0 0-.17-.17c-.045-.023-.158-.034-.34-.034h-.34c-.498-.09-1.654-.113-3.468-.068-1.813.045-2.969.045-3.468 0-.589 0-1.122-.25-1.598-.748-.476-.499-.736-1.065-.782-1.7a2.388 2.388 0 0 1 .476-1.632c.363-.499.839-.793 1.428-.884 1.678-.317 3.491-.43 5.44-.34 1.496.09 2.38.011 2.652-.238.272-.25.431-1.122.476-2.618.046-.363.068-.77.068-1.224 0-.453.012-.907.034-1.36.023-.453.034-.861.034-1.224.091-1.45.794-2.221 2.108-2.312.499 0 .986.204 1.462.612.476.408.76.907.85 1.496.182 1.315.227 2.312.136 2.992-.045.725-.022 2.04.068 3.944.046.635.386 1.02 1.02 1.156 2.222.408 3.786.975 4.692 1.7zm-33.184 15.981c.091-.635-.226-1.27-.952-1.904-.725-.635-1.382-.884-1.972-.748-.181.045-.362.159-.544.34-2.221 3.4-3.468 6.641-3.74 9.724.091.952.136 1.462.136 1.53a2.352 2.352 0 0 0 .102.544 2.223 2.223 0 0 0 .238.476c.046.068.102.136.17.204.068.068.17.125.306.17.68.136 1.292-.068 1.836-.612 2.403-2.539 3.876-5.78 4.42-9.724zm1.013-6.391c1.404.68 2.458 1.599 3.16 2.755.702 1.157.963 2.483.781 3.98-.634 5.442-2.718 9.909-6.252 13.401-1.812 1.814-3.964 2.381-6.456 1.7-2.22-.589-3.648-2.13-4.282-4.625-.272-1.18-.385-2.109-.34-2.79 0-2.539.657-5.305 1.971-8.299.634-1.542 1.314-2.834 2.039-3.877.136-.227.238-.601.306-1.123.068-.521.124-.85.17-.986.226-.635.453-.975.68-1.02.316-.136.792-.352 1.427-.647a18.937 18.937 0 0 1 1.733-.714 4.634 4.634 0 0 1 1.529-.272c.996-.045 1.812.476 2.446 1.565.227.408.59.725 1.088.952zm-24.133 5.168c.136-.318.136-.544 0-.68-.816-1.044-1.7-1.112-2.652-.205-.181.182-.34.363-.476.545-1.677 2.223-2.833 5.058-3.468 8.506-.362 1.95-.362 3.448 0 4.491.136-.227.352-.5.646-.817.295-.317.544-.612.748-.884.204-.272.374-.522.51-.749.59-1.134 2.154-4.536 4.692-10.207zm6.061-23.257c.68.045 1.225.295 1.633.748.408.453.612 1.043.612 1.768a39.28 39.28 0 0 0-.102 2.176 79.78 79.78 0 0 1-.102 2.55c-.045.793-.113 1.53-.204 2.21-.272 2.675-.408 4.85-.408 6.528.045.907 0 2.221-.136 3.944-.136 1.723-.204 2.947-.204 3.672 0 1.179-.057 3.207-.17 6.086-.114 2.879-.17 5.111-.17 6.698 0 .408.022 1.02.068 1.836.045.816.068 1.417.068 1.802s-.046.986-.136 1.802c-.091.77-.613 1.655-1.565 2.652-.363.408-.907.442-1.633.102s-1.202-.827-1.429-1.462c-.226-.635-.34-1.927-.34-3.876v-6.936a.56.56 0 0 1-.17-.034.56.56 0 0 0-.17-.034c-.181.272-.408.714-.68 1.326a37.449 37.449 0 0 1-.545 1.19c-.68 1.224-1.632 2.63-2.857 4.216-.998 1.36-2.256 2.108-3.776 2.244-1.52.136-2.891-.363-4.116-1.496a4.775 4.775 0 0 1-1.122-2.006c-.205-.748-.33-1.62-.375-2.618-.136-4.67 1.02-9.157 3.47-13.464 1.36-2.357 2.97-4.012 4.83-4.964 2.041-1.043 3.946-.816 5.715.68l.408.204c-.045-1.405.046-3.355.273-5.848.226-2.493.362-4.261.408-5.304 0-1.632.181-3.083.544-4.352.136-.59.454-1.1.953-1.53.498-.43.975-.6 1.428-.51zm-37.817 24.48c.091-.635-.226-1.27-.952-1.904-.725-.635-1.382-.884-1.972-.748-.181.045-.362.159-.544.34-2.221 3.4-3.468 6.641-3.74 9.724.091.952.136 1.462.136 1.53a2.352 2.352 0 0 0 .102.544 2.223 2.223 0 0 0 .238.476c.046.068.102.136.17.204.068.068.17.125.306.17.68.136 1.292-.068 1.836-.612 2.403-2.539 3.876-5.78 4.42-9.724zm1.02-6.391c1.406.68 2.46 1.599 3.162 2.755.703 1.157.964 2.483.782 3.98-.634 5.442-2.72 9.909-6.256 13.401-1.813 1.814-3.966 2.381-6.46 1.7-2.221-.589-3.649-2.13-4.284-4.625-.272-1.18-.385-2.109-.34-2.79 0-2.539.658-5.305 1.972-8.299.635-1.542 1.315-2.834 2.04-3.877.136-.227.238-.601.306-1.123.068-.521.125-.85.17-.986.227-.635.454-.975.68-1.02a57.75 57.75 0 0 0 1.428-.647 18.953 18.953 0 0 1 1.734-.714 4.64 4.64 0 0 1 1.53-.272c.998-.045 1.814.476 2.448 1.565.227.408.59.725 1.088.952zm-17-9.861a42.196 42.196 0 0 0-.068 2.584c0 .997-.011 1.96-.034 2.89-.022.93-.079 1.78-.17 2.55-.136 1.36-.204 3.264-.204 5.712v4.692c-.045.725-.011 1.813.102 3.264.114 1.45.17 2.539.17 3.264-.045.725-.045 1.643 0 2.754.046 1.11.08 2.04.102 2.788.023.748.012 1.689-.034 2.822-.09 1.27-.612 2.04-1.564 2.312-1.088.363-2.017-.09-2.788-1.36a4.41 4.41 0 0 1-.476-1.326 7.984 7.984 0 0 1-.136-1.496c0-.521-.022-.873-.068-1.054a442.368 442.368 0 0 1-.272-19.108c0-.725.023-1.519.068-2.38.046-.861.091-1.802.136-2.822.046-1.02.091-1.802.136-2.346 0-.227.012-.93.034-2.108.023-1.179.08-2.085.17-2.72 0-.317.068-2.72.204-7.208 0-.544.25-1.065.748-1.564.499-.499 1.02-.748 1.564-.748s1.043.227 1.496.68c.454.453.748 1.02.884 1.7a14.937 14.937 0 0 1 .238 3.332 44.934 44.934 0 0 0-.034 1.53c0 .385-.034.975-.102 1.768-.068.793-.102 1.326-.102 1.598zm-12.992 3.468c-.452 0-.905-.272-1.357-.816-.453-.544-.701-1.11-.747-1.7-.045-.997.204-1.847.747-2.55.543-.703 1.244-1.054 2.104-1.054.724 0 1.29.25 1.697.748.407.499.633 1.213.678 2.142.046.93-.226 1.689-.814 2.278-.588.59-1.358.907-2.308.952zm.077 4.284a3.77 3.77 0 0 1 1.6.476c.478.272.84.612 1.09 1.02.25.408.375.816.375 1.224-.136 1.813-.227 4.873-.272 9.18-.046.68-.102 1.972-.17 3.876a131.625 131.625 0 0 0-.103 4.352c.046.77.023 1.904-.068 3.4-.045 1.45-.749 2.244-2.111 2.38a2.884 2.884 0 0 1-1.84-.476 2.32 2.32 0 0 1-1.021-1.496c-.182-.227-.239-1.122-.17-2.686.067-1.564.102-2.46.102-2.686v-5.44c0-.725.022-1.847.068-3.366.045-1.519.09-2.856.136-4.012.045-1.156.136-2.278.272-3.366.046-.77.273-1.371.682-1.802.408-.43.885-.623 1.43-.578zm-6.057 18.496c.091.59-.272 1.11-1.088 1.564-1.541.997-3.547 1.383-6.018 1.156-2.47-.227-4.34-1.065-5.61-2.516-1.496-1.723-2.244-3.899-2.244-6.528a24.4 24.4 0 0 1 2.788-10.812c.998-1.904 2.471-3.31 4.42-4.216.499-.227 1.224-.204 2.176.068.952.272 1.655.657 2.108 1.156.544.59.975 1.201 1.292 1.836.816 1.632.386 2.833-1.292 3.604a1.312 1.312 0 0 1-.68.204 1.35 1.35 0 0 1-.612-.136 4.448 4.448 0 0 1-.476-.272 3.297 3.297 0 0 1-.476-.408c-.181-.181-.317-.295-.408-.34-.272-.181-.464-.26-.578-.238-.113.023-.26.147-.442.374-1.042 1.36-1.813 3.4-2.312 6.12-.362 1.995-.453 3.355-.272 4.08.272 1.088.692 1.836 1.258 2.244.567.408 1.44.59 2.618.544.59-.045 1.247-.181 1.972-.408 2.267-.68 3.559.295 3.876 2.924zm-21.896-9.996c.091-.635-.226-1.27-.952-1.904-.725-.635-1.382-.884-1.972-.748-.181.045-.362.159-.544.34-2.221 3.4-3.468 6.641-3.74 9.724.091.952.136 1.462.136 1.53a2.352 2.352 0 0 0 .102.544 2.223 2.223 0 0 0 .238.476c.046.068.102.136.17.204.068.068.17.125.306.17.68.136 1.292-.068 1.836-.612 2.403-2.539 3.876-5.78 4.42-9.724zm1.02-6.391c1.406.68 2.46 1.599 3.162 2.755.703 1.157.964 2.483.782 3.98-.634 5.442-2.72 9.909-6.256 13.401-1.813 1.814-3.966 2.381-6.46 1.7-2.221-.589-3.649-2.13-4.284-4.625-.272-1.18-.385-2.109-.34-2.79 0-2.539.658-5.305 1.972-8.299.635-1.542 1.315-2.834 2.04-3.877.136-.227.238-.601.306-1.123.068-.521.125-.85.17-.986.227-.635.454-.975.68-1.02a57.75 57.75 0 0 0 1.428-.647 18.953 18.953 0 0 1 1.734-.714 4.64 4.64 0 0 1 1.53-.272c.998-.045 1.814.476 2.448 1.565.227.408.59.725 1.088.952zm-14.484 1.971c.952 1.315.884 2.448-.204 3.4-.408.363-1.031.51-1.87.442-.838-.068-1.462-.329-1.87-.782-.136-.09-.77-.839-1.904-2.244-.362-.453-.68-.408-.952.136-.317.77-.952 2.017-1.904 3.74-.952 1.723-1.609 3.083-1.972 4.08a14.924 14.924 0 0 1-.816 1.904 42.579 42.579 0 0 0-.986 2.108c-.294.68-.532 1.315-.714 1.904-.272 1.043-.929 1.881-1.972 2.516-.861.453-1.734.487-2.618.102-.884-.385-1.439-1.054-1.666-2.006a15.032 15.032 0 0 1-.306-2.006 53.02 53.02 0 0 1-.136-1.734 74.616 74.616 0 0 1-.068-2.108 120.59 120.59 0 0 1-.034-1.836c0-.725.046-1.859.136-3.4 0-.816.295-1.598.884-2.346.59-.748 1.27-.918 2.04-.51 1.587.77 2.335 1.768 2.244 2.992 0 .045.046.408.136 1.088.363-.544.714-1.11 1.054-1.7.34-.59.726-1.371 1.156-2.346.431-.975.714-1.575.85-1.802.454-.952 1.27-2.199 2.448-3.74.635-.816 1.462-1.247 2.482-1.292 1.02-.045 1.938.295 2.754 1.02 1.224 1.088 2.494 2.561 3.808 4.42zm-26.996 4.42c.091-.635-.226-1.27-.952-1.904-.725-.635-1.382-.884-1.972-.748-.181.045-.362.159-.544.34-2.221 3.4-3.468 6.641-3.74 9.724.091.952.136 1.462.136 1.53a2.352 2.352 0 0 0 .102.544 2.223 2.223 0 0 0 .238.476c.046.068.102.136.17.204.068.068.17.125.306.17.68.136 1.292-.068 1.836-.612 2.403-2.539 3.876-5.78 4.42-9.724zm1.02-6.391c1.406.68 2.46 1.599 3.162 2.755.703 1.157.964 2.483.782 3.98-.634 5.442-2.72 9.909-6.256 13.401-1.813 1.814-3.966 2.381-6.46 1.7-2.221-.589-3.649-2.13-4.284-4.625-.272-1.18-.385-2.109-.34-2.79 0-2.539.658-5.305 1.972-8.299.635-1.542 1.315-2.834 2.04-3.877.136-.227.238-.601.306-1.123.068-.521.125-.85.17-.986.227-.635.454-.975.68-1.02a57.75 57.75 0 0 0 1.428-.647 18.953 18.953 0 0 1 1.734-.714 4.64 4.64 0 0 1 1.53-.272c.998-.045 1.814.476 2.448 1.565.227.408.59.725 1.088.952zm-20.876 5.37c.272-1.586.159-3.195-.34-4.827-.136-.408-.272-.669-.408-.782-.136-.113-.476-.034-1.02.238-1.088.816-1.541 1.836-1.36 3.06 0 .227-.022.578-.068 1.054a12.97 12.97 0 0 0-.068.918v7.276c1.678-1.45 2.766-3.763 3.264-6.936zm4.139-7.683c1.314 2.81 1.586 6.165.816 10.064a15.753 15.753 0 0 1-2.107 5.134c-.997 1.564-2.31 3.23-3.942 4.998-.226.227-.544.555-.951.986-.408.43-.703.737-.884.918a1.707 1.707 0 0 0-.408.68c-.09.272-.136.487-.136.646 0 .159.012.408.034.748.023.34.034.555.034.646.046.907.08 2.323.102 4.25.023 1.927.057 3.638.102 5.134.046 1.496.136 2.924.272 4.284.045.499-.102 1.031-.442 1.598-.34.567-.713.918-1.12 1.054-.952.317-1.836 0-2.651-.952-.725-.816-1.065-2.017-1.02-3.604-.181-5.213-.272-8.545-.272-9.996.046-.453-.136-.703-.543-.748a3.355 3.355 0 0 1-2.175-1.088c-.544-.59-.759-1.247-.646-1.972.114-.725.555-1.224 1.326-1.496.86-.272 1.427-.703 1.699-1.292.271-.59.385-1.337.34-2.244-.091-1.45-.069-4.85.067-10.2.046-1.043 0-1.836-.136-2.38-.136-.544-.102-1.337.102-2.38s.306-1.61.306-1.7c.181-2.085.566-6.075 1.155-11.968.046-.816.397-1.473 1.054-1.972a2.76 2.76 0 0 1 2.209-.544c.498.045.928.26 1.29.646.363.385.567.85.612 1.394.136 1.315.046 2.493-.271 3.536a5.94 5.94 0 0 0-.272 1.224c-.046.408-.08.918-.102 1.53-.023.612-.057 1.031-.102 1.258 0 .453.25.612.747.476 2.583-.725 4.554.385 5.913 3.332zm-39.295 8.228c-.317.544-.374.986-.17 1.326.204.34.646.51 1.326.51.635.045 1.338-.26 2.108-.918.771-.657 1.338-1.417 1.7-2.278.318-.77.204-1.405-.34-1.904-.453-.408-1.088-.453-1.904-.136a3.097 3.097 0 0 0-1.02.646c-.317.295-.544.555-.68.782-.136.227-.317.578-.544 1.054-.226.476-.385.782-.476.918zm.204 7.14c-.045 0-.136-.034-.272-.102-.136-.068-.249-.09-.34-.068a.304.304 0 0 0-.204.17c-.136.317-.068.68.204 1.088.816 1.133 2.018 1.927 3.604 2.38.136.045.386.113.748.204.363.09.646.159.85.204.204.045.431.159.68.34.25.181.465.385.646.612.318.453.533.975.646 1.564.114.59.08 1.088-.102 1.496-.544.861-1.382 1.201-2.516 1.02-3.4-.453-6.006-1.723-7.82-3.808-1.541-1.859-2.266-4.737-2.176-8.636 0-.227.034-.703.102-1.428a19.97 19.97 0 0 0 .102-1.802c0-.476-.045-1.145-.136-2.006a2.37 2.37 0 0 1 .17-1.428c.204-.453.499-.839.884-1.156a2.854 2.854 0 0 1 1.326-.612 2.854 2.854 0 0 0 1.428-.952c1.27-1.541 3.174-2.493 5.712-2.856 1.315-.227 2.63.181 3.944 1.224 1.315 1.043 2.154 2.267 2.516 3.672.454 1.677.216 3.423-.714 5.236a10.67 10.67 0 0 1-4.012 4.318c-1.745 1.065-3.502 1.507-5.27 1.326zm-3.798-22.644c1.45 1.179 1.904 2.267 1.36 3.264-.227.408-.703.714-1.428.918a3.927 3.927 0 0 1-2.11.034c-.362-.09-.872-.204-1.53-.34a22.211 22.211 0 0 1-1.463-.34c-.317-.09-.533-.057-.646.102-.113.159-.125.374-.034.646.09.317.136.646.136.986 0 .34-.023.748-.068 1.224-.045.476-.068.805-.068.986-.045.544-.08 1.179-.102 1.904a69.62 69.62 0 0 0-.034 2.176v1.904c-.045.725-.057 2.335-.034 4.828.023 2.493-.057 4.08-.238 4.76-.046.363-.034.895.034 1.598.068.703.102 1.213.102 1.53-.09 1.541-.408 2.63-.953 3.264a5.592 5.592 0 0 0-.442.476c-.068.09-.227.227-.476.408-.25.181-.442.25-.578.204-.136-.045-.363-.068-.68-.068-.908-.272-1.452-.975-1.633-2.108-.182-1.179-.25-2.063-.204-2.652 0-.181.034-1.054.102-2.618.068-1.564.102-2.754.102-3.57 0-1.723.022-3.173.068-4.352 0-.136.022-2.652.068-7.548.045-2.176.068-3.717.068-4.624a.55.55 0 0 0-.102-.34.584.584 0 0 0-.17-.17c-.046-.023-.159-.034-.34-.034h-.34c-.5-.09-1.656-.113-3.47-.068a92.73 92.73 0 0 1-2.227.034c.064-.054.125-.11.184-.17.59-.59.862-1.349.816-2.278-.045-.93-.272-1.643-.68-2.142a1.945 1.945 0 0 0-.824-.6 24.564 24.564 0 0 1 4.228-.148c1.496.09 2.38.011 2.653-.238.272-.25.43-1.122.476-2.618.045-.363.068-.77.068-1.224 0-.453.011-.907.034-1.36.023-.453.034-.861.034-1.224.09-1.45.794-2.221 2.109-2.312.499 0 .986.204 1.463.612.476.408.76.907.85 1.496.181 1.315.227 2.312.136 2.992-.045.725-.023 2.04.068 3.944.045.635.386 1.02 1.02 1.156 2.223.408 3.788.975 4.695 1.7zm-17.33 2.414c-.562.48-1.272.741-2.128.782-.453 0-.906-.272-1.36-.816-.453-.544-.702-1.11-.748-1.7-.045-.997.204-1.847.748-2.55.544-.703 1.247-1.054 2.108-1.054.324 0 .616.05.876.149-.412.052-.817.116-1.215.19-.59.092-1.066.386-1.428.885a2.387 2.387 0 0 0-.477 1.632c.046.635.306 1.201.783 1.7.476.499 1.009.748 1.598.748.25.023.664.034 1.243.034zm-2.06 5.066c.59.045 1.122.204 1.598.476s.839.612 1.088 1.02c.25.408.374.816.374 1.224-.136 1.813-.226 4.873-.272 9.18-.045.68-.102 1.972-.17 3.876a131.857 131.857 0 0 0-.102 4.352c.046.77.023 1.904-.068 3.4-.045 1.45-.748 2.244-2.108 2.38a2.875 2.875 0 0 1-1.836-.476 2.32 2.32 0 0 1-1.02-1.496c-.181-.227-.238-1.122-.17-2.686.068-1.564.102-2.46.102-2.686v-5.44c0-.725.023-1.847.068-3.366.046-1.519.091-2.856.136-4.012.046-1.156.136-2.278.272-3.366.046-.77.272-1.371.68-1.802.408-.43.884-.623 1.428-.578zm-3.196-.136c.318.317.499.793.544 1.428.046.635-.09 1.156-.408 1.564-1.314 1.768-2.72 4.08-4.216 6.936-1.722 3.31-3.082 6.188-4.08 8.636a93.996 93.996 0 0 1-2.244 4.964c-.181.408-.374 1.043-.578 1.904-.204.861-.419 1.519-.646 1.972-.317.59-.85 1.1-1.598 1.53-.748.43-1.394.578-1.938.442-1.178-.181-1.949-.952-2.312-2.312-1.224-4.035-2.606-10.155-4.148-18.36-.045-.272-.181-.895-.408-1.87a39.244 39.244 0 0 1-.476-2.278c-.181-1.587.136-2.743.952-3.468.635-.544 1.372-.714 2.21-.51.839.204 1.338.703 1.496 1.496.159.793.329 1.632.51 2.516.182.884.374 1.859.578 2.924.204 1.065.352 1.893.442 2.482.771 3.808 1.474 6.89 2.108 9.248.726-.77 1.428-2.085 2.108-3.944.408-1.133 1.134-2.675 2.176-4.624a239.94 239.94 0 0 0 1.836-3.468c.68-1.45 1.882-3.377 3.604-5.78.408-.544.998-1.065 1.768-1.564 1.043-.68 1.95-.635 2.72.136zm-36.924 12.998c2.04-3.042 3.332-5.402 3.876-7.082-.861.68-1.7 1.77-2.516 3.269-.816 1.498-1.269 2.769-1.36 3.813zm14.96 14.823c.091.499.023.998-.204 1.497a2.308 2.308 0 0 1-1.054 1.122c-.476.25-.974.317-1.496.204-.521-.113-.94-.351-1.258-.714-.725-.907-1.201-1.996-1.428-3.265-.272-1.451-.974-4.853-2.108-10.204-.09-.272-.17-.691-.238-1.258-.068-.567-.158-1.1-.272-1.599a9.523 9.523 0 0 0-.442-1.428c-.498 1.043-1.314 2.358-2.448 3.945-1.133 1.587-1.836 2.63-2.108 3.13-.725 1.178-1.734 1.893-3.026 2.142-1.292.25-2.414-.034-3.366-.85-.498-.408-.861-1.043-1.088-1.905-.498-1.905-.385-4.24.34-7.006 1.088-3.855 2.992-7.188 5.712-10 2.04-2.13 4.284-2.63 6.732-1.496 1.224.544 1.882 1.837 1.972 3.877.046.5.216.93.51 1.293.295.363.533.748.714 1.156.182.408.363.986.544 1.735.182.748.295 1.19.34 1.326.318 1.18.646 2.914.986 5.204.34 2.29.646 3.956.918 5 .454 1.723.771 3.333.952 4.829.046.272.318 1.36.816 3.265zm-22.032-23.605c.952 1.315.884 2.448-.204 3.4-.408.363-1.031.51-1.87.442-.838-.068-1.462-.329-1.87-.782-.136-.09-.77-.839-1.904-2.244-.362-.453-.68-.408-.952.136-.317.77-.952 2.017-1.904 3.74-.952 1.723-1.609 3.083-1.972 4.08a14.924 14.924 0 0 1-.816 1.904 42.579 42.579 0 0 0-.986 2.108c-.294.68-.532 1.315-.714 1.904-.272 1.043-.929 1.881-1.972 2.516-.861.453-1.734.487-2.618.102-.884-.385-1.439-1.054-1.666-2.006a15.032 15.032 0 0 1-.306-2.006 53.02 53.02 0 0 1-.136-1.734 74.616 74.616 0 0 1-.068-2.108 120.59 120.59 0 0 1-.034-1.836c0-.725.046-1.859.136-3.4 0-.816.295-1.598.884-2.346.59-.748 1.27-.918 2.04-.51 1.587.77 2.335 1.768 2.244 2.992 0 .045.046.408.136 1.088.363-.544.714-1.11 1.054-1.7.34-.59.726-1.371 1.156-2.346.431-.975.714-1.575.85-1.802.454-.952 1.27-2.199 2.448-3.74.635-.816 1.462-1.247 2.482-1.292 1.02-.045 1.938.295 2.754 1.02 1.224 1.088 2.494 2.561 3.808 4.42zm-27.676 3.4c.272-1.587.159-3.196-.34-4.828-.136-.408-.272-.669-.408-.782-.136-.113-.476-.034-1.02.238-1.088.816-1.541 1.836-1.36 3.06 0 .227-.022.578-.068 1.054a12.97 12.97 0 0 0-.068.918v7.276c1.678-1.45 2.766-3.763 3.264-6.936zm4.148-7.684c1.315 2.81 1.587 6.165.816 10.064a15.748 15.748 0 0 1-2.108 5.134c-.997 1.564-2.312 3.23-3.944 4.998-.226.227-.544.555-.952.986-.408.43-.702.737-.884.918a1.707 1.707 0 0 0-.408.68c-.09.272-.136.487-.136.646 0 .159.012.408.034.748.023.34.034.555.034.646.046.907.08 2.323.102 4.25.023 1.927.057 3.638.102 5.134.046 1.496.136 2.924.272 4.284.046.499-.102 1.031-.442 1.598-.34.567-.714.918-1.122 1.054-.952.317-1.836 0-2.652-.952-.725-.816-1.065-2.017-1.02-3.604-.181-5.213-.272-8.545-.272-9.996.046-.453-.136-.703-.544-.748a3.358 3.358 0 0 1-2.176-1.088c-.544-.59-.759-1.247-.646-1.972.114-.725.556-1.224 1.326-1.496.862-.272 1.428-.703 1.7-1.292.272-.59.386-1.337.34-2.244-.09-1.45-.068-4.85.068-10.2.046-1.043 0-1.836-.136-2.38-.136-.544-.102-1.337.102-2.38s.306-1.61.306-1.7c.182-2.085.567-6.075 1.156-11.968.046-.816.397-1.473 1.054-1.972a2.762 2.762 0 0 1 2.21-.544c.499.045.93.26 1.292.646.363.385.567.85.612 1.394.136 1.315.046 2.493-.272 3.536a5.937 5.937 0 0 0-.272 1.224c-.045.408-.079.918-.102 1.53-.022.612-.056 1.031-.102 1.258 0 .453.25.612.748.476 2.584-.725 4.556.385 5.916 3.332zm-19.996-4.08c-.452 0-.905-.272-1.357-.816-.453-.544-.701-1.11-.747-1.7-.045-.997.204-1.847.747-2.55.543-.703 1.244-1.054 2.104-1.054.724 0 1.29.25 1.697.748.407.499.633 1.213.678 2.142.046.93-.226 1.689-.814 2.278-.588.59-1.358.907-2.308.952zm.072 4.284c.59.045 1.122.204 1.598.476s.839.612 1.088 1.02c.25.408.374.816.374 1.224-.136 1.813-.226 4.873-.272 9.18-.045.68-.102 1.972-.17 3.876a131.857 131.857 0 0 0-.102 4.352c.046.77.023 1.904-.068 3.4-.045 1.45-.748 2.244-2.108 2.38a2.875 2.875 0 0 1-1.836-.476 2.32 2.32 0 0 1-1.02-1.496c-.181-.227-.238-1.122-.17-2.686.068-1.564.102-2.46.102-2.686v-5.44c0-.725.023-1.847.068-3.366.046-1.519.091-2.856.136-4.012.046-1.156.136-2.278.272-3.366.046-.77.272-1.371.68-1.802.408-.43.884-.623 1.428-.578zm-4.556 4.08c.952 1.315.884 2.448-.204 3.4-.408.363-1.031.51-1.87.442-.838-.068-1.462-.329-1.87-.782-.136-.09-.77-.839-1.904-2.244-.362-.453-.68-.408-.952.136-.317.77-.952 2.017-1.904 3.74-.952 1.723-1.609 3.083-1.972 4.08a14.924 14.924 0 0 1-.816 1.904 42.579 42.579 0 0 0-.986 2.108c-.294.68-.532 1.315-.714 1.904-.272 1.043-.929 1.881-1.972 2.516-.861.453-1.734.487-2.618.102-.884-.385-1.439-1.054-1.666-2.006a15.032 15.032 0 0 1-.306-2.006 53.02 53.02 0 0 1-.136-1.734 74.616 74.616 0 0 1-.068-2.108 120.59 120.59 0 0 1-.034-1.836c0-.725.046-1.859.136-3.4 0-.816.295-1.598.884-2.346.59-.748 1.27-.918 2.04-.51 1.587.77 2.335 1.768 2.244 2.992 0 .045.046.408.136 1.088.363-.544.714-1.11 1.054-1.7.34-.59.726-1.371 1.156-2.346.431-.975.714-1.575.85-1.802.454-.952 1.27-2.199 2.448-3.74.635-.816 1.462-1.247 2.482-1.292 1.02-.045 1.938.295 2.754 1.02 1.224 1.088 2.494 2.561 3.808 4.42zm-27.676 3.4c.272-1.587.159-3.196-.34-4.828-.136-.408-.272-.669-.408-.782-.136-.113-.476-.034-1.02.238-1.088.816-1.541 1.836-1.36 3.06 0 .227-.022.578-.068 1.054a12.97 12.97 0 0 0-.068.918v7.276c1.678-1.45 2.766-3.763 3.264-6.936zm4.148-7.684c1.315 2.81 1.587 6.165.816 10.064a15.748 15.748 0 0 1-2.108 5.134c-.997 1.564-2.312 3.23-3.944 4.998-.226.227-.544.555-.952.986-.408.43-.702.737-.884.918a1.707 1.707 0 0 0-.408.68c-.09.272-.136.487-.136.646 0 .159.012.408.034.748.023.34.034.555.034.646.046.907.08 2.323.102 4.25.023 1.927.057 3.638.102 5.134.046 1.496.136 2.924.272 4.284.046.499-.102 1.031-.442 1.598-.34.567-.714.918-1.122 1.054-.952.317-1.836 0-2.652-.952-.725-.816-1.065-2.017-1.02-3.604-.181-5.213-.272-8.545-.272-9.996.046-.453-.136-.703-.544-.748a3.358 3.358 0 0 1-2.176-1.088c-.544-.59-.759-1.247-.646-1.972.114-.725.556-1.224 1.326-1.496.862-.272 1.428-.703 1.7-1.292.272-.59.386-1.337.34-2.244-.09-1.45-.068-4.85.068-10.2.046-1.043 0-1.836-.136-2.38-.136-.544-.102-1.337.102-2.38s.306-1.61.306-1.7c.182-2.085.567-6.075 1.156-11.968.046-.816.397-1.473 1.054-1.972a2.762 2.762 0 0 1 2.21-.544c.499.045.93.26 1.292.646.363.385.567.85.612 1.394.136 1.315.046 2.493-.272 3.536a5.937 5.937 0 0 0-.272 1.224c-.045.408-.079.918-.102 1.53-.022.612-.056 1.031-.102 1.258 0 .453.25.612.748.476 2.584-.725 4.556.385 5.916 3.332z"/></g></g><g><g/><g clip-path="url(#ysofa)"><path fill="#fefefe" d="M370.665 78.266c.193.137.303.344.33.618a.77.77 0 0 1-.247.677c-.796.764-1.648 1.765-2.555 3.001-1.043 1.433-1.867 2.679-2.47 3.737a36.527 36.527 0 0 1-1.36 2.15c-.11.175-.227.45-.35.822-.124.374-.255.658-.392.855-.192.253-.514.475-.968.662-.454.186-.844.25-1.174.19-.715-.078-1.182-.411-1.4-1-.741-1.746-1.58-4.394-2.514-7.945a12.613 12.613 0 0 0-.247-.81c-.137-.422-.234-.75-.288-.986-.11-.686.082-1.186.577-1.5.384-.236.83-.31 1.339-.22.507.088.809.303.906.647.096.342.198.705.31 1.089.108.382.226.804.35 1.264.123.462.211.82.267 1.075.465 1.648.891 2.983 1.276 4.002.44-.334.866-.902 1.277-1.707.248-.49.687-1.157 1.319-2.002.631-.842 1.002-1.343 1.112-1.5.412-.627 1.139-1.461 2.183-2.501.247-.236.604-.461 1.072-.677.631-.294 1.18-.275 1.647.059"/></g></g></g></g></svg>