<svg xmlns="http://www.w3.org/2000/svg" width="563" height="276" viewBox="0 0 563 276"><g><g><path fill="#ec1d24" d="M19.918 29.41l5.815 195.875.486 25.987-6.301 6.376 10.621 5.495 22.507 2.446 31.586-7.94h35.44l33.127-2.92 26.875-7.085h29.365l40.062-4.105 16.949-.953 25.423 2.49 19.26 1.207 14.638 1.36 223.277-6.498.541-26.84-7.17-28.353-2.2-61.124 4.199-56.424 3.031-27.22 1.599-33.809-61.134 11.26-30.188 8.706s-101.908 19.249-252.14-.358z"/></g><g><path fill="none" stroke="#231f20" stroke-miterlimit="50" stroke-width="3" d="M4.005 31.462l2.21-.683v-8.894c0-8.209.735-10.945 2.945-10.945v.683c-.736 1.368-1.473 15.735-.736 17.788.736 1.368.736 1.368 5.155.683 2.211-.683 4.42-1.368 5.156-2.051 0-.685.737-.685 1.474-.685 0 0 .735 0 .735-.683 0-6.843 1.474-10.263 2.948-9.58 1.473 0 2.209 4.79.737 6.158 0 .683-.737 2.052-1.475 3.422 0 1.368 0 2.05 1.475 1.368.736 0 4.419-.685 8.838-1.368 3.682 0 8.838-.685 11.785-1.37 2.21 0 6.629-.684 9.574-.684 11.786-1.368 30.2-4.104 35.356-4.104 2.945-.685 14.73-.685 27.252-.685 42.72.685 85.44.685 88.386-.683 2.21 0 27.252-.685 88.385-.685 66.29 0 87.651-.683 97.227-1.368 6.628-.684 19.15-.684 27.252-.684 19.15-.685 43.456-1.368 56.713-2.736 5.157-.685 11.785-1.368 14.732-2.053 2.946 0 9.576-.683 14.73-1.368 6.629-.683 11.785-1.368 23.571-.683 13.995 0 15.467 0 16.204-1.369.737-1.368 2.21-1.368 2.21.684-.737 2.053.736.685 1.472-2.737 1.474-2.736 2.947-4.788 3.684-4.104.736 0 .736 2.053.736 4.79-.736 3.419 0 3.419.736 3.419 2.21.685 2.21 1.368.737 3.421-2.209 2.051-1.473 4.105.736 15.05 1.474 6.84 1.474 9.577 1.474 33.523 0 13.682 0 34.89-.737 47.205 0 31.468.737 59.518 2.946 76.621.736 6.84 1.473 12.997.736 26.678 0 14.37 0 18.474.737 26.683 1.473 8.209 1.473 9.577.738 10.262-.738 1.368-1.475 1.368-2.948.683-2.209-1.368-15.466-.683-25.779 0-3.682.685-9.574 1.368-13.257 2.053-8.839.683-52.296.683-65.554 0-5.156-.685-26.516-.685-46.402-.685-72.92 0-99.434 1.368-120.058 4.105-5.157 1.368-12.522 2.053-17.677 2.053-21.361 2.051-53.033 6.84-61.134 9.577-5.893 2.053-28.726 2.053-33.881 0-1.475 0-4.42-.685-6.631-.685-5.155-1.366-11.047-2.051-18.413-4.104-3.683-.684-7.365-1.369-8.84-1.369-1.472 0-3.681 0-5.891-.683-5.156-1.368-12.52-1.368-24.305 0-3.684.683-10.313.683-19.151 1.368-3.684 0-7.366.684-9.575 1.369-2.21.683-4.419.683-5.893.683-.737 0-2.945.685-5.156 1.37-1.473 1.366-4.42 1.366-5.893 1.366-1.472 0-4.419.685-6.628 2.053-7.366 2.053-19.15 4.105-27.253 4.79-2.21 0-5.155.683-6.628.683-2.21.685-2.21 0-2.21-.683 0-.685 0-1.368.736-1.368h3.683c1.473 0 2.21-.685 1.473-1.369-.736-.685-1.473-.685-2.21-.685l-5.892-4.104c-2.947-2.053-5.893-4.105-6.629-4.79-.737 0-1.472-.683-2.209-1.368l-4.42-6.84-3.684-6.842v-19.154c0-10.947.737-21.893 1.475-24.629 0-2.736.736-7.526.736-10.262.737-2.736 1.474-6.156 1.474-8.21 2.209-6.155 2.945-26.681 2.209-57.464-.737-17.788-.737-41.732-.737-54.048.737-12.313 0-26.68 0-30.784L6.95 32.83l-2.21.685c-3.682 0-4.419-1.368-.735-2.053zM5.478 238.76c0-.692-.737-.692-.737-.692v2.072c.737 0 .737-.691.737-1.38zm.725-28.733c0-4.11-.73-7.534-.73-6.85-.73 0-.73 14.385 0 14.385 0 0 .73-3.425.73-7.535zm53.78 54.726c-14.731.686-16.205.686-16.205-.687.736-1.371 0-1.371-7.366-.684-3.682 0-8.838.684-11.047.684l-3.684.687 1.473 1.371c1.475.685 2.21 1.371 2.947 1.371 0 0 1.473.685 3.683 2.058 2.946 1.371 2.946 2.056 7.365 1.371 2.21 0 6.63-.686 8.838-1.371 2.21-.687 4.42-.687 5.894-.687.736 0 1.473-.686 2.209-.686.736-1.371 5.892-2.056 9.574-2.056 2.21 0 4.42-.685 4.42-1.371.737-.687-1.473-.687-8.102 0zm157.632-3.426h-16.943c-3.684-.683-8.103-1.368-10.313-1.368-18.416-2.051-37.57-2.736-51.566-2.051l-5.891.683 2.945.685c1.474.683 4.42.683 5.894.683 2.21 0 4.42.685 6.63 1.368 1.472.685 4.419 1.369 6.63 1.369 4.419.685 13.259 2.053 18.415 3.42 1.474.684 5.893 1.37 8.84 1.37 3.682 0 6.63.682 6.63.682h2.947c1.473 0 5.155-.683 8.84-1.368 3.683 0 8.102-.683 9.576-1.366 1.473-.685 5.893-1.37 9.575-2.053l7.368-1.369c.737-.685-3.684-.685-9.577-.685zm331.438-15.05l-1.473-.683c-1.473-.685-1.473-1.368-1.473-2.053 0-1.368-.736-1.368-5.893.685-6.628 2.736-16.94 3.42-34.617 3.42-6.63 0-14.73.685-18.415.685h-16.94c-9.575-.685-16.94-1.369-40.51-2.054-6.629 0-16.942-.683-23.57-.683-13.258-1.368-29.462-.685-54.505.683-16.204.685-36.09.685-52.296 0-23.569-1.368-39.037-1.368-53.767-.683-16.942.683-15.468.683-20.624 1.368-11.049 1.369-23.57 2.052-38.301 2.737-2.946 0-6.628 0-8.101.683-1.474 0-3.683.685-5.157.685-1.473 0-3.682.683-3.682.683-.737 0-6.63.685-13.258 1.368-11.049 1.368-19.887 2.737-21.36 3.422h16.205c16.202 0 23.569.683 35.353 2.051 5.156 0 19.151 1.368 30.2 1.368h13.994c12.52-1.368 23.57-2.051 29.461-3.42 1.474 0 8.103-.684 13.26-1.367 5.891-.685 13.257-1.369 16.202-2.054 8.103-.683 18.414-1.368 30.2-2.051 4.418 0 13.994-.685 19.886-1.368h86.913c41.983 0 80.284 0 83.967-.685 4.42 0 12.522-.683 18.415-.683 10.31 0 13.258-.685 17.677-1.369zM552 240.13c.736-1.38.736-1.38-.737-.69-.737 0-1.473.69-1.473.69-.737 1.38.736 1.38 2.21 0zm-1.474-4.114c0 .683 0 .683.743.683 0 0 .743-.683.743-1.368 0-.683-.743-.683-.743-.683-.743 0-.743 0-.743 1.368zm1.486-6.169c0-5.46-.743-6.142-1.486-1.364v4.094c1.486.683 1.486 0 1.486-2.73zm.736 13.01l-.742-.685h-.743c0 .685 0 1.368.743 1.368zm1.461-98.514c0-.685-.737 4.788-.737 10.945 0 11.63 0 31.47-.736 44.469-.736 10.945.736 33.523 2.21 34.206.736.685.736.685 0 1.368-.737.685-.737 3.421-1.474 5.473 0 3.421 0 4.104 1.473 4.104.737 0 1.474 0 1.474 1.368 0 .685 0 1.369 1.472 1.369 1.473 0 1.473-.684.737-4.105 0-2.051-.737-4.788-.737-5.473-.736-1.368-.736-12.996-.736-26.682 0-28.731-1.473-66.359-2.946-67.042zM552 75.246c0 4.106.736 12.998.736 21.207l.736 14.369.737-9.58c0-5.472.736-12.313.736-16.417 1.474-13.684 1.474-35.575 0-45.837-1.473-5.473-1.473-10.945-1.473-11.63 0-.683-.736-1.368-.736-1.368-1.473.685-2.21 36.259-.736 49.256zm-2.21 1.366c0-4.789-.737-9.578-.737-10.26 0-1.369 0-6.84-.737-10.945 0-8.893 0-8.893-.736-3.42-.736 6.84-2.21 28.73-2.946 36.252 0 5.473-.737 8.893-2.21 18.471v23.941c0 23.257.737 36.939 3.683 49.25 1.473 4.79 3.683 19.838 3.683 21.206 0 0 .736.683.736 0 0 0 .737-2.736.737-6.157 0-2.736.737-18.467.737-33.52.736-25.991.736-43.092-.737-62.246-.737-9.577-.737-15.049-1.473-22.572zm-.737-40.36l.737-5.473V21.2c0-3.42 0-3.42-.737-1.368-.737 1.368-.737 4.104-.737 8.894zm-.737-19.84c.737 0 1.474-.685 1.474-2.053.736-1.368 0-2.051-.737-1.368-1.473.685-1.473 3.421-.737 3.421zm-2.21.684c0 .685.744.685 1.486.685v-1.369c-.742-.685-1.485-.685-1.485.684zm-116.374 1.368c.736.685 12.522 1.368 31.675 1.368 10.313 0 18.416.685 18.416.685h11.786c8.84 0 11.786-.685 23.572-3.421 7.367-2.052 16.206-3.42 19.151-4.105l5.157-.683-2.946-.685c-4.42-1.368-25.046-.683-33.148 0-2.21.685-8.84 1.368-13.26 2.053-5.156.683-11.786 1.368-13.996 1.368-8.102 1.368-31.674 2.737-42.724 2.737-2.21 0-3.683 0-3.683.683zm106.79-4.105c-5.884.685-9.561 2.053-3.677 1.368 2.207 0 4.414-.683 5.885-.683.735-.685 0-.685-2.207-.685zm-11.775 2.737h.736c1.474 0 2.21-.684 2.21-.684.737-.685-2.21 0-2.946.684zm-325.555 6.846c-5.157.686-14.732 1.37-22.098 1.37-8.102.686-15.467 1.371-16.204 2.055-2.946.686-13.258 1.37-29.463 2.056-5.155.684-8.1.684-8.1 1.37h4.418c2.21 0 8.839-.686 13.995-.686 5.156-.684 13.258-1.37 18.414-2.054 10.311-.686 28.725-.686 35.353 0 2.948 0 12.523.684 22.097.684 16.204.686 38.301 2.055 47.877 3.425 9.575.684 38.3 2.054 75.128 2.74 30.935.683 47.875.683 63.343-.686 5.156 0 10.312-.684 11.049-.684 1.472 0 5.893-.686 11.047-1.37 5.156 0 11.786-1.37 15.468-2.055 12.521-2.054 23.57-4.11 40.51-6.849 3.684 0 5.893-.685 5.893-.685s-11.784-.684-25.78-1.37c-25.778 0-28.724-.684-36.826-2.054-5.156-.685-24.307-.685-30.936 0-13.258 1.37-27.989 1.37-48.613 1.37-35.354 0-120.057 2.054-146.572 3.423zm-167.935 5.45h24.306c11.786-.683 31.671-.683 43.457-.683 20.624 0 29.462-.681 40.51-2.046h10.311c2.21 0 5.894-.684 8.839-1.367 5.156-.682 14.731-1.365 25.78-2.047 11.047-.683 5.892-.683-13.995-1.365-39.038-.683-75.864-.683-84.703.682-5.156.683-13.994 1.365-20.624 2.73-7.365.683-15.467 1.367-19.886 2.048-3.684.684-8.84 1.365-11.049 1.365-3.683 0-4.42 0-2.946.684zM9.16 35.568c0 .685.737 22.577.737 48.573.737 64.99.737 69.095.737 68.412.737 0 1.472-3.421 1.472-6.158.737-3.42 1.473-8.892 2.21-11.628C15.79 125.189 18 110.136 18 99.19c.736-10.26.736-41.046 0-57.466-.737-8.894-.737-9.577-2.209-9.577h-4.419c-2.211.683-2.211.683-2.211 3.42zm-.736 170.346c-1.474 26.682-.737 41.732 2.21 45.836.737 2.053 1.472 3.422 1.472 3.422.737 0 1.473.683 2.21 2.05 1.474 2.737 4.42 4.79 8.102 5.474 3.683.685 5.156.685 6.63-.684.736-.685 1.472-.685 1.472-.685s.737-.683 1.473-1.368c.737-1.368 1.474-1.368.737 0l-.737 2.053 19.15-.685c27.253-.683 32.41-.683 38.302-1.368 3.682-.683 11.784-2.051 22.833-2.736 6.629-.683 16.94-2.051 28.725-3.42 2.21-.685 8.102-1.368 13.257-2.053 5.157-.683 13.258-1.368 16.942-2.736 8.839-1.368 12.52-1.368 27.253-2.052 5.156 0 16.203-1.368 24.306-2.053 7.365-.683 17.677-1.368 22.833-1.368 5.892-.683 10.311-.683 11.047-.683h12.523c32.407 2.051 68.498 2.736 86.912 1.368 16.205-1.368 38.3-2.053 52.295-.685 6.63 0 16.205.685 22.097.685 23.57.683 33.88 1.368 39.037 2.051 5.156.685 38.301 0 54.506-1.368 8.838 0 9.575-.683 22.833-5.472.736 0 .736-1.369 1.472-2.737 0-1.947-.015-2.652-1.27-2.723a4.757 4.757 0 0 0-.046-2.068c1.317-.062 1.344-1.036 2.053-10.26.737-6.158.737-11.63 0-13.682 0-2.053-.737-6.158-.737-8.21-.736-2.736-2.21-9.576-2.945-14.366-3.683-15.05-4.42-28.733-5.157-51.31 0-14.366 0-22.575.736-29.418 1.475-8.892 1.475-17.1 3.684-38.309.737-14.366.737-16.418 2.21-21.892 1.472-5.473.736-12.314-.737-20.525-1.473-7.524-1.473-7.524-5.157-6.84-2.209.685-5.155.685-8.1.685-2.211 0-7.367.683-11.05 1.368-4.419.683-9.575 1.368-12.521 2.051-2.946 0-8.102.685-12.522 2.053-10.31 1.368-14.73 2.052-23.57 3.422-4.419.683-14.73 2.051-22.096 4.104-8.1 1.368-17.676 2.736-22.096 2.736-7.366 1.369-18.413 2.052-23.57 2.737-2.946 0-22.833 1.368-26.516 1.368-1.472 0-14.73 0-29.461-.685-14.73 0-31.673-.683-36.828-.683-5.155 0-11.785-.685-15.468-.685-3.682 0-10.311-.683-15.468-.683-5.156 0-9.575-.685-9.575-1.368-1.473-.685-1.473-.685-.736 0 0 .683 0 .683-.737.683-1.472-.683-14.73-1.368-21.36-2.052-3.682 0-7.364-.685-8.838-.685-1.473 0-8.839-.683-16.941-.683-8.839 0-20.623-.685-25.78-1.368-10.31-.685-37.563 0-38.3.683-.737 0-3.682.685-6.63.685-2.946 0-10.31.683-16.203 1.368H118.17c-9.574-.685-53.769-.685-72.182 0H26.1l-3.682.683.735 6.158c0 4.105.738 10.947.738 15.735.737 21.208 2.209 52.678 2.209 61.572 0 4.787.737 13.681.737 19.154.736 6.158.736 28.733.736 54.73 0 34.892.737 44.469 1.474 46.52.736 1.368.736 4.105.736 8.894l-.736 7.524-2.21 2.054c-1.473.683-3.684 1.368-4.42 1.368-1.474 0-1.474 0 .736-.685 2.947-2.052 4.42-6.156 2.947-13.682 0-1.368-.736-25.997-.736-55.414 0-29.418-.736-54.045-.736-54.045 0-.684-.737-12.314-.737-25.996 0-14.368-.738-25.997-.738-26.682 0 0-.736-7.526-1.473-16.418-1.472-30.787-1.472-31.47-1.472-2.053.735 33.521-.737 55.414-3.684 71.834-.735 2.736-1.472 8.892-2.209 13.681-1.473 4.105-2.21 8.893-2.21 10.26-1.472 8.897-2.21 13.001-2.21 19.842 0 4.105 0 11.63-.736 16.418 0 4.105-.736 10.262-.736 12.314z"/></g><g><path fill="#fff" d="M379.642 178.642c-.045.045-.068.59-.068 1.632.09 1.904.272 3.196.544 3.876.725 1.904 2.13 2.765 4.214 2.584a14.725 14.725 0 0 0 1.666-.238 13.236 13.236 0 0 0 1.733-.476c.59-.204 1.088-.397 1.496-.578.408-.181.951-.42 1.631-.714.68-.295 1.201-.51 1.564-.646a34.972 34.972 0 0 0 1.767-.782c.725-.34 1.337-.612 1.835-.816.499-.204 1.088-.43 1.768-.68.68-.25 1.314-.442 1.903-.578.68-.136 1.292-.068 1.836.204.543.272.906.68 1.087 1.224.544 1.723.159 2.833-1.155 3.332-.861.317-2.867 1.167-6.016 2.55-3.15 1.383-5.631 2.346-7.444 2.89-3.806 1.133-7.07.68-9.788-1.36-1.133-.816-2.085-2.199-2.855-4.148-.861-2.13-1.02-4.896-.476-8.296.408-2.584 1.495-5.803 3.263-9.656.86-1.859 1.722-3.377 2.583-4.556 2.13-2.856 3.376-4.51 3.738-4.964.77-.816 1.303-1.383 1.598-1.7.294-.317.77-.805 1.427-1.462.657-.657 1.27-1.19 1.836-1.598a20.41 20.41 0 0 1 1.801-1.156c.725-.408 1.371-.748 1.937-1.02a15.488 15.488 0 0 1 2.04-.782c.793-.25 1.507-.374 2.141-.374.634 0 1.405.068 2.311.204 1.179.272 2.13.805 2.855 1.598.725.793 1.133 1.78 1.224 2.958.09 1.315.045 2.539-.136 3.672-.136.997-.725 1.632-1.768 1.904-.951.227-1.744-.045-2.379-.816-.86-.997-1.178-1.972-.951-2.924v-1.02c0-.861-.386-1.179-1.156-.952-1.088.317-2.266.839-3.535 1.564-1.314.816-2.923 2.221-4.826 4.216-2.175 2.312-3.965 4.783-5.37 7.412-2.176 4.125-3.467 7.616-3.875 10.472zm-41.887 7.752a15.91 15.91 0 0 0 .272 3.536c1.042-1.587 1.586-2.425 1.631-2.516 3.309-6.075 6.028-11.356 8.158-15.844.318-.635.839-1.745 1.564-3.332a108.673 108.673 0 0 1 1.971-4.114 50.14 50.14 0 0 1 1.836-3.298c.272-.453.51-.805.714-1.054.204-.25.498-.499.884-.748a2.27 2.27 0 0 1 1.257-.374c1.496 0 2.493.748 2.992 2.244.317 1.043.476 2.085.476 3.128v16.388c.045 2.584.317 4.873.815 6.868.363-.272.703-.816 1.02-1.632.317-.725.6-1.507.85-2.346.25-.839.521-1.757.816-2.754.294-.997.532-1.79.714-2.38.317-.997.634-2.063.951-3.196.318-1.133.658-2.403 1.02-3.808.363-1.405.657-2.493.884-3.264.952-3.4 2.334-8.523 4.147-15.368a4.75 4.75 0 0 1 .748-1.428 2.49 2.49 0 0 1 1.155-.85c.454-.159.907-.17 1.36-.034.317.09.6.295.85.612s.43.703.544 1.156c.113.453.17.952.17 1.496-.046.272-.136.646-.272 1.122-.136.476-.227.76-.272.85-.227.952-.476 1.95-.748 2.992a191.852 191.852 0 0 0-.748 2.958c-.226.93-.487 1.915-.782 2.958a231.287 231.287 0 0 0-1.597 5.95 613.231 613.231 0 0 0-.748 2.958c-.906 3.536-2.04 7.435-3.4 11.696-.996 3.219-2.265 5.644-3.806 7.276-.68.725-1.473 1.201-2.38 1.428-.906.227-1.813.113-2.72-.34-.906-.453-1.585-1.224-2.039-2.312-.725-1.677-1.223-4.012-1.495-7.004a61.88 61.88 0 0 1-.272-4.25 124.285 124.285 0 0 1-.034-5.168c.022-1.972.034-3.411.034-4.318-.272.317-.51.669-.714 1.054-.204.385-.374.725-.51 1.02a35.94 35.94 0 0 0-.476 1.088c-.181.43-.34.782-.476 1.054-.317.635-1.45 2.879-3.399 6.732-1.858 3.627-3.512 6.664-4.963 9.112-1.496 2.539-2.674 4.261-3.535 5.168-1.36 1.496-2.765 2.063-4.215 1.7-1.632-.453-2.629-1.655-2.991-3.604-.544-2.72-.635-5.916-.272-9.588.408-3.899.997-7.525 1.767-10.88 1.45-6.347 2.742-11.175 3.875-14.484 1.224-3.4 2.267-6.188 3.128-8.364.362-.861.906-1.45 1.631-1.768.635-.363 1.156-.521 1.564-.476.408.045.884.34 1.428.884.86.77 1.02 1.723.475 2.856-1.676 3.445-3.285 7.933-4.826 13.464-2.267 8.115-3.604 15.164-4.011 21.148zm-34.815-9.452c2.04-3.037 3.332-5.395 3.876-7.072-.862.68-1.7 1.768-2.516 3.264-.816 1.496-1.27 2.765-1.36 3.808zm14.96 14.824c.09.499.022.997-.204 1.496a2.307 2.307 0 0 1-1.054 1.122c-.476.25-.975.317-1.496.204-.522-.113-.94-.351-1.258-.714-.726-.907-1.202-1.995-1.428-3.264-.272-1.45-.975-4.85-2.108-10.2-.09-.272-.17-.691-.238-1.258a15.61 15.61 0 0 0-.272-1.598 9.517 9.517 0 0 0-.442-1.428c-.499 1.043-1.315 2.357-2.448 3.944-1.134 1.587-1.836 2.63-2.108 3.128-.726 1.179-1.734 1.893-3.026 2.142-1.292.25-2.414-.034-3.366-.85-.499-.408-.862-1.043-1.088-1.904-.499-1.904-.386-4.239.34-7.004 1.088-3.853 2.992-7.185 5.712-9.996 2.04-2.13 4.284-2.63 6.732-1.496 1.224.544 1.881 1.836 1.972 3.876.045.499.215.93.51 1.292.294.363.532.748.714 1.156.181.408.362.986.544 1.734.181.748.294 1.19.34 1.326.317 1.179.646 2.913.986 5.202.34 2.29.646 3.955.918 4.998.453 1.723.77 3.332.952 4.828.045.272.317 1.36.816 3.264zm-23.732-4.42c0 .317.034.839.102 1.564.068.725.102 1.247.102 1.564 0 .317-.023.839-.068 1.564-.227 1.27-.907 1.995-2.04 2.176a2.723 2.723 0 0 1-1.632-.374c-.499-.295-.884-.737-1.156-1.326-.272-.499-.408-1.179-.408-2.04-.272-7.797-.454-12.58-.544-14.348a10.93 10.93 0 0 1-.068-1.326v-1.36c0-.385-.023-.839-.068-1.36a7.27 7.27 0 0 0-.272-1.462 556.092 556.092 0 0 0-2.856 4.488c-.454.725-1.224 1.972-2.312 3.74a1934.95 1934.95 0 0 1-2.516 4.08 3.642 3.642 0 0 1-1.02 1.02 3.6 3.6 0 0 1-1.258.544c-.43.09-.873.09-1.326 0a2.96 2.96 0 0 1-1.666-1.156c-.43-.59-.669-1.292-.714-2.108-.227-3.763-.114-8.296.34-13.6.045-.499.102-1.258.17-2.278.068-1.02.124-1.78.17-2.278.045-.59.317-1.156.816-1.7.498-.544 1.042-.861 1.632-.952 1.042-.136 1.858.295 2.448 1.292.181.227.294.51.34.85.045.34.068.612.068.816 0 .204-.034.533-.102.986-.068.453-.102.725-.102.816-.272 3.355-.43 6.392-.476 9.112.272.09.498-.023.68-.34.317-.725.702-1.45 1.156-2.176a74.25 74.25 0 0 1 1.632-2.482c.634-.93 1.11-1.62 1.428-2.074.997-1.541 1.95-2.652 2.856-3.332.816-.59 1.745-.737 2.788-.442 1.042.295 1.768.918 2.176 1.87.634 1.315.997 3.264 1.088 5.848.09 1.496.17 3.219.238 5.168.068 1.95.124 3.887.17 5.814.045 1.927.113 3.66.204 5.202zm-40.12-14.754c.09-.635-.227-1.27-.952-1.905-.726-.636-1.383-.885-1.972-.749-.182.045-.363.159-.544.34-2.222 3.403-3.468 6.647-3.74 9.732.09.952.136 1.463.136 1.53a2.356 2.356 0 0 0 .102.544 2.224 2.224 0 0 0 .238.476c.045.07.102.138.17.206.068.068.17.125.306.17.68.136 1.292-.068 1.836-.612 2.402-2.541 3.876-5.785 4.42-9.732zm1.02-6.394c1.405.68 2.46 1.598 3.162 2.754s.963 2.482.782 3.978c-.635 5.44-2.72 9.905-6.256 13.396-1.814 1.813-3.967 2.38-6.46 1.7-2.222-.59-3.65-2.13-4.284-4.624-.272-1.179-.386-2.108-.34-2.788 0-2.539.657-5.304 1.972-8.296.634-1.541 1.314-2.833 2.04-3.876.136-.227.238-.6.306-1.122.068-.521.124-.85.17-.986.226-.635.453-.975.68-1.02.317-.136.793-.351 1.428-.646a18.959 18.959 0 0 1 1.734-.714 4.641 4.641 0 0 1 1.53-.272c.997-.045 1.813.476 2.448 1.564.226.408.59.725 1.088.952zm-16.184 21.148c0 .317.034.839.102 1.564.068.725.102 1.247.102 1.564 0 .317-.023.839-.068 1.564-.227 1.27-.907 1.995-2.04 2.176a2.723 2.723 0 0 1-1.632-.374c-.499-.295-.884-.737-1.156-1.326-.272-.499-.408-1.179-.408-2.04-.272-7.797-.454-12.58-.544-14.348a10.93 10.93 0 0 1-.068-1.326v-1.36c0-.385-.023-.839-.068-1.36a7.27 7.27 0 0 0-.272-1.462 556.092 556.092 0 0 0-2.856 4.488c-.454.725-1.224 1.972-2.312 3.74a1934.95 1934.95 0 0 1-2.516 4.08 3.642 3.642 0 0 1-1.02 1.02 3.6 3.6 0 0 1-1.258.544c-.43.09-.873.09-1.326 0a2.96 2.96 0 0 1-1.666-1.156c-.43-.59-.669-1.292-.714-2.108-.227-3.763-.114-8.296.34-13.6.045-.499.102-1.258.17-2.278.068-1.02.124-1.78.17-2.278.045-.59.317-1.156.816-1.7.498-.544 1.042-.861 1.632-.952 1.042-.136 1.858.295 2.448 1.292.181.227.294.51.34.85.045.34.068.612.068.816 0 .204-.034.533-.102.986-.068.453-.102.725-.102.816-.272 3.355-.43 6.392-.476 9.112.272.09.498-.023.68-.34.317-.725.702-1.45 1.156-2.176a74.25 74.25 0 0 1 1.632-2.482c.634-.93 1.11-1.62 1.428-2.074.997-1.541 1.95-2.652 2.856-3.332.816-.59 1.745-.737 2.788-.442 1.042.295 1.768.918 2.176 1.87.634 1.315.997 3.264 1.088 5.848.09 1.496.17 3.219.238 5.168.068 1.95.124 3.887.17 5.814.045 1.927.113 3.66.204 5.202zm-26.724-28.414c-1.27-.182-2.086-.749-2.448-1.702-.318-.863-.216-1.918.306-3.166.521-1.249 1.144-2.054 1.87-2.418.362-.181.77-.272 1.224-.272.861.045 1.507.318 1.938.817.43.5.578 1.18.442 2.043a9.898 9.898 0 0 1-1.496 3.88c-.408.682-1.02.954-1.836.818zm3.672 15.018c-.046.363-.034.94.034 1.734.068.793.08 1.394.034 1.802-.09.59-.159 1.258-.204 2.006-.046.748-.08 1.417-.102 2.006a36.22 36.22 0 0 1-.136 1.972 33.815 33.815 0 0 1-.238 1.972c-.09.499-.238 1.383-.442 2.652-.204 1.27-.397 2.267-.578 2.992-.408 1.859-1.406 4.08-2.992 6.664-.408.59-1.077 1.36-2.006 2.312-.93.952-1.576 1.655-1.938 2.108-.907 1.224-2.04 1.541-3.4.952-.635-.227-1.054-.669-1.258-1.326-.204-.657-.125-1.303.238-1.938a18.37 18.37 0 0 1 1.054-1.36c.385-.453.838-.952 1.36-1.496.521-.544.895-.975 1.122-1.292 1.088-1.224 2.062-3.037 2.924-5.44a19.88 19.88 0 0 0 .952-3.604c.226-1.315.374-2.437.442-3.366.068-.93.147-2.176.238-3.74.09-1.564.158-2.709.204-3.434.09-.907.147-1.904.17-2.992a61.155 61.155 0 0 0 0-2.89 114.43 114.43 0 0 1-.034-3.026v-2.924c0-1.088.272-1.972.816-2.652.498-.635 1.201-.839 2.108-.612.634.136 1.11.612 1.428 1.428.136.363.226.76.272 1.19.045.43.08.793.102 1.088.022.295.034.737.034 1.326v1.36c0 .317-.012 1.258-.034 2.822-.023 1.564-.08 2.8-.17 3.706zm-10.53 6.528c.362 1.995.521 3.355.476 4.08-.09.77-.374 1.44-.85 2.006-.477.567-.987.85-1.531.85-.59 0-1.145-.283-1.667-.85a3.151 3.151 0 0 1-.85-2.006 37.496 37.496 0 0 0-1.02-6.188 40.886 40.886 0 0 1-3.062 4.012c-1.089 1.27-2.427 2.403-4.014 3.4a7.65 7.65 0 0 1-2.993.986c-1.044.113-2.064-.08-3.062-.578-.998-.499-1.769-1.315-2.313-2.448-.453-.952-.703-2.017-.748-3.196-.046-1.179 0-2.244.136-3.196 0-.136.011-.578.034-1.326a19.52 19.52 0 0 1 .102-1.666c.544-2.765 1.111-4.828 1.7-6.188.182-.363.681-1.587 1.497-3.672.454-.997 1.406-1.7 2.858-2.108.544-.136 1.066.011 1.564.442.5.43.726.94.68 1.53 0 .77-.226 1.587-.68 2.448-2.177 3.944-3.106 8.5-2.789 13.668.09 1.043.59 1.27 1.497.68 1.633-1.133 3.13-2.743 4.49-4.828 1.723-2.493 2.925-4.103 3.606-4.828 1.179-1.179 2.358-1.587 3.537-1.224 1.18.363 1.95 1.27 2.313 2.72.182.907.386 2.221.612 3.944.227 1.723.386 2.901.477 3.536zm-24.558 6.868c0 .317.034.839.102 1.564.068.725.102 1.247.102 1.564 0 .317-.023.839-.068 1.564-.227 1.27-.907 1.995-2.04 2.176a2.723 2.723 0 0 1-1.632-.374c-.499-.295-.884-.737-1.156-1.326-.272-.499-.408-1.179-.408-2.04-.272-7.797-.454-12.58-.544-14.348a10.93 10.93 0 0 1-.068-1.326v-1.36c0-.385-.023-.839-.068-1.36a7.27 7.27 0 0 0-.272-1.462 556.092 556.092 0 0 0-2.856 4.488c-.454.725-1.224 1.972-2.312 3.74a1934.95 1934.95 0 0 1-2.516 4.08 3.642 3.642 0 0 1-1.02 1.02 3.6 3.6 0 0 1-1.258.544c-.43.09-.873.09-1.326 0a2.96 2.96 0 0 1-1.666-1.156c-.43-.59-.669-1.292-.714-2.108-.227-3.763-.114-8.296.34-13.6.045-.499.102-1.258.17-2.278.068-1.02.124-1.78.17-2.278.045-.59.317-1.156.816-1.7.498-.544 1.042-.861 1.632-.952 1.042-.136 1.858.295 2.448 1.292.181.227.294.51.34.85.045.34.068.612.068.816 0 .204-.034.533-.102.986-.068.453-.102.725-.102.816-.272 3.355-.43 6.392-.476 9.112.272.09.498-.023.68-.34.317-.725.702-1.45 1.156-2.176a74.25 74.25 0 0 1 1.632-2.482c.634-.93 1.11-1.62 1.428-2.074.997-1.541 1.95-2.652 2.856-3.332.816-.59 1.745-.737 2.788-.442 1.042.295 1.768.918 2.176 1.87.634 1.315.997 3.264 1.088 5.848.09 1.496.17 3.219.238 5.168.068 1.95.124 3.887.17 5.814.045 1.927.113 3.66.204 5.202zm314.194-90.239c-.318.543-.374.985-.17 1.324.204.34.646.509 1.326.509.634.045 1.337-.26 2.108-.916.77-.656 1.337-1.414 1.7-2.274.317-.77.204-1.403-.34-1.9-.454-.408-1.088-.453-1.904-.136-.363.135-.703.35-1.02.644-.318.295-.544.555-.68.781a13.47 13.47 0 0 0-.544 1.052c-.227.475-.386.78-.476.916zm.204 7.147c-.046 0-.136-.034-.272-.102-.136-.068-.25-.09-.34-.068a.304.304 0 0 0-.204.17c-.136.317-.068.68.204 1.088.816 1.133 2.017 1.927 3.604 2.38.136.045.385.113.748.204.362.09.646.159.85.204.204.045.43.159.68.34.25.181.464.385.646.612.317.453.532.975.646 1.564.113.59.08 1.088-.102 1.496-.544.861-1.383 1.201-2.516 1.02-3.4-.453-6.007-1.723-7.82-3.808-1.542-1.859-2.267-4.737-2.176-8.636 0-.227.034-.703.102-1.428a19.97 19.97 0 0 0 .102-1.802c0-.476-.046-1.145-.136-2.006a2.37 2.37 0 0 1 .17-1.428c.204-.453.498-.839.884-1.156a2.854 2.854 0 0 1 1.326-.612 2.854 2.854 0 0 0 1.428-.952c1.27-1.541 3.173-2.493 5.712-2.856 1.314-.227 2.63.181 3.944 1.224s2.153 2.267 2.516 3.672c.453 1.677.215 3.423-.714 5.236a10.67 10.67 0 0 1-4.012 4.318c-1.746 1.065-3.502 1.507-5.27 1.326zm-3.799-22.644c1.451 1.179 1.905 2.267 1.36 3.264-.226.408-.702.714-1.428.918a3.927 3.927 0 0 1-2.109.034c-.363-.09-.873-.204-1.53-.34a22.211 22.211 0 0 1-1.463-.34c-.318-.09-.533-.057-.646.102-.114.159-.125.374-.034.646.09.317.136.646.136.986 0 .34-.023.748-.068 1.224-.046.476-.068.805-.068.986-.046.544-.08 1.179-.103 1.904a69.62 69.62 0 0 0-.034 2.176v1.904c-.045.725-.056 2.335-.034 4.828.023 2.493-.056 4.08-.238 4.76-.045.363-.034.895.034 1.598.068.703.102 1.213.102 1.53-.09 1.541-.408 2.63-.952 3.264a5.592 5.592 0 0 0-.442.476c-.068.09-.227.227-.476.408-.25.181-.443.25-.579.204-.136-.045-.363-.068-.68-.068-.907-.272-1.451-.975-1.633-2.108-.181-1.179-.25-2.063-.204-2.652 0-.181.034-1.054.102-2.618.068-1.564.102-2.754.102-3.57 0-1.723.023-3.173.068-4.352 0-.136.023-2.652.068-7.548.046-2.176.068-3.717.068-4.624a.55.55 0 0 0-.102-.34.584.584 0 0 0-.17-.17c-.045-.023-.159-.034-.34-.034h-.34c-.499-.09-1.655-.113-3.47-.068-1.814.045-2.97.045-3.47 0-.589 0-1.122-.25-1.598-.748-.476-.499-.737-1.065-.782-1.7a2.387 2.387 0 0 1 .476-1.632c.363-.499.839-.793 1.429-.884 1.678-.317 3.492-.43 5.442-.34 1.497.09 2.381.011 2.653-.238.272-.25.431-1.122.476-2.618.046-.363.068-.77.068-1.224 0-.453.012-.907.034-1.36.023-.453.035-.861.035-1.224.09-1.45.793-2.221 2.108-2.312.5 0 .987.204 1.463.612.476.408.76.907.85 1.496.182 1.315.227 2.312.137 2.992-.046.725-.023 2.04.068 3.944.045.635.385 1.02 1.02 1.156 2.222.408 3.787.975 4.694 1.7zm-28.773 20.332c2.04-3.037 3.332-5.395 3.876-7.072-.862.68-1.7 1.768-2.516 3.264-.816 1.496-1.27 2.765-1.36 3.808zm14.96 14.824c.09.499.022.997-.204 1.496a2.307 2.307 0 0 1-1.054 1.122c-.476.25-.975.317-1.496.204-.522-.113-.94-.351-1.258-.714-.726-.907-1.202-1.995-1.428-3.264-.272-1.45-.975-4.85-2.108-10.2-.09-.272-.17-.691-.238-1.258a15.61 15.61 0 0 0-.272-1.598 9.517 9.517 0 0 0-.442-1.428c-.499 1.043-1.315 2.357-2.448 3.944-1.134 1.587-1.836 2.63-2.108 3.128-.726 1.179-1.734 1.893-3.026 2.142-1.292.25-2.414-.034-3.366-.85-.499-.408-.862-1.043-1.088-1.904-.499-1.904-.386-4.239.34-7.004 1.088-3.853 2.992-7.185 5.712-9.996 2.04-2.13 4.284-2.63 6.732-1.496 1.224.544 1.881 1.836 1.972 3.876.045.499.215.93.51 1.292.294.363.532.748.714 1.156.181.408.362.986.544 1.734.181.748.294 1.19.34 1.326.317 1.179.646 2.913.986 5.202.34 2.29.646 3.955.918 4.998.453 1.723.77 3.332.952 4.828.045.272.317 1.36.816 3.264zm-22.042-23.598c.952 1.314.884 2.447-.204 3.398-.408.363-1.03.51-1.869.442-.838-.068-1.461-.329-1.869-.782-.136-.09-.77-.838-1.903-2.243-.362-.453-.68-.408-.952.136-.317.77-.951 2.017-1.903 3.739-.951 1.722-1.608 3.08-1.97 4.078a14.917 14.917 0 0 1-.816 1.903 42.558 42.558 0 0 0-.986 2.107 18.52 18.52 0 0 0-.713 1.903c-.272 1.042-.93 1.88-1.972 2.515-.86.453-1.733.487-2.616.102-.884-.385-1.439-1.053-1.665-2.005a15.027 15.027 0 0 1-.306-2.005 52.962 52.962 0 0 1-.136-1.733 74.584 74.584 0 0 1-.068-2.107 120.51 120.51 0 0 1-.034-1.836c0-.725.045-1.858.136-3.398 0-.816.294-1.597.883-2.345.59-.748 1.27-.918 2.04-.51 1.585.77 2.333 1.767 2.242 2.99 0 .046.046.409.136 1.088.363-.543.714-1.11 1.054-1.699.34-.59.725-1.37 1.155-2.345.43-.974.714-1.575.85-1.801.453-.952 1.268-2.198 2.447-3.739.634-.815 1.46-1.246 2.48-1.291 1.02-.045 1.937.295 2.753 1.02 1.223 1.087 2.492 2.56 3.806 4.418zm-26.976 4.424c.09-.635-.227-1.27-.954-1.905-.726-.636-1.384-.885-1.974-.749-.182.045-.363.159-.545.34-2.224 3.403-3.473 6.647-3.745 9.732.09.952.136 1.463.136 1.53a2.353 2.353 0 0 0 .102.544 2.224 2.224 0 0 0 .238.476c.046.07.103.138.17.206.069.068.171.125.307.17.681.136 1.294-.068 1.839-.612 2.406-2.541 3.881-5.785 4.426-9.732zm1.002-6.394c1.405.68 2.458 1.598 3.16 2.754.703 1.156.963 2.482.782 3.978-.634 5.44-2.719 9.905-6.253 13.396-1.812 1.813-3.964 2.38-6.456 1.7-2.22-.59-3.647-2.13-4.281-4.624-.272-1.179-.386-2.108-.34-2.788 0-2.539.657-5.304 1.97-8.296.635-1.541 1.315-2.833 2.04-3.876.135-.227.237-.6.305-1.122.068-.521.125-.85.17-.986.227-.635.453-.975.68-1.02.317-.136.793-.351 1.427-.646a18.942 18.942 0 0 1 1.733-.714 4.636 4.636 0 0 1 1.53-.272c.996-.045 1.811.476 2.446 1.564.226.408.589.725 1.087.952zm-15.894 19.584c.09.725.011 1.349-.238 1.87-.25.521-.646.873-1.19 1.054-.59.181-1.202.113-1.837-.204a3.619 3.619 0 0 1-1.496-1.36 5.315 5.315 0 0 1-.409-1.088c-.09-.363-.158-.861-.204-1.496a25.052 25.052 0 0 1-.068-1.156c-.136-.907-.657-5.44-1.564-13.6l-.136-.952c-1.678 2.13-2.562 3.241-2.653 3.332-.952 1.179-2.131 2.958-3.537 5.338-1.405 2.38-2.358 3.955-2.856 4.726a4.444 4.444 0 0 1-1.53 1.292c-.613.317-1.191.408-1.735.272-.635-.136-1.202-.521-1.7-1.156a4.204 4.204 0 0 1-.885-2.176c-.181-1.36-.363-4.012-.544-7.956 0-.045-.09-.725-.272-2.04-.227.317-.907 1.156-2.04 2.516-1.134 1.36-1.95 2.448-2.45 3.264-.498.861-1.95 3.219-4.353 7.072-.589.952-.93 1.655-1.02 2.108-.181.499-.533.94-1.054 1.326-.522.385-1.009.578-1.462.578-1.27-.09-2.086-.839-2.45-2.244-.271-.861-.317-2.153-.135-3.876.59-7.027 1.133-12.376 1.632-16.048.091-.499.136-1.405.136-2.72a5.925 5.925 0 0 1 .817-2.72c.408-.77.997-1.19 1.768-1.258.77-.068 1.451.215 2.04.85.5.544.771 1.201.817 1.972.045.77.022 1.473-.068 2.108-.091.997-.25 2.482-.476 4.454a329.292 329.292 0 0 0-.477 4.318c0 .09-.056.272-.17.544-.113.272-.158.51-.136.714.023.204.125.397.306.578 1.588-2.13 2.426-3.241 2.517-3.332.227-.317.533-.737.918-1.258.386-.521.703-.952.953-1.292a22.34 22.34 0 0 1 2.006-2.346c.952-.861 1.814-1.45 2.585-1.768 2.176-.952 3.695-.045 4.557 2.72.227.635.385 1.292.476 1.972.09.68.159 1.598.204 2.754.046 1.156.09 1.847.136 2.074 0 .363.068.567.204.612.227-.136.442-.329.646-.578.205-.25.397-.544.579-.884.181-.34.34-.6.476-.782.317-.408.839-1.167 1.564-2.278.726-1.11 1.315-1.938 1.769-2.482 1.496-1.813 2.97-3.128 4.42-3.944.545-.272 1.18-.34 1.905-.204.726.136 1.315.453 1.769.952.952 1.043 1.587 2.38 1.904 4.012.272 1.541.794 5.961 1.565 13.26 0 .272.158 1.79.476 4.556zm-67.534-8.84c2.035-3.037 3.323-5.395 3.866-7.072-.86.68-1.696 1.768-2.51 3.264-.814 1.496-1.266 2.765-1.356 3.808zm14.95 14.824c.09.499.023.997-.204 1.496a2.307 2.307 0 0 1-1.054 1.122c-.475.25-.974.317-1.495.204-.52-.113-.94-.351-1.257-.714-.725-.907-1.201-1.995-1.428-3.264-.271-1.45-.974-4.85-2.107-10.2-.09-.272-.17-.691-.237-1.258-.068-.567-.159-1.1-.272-1.598a9.522 9.522 0 0 0-.442-1.428c-.499 1.043-1.314 2.357-2.447 3.944-1.133 1.587-1.835 2.63-2.107 3.128-.725 1.179-1.733 1.893-3.024 2.142-1.292.25-2.413-.034-3.365-.85-.498-.408-.86-1.043-1.087-1.904-.499-1.904-.385-4.239.34-7.004 1.087-3.853 2.99-7.185 5.709-9.996 2.039-2.13 4.282-2.63 6.729-1.496 1.223.544 1.88 1.836 1.97 3.876.046.499.216.93.51 1.292.295.363.533.748.714 1.156.181.408.363.986.544 1.734.181.748.294 1.19.34 1.326.317 1.179.645 2.913.985 5.202.34 2.29.646 3.955.918 4.998.453 1.723.77 3.332.951 4.828.046.272.317 1.36.816 3.264zm-31.678-20.4c.136-.317.136-.544 0-.68-.816-1.043-1.7-1.11-2.652-.204-.182.181-.34.363-.476.544-1.678 2.221-2.834 5.055-3.468 8.5-.363 1.95-.363 3.445 0 4.488.136-.227.351-.499.646-.816.294-.317.544-.612.748-.884.204-.272.374-.521.51-.748.59-1.133 2.153-4.533 4.692-10.2zm6.052-23.256c.68.045 1.224.295 1.632.748.408.453.612 1.043.612 1.768-.046.544-.08 1.27-.102 2.176a79.816 79.816 0 0 1-.102 2.55 29.53 29.53 0 0 1-.204 2.21c-.272 2.675-.408 4.85-.408 6.528.045.907 0 2.221-.136 3.944-.136 1.723-.204 2.947-.204 3.672 0 1.179-.057 3.207-.17 6.086-.114 2.879-.17 5.111-.17 6.698 0 .408.022 1.02.068 1.836.045.816.068 1.417.068 1.802s-.046.986-.136 1.802c-.09.77-.612 1.655-1.564 2.652-.363.408-.907.442-1.632.102-.726-.34-1.202-.827-1.428-1.462-.227-.635-.34-1.927-.34-3.876v-6.936a.56.56 0 0 1-.17-.034.56.56 0 0 0-.17-.034c-.182.272-.408.714-.68 1.326a37.482 37.482 0 0 1-.544 1.19c-.68 1.224-1.632 2.63-2.856 4.216-.998 1.36-2.256 2.108-3.774 2.244-1.519.136-2.89-.363-4.114-1.496a4.776 4.776 0 0 1-1.122-2.006c-.204-.748-.329-1.62-.374-2.618-.136-4.67 1.02-9.157 3.468-13.464 1.36-2.357 2.97-4.012 4.828-4.964 2.04-1.043 3.944-.816 5.712.68l.408.204c-.046-1.405.045-3.355.272-5.848.226-2.493.362-4.261.408-5.304 0-1.632.181-3.083.544-4.352.136-.59.453-1.1.952-1.53.498-.43.974-.6 1.428-.51zm-36.05 34.68c-1.313 6.347-2.038 9.77-2.174 10.268-.906 3.853-1.993 7.117-3.261 9.792-.272.544-.815.816-1.63.816-.816 0-1.688-.227-2.616-.68-.929-.453-1.393-1.201-1.393-2.244 0-.635.181-1.473.543-2.516.317-.77.612-1.541.884-2.312 1.177-4.216 1.902-6.823 2.174-7.82.724-3.037 1.2-5.712 1.426-8.024.091-1.088.521-1.768 1.291-2.04a3.14 3.14 0 0 1 1.291-.272c1.132 0 2.174.363 3.125 1.088.68.453.793 1.768.34 3.944zm-24.062-10.683c-.318.543-.374.985-.17 1.324.204.34.646.509 1.326.509.634.045 1.337-.26 2.108-.916.77-.656 1.337-1.414 1.7-2.274.317-.77.204-1.403-.34-1.9-.454-.408-1.088-.453-1.904-.136-.363.135-.703.35-1.02.644-.318.295-.544.555-.68.781a13.47 13.47 0 0 0-.544 1.052c-.227.475-.386.78-.476.916zm.204 7.147c-.046 0-.136-.034-.272-.102-.136-.068-.25-.09-.34-.068a.304.304 0 0 0-.204.17c-.136.317-.068.68.204 1.088.816 1.133 2.017 1.927 3.604 2.38.136.045.385.113.748.204.362.09.646.159.85.204.204.045.43.159.68.34.25.181.464.385.646.612.317.453.532.975.646 1.564.113.59.08 1.088-.102 1.496-.544.861-1.383 1.201-2.516 1.02-3.4-.453-6.007-1.723-7.82-3.808-1.542-1.859-2.267-4.737-2.176-8.636 0-.227.034-.703.102-1.428a19.97 19.97 0 0 0 .102-1.802c0-.476-.046-1.145-.136-2.006a2.37 2.37 0 0 1 .17-1.428c.204-.453.498-.839.884-1.156a2.854 2.854 0 0 1 1.326-.612 2.854 2.854 0 0 0 1.428-.952c1.27-1.541 3.173-2.493 5.712-2.856 1.314-.227 2.63.181 3.944 1.224s2.153 2.267 2.516 3.672c.453 1.677.215 3.423-.714 5.236a10.67 10.67 0 0 1-4.012 4.318c-1.746 1.065-3.502 1.507-5.27 1.326zM261.5 90.314c-1.134 1.088-1.814 2.312-2.041 3.672-.136.725.023 1.315.476 1.768.136.136.522.533 1.157 1.19a26.846 26.846 0 0 0 1.497 1.462c1.814 1.632 2.903 3.445 3.266 5.44.272 1.179.034 2.516-.715 4.012-.748 1.496-1.803 2.584-3.164 3.264-2.54 1.27-4.808 1.723-6.804 1.36a6.375 6.375 0 0 0-1.02-.068h-1.02c-.41-.045-.863-.295-1.362-.748-.499-.453-.793-.884-.884-1.292-.09-.453.011-.975.306-1.564.295-.59.646-.952 1.055-1.088.045 0 .793-.045 2.245-.136.317.09.68.136 1.089.136.408 0 .748-.023 1.02-.068.272-.045.658-.125 1.157-.238.499-.113.862-.193 1.088-.238.68-.136 1.237-.453 1.667-.952.431-.499.556-1.02.375-1.564-.227-.861-.726-1.61-1.497-2.244-1.86-1.496-3.266-3.037-4.219-4.624-.862-1.496-.998-3.355-.408-5.576.59-1.95 1.52-3.536 2.79-4.76 2.086-2.04 4.309-2.765 6.668-2.176.907.227 1.757.827 2.551 1.802.794.975 1.19 1.915 1.19 2.822.046.816-.271 1.44-.952 1.87-.68.43-1.406.465-2.177.102-1.089-.499-1.792-.997-2.11-1.496-.317-.544-.725-.567-1.224-.068zm-32.918 6.793c-.318.543-.374.985-.17 1.324.204.34.646.509 1.326.509.634.045 1.337-.26 2.108-.916.77-.656 1.337-1.414 1.7-2.274.317-.77.204-1.403-.34-1.9-.454-.408-1.088-.453-1.904-.136-.363.135-.703.35-1.02.644-.318.295-.544.555-.68.781a13.47 13.47 0 0 0-.544 1.052c-.227.475-.386.78-.476.916zm.2 7.147c-.045 0-.136-.034-.272-.102-.136-.068-.249-.09-.34-.068a.304.304 0 0 0-.203.17c-.136.317-.068.68.203 1.088.816 1.133 2.017 1.927 3.602 2.38.136.045.385.113.748.204.362.09.645.159.85.204.203.045.43.159.679.34.249.181.464.385.645.612.318.453.533.975.646 1.564.113.59.08 1.088-.102 1.496-.544.861-1.382 1.201-2.514 1.02-3.398-.453-6.003-1.723-7.816-3.808-1.54-1.859-2.265-4.737-2.174-8.636 0-.227.034-.703.102-1.428.068-.725.102-1.326.102-1.802s-.046-1.145-.136-2.006a2.37 2.37 0 0 1 .17-1.428c.204-.453.498-.839.883-1.156a2.851 2.851 0 0 1 1.325-.612 2.852 2.852 0 0 0 1.427-.952c1.269-1.541 3.172-2.493 5.709-2.856 1.314-.227 2.628.181 3.942 1.224 1.313 1.043 2.152 2.267 2.514 3.672.453 1.677.215 3.423-.714 5.236a10.667 10.667 0 0 1-4.01 4.318c-1.743 1.065-3.499 1.507-5.266 1.326zm-3.804-22.644c1.45 1.179 1.904 2.267 1.36 3.264-.227.408-.703.714-1.428.918a3.924 3.924 0 0 1-2.108.034c-.363-.09-.873-.204-1.53-.34a22.193 22.193 0 0 1-1.462-.34c-.318-.09-.533-.057-.646.102-.114.159-.125.374-.034.646.09.317.136.646.136.986 0 .34-.023.748-.068 1.224-.046.476-.068.805-.068.986-.046.544-.08 1.179-.102 1.904-.023.725-.034 1.45-.034 2.176v1.904c-.046.725-.057 2.335-.034 4.828.022 2.493-.057 4.08-.238 4.76-.046.363-.034.895.034 1.598.068.703.102 1.213.102 1.53-.09 1.541-.408 2.63-.952 3.264a5.591 5.591 0 0 0-.442.476c-.068.09-.227.227-.476.408-.25.181-.442.25-.578.204-.136-.045-.363-.068-.68-.068-.907-.272-1.45-.975-1.632-2.108-.182-1.179-.25-2.063-.204-2.652 0-.181.034-1.054.102-2.618a88.97 88.97 0 0 0 .102-3.57c0-1.723.022-3.173.068-4.352 0-.136.022-2.652.068-7.548.045-2.176.068-3.717.068-4.624a.55.55 0 0 0-.102-.34.584.584 0 0 0-.17-.17c-.046-.023-.159-.034-.34-.034h-.34c-.499-.09-1.655-.113-3.468-.068-.91.023-1.653.034-2.232.034.063-.054.124-.11.183-.17.589-.59.86-1.349.815-2.278-.045-.93-.272-1.643-.679-2.142a1.942 1.942 0 0 0-.82-.599 24.54 24.54 0 0 1 4.229-.149c1.496.09 2.38.011 2.652-.238.272-.25.43-1.122.476-2.618.045-.363.068-.77.068-1.224 0-.453.011-.907.034-1.36.022-.453.034-.861.034-1.224.09-1.45.793-2.221 2.108-2.312.498 0 .986.204 1.462.612.476.408.76.907.85 1.496.181 1.315.226 2.312.136 2.992-.046.725-.023 2.04.068 3.944.045.635.385 1.02 1.02 1.156 2.221.408 3.785.975 4.692 1.7zm-17.328 2.414c-.562.48-1.27.741-2.124.782-.453 0-.905-.272-1.358-.816-.452-.544-.7-1.11-.746-1.7-.045-.997.203-1.847.746-2.55.543-.703 1.245-1.054 2.104-1.054.324 0 .616.05.876.15-.41.052-.814.115-1.21.19-.59.09-1.066.385-1.428.884a2.388 2.388 0 0 0-.476 1.632c.045.635.306 1.201.782 1.7.476.499 1.008.748 1.598.748.248.023.66.034 1.236.034zm-2.047 5.066c.59.045 1.123.204 1.6.476.477.272.84.612 1.09 1.02.25.409.375.817.375 1.225-.136 1.814-.227 4.875-.273 9.184-.045.68-.102 1.972-.17 3.877a131.726 131.726 0 0 0-.102 4.354c.045.77.023 1.904-.068 3.401-.046 1.451-.75 2.245-2.112 2.381a2.883 2.883 0 0 1-1.839-.476 2.322 2.322 0 0 1-1.022-1.497c-.181-.227-.238-1.122-.17-2.687.068-1.564.102-2.46.102-2.687v-5.442c0-.726.023-1.848.068-3.367.046-1.52.091-2.857.136-4.014.046-1.156.137-2.279.273-3.367.045-.771.272-1.372.681-1.803.409-.43.886-.623 1.43-.578zm-4.561 4.078c.952 1.314.884 2.447-.204 3.398-.408.363-1.032.51-1.87.442-.839-.068-1.462-.329-1.87-.782-.136-.09-.77-.838-1.904-2.243-.363-.453-.68-.408-.952.136-.318.77-.952 2.017-1.904 3.739s-1.61 3.08-1.972 4.078a14.914 14.914 0 0 1-.816 1.903 42.552 42.552 0 0 0-.986 2.107c-.295.68-.533 1.314-.714 1.903-.272 1.042-.93 1.88-1.972 2.515-.862.453-1.734.487-2.618.102-.884-.385-1.44-1.053-1.666-2.005a15.019 15.019 0 0 1-.306-2.005 52.973 52.973 0 0 1-.136-1.733 74.551 74.551 0 0 1-.068-2.107c-.023-.997-.034-1.61-.034-1.836 0-.725.045-1.858.136-3.398 0-.816.294-1.597.884-2.345.59-.748 1.27-.918 2.04-.51 1.586.77 2.334 1.767 2.244 2.99 0 .046.045.409.136 1.088a30.89 30.89 0 0 0 1.054-1.699c.34-.59.725-1.37 1.156-2.345.43-.974.714-1.575.85-1.801.453-.952 1.27-2.198 2.448-3.739.634-.815 1.462-1.246 2.482-1.291 1.02-.045 1.938.295 2.754 1.02 1.224 1.087 2.493 2.56 3.808 4.418zm-26.996 4.424c.09-.635-.227-1.27-.952-1.905-.726-.636-1.383-.885-1.972-.749-.182.045-.363.159-.544.34-2.222 3.403-3.468 6.647-3.74 9.732.09.952.136 1.463.136 1.53a2.356 2.356 0 0 0 .102.544 2.224 2.224 0 0 0 .238.476c.045.07.102.138.17.206.068.068.17.125.306.17.68.136 1.292-.068 1.836-.612 2.402-2.541 3.876-5.785 4.42-9.732zm1.02-6.394c1.405.68 2.46 1.598 3.162 2.754s.963 2.482.782 3.978c-.635 5.44-2.72 9.905-6.256 13.396-1.814 1.813-3.967 2.38-6.46 1.7-2.222-.59-3.65-2.13-4.284-4.624-.272-1.179-.386-2.108-.34-2.788 0-2.539.657-5.304 1.972-8.296.634-1.541 1.314-2.833 2.04-3.876.136-.227.238-.6.306-1.122.068-.521.124-.85.17-.986.226-.635.453-.975.68-1.02.317-.136.793-.351 1.428-.646a18.959 18.959 0 0 1 1.734-.714 4.641 4.641 0 0 1 1.53-.272c.997-.045 1.813.476 2.448 1.564.226.408.59.725 1.088.952zm-13.124-2.244c.317.317.498.793.544 1.428.045.635-.09 1.156-.408 1.564-1.315 1.768-2.72 4.08-4.216 6.936-1.723 3.31-3.083 6.188-4.08 8.636a93.996 93.996 0 0 1-2.244 4.964c-.182.408-.374 1.043-.578 1.904-.204.861-.42 1.519-.646 1.972-.318.59-.85 1.1-1.598 1.53-.748.43-1.394.578-1.938.442-1.179-.181-1.95-.952-2.312-2.312-1.224-4.035-2.607-10.155-4.148-18.36-.046-.272-.182-.895-.408-1.87a39.244 39.244 0 0 1-.476-2.278c-.182-1.587.136-2.743.952-3.468.634-.544 1.371-.714 2.21-.51.838.204 1.337.703 1.496 1.496.158.793.328 1.632.51 2.516.181.884.374 1.859.578 2.924.204 1.065.351 1.893.442 2.482.77 3.808 1.473 6.89 2.108 9.248.725-.77 1.428-2.085 2.108-3.944.408-1.133 1.133-2.675 2.176-4.624a239.94 239.94 0 0 0 1.836-3.468c.68-1.45 1.881-3.377 3.604-5.78.408-.544.997-1.065 1.768-1.564 1.042-.68 1.95-.635 2.72.136zm-28.016 8.638c.09-.635-.227-1.27-.952-1.905-.726-.636-1.383-.885-1.972-.749-.182.045-.363.159-.544.34-2.222 3.403-3.468 6.647-3.74 9.732.09.952.136 1.463.136 1.53a2.356 2.356 0 0 0 .102.544 2.224 2.224 0 0 0 .238.476c.045.07.102.138.17.206.068.068.17.125.306.17.68.136 1.292-.068 1.836-.612 2.402-2.541 3.876-5.785 4.42-9.732zm1.02-6.394c1.405.68 2.46 1.598 3.162 2.754s.963 2.482.782 3.978c-.635 5.44-2.72 9.905-6.256 13.396-1.814 1.813-3.967 2.38-6.46 1.7-2.222-.59-3.65-2.13-4.284-4.624-.272-1.179-.386-2.108-.34-2.788 0-2.539.657-5.304 1.972-8.296.634-1.541 1.314-2.833 2.04-3.876.136-.227.238-.6.306-1.122.068-.521.124-.85.17-.986.226-.635.453-.975.68-1.02.317-.136.793-.351 1.428-.646a18.959 18.959 0 0 1 1.734-.714 4.641 4.641 0 0 1 1.53-.272c.997-.045 1.813.476 2.448 1.564.226.408.59.725 1.088.952zm-22.508 7.004c.09-.09.283-.329.578-.714.294-.385.51-.646.646-.782s.34-.351.612-.646c.272-.295.532-.544.782-.748.25-.204.51-.397.782-.578a14.2 14.2 0 0 1-.442-.476 14.329 14.329 0 0 0-.476-.51 1.978 1.978 0 0 1-.34-.51 5.71 5.71 0 0 1-.306-.748c-2.63 3.219-4.284 6.324-4.964 9.316.816-.861 1.858-2.063 3.128-3.604zm6.664-2.244c.68.816.906 1.972.68 3.468-.136.816-.77 4.42-1.904 10.812-1.179 6.664-1.836 10.517-1.972 11.56a97.42 97.42 0 0 1-.884 6.052c-.182.816-.522 1.428-1.02 1.836-.499.408-1.088.567-1.768.476-1.723-.272-2.494-1.292-2.312-3.06.045-.68.158-1.655.34-2.924l.408-2.856c.09-1.043.328-2.561.714-4.556.385-1.995.623-3.468.714-4.42.09-.499.181-1.031.272-1.598.09-.567.192-1.077.306-1.53.113-.453.238-.997.374-1.632.136-.635.25-1.179.34-1.632l.068-.884c-1.36 1.723-2.108 2.652-2.244 2.788-1.088 1.224-1.927 2.04-2.516 2.448-1.406.861-2.743.884-4.012.068-1.134-.68-1.7-1.836-1.7-3.468 0-3.445.997-7.163 2.992-11.152 1.405-2.901 2.992-5.168 4.76-6.8 1.632-1.541 3.218-2.29 4.76-2.244.725 0 1.382.215 1.972.646.59.43 1.02 1.009 1.292 1.734.453 1.27.59 2.403.408 3.4-.09.59-.182.93-.272 1.02-.227.181-.386.351-.476.51a8.19 8.19 0 0 0-.204.374c-.046.09-.023.227.068.408.09.181.158.306.204.374.045.068.147.204.306.408.158.204.26.329.306.374zm-18.623 8.296c.68.317 1.123.76 1.327 1.326.204.567.125 1.19-.238 1.87-.68 1.088-2.018 1.904-4.013 2.448-3.991 1.088-8.412 1.972-13.264 2.652-.5.09-1.304.227-2.415.408-1.111.181-2.075.329-2.891.442-.816.113-1.61.17-2.38.17-.817.136-1.735.147-2.756.034-1.02-.113-1.893-.442-2.618-.986-1.451-1.179-1.837-2.561-1.157-4.148.544-1.36 1.315-2.493 2.313-3.4 1.27-1.224 3.06-2.924 5.374-5.1 2.312-2.176 3.786-3.581 4.42-4.216.046 0 .296-.295.75-.884-3.22.272-5.51.521-6.87.748-2.223.363-3.674.703-4.354 1.02-.318.181-.84.125-1.565-.17-.725-.295-1.179-.6-1.36-.918-.272-.363-.352-.873-.238-1.53.113-.657.329-1.167.646-1.53.544-.635 1.179-1.077 1.905-1.326.725-.25 1.677-.442 2.856-.578 3.265-.499 5.94-.816 8.027-.952 1.043-.181 2.233-.227 3.57-.136 1.339.09 2.461.476 3.368 1.156.544.408.907.986 1.088 1.734.182.748.136 1.44-.136 2.074-.544 1.133-1.61 2.47-3.197 4.012a586.175 586.175 0 0 0-5.34 5.032 482.697 482.697 0 0 0-3.91 3.74c-.046 0-.318.317-.817.952.09.09.136.159.136.204 5.17-.816 7.913-1.247 8.23-1.292 5.261-.861 9.773-1.836 13.537-2.924a3.249 3.249 0 0 1 1.972.068zM62.526 84.806c-.454 0-.907-.272-1.36-.816-.454-.544-.703-1.11-.748-1.7-.046-.997.204-1.847.748-2.55.544-.703 1.246-1.054 2.108-1.054.725 0 1.292.25 1.7.748.408.499.634 1.213.68 2.142.045.93-.227 1.689-.816 2.278-.59.59-1.36.907-2.312.952zm.068 4.284c.59.045 1.122.204 1.598.476s.838.612 1.088 1.02c.25.409.374.817.374 1.225-.136 1.814-.227 4.875-.272 9.184-.046.68-.102 1.972-.17 3.877a131.958 131.958 0 0 0-.102 4.354c.045.77.022 1.904-.068 3.401-.046 1.451-.748 2.245-2.108 2.381a2.874 2.874 0 0 1-1.836-.476 2.322 2.322 0 0 1-1.02-1.497c-.182-.227-.238-1.122-.17-2.687.068-1.564.102-2.46.102-2.687v-5.442c0-.726.022-1.848.068-3.367.045-1.52.09-2.857.136-4.014.045-1.156.136-2.279.272-3.367.045-.771.272-1.372.68-1.803.408-.43.884-.623 1.428-.578z"/></g></g></svg>