<svg xmlns="http://www.w3.org/2000/svg" width="561" height="274" viewBox="0 0 561 274"><defs><clipPath id="3e9qa"><path d="M316 100h14v13h-14z"/></clipPath><clipPath id="3e9qb"><path d="M230 175h14v13h-14z"/></clipPath></defs><g><g><g><g><g><g><path fill="#ec1d24" d="M48.918 58.41l5.815 195.875.486 25.987-6.301 6.376 10.621 5.495 22.507 2.446 31.586-7.94h35.44l33.127-2.92 26.875-7.085h29.365l40.062-4.105 16.949-.953 25.423 2.49 19.26 1.207 14.638 1.36 223.277-6.498.541-26.84-7.17-28.353-2.2-61.124 4.199-56.424 3.031-27.22 1.599-33.809-61.134 11.26-30.188 8.706s-101.908 19.249-252.14-.358z"/></g><g><path fill="none" stroke="#231f20" stroke-miterlimit="50" stroke-width="3" d="M33.005 60.462l2.21-.683v-8.894c0-8.209.735-10.945 2.945-10.945v.683c-.736 1.368-1.473 15.735-.736 17.788.736 1.368.736 1.368 5.155.683 2.211-.683 4.42-1.368 5.156-2.051 0-.685.737-.685 1.474-.685 0 0 .735 0 .735-.683 0-6.843 1.474-10.263 2.948-9.58 1.473 0 2.209 4.79.737 6.158 0 .683-.737 2.052-1.475 3.422 0 1.368 0 2.05 1.475 1.368.736 0 4.419-.685 8.838-1.368 3.682 0 8.838-.685 11.785-1.37 2.21 0 6.629-.684 9.574-.684 11.786-1.368 30.2-4.104 35.356-4.104 2.945-.685 14.73-.685 27.252-.685 42.72.685 85.44.685 88.386-.683 2.21 0 27.252-.685 88.385-.685 66.29 0 87.651-.683 97.227-1.368 6.628-.684 19.15-.684 27.252-.684 19.15-.685 43.456-1.368 56.713-2.736 5.157-.685 11.785-1.368 14.732-2.053 2.946 0 9.576-.683 14.73-1.368 6.629-.683 11.785-1.368 23.571-.683 13.995 0 15.467 0 16.204-1.369.737-1.368 2.21-1.368 2.21.684-.737 2.053.736.685 1.472-2.737 1.474-2.736 2.947-4.788 3.684-4.104.736 0 .736 2.053.736 4.79-.736 3.419 0 3.419.736 3.419 2.21.685 2.21 1.368.737 3.421-2.209 2.051-1.473 4.105.736 15.05 1.474 6.84 1.474 9.577 1.474 33.523 0 13.682 0 34.89-.737 47.205 0 31.468.737 59.518 2.946 76.621.736 6.84 1.473 12.997.736 26.678 0 14.37 0 18.474.737 26.683 1.473 8.209 1.473 9.577.738 10.262-.738 1.368-1.475 1.368-2.948.683-2.209-1.368-15.466-.683-25.779 0-3.682.685-9.574 1.368-13.257 2.053-8.839.683-52.296.683-65.554 0-5.156-.685-26.516-.685-46.402-.685-72.92 0-99.434 1.368-120.058 4.105-5.157 1.368-12.522 2.053-17.677 2.053-21.361 2.051-53.033 6.84-61.134 9.577-5.893 2.053-28.726 2.053-33.881 0-1.475 0-4.42-.685-6.631-.685-5.155-1.366-11.047-2.051-18.413-4.104-3.683-.684-7.365-1.369-8.84-1.369-1.472 0-3.681 0-5.891-.683-5.156-1.368-12.52-1.368-24.305 0-3.684.683-10.313.683-19.151 1.368-3.684 0-7.366.684-9.575 1.369-2.21.683-4.419.683-5.893.683-.737 0-2.945.685-5.156 1.37-1.473 1.366-4.42 1.366-5.893 1.366-1.472 0-4.419.685-6.628 2.053-7.366 2.053-19.15 4.105-27.253 4.79-2.21 0-5.155.683-6.628.683-2.21.685-2.21 0-2.21-.683 0-.685 0-1.368.736-1.368h3.683c1.473 0 2.21-.685 1.473-1.369-.736-.685-1.473-.685-2.21-.685l-5.892-4.104c-2.947-2.053-5.893-4.105-6.629-4.79-.737 0-1.472-.683-2.209-1.368l-4.42-6.84-3.684-6.842v-19.154c0-10.947.737-21.893 1.475-24.629 0-2.736.736-7.526.736-10.262.737-2.736 1.474-6.156 1.474-8.21 2.209-6.155 2.945-26.681 2.209-57.464-.737-17.788-.737-41.732-.737-54.048.737-12.313 0-26.68 0-30.784l-.737-8.895-2.21.685c-3.682 0-4.419-1.368-.735-2.053zm1.473 207.297c0-.692-.737-.692-.737-.692v2.072c.737 0 .737-.691.737-1.38zm.725-28.733c0-4.11-.73-7.534-.73-6.85-.73 0-.73 14.385 0 14.385 0 0 .73-3.425.73-7.535zm53.78 54.726c-14.731.686-16.205.686-16.205-.687.736-1.371 0-1.371-7.366-.684-3.682 0-8.838.684-11.047.684l-3.684.687 1.473 1.371c1.475.685 2.21 1.371 2.947 1.371 0 0 1.473.685 3.683 2.058 2.946 1.371 2.946 2.056 7.365 1.371 2.21 0 6.63-.686 8.838-1.371 2.21-.687 4.42-.687 5.894-.687.736 0 1.473-.686 2.209-.686.736-1.371 5.892-2.056 9.574-2.056 2.21 0 4.42-.685 4.42-1.371.737-.687-1.473-.687-8.102 0zm157.632-3.426h-16.943c-3.684-.683-8.103-1.368-10.313-1.368-18.416-2.051-37.57-2.736-51.566-2.051l-5.891.683 2.945.685c1.474.683 4.42.683 5.894.683 2.21 0 4.42.685 6.63 1.368 1.472.685 4.419 1.369 6.63 1.369 4.419.685 13.259 2.053 18.415 3.42 1.474.684 5.893 1.37 8.84 1.37 3.682 0 6.63.682 6.63.682h2.947c1.473 0 5.155-.683 8.84-1.368 3.683 0 8.102-.683 9.576-1.366 1.473-.685 5.893-1.37 9.575-2.053l7.368-1.369c.737-.685-3.684-.685-9.577-.685zm331.438-15.05l-1.473-.683c-1.473-.685-1.473-1.368-1.473-2.053 0-1.368-.736-1.368-5.893.685-6.628 2.736-16.94 3.42-34.617 3.42-6.63 0-14.73.685-18.415.685h-16.94c-9.575-.685-16.94-1.369-40.51-2.054-6.629 0-16.942-.683-23.57-.683-13.258-1.368-29.462-.685-54.505.683-16.204.685-36.09.685-52.296 0-23.569-1.368-39.037-1.368-53.767-.683-16.942.683-15.468.683-20.624 1.368-11.049 1.369-23.57 2.052-38.301 2.737-2.946 0-6.628 0-8.101.683-1.474 0-3.683.685-5.157.685-1.473 0-3.682.683-3.682.683-.737 0-6.63.685-13.258 1.368-11.049 1.368-19.887 2.737-21.36 3.422h16.205c16.202 0 23.569.683 35.353 2.051 5.156 0 19.151 1.368 30.2 1.368h13.994c12.52-1.368 23.57-2.051 29.461-3.42 1.474 0 8.103-.684 13.26-1.367 5.891-.685 13.257-1.369 16.202-2.054 8.103-.683 18.414-1.368 30.2-2.051 4.418 0 13.994-.685 19.886-1.368h86.913c41.983 0 80.284 0 83.967-.685 4.42 0 12.522-.683 18.415-.683 10.31 0 13.258-.685 17.677-1.369zM581 269.13c.736-1.38.736-1.38-.737-.69-.737 0-1.473.69-1.473.69-.737 1.38.736 1.38 2.21 0zm-1.474-4.114c0 .683 0 .683.743.683 0 0 .743-.683.743-1.368 0-.683-.743-.683-.743-.683-.743 0-.743 0-.743 1.368zm1.486-6.169c0-5.46-.743-6.142-1.486-1.364v4.094c1.486.683 1.486 0 1.486-2.73zm.736 13.01l-.742-.685h-.743c0 .685 0 1.368.743 1.368zm1.461-98.514c0-.685-.737 4.788-.737 10.945 0 11.63 0 31.47-.736 44.469-.736 10.945.736 33.523 2.21 34.206.736.685.736.685 0 1.368-.737.685-.737 3.421-1.474 5.473 0 3.421 0 4.104 1.473 4.104.737 0 1.474 0 1.474 1.368 0 .685 0 1.369 1.472 1.369 1.473 0 1.473-.684.737-4.105 0-2.051-.737-4.788-.737-5.473-.736-1.368-.736-12.996-.736-26.682 0-28.731-1.473-66.359-2.946-67.042zM581 104.246c0 4.106.736 12.998.736 21.207l.736 14.369.737-9.58c0-5.472.736-12.313.736-16.417 1.474-13.684 1.474-35.575 0-45.837-1.473-5.473-1.473-10.945-1.473-11.63 0-.683-.736-1.368-.736-1.368-1.473.685-2.21 36.259-.736 49.256zm-2.21 1.366c0-4.789-.737-9.578-.737-10.26 0-1.369 0-6.84-.737-10.945 0-8.893 0-8.893-.736-3.42-.736 6.84-2.21 28.73-2.946 36.252 0 5.473-.737 8.893-2.21 18.471v23.941c0 23.257.737 36.939 3.683 49.25 1.473 4.79 3.683 19.838 3.683 21.206 0 0 .736.683.736 0 0 0 .737-2.736.737-6.157 0-2.736.737-18.467.737-33.52.736-25.991.736-43.092-.737-62.246-.737-9.577-.737-15.049-1.473-22.572zm-.737-40.36l.737-5.473V50.2c0-3.42 0-3.42-.737-1.368-.737 1.368-.737 4.104-.737 8.894zm-.737-19.84c.737 0 1.474-.685 1.474-2.053.736-1.368 0-2.051-.737-1.368-1.473.685-1.473 3.421-.737 3.421zm-2.21.684c0 .685.744.685 1.486.685v-1.369c-.742-.685-1.485-.685-1.485.684zm-116.374 1.368c.736.685 12.522 1.368 31.675 1.368 10.313 0 18.416.685 18.416.685h11.786c8.84 0 11.786-.685 23.572-3.421 7.367-2.052 16.206-3.42 19.151-4.105l5.157-.683-2.946-.685c-4.42-1.368-25.046-.683-33.148 0-2.21.685-8.84 1.368-13.26 2.053-5.156.683-11.786 1.368-13.996 1.368-8.102 1.368-31.674 2.737-42.724 2.737-2.21 0-3.683 0-3.683.683zm106.79-4.105c-5.884.685-9.561 2.053-3.677 1.368 2.207 0 4.414-.683 5.885-.683.735-.685 0-.685-2.207-.685zm-11.775 2.737h.736c1.474 0 2.21-.684 2.21-.684.737-.685-2.21 0-2.946.684zm-325.555 6.846c-5.157.686-14.732 1.37-22.098 1.37-8.102.686-15.467 1.371-16.204 2.055-2.946.686-13.258 1.37-29.463 2.056-5.155.684-8.1.684-8.1 1.37h4.418c2.21 0 8.839-.686 13.995-.686 5.156-.684 13.258-1.37 18.414-2.054 10.311-.686 28.725-.686 35.353 0 2.948 0 12.523.684 22.097.684 16.204.686 38.301 2.055 47.877 3.425 9.575.684 38.3 2.054 75.128 2.74 30.935.683 47.875.683 63.343-.686 5.156 0 10.312-.684 11.049-.684 1.472 0 5.893-.686 11.047-1.37 5.156 0 11.786-1.37 15.468-2.055 12.521-2.054 23.57-4.11 40.51-6.849 3.684 0 5.893-.685 5.893-.685s-11.784-.684-25.78-1.37c-25.778 0-28.724-.684-36.826-2.054-5.156-.685-24.307-.685-30.936 0-13.258 1.37-27.989 1.37-48.613 1.37-35.354 0-120.057 2.054-146.572 3.423zm-167.935 5.45h24.306c11.786-.683 31.671-.683 43.457-.683 20.624 0 29.462-.681 40.51-2.046h10.311c2.21 0 5.894-.684 8.839-1.367 5.156-.682 14.731-1.365 25.78-2.047 11.047-.683 5.892-.683-13.995-1.365-39.038-.683-75.864-.683-84.703.682-5.156.683-13.994 1.365-20.624 2.73-7.365.683-15.467 1.367-19.886 2.048-3.684.684-8.84 1.365-11.049 1.365-3.683 0-4.42 0-2.946.684zM38.16 64.568c0 .685.737 22.577.737 48.573.737 64.99.737 69.095.737 68.412.737 0 1.472-3.421 1.472-6.158.737-3.42 1.473-8.892 2.21-11.628C44.79 154.189 47 139.136 47 128.19c.736-10.26.736-41.046 0-57.466-.737-8.894-.737-9.577-2.209-9.577h-4.419c-2.211.683-2.211.683-2.211 3.42zm-.736 170.346c-1.474 26.682-.737 41.732 2.21 45.836.737 2.053 1.472 3.422 1.472 3.422.737 0 1.473.683 2.21 2.05 1.474 2.737 4.42 4.79 8.102 5.474 3.683.685 5.156.685 6.63-.684.736-.685 1.472-.685 1.472-.685s.737-.683 1.473-1.368c.737-1.368 1.474-1.368.737 0l-.737 2.053 19.15-.685c27.253-.683 32.41-.683 38.302-1.368 3.682-.683 11.784-2.051 22.833-2.736 6.629-.683 16.94-2.051 28.725-3.42 2.21-.685 8.102-1.368 13.257-2.053 5.157-.683 13.258-1.368 16.942-2.736 8.839-1.368 12.52-1.368 27.253-2.052 5.156 0 16.203-1.368 24.306-2.053 7.365-.683 17.677-1.368 22.833-1.368 5.892-.683 10.311-.683 11.047-.683h12.523c32.407 2.051 68.498 2.736 86.912 1.368 16.205-1.368 38.3-2.053 52.295-.685 6.63 0 16.205.685 22.097.685 23.57.683 33.88 1.368 39.037 2.051 5.156.685 38.301 0 54.506-1.368 8.838 0 9.575-.683 22.833-5.472.736 0 .736-1.369 1.472-2.737 0-1.947-.015-2.652-1.27-2.723a4.757 4.757 0 0 0-.046-2.068c1.317-.062 1.344-1.036 2.053-10.26.737-6.158.737-11.63 0-13.682 0-2.053-.737-6.158-.737-8.21-.736-2.736-2.21-9.576-2.945-14.366-3.683-15.05-4.42-28.733-5.157-51.31 0-14.366 0-22.575.736-29.418 1.475-8.892 1.475-17.1 3.684-38.309.737-14.366.737-16.418 2.21-21.892 1.472-5.473.736-12.314-.737-20.525-1.473-7.524-1.473-7.524-5.157-6.84-2.209.685-5.155.685-8.1.685-2.211 0-7.367.683-11.05 1.368-4.419.683-9.575 1.368-12.521 2.051-2.946 0-8.102.685-12.522 2.053-10.31 1.368-14.73 2.052-23.57 3.422-4.419.683-14.73 2.051-22.096 4.104-8.1 1.368-17.676 2.736-22.096 2.736-7.366 1.369-18.413 2.052-23.57 2.737-2.946 0-22.833 1.368-26.516 1.368-1.472 0-14.73 0-29.461-.685-14.73 0-31.673-.683-36.828-.683-5.155 0-11.785-.685-15.468-.685-3.682 0-10.311-.683-15.468-.683-5.156 0-9.575-.685-9.575-1.369-1.473-.685-1.473-.685-.736 0 0 .684 0 .684-.737.684-1.472-.684-14.73-1.369-21.36-2.052-3.682 0-7.364-.685-8.838-.685-1.473 0-8.839-.683-16.941-.683-8.839 0-20.623-.685-25.78-1.368-10.31-.685-37.563 0-38.3.683-.737 0-3.682.685-6.63.685-2.946 0-10.31.683-16.203 1.368H147.17c-9.574-.685-53.769-.685-72.182 0H55.1l-3.682.683.735 6.158c0 4.105.738 10.947.738 15.735.737 21.208 2.209 52.677 2.209 61.572 0 4.787.737 13.681.737 19.154.736 6.158.736 28.733.736 54.73 0 34.892.737 44.469 1.474 46.52.736 1.368.736 4.105.736 8.894l-.736 7.524-2.21 2.054c-1.473.683-3.684 1.368-4.42 1.368-1.474 0-1.474 0 .736-.685 2.947-2.052 4.42-6.156 2.947-13.682 0-1.368-.736-25.997-.736-55.414 0-29.418-.736-54.045-.736-54.045 0-.684-.737-12.314-.737-25.996 0-14.368-.738-25.997-.738-26.682 0 0-.736-7.526-1.473-16.418-1.472-30.787-1.472-31.47-1.472-2.053.735 33.521-.737 55.414-3.684 71.834-.735 2.736-1.472 8.892-2.209 13.681-1.473 4.105-2.21 8.893-2.21 10.26-1.472 8.897-2.21 13.001-2.21 19.842 0 4.105 0 11.63-.736 16.418 0 4.105-.736 10.262-.736 12.314z"/></g></g></g><g><path fill="#fff" d="M478.147 211.318c-.544.544-1.156.748-1.836.612a.775.775 0 0 1-.306-.17 1.35 1.35 0 0 1-.17-.204 2.223 2.223 0 0 1-.238-.476 2.352 2.352 0 0 1-.102-.544c0-.068-.045-.578-.136-1.53.272-3.083 1.519-6.324 3.74-9.724.182-.181.363-.295.544-.34.59-.136 1.247.113 1.972.748.726.635 1.043 1.27.952 1.904-.544 3.944-2.017 7.185-4.42 9.724zm4.352-17.067c-.634-1.089-1.45-1.61-2.448-1.565a4.64 4.64 0 0 0-1.53.272c-.521.181-1.099.42-1.734.714-.634.295-1.11.51-1.428.647-.226.045-.453.385-.68 1.02-.045.136-.102.465-.17.986-.068.522-.17.896-.306 1.123-.725 1.043-1.405 2.335-2.04 3.877-1.314 2.994-1.972 5.76-1.972 8.3-.045.68.068 1.61.34 2.789.635 2.494 2.063 4.036 4.284 4.626 2.494.68 4.647.113 6.46-1.7 3.536-3.493 5.622-7.96 6.256-13.402.182-1.497-.079-2.823-.782-3.98-.702-1.156-1.756-2.075-3.162-2.755-.498-.227-.861-.544-1.088-.952zm-21.828 8.023c-.09-.136-.272-.306-.544-.51a4.248 4.248 0 0 1-.646-.578c-.158-.181-.192-.408-.102-.68.046-.136.136-.295.272-.476s.261-.329.374-.442c.114-.113.261-.25.442-.408a2.34 2.34 0 0 0 .408-.442c.046 0 .114-.045.204-.136l4.964-4.148c.408-.408.658-.907.748-1.496.091-.59-.045-1.156-.408-1.7-.68-.952-1.473-1.224-2.38-.816-1.178.59-2.085 1.133-2.72 1.632-.362.272-.759.623-1.19 1.054l-1.258 1.258c-.408.408-.793.748-1.156 1.02-1.632 1.179-2.833 2.244-3.604 3.196-.498.635-.997 1.065-1.496 1.292v-5.576c.091-2.765.431-7.843 1.02-15.232 0-.227.023-.487.068-.782.046-.295.08-.567.102-.816.023-.25.046-.51.068-.782a9.82 9.82 0 0 0 .034-.816c0-.272-.022-.544-.068-.816-.136-.816-.544-1.417-1.224-1.802-.68-.385-1.428-.329-2.244.17-.906.635-1.405 1.405-1.496 2.312-.181 2.13-.317 3.445-.408 3.944-.272 2.493-.521 5.463-.748 8.908-.136 2.312-.226 5.168-.272 8.568a706.67 706.67 0 0 0-.068 5.78c0 .136.012.329.034.578.023.25.034.465.034.646s-.011.385-.034.612c-.022.227-.068.43-.136.612a5.662 5.662 0 0 1-.238.544c-.045 0-.612.839-1.7 2.516-.408.59-.51 1.247-.306 1.972.204.725.635 1.235 1.292 1.53.658.295.964.669.918 1.122-.09.136-.124.895-.102 2.278.023 1.383.034 2.142.034 2.278 0 .045-.011.408-.034 1.088a53.45 53.45 0 0 0-.034 1.292c0 .181.034.51.102.986.068.476.17.873.306 1.19.227.635.601 1.122 1.122 1.462.522.34 1.009.397 1.462.17 1.36-.77 2.063-1.677 2.108-2.72.046-1.995.091-5.395.136-10.2v-2.074c0-.204.023-.521.068-.952.046-.43.125-.76.238-.986.114-.227.284-.499.51-.816.227-.317.499-.59.816-.816.544-.453.941-.68 1.19-.68.25 0 .624.25 1.122.748.771.725 1.995 2.29 3.672 4.692.272.363.952 1.326 2.04 2.89a610.504 610.504 0 0 1 2.516 3.638c.408.499.884.827 1.428.986.544.159 1.02.102 1.428-.17 1.859-1.088 2.222-2.493 1.088-4.216a131.348 131.348 0 0 0-7.752-10.88zm-18.708-14.416c.588-.59.86-1.349.814-2.278-.045-.93-.271-1.643-.678-2.142-.408-.499-.973-.748-1.697-.748-.86 0-1.561.351-2.104 1.054-.543.703-.792 1.553-.747 2.55.046.59.294 1.156.747 1.7.452.544.905.816 1.357.816.95-.045 1.72-.363 2.308-.952zm-3.661 5.814c-.41.43-.636 1.031-.682 1.802a39.6 39.6 0 0 0-.272 3.366c-.046 1.156-.09 2.493-.136 4.012-.046 1.519-.068 2.64-.068 3.366v5.44c0 .227-.035 1.122-.103 2.686-.068 1.564-.011 2.46.17 2.686a2.32 2.32 0 0 0 1.022 1.496 2.884 2.884 0 0 0 1.84.476c1.362-.136 2.066-.93 2.111-2.38.091-1.496.114-2.63.068-3.4 0-.997.034-2.448.103-4.352.068-1.904.124-3.196.17-3.876.045-4.307.136-7.367.272-9.18 0-.408-.125-.816-.374-1.224-.25-.408-.613-.748-1.09-1.02a3.77 3.77 0 0 0-1.601-.476c-.545-.045-1.022.147-1.43.578zm-6.939-.918c-.816-.725-1.734-1.065-2.754-1.02-1.02.045-1.847.476-2.482 1.292-1.178 1.541-1.994 2.788-2.448 3.74-.136.227-.419.827-.85 1.802-.43.975-.816 1.757-1.156 2.346-.34.59-.691 1.156-1.054 1.7a28.78 28.78 0 0 1-.136-1.088c.091-1.224-.657-2.221-2.244-2.992-.77-.408-1.45-.238-2.04.51-.589.748-.884 1.53-.884 2.346-.09 1.541-.136 2.675-.136 3.4 0 .227.012.839.034 1.836.023.997.046 1.7.068 2.108.023.408.068.986.136 1.734s.17 1.417.306 2.006c.227.952.782 1.62 1.666 2.006.884.385 1.757.351 2.618-.102 1.043-.635 1.7-1.473 1.972-2.516.182-.59.42-1.224.714-1.904.295-.68.624-1.383.986-2.108.363-.725.635-1.36.816-1.904.363-.997 1.02-2.357 1.972-4.08.952-1.723 1.587-2.97 1.904-3.74.272-.544.59-.59.952-.136 1.134 1.405 1.768 2.153 1.904 2.244.408.453 1.032.714 1.87.782.839.068 1.462-.08 1.87-.442 1.088-.952 1.156-2.085.204-3.4-1.314-1.859-2.584-3.332-3.808-4.42zm-18.156-8.84c-.634-.136-.974-.521-1.02-1.156-.09-1.904-.113-3.219-.068-3.944.091-.68.046-1.677-.136-2.992-.09-.59-.374-1.088-.85-1.496-.476-.408-.963-.612-1.462-.612-1.314.09-2.017.861-2.108 2.312 0 .363-.011.77-.034 1.224-.022.453-.034.907-.034 1.36 0 .453-.022.861-.068 1.224-.045 1.496-.204 2.369-.476 2.618-.272.25-1.156.329-2.652.238-1.949-.09-3.762.023-5.44.34-.589.09-1.065.385-1.428.884a2.388 2.388 0 0 0-.476 1.632c.046.635.306 1.201.782 1.7.476.499 1.009.748 1.598.748.499.045 1.655.045 3.468 0 1.814-.045 2.97-.023 3.468.068h.34c.182 0 .295.011.34.034.046.023.102.08.17.17a.55.55 0 0 1 .102.34c0 .907-.022 2.448-.068 4.624-.045 4.896-.068 7.412-.068 7.548-.045 1.179-.068 2.63-.068 4.352 0 .816-.034 2.006-.102 3.57a136.619 136.619 0 0 0-.102 2.618c-.045.59.023 1.473.204 2.652.182 1.133.726 1.836 1.632 2.108.318 0 .544.023.68.068.136.045.329-.023.578-.204.25-.181.408-.317.476-.408.068-.09.216-.25.442-.476.544-.635.862-1.723.952-3.264 0-.317-.034-.827-.102-1.53-.068-.703-.079-1.235-.034-1.598.182-.68.261-2.267.238-4.76-.022-2.493-.011-4.103.034-4.828v-1.904c0-.725.012-1.45.034-2.176.023-.725.057-1.36.102-1.904 0-.181.023-.51.068-.986.046-.476.068-.884.068-1.224 0-.34-.045-.669-.136-.986-.09-.272-.079-.487.034-.646.114-.159.329-.193.646-.102.318.09.805.204 1.462.34.658.136 1.168.25 1.53.34.68.181 1.383.17 2.108-.034.726-.204 1.202-.51 1.428-.918.544-.997.091-2.085-1.36-3.264-.906-.725-2.47-1.292-4.692-1.7zm-17.884 18.36c-.09-.136-.272-.306-.544-.51a4.248 4.248 0 0 1-.646-.578c-.158-.181-.192-.408-.102-.68.046-.136.136-.295.272-.476s.261-.329.374-.442c.114-.113.261-.25.442-.408a2.34 2.34 0 0 0 .408-.442c.046 0 .114-.045.204-.136l4.964-4.148c.408-.408.658-.907.748-1.496.091-.59-.045-1.156-.408-1.7-.68-.952-1.473-1.224-2.38-.816-1.178.59-2.085 1.133-2.72 1.632-.362.272-.759.623-1.19 1.054l-1.258 1.258c-.408.408-.793.748-1.156 1.02-1.632 1.179-2.833 2.244-3.604 3.196-.498.635-.997 1.065-1.496 1.292v-5.576c.091-2.765.431-7.843 1.02-15.232 0-.227.023-.487.068-.782.046-.295.08-.567.102-.816.023-.25.046-.51.068-.782a9.82 9.82 0 0 0 .034-.816c0-.272-.022-.544-.068-.816-.136-.816-.544-1.417-1.224-1.802-.68-.385-1.428-.329-2.244.17-.906.635-1.405 1.405-1.496 2.312-.181 2.13-.317 3.445-.408 3.944-.272 2.493-.521 5.463-.748 8.908-.136 2.312-.226 5.168-.272 8.568a706.67 706.67 0 0 0-.068 5.78c0 .136.012.329.034.578.023.25.034.465.034.646s-.011.385-.034.612c-.022.227-.068.43-.136.612a5.662 5.662 0 0 1-.238.544c-.045 0-.612.839-1.7 2.516-.408.59-.51 1.247-.306 1.972.204.725.635 1.235 1.292 1.53.658.295.964.669.918 1.122-.09.136-.124.895-.102 2.278.023 1.383.034 2.142.034 2.278 0 .045-.011.408-.034 1.088a53.45 53.45 0 0 0-.034 1.292c0 .181.034.51.102.986.068.476.17.873.306 1.19.227.635.601 1.122 1.122 1.462.522.34 1.009.397 1.462.17 1.36-.77 2.063-1.677 2.108-2.72.046-1.995.091-5.395.136-10.2v-2.074c0-.204.023-.521.068-.952.046-.43.125-.76.238-.986.114-.227.284-.499.51-.816.227-.317.499-.59.816-.816.544-.453.941-.68 1.19-.68.25 0 .624.25 1.122.748.771.725 1.995 2.29 3.672 4.692.272.363.952 1.326 2.04 2.89a610.504 610.504 0 0 1 2.516 3.638c.408.499.884.827 1.428.986.544.159 1.02.102 1.428-.17 1.859-1.088 2.222-2.493 1.088-4.216a131.348 131.348 0 0 0-7.752-10.88zm-26.52-2.074c.227-.476.408-.827.544-1.054.136-.227.363-.487.68-.782.318-.295.658-.51 1.02-.646.816-.317 1.451-.272 1.904.136.544.499.658 1.133.34 1.904-.362.861-.929 1.62-1.7 2.278-.77.657-1.473.963-2.108.918-.68 0-1.122-.17-1.326-.51-.204-.34-.147-.782.17-1.326.091-.136.25-.442.476-.918zm4.998 6.732a10.67 10.67 0 0 0 4.012-4.318c.93-1.813 1.168-3.559.714-5.236-.362-1.405-1.201-2.63-2.516-3.672-1.314-1.043-2.629-1.45-3.944-1.224-2.538.363-4.442 1.315-5.712 2.856-.362.453-.838.77-1.428.952-.498.09-.94.295-1.326.612-.385.317-.68.703-.884 1.156a2.37 2.37 0 0 0-.17 1.428c.091.861.136 1.53.136 2.006 0 .476-.034 1.077-.102 1.802-.068.725-.102 1.201-.102 1.428-.09 3.899.635 6.777 2.176 8.636 1.814 2.085 4.42 3.355 7.82 3.808 1.134.181 1.972-.159 2.516-1.02.182-.408.216-.907.102-1.496a4.013 4.013 0 0 0-.646-1.564 3.327 3.327 0 0 0-.646-.612c-.249-.181-.476-.295-.68-.34a35.437 35.437 0 0 1-.85-.204 11.98 11.98 0 0 1-.748-.204c-1.586-.453-2.788-1.247-3.604-2.38-.272-.408-.34-.77-.204-1.088a.304.304 0 0 1 .204-.17c.091-.023.204 0 .34.068.136.068.227.102.272.102 1.768.181 3.525-.26 5.27-1.326zm-15.504-23.188c.068-.793.102-1.383.102-1.768s.012-.895.034-1.53a14.937 14.937 0 0 0-.238-3.332c-.136-.68-.43-1.247-.884-1.7-.453-.453-.952-.68-1.496-.68s-1.065.25-1.564.748c-.498.499-.748 1.02-.748 1.564-.136 4.488-.204 6.89-.204 7.208-.09.635-.147 1.541-.17 2.72a179.568 179.568 0 0 0-.034 2.108 65.31 65.31 0 0 0-.136 2.346c-.045 1.02-.09 1.96-.136 2.822a45.537 45.537 0 0 0-.068 2.38c-.045 6.483.046 12.852.272 19.108.046.181.068.533.068 1.054s.046 1.02.136 1.496c.091.476.25.918.476 1.326.771 1.27 1.7 1.723 2.788 1.36.952-.272 1.474-1.043 1.564-2.312.046-1.133.057-2.074.034-2.822-.022-.748-.056-1.677-.102-2.788-.045-1.11-.045-2.029 0-2.754 0-.725-.056-1.813-.17-3.264-.113-1.45-.147-2.539-.102-3.264v-4.692c0-2.448.068-4.352.204-5.712.091-.77.148-1.62.17-2.55.023-.93.034-1.893.034-2.89 0-.997.023-1.859.068-2.584 0-.272.034-.805.102-1.598zM339.7 200.2c.227-.476.408-.827.544-1.054.136-.227.363-.487.68-.782.318-.295.658-.51 1.02-.646.816-.317 1.451-.272 1.904.136.544.499.658 1.133.34 1.904-.362.861-.929 1.62-1.7 2.278-.77.657-1.473.963-2.108.918-.68 0-1.122-.17-1.326-.51-.204-.34-.147-.782.17-1.326.091-.136.25-.442.476-.918zm4.998 6.732a10.67 10.67 0 0 0 4.012-4.318c.93-1.813 1.168-3.559.714-5.236-.362-1.405-1.201-2.63-2.516-3.672-1.314-1.043-2.629-1.45-3.944-1.224-2.538.363-4.442 1.315-5.712 2.856-.362.453-.838.77-1.428.952-.498.09-.94.295-1.326.612-.385.317-.68.703-.884 1.156a2.37 2.37 0 0 0-.17 1.428c.091.861.136 1.53.136 2.006 0 .476-.034 1.077-.102 1.802-.068.725-.102 1.201-.102 1.428-.09 3.899.635 6.777 2.176 8.636 1.814 2.085 4.42 3.355 7.82 3.808 1.134.181 1.972-.159 2.516-1.02.182-.408.216-.907.102-1.496a4.013 4.013 0 0 0-.646-1.564 3.327 3.327 0 0 0-.646-.612c-.249-.181-.476-.295-.68-.34a35.437 35.437 0 0 1-.85-.204 11.98 11.98 0 0 1-.748-.204c-1.586-.453-2.788-1.247-3.604-2.38-.272-.408-.34-.77-.204-1.088a.304.304 0 0 1 .204-.17c.091-.023.204 0 .34.068.136.068.227.102.272.102 1.768.181 3.525-.26 5.27-1.326zm-27.778-14.11c-.77.499-1.36 1.02-1.768 1.564-1.722 2.403-2.924 4.33-3.604 5.78a239.94 239.94 0 0 1-1.836 3.468c-1.042 1.95-1.768 3.49-2.176 4.624-.68 1.859-1.382 3.173-2.108 3.944-.634-2.357-1.337-5.44-2.108-9.248-.09-.59-.238-1.417-.442-2.482-.204-1.065-.396-2.04-.578-2.924-.181-.884-.351-1.723-.51-2.516-.158-.793-.657-1.292-1.496-1.496-.838-.204-1.575-.034-2.21.51-.816.725-1.133 1.881-.952 3.468.091.544.25 1.303.476 2.278.227.975.363 1.598.408 1.87 1.542 8.205 2.924 14.325 4.148 18.36.363 1.36 1.134 2.13 2.312 2.312.544.136 1.19-.011 1.938-.442.748-.43 1.281-.94 1.598-1.53.227-.453.442-1.11.646-1.972.204-.861.397-1.496.578-1.904a93.996 93.996 0 0 0 2.244-4.964c.998-2.448 2.358-5.327 4.08-8.636 1.496-2.856 2.902-5.168 4.216-6.936.318-.408.454-.93.408-1.564-.045-.635-.226-1.11-.544-1.428-.77-.77-1.677-.816-2.72-.136zm-34.816 18.326a512.644 512.644 0 0 0-.17-5.814c-.068-1.95-.147-3.672-.238-5.168-.09-2.584-.453-4.533-1.088-5.848-.408-.952-1.133-1.575-2.176-1.87-1.042-.295-1.972-.147-2.788.442-.906.68-1.858 1.79-2.856 3.332-.317.453-.793 1.145-1.428 2.074a74.25 74.25 0 0 0-1.632 2.482c-.453.725-.838 1.45-1.156 2.176-.181.317-.408.43-.68.34.046-2.72.204-5.757.476-9.112 0-.09.034-.363.102-.816a7.52 7.52 0 0 0 .102-.986c0-.204-.022-.476-.068-.816a1.688 1.688 0 0 0-.34-.85c-.589-.997-1.405-1.428-2.448-1.292-.589.09-1.133.408-1.632.952-.498.544-.77 1.11-.816 1.7-.045.499-.102 1.258-.17 2.278-.068 1.02-.124 1.78-.17 2.278-.453 5.304-.566 9.837-.34 13.6.046.816.284 1.519.714 2.108.431.59.986.975 1.666 1.156.454.09.896.09 1.326 0a3.6 3.6 0 0 0 1.258-.544 3.642 3.642 0 0 0 1.02-1.02c.59-.952 1.428-2.312 2.516-4.08a733.614 733.614 0 0 1 2.312-3.74c.136-.227 1.088-1.723 2.856-4.488.136.453.227.94.272 1.462.046.521.068.975.068 1.36v1.36c0 .521.023.963.068 1.326.091 1.768.272 6.55.544 14.348 0 .861.136 1.541.408 2.04.272.59.658 1.031 1.156 1.326.499.295 1.043.42 1.632.374 1.134-.181 1.814-.907 2.04-2.176a28.49 28.49 0 0 0 .068-1.564c0-.317-.034-.839-.102-1.564a19.064 19.064 0 0 1-.102-1.564c-.09-1.541-.158-3.275-.204-5.202zM250.415 200.2c.227-.476.408-.827.544-1.054.136-.227.363-.487.68-.782.318-.295.658-.51 1.02-.646.816-.317 1.451-.272 1.904.136.544.499.658 1.133.34 1.904-.362.861-.929 1.62-1.7 2.278-.77.657-1.473.963-2.108.918-.68 0-1.122-.17-1.326-.51-.204-.34-.147-.782.17-1.326.091-.136.25-.442.476-.918zm4.998 6.732a10.67 10.67 0 0 0 4.012-4.318c.93-1.813 1.168-3.559.714-5.236-.362-1.405-1.201-2.63-2.516-3.672-1.314-1.043-2.629-1.45-3.944-1.224-2.538.363-4.442 1.315-5.712 2.856-.362.453-.838.77-1.428.952-.498.09-.94.295-1.326.612-.385.317-.68.703-.884 1.156a2.37 2.37 0 0 0-.17 1.428c.091.861.136 1.53.136 2.006 0 .476-.034 1.077-.102 1.802-.068.725-.102 1.201-.102 1.428-.09 3.899.635 6.777 2.176 8.636 1.814 2.085 4.42 3.355 7.82 3.808 1.134.181 1.972-.159 2.516-1.02.182-.408.216-.907.102-1.496a4.013 4.013 0 0 0-.646-1.564 3.327 3.327 0 0 0-.646-.612c-.249-.181-.476-.295-.68-.34a35.437 35.437 0 0 1-.85-.204 11.98 11.98 0 0 1-.748-.204c-1.586-.453-2.788-1.247-3.604-2.38-.272-.408-.34-.77-.204-1.088a.304.304 0 0 1 .204-.17c.091-.023.204 0 .34.068.136.068.227.102.272.102 1.768.181 3.525-.26 5.27-1.326zm-18.462 1.734c-.725.227-1.382.363-1.972.408-1.178.045-2.051-.136-2.618-.544-.566-.408-.986-1.156-1.258-2.244-.181-.725-.09-2.085.272-4.08.499-2.72 1.27-4.76 2.312-6.12.182-.227.329-.351.442-.374.114-.023.306.057.578.238.091.045.227.159.408.34.182.181.34.317.476.408.136.09.295.181.476.272.182.09.386.136.612.136.227 0 .454-.068.68-.204 1.678-.77 2.108-1.972 1.292-3.604a7.977 7.977 0 0 0-1.292-1.836c-.453-.499-1.156-.884-2.108-1.156-.952-.272-1.677-.295-2.176-.068-1.949.907-3.422 2.312-4.42 4.216a24.4 24.4 0 0 0-2.788 10.812c0 2.63.748 4.805 2.244 6.528 1.27 1.45 3.14 2.29 5.61 2.516 2.471.227 4.477-.159 6.018-1.156.816-.453 1.179-.975 1.088-1.564-.317-2.63-1.609-3.604-3.876-2.924zm-15.222-2.714c-.227-1.724-.431-3.039-.612-3.946-.363-1.451-1.134-2.358-2.313-2.72-1.18-.364-2.359.044-3.538 1.224-.68.725-1.882 2.335-3.606 4.83-1.36 2.086-2.857 3.696-4.49 4.83-.907.59-1.406.362-1.496-.68-.318-5.17.612-9.729 2.789-13.674.453-.862.68-1.678.68-2.45.046-.589-.181-1.099-.68-1.53-.499-.43-1.02-.578-1.565-.442-1.451.408-2.404 1.111-2.857 2.109-.816 2.086-1.315 3.31-1.497 3.673-.59 1.36-1.156 3.424-1.7 6.19-.046.364-.08.92-.103 1.667a74.05 74.05 0 0 0-.034 1.327c-.136.952-.181 2.018-.136 3.197.046 1.18.295 2.245.749 3.197.544 1.134 1.315 1.95 2.313 2.45.997.498 2.018.691 3.061.578a7.648 7.648 0 0 0 2.993-.987c1.588-.997 2.926-2.131 4.014-3.401a40.9 40.9 0 0 0 3.062-4.014c.499 1.95.839 4.014 1.02 6.19.045.772.329 1.44.85 2.008.522.567 1.078.85 1.667.85.544 0 1.055-.283 1.53-.85.477-.567.76-1.236.851-2.007.046-.726-.113-2.086-.476-4.082-.09-.635-.25-1.814-.476-3.537zm-26.197-18.842a9.887 9.887 0 0 0 1.493-3.876c.136-.861-.01-1.541-.44-2.04-.43-.499-1.076-.77-1.936-.816-.452 0-.86.09-1.222.272-.724.363-1.346 1.167-1.866 2.414-.521 1.247-.623 2.3-.306 3.162.362.952 1.177 1.519 2.444 1.7.815.136 1.426-.136 1.833-.816zm2.013 12.138c.023-1.564.034-2.505.034-2.822v-1.36c0-.59-.011-1.031-.034-1.326a39.989 39.989 0 0 0-.102-1.088 4.813 4.813 0 0 0-.272-1.19c-.317-.816-.793-1.292-1.428-1.428-.906-.227-1.609-.023-2.108.612-.544.68-.816 1.564-.816 2.652v2.924c0 1.179.012 2.187.034 3.026.023.839.023 1.802 0 2.89a38.233 38.233 0 0 1-.17 2.992c-.045.725-.113 1.87-.204 3.434-.09 1.564-.17 2.81-.238 3.74-.068.93-.215 2.051-.442 3.366a19.88 19.88 0 0 1-.952 3.604c-.861 2.403-1.836 4.216-2.924 5.44-.226.317-.6.748-1.122 1.292a34.267 34.267 0 0 0-1.36 1.496 18.37 18.37 0 0 0-1.054 1.36c-.362.635-.442 1.28-.238 1.938.204.657.624 1.1 1.258 1.326 1.36.59 2.494.272 3.4-.952.363-.453 1.009-1.156 1.938-2.108.93-.952 1.598-1.723 2.006-2.312 1.587-2.584 2.584-4.805 2.992-6.664.182-.725.374-1.723.578-2.992.204-1.27.352-2.153.442-2.652.091-.59.17-1.247.238-1.972a36.22 36.22 0 0 0 .136-1.972c.023-.59.057-1.258.102-2.006.046-.748.114-1.417.204-2.006.046-.408.034-1.009-.034-1.802-.068-.793-.079-1.371-.034-1.734.091-.907.148-2.142.17-3.706zm-10.676-15.504c.068-.793.102-1.383.102-1.768s.012-.895.034-1.53a14.937 14.937 0 0 0-.238-3.332c-.136-.68-.43-1.247-.884-1.7-.453-.453-.952-.68-1.496-.68s-1.065.25-1.564.748c-.498.499-.748 1.02-.748 1.564-.136 4.488-.204 6.89-.204 7.208-.09.635-.147 1.541-.17 2.72a179.568 179.568 0 0 0-.034 2.108 65.31 65.31 0 0 0-.136 2.346c-.045 1.02-.09 1.96-.136 2.822a45.537 45.537 0 0 0-.068 2.38c-.045 6.483.046 12.852.272 19.108.046.181.068.533.068 1.054s.046 1.02.136 1.496c.091.476.25.918.476 1.326.771 1.27 1.7 1.723 2.788 1.36.952-.272 1.474-1.043 1.564-2.312.046-1.133.057-2.074.034-2.822-.022-.748-.056-1.677-.102-2.788-.045-1.11-.045-2.029 0-2.754 0-.725-.056-1.813-.17-3.264-.113-1.45-.147-2.539-.102-3.264v-4.692c0-2.448.068-4.352.204-5.712.091-.77.148-1.62.17-2.55.023-.93.034-1.893.034-2.89 0-.997.023-1.859.068-2.584 0-.272.034-.805.102-1.598zm-16.218 18.53c-.09-.136-.272-.306-.544-.51a4.248 4.248 0 0 1-.646-.578c-.158-.181-.192-.408-.102-.68.046-.136.136-.295.272-.476s.261-.329.374-.442c.114-.113.261-.25.442-.408a2.34 2.34 0 0 0 .408-.442c.046 0 .114-.045.204-.136l4.964-4.148c.408-.408.658-.907.748-1.496.091-.59-.045-1.156-.408-1.7-.68-.952-1.473-1.224-2.38-.816-1.178.59-2.085 1.133-2.72 1.632-.362.272-.759.623-1.19 1.054l-1.258 1.258c-.408.408-.793.748-1.156 1.02-1.632 1.179-2.833 2.244-3.604 3.196-.498.635-.997 1.065-1.496 1.292v-5.576c.091-2.765.431-7.843 1.02-15.232 0-.227.023-.487.068-.782.046-.295.08-.567.102-.816.023-.25.046-.51.068-.782a9.82 9.82 0 0 0 .034-.816c0-.272-.022-.544-.068-.816-.136-.816-.544-1.417-1.224-1.802-.68-.385-1.428-.329-2.244.17-.906.635-1.405 1.405-1.496 2.312-.181 2.13-.317 3.445-.408 3.944-.272 2.493-.521 5.463-.748 8.908-.136 2.312-.226 5.168-.272 8.568a706.67 706.67 0 0 0-.068 5.78c0 .136.012.329.034.578.023.25.034.465.034.646s-.011.385-.034.612c-.022.227-.068.43-.136.612a5.662 5.662 0 0 1-.238.544c-.045 0-.612.839-1.7 2.516-.408.59-.51 1.247-.306 1.972.204.725.635 1.235 1.292 1.53.658.295.964.669.918 1.122-.09.136-.124.895-.102 2.278.023 1.383.034 2.142.034 2.278 0 .045-.011.408-.034 1.088a53.45 53.45 0 0 0-.034 1.292c0 .181.034.51.102.986.068.476.17.873.306 1.19.227.635.601 1.122 1.122 1.462.522.34 1.009.397 1.462.17 1.36-.77 2.063-1.677 2.108-2.72.046-1.995.091-5.395.136-10.2v-2.074c0-.204.023-.521.068-.952.046-.43.125-.76.238-.986.114-.227.284-.499.51-.816.227-.317.499-.59.816-.816.544-.453.941-.68 1.19-.68.25 0 .624.25 1.122.748.771.725 1.995 2.29 3.672 4.692.272.363.952 1.326 2.04 2.89a610.504 610.504 0 0 1 2.516 3.638c.408.499.884.827 1.428.986.544.159 1.02.102 1.428-.17 1.859-1.088 2.222-2.493 1.088-4.216a131.348 131.348 0 0 0-7.752-10.88zm-17.068-9.452c-.77.499-1.36 1.02-1.768 1.564-1.722 2.403-2.924 4.33-3.604 5.78a239.94 239.94 0 0 1-1.836 3.468c-1.042 1.95-1.768 3.49-2.176 4.624-.68 1.859-1.382 3.173-2.108 3.944-.634-2.357-1.337-5.44-2.108-9.248-.09-.59-.238-1.417-.442-2.482-.204-1.065-.396-2.04-.578-2.924-.181-.884-.351-1.723-.51-2.516-.158-.793-.657-1.292-1.496-1.496-.838-.204-1.575-.034-2.21.51-.816.725-1.133 1.881-.952 3.468.091.544.25 1.303.476 2.278.227.975.363 1.598.408 1.87 1.542 8.205 2.924 14.325 4.148 18.36.363 1.36 1.134 2.13 2.312 2.312.544.136 1.19-.011 1.938-.442.748-.43 1.281-.94 1.598-1.53.227-.453.442-1.11.646-1.972.204-.861.397-1.496.578-1.904a93.996 93.996 0 0 0 2.244-4.964c.998-2.448 2.358-5.327 4.08-8.636 1.496-2.856 2.902-5.168 4.216-6.936.318-.408.454-.93.408-1.564-.045-.635-.226-1.11-.544-1.428-.77-.77-1.677-.816-2.72-.136zm342.584-84.078c.068-.793.102-1.383.102-1.768s.012-.895.034-1.53a14.937 14.937 0 0 0-.238-3.332c-.136-.68-.43-1.247-.884-1.7-.453-.453-.952-.68-1.496-.68s-1.065.25-1.564.748c-.498.499-.748 1.02-.748 1.564-.136 4.488-.204 6.89-.204 7.208-.09.635-.147 1.541-.17 2.72a179.568 179.568 0 0 0-.034 2.108 65.31 65.31 0 0 0-.136 2.346c-.045 1.02-.09 1.96-.136 2.822a45.537 45.537 0 0 0-.068 2.38c-.045 6.483.046 12.852.272 19.108.046.181.068.533.068 1.054s.046 1.02.136 1.496c.091.476.25.918.476 1.326.771 1.27 1.7 1.723 2.788 1.36.952-.272 1.474-1.043 1.564-2.312.046-1.133.057-2.074.034-2.822-.022-.748-.056-1.677-.102-2.788-.045-1.11-.045-2.029 0-2.754 0-.725-.056-1.813-.17-3.264-.113-1.45-.147-2.539-.102-3.264v-4.692c0-2.448.068-4.352.204-5.712.091-.77.148-1.62.17-2.55.023-.93.034-1.893.034-2.89 0-.997.023-1.859.068-2.584 0-.272.034-.805.102-1.598zM477.57 125.2c.227-.476.408-.827.544-1.054.136-.227.363-.487.68-.782.318-.295.658-.51 1.02-.646.816-.317 1.451-.272 1.904.136.544.499.658 1.133.34 1.904-.362.861-.929 1.62-1.7 2.278-.77.657-1.473.963-2.108.918-.68 0-1.122-.17-1.326-.51-.204-.34-.147-.782.17-1.326.091-.136.25-.442.476-.918zm4.998 6.732a10.67 10.67 0 0 0 4.012-4.318c.93-1.813 1.168-3.559.714-5.236-.362-1.405-1.201-2.63-2.516-3.672-1.314-1.043-2.629-1.45-3.944-1.224-2.538.363-4.442 1.315-5.712 2.856-.362.453-.838.77-1.428.952-.498.09-.94.295-1.326.612-.385.317-.68.703-.884 1.156a2.37 2.37 0 0 0-.17 1.428c.091.861.136 1.53.136 2.006 0 .476-.034 1.077-.102 1.802-.068.725-.102 1.201-.102 1.428-.09 3.899.635 6.777 2.176 8.636 1.814 2.085 4.42 3.355 7.82 3.808 1.134.181 1.972-.159 2.516-1.02.182-.408.216-.907.102-1.496a4.013 4.013 0 0 0-.646-1.564 3.327 3.327 0 0 0-.646-.612c-.249-.181-.476-.295-.68-.34a35.437 35.437 0 0 1-.85-.204 11.98 11.98 0 0 1-.748-.204c-1.586-.453-2.788-1.247-3.604-2.38-.272-.408-.34-.77-.204-1.088a.304.304 0 0 1 .204-.17c.091-.023.204 0 .34.068.136.068.227.102.272.102 1.768.181 3.525-.26 5.27-1.326zm-27.642 5.814c-.09-.09-.09-.521 0-1.292.136-2.267.25-4.783.34-7.548 0-.68.294-1.179.883-1.496 1.222-.635 2.24-.93 3.056-.884 1.132 0 2.015.363 2.649 1.088.633.725.95 1.677.95 2.856-.271 2.312-.905 4.012-1.901 5.1s-2.581 1.813-4.754 2.176c-.725.09-1.132.09-1.223 0zm7.412-15.98c-1.813-.635-3.694-.635-5.644 0a.522.522 0 0 0-.204.068c-.453.136-.68.045-.68-.272.046-.181.057-.442.034-.782-.022-.34-.034-.6-.034-.782.318-3.536.703-7.095 1.156-10.676.136-.952.34-2.017.612-3.196.046-.136.17-.487.374-1.054.204-.567.306-1.031.306-1.394-.045-.59-.294-1.11-.748-1.564-.453-.453-.974-.703-1.564-.748-1.677-.136-2.652.59-2.924 2.176-.906 5.304-1.496 9.837-1.768 13.6 0 .317-.249 3.967-.748 10.948h.068c-.317 5.712-.476 8.84-.476 9.384 0 .317-.034.963-.102 1.938-.068.975-.079 1.802-.034 2.482.046.68.159 1.337.34 1.972.318 1.27 1.043 1.995 2.176 2.176.635.136 1.179.045 1.632-.272a1.68 1.68 0 0 0 .748-1.292c0-.408.102-.737.306-.986.204-.25.386-.408.544-.476.159-.068.42-.136.782-.204.363-.068.635-.102.816-.102 0-.045.363-.136 1.088-.272 2.72-.499 4.738-1.496 6.052-2.992 3.355-3.808 4.42-7.797 3.196-11.968-.861-2.901-2.629-4.805-5.304-5.712zm-26.724 5.377c.816-1.499 1.655-2.588 2.516-3.269-.544 1.68-1.836 4.04-3.876 7.082.091-1.044.544-2.315 1.36-3.813zm12.784 15.371c-.181-1.497-.498-3.106-.952-4.83-.272-1.043-.578-2.71-.918-5-.34-2.29-.668-4.024-.986-5.203a27.217 27.217 0 0 1-.34-1.326c-.181-.749-.362-1.327-.544-1.735a5.141 5.141 0 0 0-.714-1.156 2.335 2.335 0 0 1-.51-1.293c-.09-2.04-.748-3.333-1.972-3.877-2.448-1.134-4.692-.635-6.732 1.497-2.72 2.811-4.624 6.144-5.712 9.999-.725 2.766-.838 5.101-.34 7.006.227.862.59 1.497 1.088 1.905.952.816 2.074 1.1 3.366.85 1.292-.25 2.301-.964 3.026-2.143.272-.499.975-1.542 2.108-3.129 1.134-1.587 1.95-2.902 2.448-3.945.182.453.329.93.442 1.428.114.5.204 1.032.272 1.599.068.567.148.986.238 1.258 1.134 5.351 1.836 8.753 2.108 10.204.227 1.27.703 2.358 1.428 3.265.318.362.737.6 1.258.714.522.113 1.02.045 1.496-.204.476-.25.828-.624 1.054-1.122.227-.5.295-.998.204-1.497-.498-1.905-.77-2.993-.816-3.265zm-29.641-15.24c-.09-.136-.272-.306-.544-.51a4.25 4.25 0 0 1-.647-.578c-.158-.181-.192-.408-.102-.68.046-.136.136-.295.272-.476s.261-.329.375-.442c.113-.113.26-.25.442-.408.181-.159.317-.306.408-.442.045 0 .113-.045.204-.136l4.966-4.148c.408-.408.658-.907.748-1.496.091-.59-.045-1.156-.408-1.7-.68-.952-1.474-1.224-2.38-.816-1.18.59-2.087 1.133-2.722 1.632-.363.272-.76.623-1.19 1.054l-1.259 1.258c-.408.408-.794.748-1.156 1.02-1.633 1.179-2.835 2.244-3.606 3.196-.499.635-.998 1.065-1.497 1.292v-5.576c.091-2.765.431-7.843 1.02-15.232 0-.227.024-.487.069-.782.045-.295.08-.567.102-.816.023-.25.045-.51.068-.782.023-.272.034-.544.034-.816 0-.272-.023-.544-.068-.816-.136-.816-.544-1.417-1.225-1.802-.68-.385-1.428-.329-2.244.17-.908.635-1.406 1.405-1.497 2.312-.182 2.13-.318 3.445-.408 3.944-.272 2.493-.522 5.463-.749 8.908-.136 2.312-.226 5.168-.272 8.568-.045 3.264-.068 5.19-.068 5.78 0 .136.012.329.034.578.023.25.034.465.034.646s-.011.385-.034.612c-.022.227-.068.43-.136.612a5.66 5.66 0 0 1-.238.544c-.045 0-.612.839-1.7 2.516-.409.59-.51 1.247-.307 1.972.204.725.635 1.235 1.293 1.53.657.295.964.669.918 1.122-.09.136-.124.895-.102 2.278.023 1.383.034 2.142.034 2.278 0 .045-.011.408-.034 1.088-.022.68-.034 1.11-.034 1.292 0 .181.034.51.102.986.068.476.17.873.306 1.19.227.635.601 1.122 1.123 1.462.521.34 1.009.397 1.462.17 1.361-.77 2.064-1.677 2.11-2.72.045-1.995.09-5.395.135-10.2v-2.074c0-.204.023-.521.068-.952.046-.43.125-.76.238-.986.114-.227.284-.499.51-.816.227-.317.5-.59.817-.816.544-.453.941-.68 1.19-.68.25 0 .624.25 1.123.748.77.725 1.995 2.29 3.673 4.692.273.363.953 1.326 2.041 2.89a610.31 610.31 0 0 1 2.517 3.638c.409.499.885.827 1.429.986.544.159 1.02.102 1.429-.17 1.859-1.088 2.222-2.493 1.088-4.216a131.346 131.346 0 0 0-7.755-10.88zM378.9 125.2c.226-.476.407-.827.543-1.054.136-.227.362-.487.679-.782a3.09 3.09 0 0 1 1.018-.646c.814-.317 1.448-.272 1.9.136.543.499.656 1.133.34 1.904-.362.861-.928 1.62-1.697 2.278-.77.657-1.47.963-2.104.918-.68 0-1.12-.17-1.324-.51-.204-.34-.147-.782.17-1.326.09-.136.249-.442.475-.918zm5 6.732a10.67 10.67 0 0 0 4.011-4.318c.93-1.813 1.168-3.559.714-5.236-.362-1.405-1.201-2.63-2.516-3.672-1.314-1.043-2.629-1.45-3.944-1.224-2.538.363-4.442 1.315-5.712 2.856-.362.453-.838.77-1.428.952-.498.09-.94.295-1.326.612-.385.317-.68.703-.884 1.156a2.37 2.37 0 0 0-.17 1.428c.091.861.136 1.53.136 2.006 0 .476-.034 1.077-.102 1.802-.068.725-.102 1.201-.102 1.428-.09 3.899.635 6.777 2.176 8.636 1.814 2.085 4.42 3.355 7.82 3.808 1.134.181 1.972-.159 2.516-1.02.182-.408.216-.907.102-1.496a4.013 4.013 0 0 0-.646-1.564 3.327 3.327 0 0 0-.646-.612c-.249-.181-.476-.295-.68-.34a35.437 35.437 0 0 1-.85-.204 11.98 11.98 0 0 1-.748-.204c-1.586-.453-2.788-1.247-3.604-2.38-.272-.408-.34-.77-.204-1.088a.304.304 0 0 1 .204-.17c.091-.023.204 0 .34.068.136.068.227.102.272.102 1.768.181 3.525-.26 5.27-1.326zM367 112.11a9.877 9.877 0 0 0 1.496-3.876c.136-.861-.011-1.541-.442-2.04-.43-.499-1.076-.77-1.938-.816a2.7 2.7 0 0 0-1.224.272c-.725.363-1.348 1.167-1.87 2.414-.521 1.247-.623 2.3-.306 3.162.363.952 1.179 1.519 2.448 1.7.816.136 1.428-.136 1.836-.816zm2.006 12.138c.023-1.564.034-2.505.034-2.822v-1.36c0-.59-.011-1.031-.034-1.326a39.989 39.989 0 0 0-.102-1.088 4.813 4.813 0 0 0-.272-1.19c-.317-.816-.793-1.292-1.428-1.428-.906-.227-1.609-.023-2.108.612-.544.68-.816 1.564-.816 2.652v2.924c0 1.179.012 2.187.034 3.026.023.839.023 1.802 0 2.89a38.233 38.233 0 0 1-.17 2.992c-.045.725-.113 1.87-.204 3.434-.09 1.564-.17 2.81-.238 3.74-.068.93-.215 2.051-.442 3.366a19.88 19.88 0 0 1-.952 3.604c-.861 2.403-1.836 4.216-2.924 5.44-.226.317-.6.748-1.122 1.292a34.267 34.267 0 0 0-1.36 1.496 18.37 18.37 0 0 0-1.054 1.36c-.362.635-.442 1.28-.238 1.938.204.657.624 1.1 1.258 1.326 1.36.59 2.494.272 3.4-.952.363-.453 1.009-1.156 1.938-2.108.93-.952 1.598-1.723 2.006-2.312 1.587-2.584 2.584-4.805 2.992-6.664.182-.725.374-1.723.578-2.992.204-1.27.352-2.153.442-2.652.091-.59.17-1.247.238-1.972a36.22 36.22 0 0 0 .136-1.972c.023-.59.057-1.258.102-2.006.046-.748.114-1.417.204-2.006.046-.408.034-1.009-.034-1.802-.068-.793-.079-1.371-.034-1.734.091-.907.148-2.142.17-3.706zm-32.402.952c.227-.476.408-.827.544-1.054.136-.227.363-.487.68-.782.318-.295.658-.51 1.02-.646.816-.317 1.451-.272 1.904.136.544.499.658 1.133.34 1.904-.362.861-.929 1.62-1.7 2.278-.77.657-1.473.963-2.108.918-.68 0-1.122-.17-1.326-.51-.204-.34-.147-.782.17-1.326.091-.136.25-.442.476-.918zm4.998 6.732a10.67 10.67 0 0 0 4.012-4.318c.93-1.813 1.168-3.559.714-5.236-.362-1.405-1.201-2.63-2.516-3.672-1.314-1.043-2.629-1.45-3.944-1.224-2.538.363-4.442 1.315-5.712 2.856-.362.453-.838.77-1.428.952-.498.09-.94.295-1.326.612-.385.317-.68.703-.884 1.156a2.37 2.37 0 0 0-.17 1.428c.091.861.136 1.53.136 2.006 0 .476-.034 1.077-.102 1.802-.068.725-.102 1.201-.102 1.428-.09 3.899.635 6.777 2.176 8.636 1.814 2.085 4.42 3.355 7.82 3.808 1.134.181 1.972-.159 2.516-1.02.182-.408.216-.907.102-1.496a4.013 4.013 0 0 0-.646-1.564 3.327 3.327 0 0 0-.646-.612c-.249-.181-.476-.295-.68-.34a35.437 35.437 0 0 1-.85-.204 11.98 11.98 0 0 1-.748-.204c-1.586-.453-2.788-1.247-3.604-2.38-.272-.408-.34-.77-.204-1.088a.304.304 0 0 1 .204-.17c.091-.023.204 0 .34.068.136.068.227.102.272.102 1.768.181 3.525-.26 5.27-1.326zm-18.462 1.734c-.725.227-1.382.363-1.972.408-1.178.045-2.051-.136-2.618-.544-.566-.408-.986-1.156-1.258-2.244-.181-.725-.09-2.085.272-4.08.499-2.72 1.27-4.76 2.312-6.12.182-.227.329-.351.442-.374.114-.023.306.057.578.238.091.045.227.159.408.34.182.181.34.317.476.408.136.09.295.181.476.272.182.09.386.136.612.136.227 0 .454-.068.68-.204 1.678-.77 2.108-1.972 1.292-3.604a7.977 7.977 0 0 0-1.292-1.836c-.453-.499-1.156-.884-2.108-1.156-.952-.272-1.677-.295-2.176-.068-1.949.907-3.422 2.312-4.42 4.216a24.4 24.4 0 0 0-2.788 10.812c0 2.63.748 4.805 2.244 6.528 1.27 1.45 3.14 2.29 5.61 2.516 2.471.227 4.477-.159 6.018-1.156.816-.453 1.179-.975 1.088-1.564-.317-2.63-1.609-3.604-3.876-2.924zm-29.93-.816c-.95-.725-1.992-1.088-3.124-1.088-.453 0-.884.09-1.291.272-.77.272-1.2.952-1.291 2.04-.227 2.312-.702 4.987-1.427 8.024-.272.997-.996 3.604-2.174 7.82-.272.77-.566 1.541-.883 2.312-.363 1.043-.544 1.881-.544 2.516 0 1.043.465 1.79 1.393 2.244.929.453 1.8.68 2.616.68.815 0 1.359-.272 1.63-.816 1.269-2.675 2.356-5.939 3.261-9.792.136-.499.861-3.921 2.175-10.268.452-2.176.34-3.49-.34-3.944zm-23.246-7.65c.227-.476.408-.827.544-1.054.136-.227.363-.487.68-.782.318-.295.658-.51 1.02-.646.816-.317 1.451-.272 1.904.136.544.499.658 1.133.34 1.904-.362.861-.929 1.62-1.7 2.278-.77.657-1.473.963-2.108.918-.68 0-1.122-.17-1.326-.51-.204-.34-.147-.782.17-1.326.091-.136.25-.442.476-.918zm4.998 6.732a10.67 10.67 0 0 0 4.012-4.318c.93-1.813 1.168-3.559.714-5.236-.362-1.405-1.201-2.63-2.516-3.672-1.314-1.043-2.629-1.45-3.944-1.224-2.538.363-4.442 1.315-5.712 2.856-.362.453-.838.77-1.428.952-.498.09-.94.295-1.326.612-.385.317-.68.703-.884 1.156a2.37 2.37 0 0 0-.17 1.428c.091.861.136 1.53.136 2.006 0 .476-.034 1.077-.102 1.802-.068.725-.102 1.201-.102 1.428-.09 3.899.635 6.777 2.176 8.636 1.814 2.085 4.42 3.355 7.82 3.808 1.134.181 1.972-.159 2.516-1.02.182-.408.216-.907.102-1.496a4.013 4.013 0 0 0-.646-1.564 3.327 3.327 0 0 0-.646-.612c-.249-.181-.476-.295-.68-.34a35.437 35.437 0 0 1-.85-.204 11.98 11.98 0 0 1-.748-.204c-1.586-.453-2.788-1.247-3.604-2.38-.272-.408-.34-.77-.204-1.088a.304.304 0 0 1 .204-.17c.091-.023.204 0 .34.068.136.068.227.102.272.102 1.768.181 3.525-.26 5.27-1.326zm-13.762-23.018c-.635-.136-.976-.521-1.02-1.156-.092-1.904-.114-3.219-.069-3.944.09-.68.045-1.677-.136-2.992-.09-.59-.374-1.088-.85-1.496-.477-.408-.964-.612-1.463-.612-1.315.09-2.018.861-2.109 2.312 0 .363-.011.77-.034 1.224-.023.453-.034.907-.034 1.36 0 .453-.023.861-.068 1.224-.045 1.496-.204 2.369-.476 2.618-.272.25-1.157.329-2.653.238a24.565 24.565 0 0 0-4.228.149c.324.123.598.323.824.599.408.499.635 1.213.68 2.142.046.93-.226 1.689-.816 2.278-.06.06-.12.116-.184.17.578 0 1.32-.011 2.227-.034 1.814-.045 2.97-.023 3.47.068h.34c.181 0 .294.011.34.034.045.023.102.08.17.17a.55.55 0 0 1 .102.34c0 .907-.023 2.448-.068 4.624-.046 4.896-.068 7.412-.068 7.548-.046 1.179-.068 2.63-.068 4.352 0 .816-.034 2.006-.102 3.57a136.584 136.584 0 0 0-.102 2.618c-.046.59.022 1.473.204 2.652.181 1.133.725 1.836 1.632 2.108.318 0 .545.023.68.068.137.045.33-.023.58-.204.248-.181.407-.317.475-.408.068-.09.216-.25.442-.476.545-.635.862-1.723.953-3.264 0-.317-.034-.827-.102-1.53-.068-.703-.08-1.235-.034-1.598.181-.68.26-2.267.238-4.76-.023-2.493-.011-4.103.034-4.828v-1.904c0-.725.011-1.45.034-2.176.023-.725.057-1.36.102-1.904 0-.181.023-.51.068-.986.045-.476.068-.884.068-1.224 0-.34-.045-.669-.136-.986-.09-.272-.08-.487.034-.646.113-.159.329-.193.646-.102.318.09.805.204 1.463.34.658.136 1.168.25 1.53.34.681.181 1.384.17 2.11-.034.725-.204 1.201-.51 1.428-.918.544-.997.09-2.085-1.36-3.264-.907-.725-2.472-1.292-4.694-1.7zm-13.879 4.08c-.59 0-1.122-.25-1.598-.748-.477-.499-.737-1.065-.783-1.7a2.387 2.387 0 0 1 .477-1.632c.362-.499.839-.793 1.428-.884a20.2 20.2 0 0 1 1.215-.191c-.26-.1-.552-.15-.876-.15-.861 0-1.564.352-2.108 1.055s-.793 1.553-.748 2.55c.046.59.295 1.156.748 1.7.454.544.907.816 1.36.816.856-.04 1.566-.301 2.128-.782-.579 0-.993-.011-1.243-.034zm-2.242 5.678c-.41.43-.636 1.031-.682 1.802a39.6 39.6 0 0 0-.272 3.366c-.046 1.156-.09 2.493-.136 4.012-.046 1.519-.068 2.64-.068 3.366v5.44c0 .227-.035 1.122-.103 2.686-.068 1.564-.011 2.46.17 2.686a2.32 2.32 0 0 0 1.022 1.496 2.884 2.884 0 0 0 1.84.476c1.362-.136 2.066-.93 2.111-2.38.091-1.496.114-2.63.068-3.4 0-.997.034-2.448.103-4.352.068-1.904.124-3.196.17-3.876.045-4.307.136-7.367.272-9.18 0-.408-.125-.816-.374-1.224-.25-.408-.613-.748-1.09-1.02a3.77 3.77 0 0 0-1.601-.476c-.545-.045-1.022.147-1.43.578zm-6.939-.918c-.816-.725-1.734-1.065-2.754-1.02-1.02.045-1.847.476-2.482 1.292-1.178 1.541-1.994 2.788-2.448 3.74-.136.227-.419.827-.85 1.802-.43.975-.816 1.757-1.156 2.346-.34.59-.691 1.156-1.054 1.7a28.78 28.78 0 0 1-.136-1.088c.091-1.224-.657-2.221-2.244-2.992-.77-.408-1.45-.238-2.04.51-.589.748-.884 1.53-.884 2.346-.09 1.541-.136 2.675-.136 3.4 0 .227.012.839.034 1.836.023.997.046 1.7.068 2.108.023.408.068.986.136 1.734s.17 1.417.306 2.006c.227.952.782 1.62 1.666 2.006.884.385 1.757.351 2.618-.102 1.043-.635 1.7-1.473 1.972-2.516.182-.59.42-1.224.714-1.904.295-.68.624-1.383.986-2.108.363-.725.635-1.36.816-1.904.363-.997 1.02-2.357 1.972-4.08.952-1.723 1.587-2.97 1.904-3.74.272-.544.59-.59.952-.136 1.134 1.405 1.768 2.153 1.904 2.244.408.453 1.032.714 1.87.782.839.068 1.462-.08 1.87-.442 1.088-.952 1.156-2.085.204-3.4-1.314-1.859-2.584-3.332-3.808-4.42zm-28.288 7.446c.227-.476.408-.827.544-1.054.136-.227.363-.487.68-.782.318-.295.658-.51 1.02-.646.816-.317 1.451-.272 1.904.136.544.499.658 1.133.34 1.904-.362.861-.929 1.62-1.7 2.278-.77.657-1.473.963-2.108.918-.68 0-1.122-.17-1.326-.51-.204-.34-.147-.782.17-1.326.091-.136.25-.442.476-.918zm4.998 6.732a10.67 10.67 0 0 0 4.012-4.318c.93-1.813 1.168-3.559.714-5.236-.362-1.405-1.201-2.63-2.516-3.672-1.314-1.043-2.629-1.45-3.944-1.224-2.538.363-4.442 1.315-5.712 2.856-.362.453-.838.77-1.428.952-.498.09-.94.295-1.326.612-.385.317-.68.703-.884 1.156a2.37 2.37 0 0 0-.17 1.428c.091.861.136 1.53.136 2.006 0 .476-.034 1.077-.102 1.802-.068.725-.102 1.201-.102 1.428-.09 3.899.635 6.777 2.176 8.636 1.814 2.085 4.42 3.355 7.82 3.808 1.134.181 1.972-.159 2.516-1.02.182-.408.216-.907.102-1.496a4.013 4.013 0 0 0-.646-1.564 3.327 3.327 0 0 0-.646-.612c-.249-.181-.476-.295-.68-.34a35.437 35.437 0 0 1-.85-.204 11.98 11.98 0 0 1-.748-.204c-1.586-.453-2.788-1.247-3.604-2.38-.272-.408-.34-.77-.204-1.088a.304.304 0 0 1 .204-.17c.091-.023.204 0 .34.068.136.068.227.102.272.102 1.768.181 3.525-.26 5.27-1.326zm-14.45-14.11c-.77.499-1.36 1.02-1.768 1.564-1.722 2.403-2.924 4.33-3.604 5.78a239.94 239.94 0 0 1-1.836 3.468c-1.042 1.95-1.768 3.49-2.176 4.624-.68 1.859-1.382 3.173-2.108 3.944-.634-2.357-1.337-5.44-2.108-9.248-.09-.59-.238-1.417-.442-2.482-.204-1.065-.396-2.04-.578-2.924-.181-.884-.351-1.723-.51-2.516-.158-.793-.657-1.292-1.496-1.496-.838-.204-1.575-.034-2.21.51-.816.725-1.133 1.881-.952 3.468.091.544.25 1.303.476 2.278.227.975.363 1.598.408 1.87 1.542 8.205 2.924 14.325 4.148 18.36.363 1.36 1.134 2.13 2.312 2.312.544.136 1.19-.011 1.938-.442.748-.43 1.281-.94 1.598-1.53.227-.453.442-1.11.646-1.972.204-.861.397-1.496.578-1.904a93.996 93.996 0 0 0 2.244-4.964c.998-2.448 2.358-5.327 4.08-8.636 1.496-2.856 2.902-5.168 4.216-6.936.318-.408.454-.93.408-1.564-.045-.635-.226-1.11-.544-1.428-.77-.77-1.677-.816-2.72-.136zm-30.396 7.378c.227-.476.408-.827.544-1.054.136-.227.363-.487.68-.782.318-.295.658-.51 1.02-.646.816-.317 1.451-.272 1.904.136.544.499.658 1.133.34 1.904-.362.861-.929 1.62-1.7 2.278-.77.657-1.473.963-2.108.918-.68 0-1.122-.17-1.326-.51-.204-.34-.147-.782.17-1.326.091-.136.25-.442.476-.918zm4.998 6.732a10.67 10.67 0 0 0 4.012-4.318c.93-1.813 1.168-3.559.714-5.236-.362-1.405-1.201-2.63-2.516-3.672-1.314-1.043-2.629-1.45-3.944-1.224-2.538.363-4.442 1.315-5.712 2.856-.362.453-.838.77-1.428.952-.498.09-.94.295-1.326.612-.385.317-.68.703-.884 1.156a2.37 2.37 0 0 0-.17 1.428c.091.861.136 1.53.136 2.006 0 .476-.034 1.077-.102 1.802-.068.725-.102 1.201-.102 1.428-.09 3.899.635 6.777 2.176 8.636 1.814 2.085 4.42 3.355 7.82 3.808 1.134.181 1.972-.159 2.516-1.02.182-.408.216-.907.102-1.496a4.013 4.013 0 0 0-.646-1.564 3.327 3.327 0 0 0-.646-.612c-.249-.181-.476-.295-.68-.34a35.437 35.437 0 0 1-.85-.204 11.98 11.98 0 0 1-.748-.204c-1.586-.453-2.788-1.247-3.604-2.38-.272-.408-.34-.77-.204-1.088a.304.304 0 0 1 .204-.17c.091-.023.204 0 .34.068.136.068.227.102.272.102 1.768.181 3.525-.26 5.27-1.326zm-16.898-14.178c-.816-.725-1.734-1.065-2.754-1.02-1.02.045-1.847.476-2.482 1.292-1.178 1.541-1.994 2.788-2.448 3.74-.136.227-.419.827-.85 1.802-.43.975-.816 1.757-1.156 2.346-.34.59-.691 1.156-1.054 1.7a28.78 28.78 0 0 1-.136-1.088c.091-1.224-.657-2.221-2.244-2.992-.77-.408-1.45-.238-2.04.51-.589.748-.884 1.53-.884 2.346-.09 1.541-.136 2.675-.136 3.4 0 .227.012.839.034 1.836.023.997.046 1.7.068 2.108.023.408.068.986.136 1.734s.17 1.417.306 2.006c.227.952.782 1.62 1.666 2.006.884.385 1.757.351 2.618-.102 1.043-.635 1.7-1.473 1.972-2.516.182-.59.42-1.224.714-1.904.295-.68.624-1.383.986-2.108.363-.725.635-1.36.816-1.904.363-.997 1.02-2.357 1.972-4.08.952-1.723 1.587-2.97 1.904-3.74.272-.544.59-.59.952-.136 1.134 1.405 1.768 2.153 1.904 2.244.408.453 1.032.714 1.87.782.839.068 1.462-.08 1.87-.442 1.088-.952 1.156-2.085.204-3.4-1.314-1.859-2.584-3.332-3.808-4.42zm-27.132 14.756v-7.276c0-.136.023-.442.068-.918.046-.476.068-.827.068-1.054-.181-1.224.272-2.244 1.36-3.06.544-.272.884-.351 1.02-.238.136.113.272.374.408.782.499 1.632.612 3.241.34 4.828-.498 3.173-1.586 5.485-3.264 6.936zm1.496-17.952c-.498.136-.748-.023-.748-.476.046-.227.08-.646.102-1.258.023-.612.057-1.122.102-1.53.046-.408.136-.816.272-1.224.318-1.043.408-2.221.272-3.536a2.247 2.247 0 0 0-.612-1.394 1.974 1.974 0 0 0-1.292-.646 2.762 2.762 0 0 0-2.21.544c-.657.499-1.008 1.156-1.054 1.972-.589 5.893-.974 9.883-1.156 11.968 0 .09-.102.657-.306 1.7-.204 1.043-.238 1.836-.102 2.38.136.544.182 1.337.136 2.38-.136 5.35-.158 8.75-.068 10.2.046.907-.068 1.655-.34 2.244-.272.59-.838 1.02-1.7 1.292-.77.272-1.212.77-1.326 1.496-.113.725.102 1.383.646 1.972.59.635 1.315.997 2.176 1.088.408.045.59.295.544.748 0 1.45.091 4.783.272 9.996-.045 1.587.295 2.788 1.02 3.604.816.952 1.7 1.27 2.652.952.408-.136.782-.487 1.122-1.054.34-.567.488-1.1.442-1.598a61.963 61.963 0 0 1-.272-4.284c-.045-1.496-.079-3.207-.102-5.134-.022-1.927-.056-3.343-.102-4.25 0-.09-.011-.306-.034-.646-.022-.34-.034-.59-.034-.748 0-.159.046-.374.136-.646.091-.272.227-.499.408-.68.182-.181.476-.487.884-.918.408-.43.726-.76.952-.986 1.632-1.768 2.947-3.434 3.944-4.998a15.748 15.748 0 0 0 2.108-5.134c.771-3.899.499-7.253-.816-10.064-1.36-2.947-3.332-4.057-5.916-3.332z"/></g><g><g/><g clip-path="url(#3e9qa)"><path fill="#fefefe" d="M329.665 100.266c.193.137.303.344.33.618a.77.77 0 0 1-.247.677c-.796.764-1.648 1.765-2.555 3.001-1.043 1.433-1.867 2.679-2.47 3.737a36.527 36.527 0 0 1-1.36 2.15c-.11.175-.227.45-.35.822-.124.374-.255.658-.392.855-.192.253-.514.475-.968.662-.454.186-.844.25-1.174.19-.715-.078-1.182-.411-1.4-1-.741-1.746-1.58-4.394-2.514-7.945a12.613 12.613 0 0 0-.247-.81c-.137-.422-.234-.75-.288-.986-.11-.686.082-1.186.577-1.5.384-.236.83-.31 1.339-.22.507.088.809.303.906.647.096.342.198.705.31 1.089.108.382.226.804.35 1.264.123.462.211.82.267 1.075.465 1.648.891 2.983 1.276 4.002.44-.334.866-.902 1.277-1.707.248-.49.687-1.157 1.319-2.002.631-.842 1.002-1.343 1.112-1.5.412-.627 1.139-1.461 2.183-2.501.247-.236.604-.461 1.072-.677.631-.294 1.18-.275 1.647.059"/></g></g><g><g/><g clip-path="url(#3e9qb)"><path fill="#fefefe" d="M243.665 175.266c.193.137.303.344.33.618a.77.77 0 0 1-.247.677c-.796.764-1.648 1.765-2.555 3.001-1.043 1.433-1.867 2.679-2.47 3.737a36.527 36.527 0 0 1-1.36 2.15c-.11.175-.227.45-.35.822-.125.374-.255.658-.392.855-.192.253-.514.475-.968.662-.454.186-.845.25-1.174.19-.715-.078-1.182-.411-1.4-1-.741-1.746-1.58-4.394-2.514-7.945a12.613 12.613 0 0 0-.247-.81c-.137-.422-.234-.75-.288-.986-.11-.686.082-1.186.577-1.5.384-.236.83-.31 1.339-.22.507.088.809.303.906.647.096.342.198.705.31 1.089.108.382.226.804.35 1.264.123.462.211.82.267 1.075.465 1.648.891 2.983 1.276 4.002.44-.334.866-.902 1.277-1.707.248-.49.687-1.157 1.319-2.002.631-.842 1.002-1.343 1.112-1.5.412-.627 1.139-1.461 2.183-2.501.247-.236.604-.461 1.072-.677.631-.294 1.18-.275 1.647.059"/></g></g></g></g></g></svg>