<svg xmlns="http://www.w3.org/2000/svg" width="281" height="274" viewBox="0 0 281 274"><g><g clip-path="url(#clip-17084BCF-2DBB-3B10-1C7D-34043F76129B)"><path fill="#231f20" d="M203.637 36.952c40.764 24.821 61.406 60.084 61.647 106.8-1.121 7.87-3.576 15.636-6.354 23.583-.285 1.011-1.074 1.88-1.217 2.387-.467.687-.426 1.515-.892 2.204-7.171 9.987-15.677 19.873-24.73 28.786-8.808 7.073-17.836 12.993-27.734 18.122-6.335 3.13-12.994 6.441-19.693 8.924 5.14-3.739 10.285-7.476 15.063-11.86 3.38-2.325 6.58-4.973 9.273-7.76 7.189-6.165 14.012-12.978 20.837-19.789 6.5-6.63 12.637-13.907 18.087-21.652-.363-.648-.545-.97-.91-1.619 0 0-.505-.143-.687-.467-5.244 5.073-10.67 9.824-15.773 14.392 2.046-2.427 4.052-5.683 5.915-8.432 4.053-5.68 7.235-12.152 9.406-18.907-.364-.649-.727-1.297-.766-2.125.14-.506.14-.506-.042-.83-1.01-.283-1.516-.426-2.346-.386-1.62.908-3.743 1.675-6.05 2.118l-.972.546c-22.794 34.513-52.437 61.374-88.103 80.54-7.31 3.675-14.575 8.18-21.842 12.685-6.477 3.636-6.32 6.954.982 10.096 14.924 6.104 30.458 11.015 46.56 13.902 8.556 1.587 16.283 3.212 24.657 4.474 6.716 1.342 13.352 1.024 19.444-.265 1.113-1.05 1.76-1.413 2.733-1.958l1.619-.909c-.403-1.479-.16-3.32-.056-4.655-.364-.648-1.233-1.436-2.243-1.722-2.853-.529-5.524-.733-7.87-1.119l5.949-.784c.83-.04 1.476-.404 1.982-.26.143-.507.104-1.336.426-1.517l-.363-.648c-1.517-.427-3.358-.672-5.522-.735 4.472-.38 8.438-.902 12.907-1.282 1.66-.079 2.956-.807 3.888-2.182l.143-.506-.728-1.295-1.012-.283c-7.568 1.692-15.357 2.231-23.227 1.111-5.522-.735-11.044-1.467-16.566-2.2 6.232-1.795 11.778-4.057 17.284-7.148 13.784-7.31 25.83-16.2 36.785-27.035l-.181-.322c15.41-15.039 26.476-34.026 32.688-57.104 2.556-9.102 4.103-18.489 4.82-27.834-.531-14.608-3.048-28.955-8.194-42.677C257.18 47.361 227.769 20 184.567 6.77 141.039-6.28 100.916-.37 63.324 23.71c-8.525 6.061-16.683 12.77-24.48 20.128C10.575 71.63-2.12 105.162.289 145.121c2.957 40.931 20.306 73.36 52.047 97.281 9.806 6.848 20.465 10.662 32.116 10.936l-6.122-6.359 13.937 2.826-2.363-4.21 7.386-2.016c-4.71-4.598-9.886-8.508-16.176-11.366-11.425-5.939-22.282-13.899-32.571-23.883l.649-.364c.467-.688.75-1.698.71-2.529-20.776-24.114-31.431-52.206-31.14-84.313.213-9.489 2.265-18.733 6.34-27.408l-.244 1.84 1.09 1.944 1.699.75 13.78-24.77c-1.217 2.385-2.612 4.448-3.505 6.652-.711 2.528-1.603 4.732-2.313 7.26-.467.69-.893 2.205-.853 3.035-.103 1.335-.387 2.346.017 3.824C40.164 81.854 46.79 70.894 55.296 61.01c1.256-1.556 2.512-3.113 4.092-4.85 6.864-5.982 13.769-11.137 21.178-16.145 40.61-27.053 81.659-27.52 123.07-3.062"/></g></g></svg>